<?xml version="1.0" encoding="utf-8"?>
<!-- Generator: Adobe Illustrator 23.1.0, SVG Export Plug-In . SVG Version: 6.00 Build 0)  -->
<svg version="1.1" id="Layer_1" xmlns="http://www.w3.org/2000/svg" xmlns:xlink="http://www.w3.org/1999/xlink" x="0px" y="0px"
	 viewBox="0 0 1200 1200" enable-background="new 0 0 1200 1200" xml:space="preserve">
<g>
	<path fill="#C1B6AC" d="M972.277,111.457c8.948,14.905,14.189,32.29,14.189,50.941v852.735c0,54.806-44.43,99.236-99.238,99.236
		H293.495c-17.598,0-34.099-4.628-48.429-12.663c17.345,28.895,48.891,48.294,85.046,48.294h593.734
		c54.805,0,99.236-44.429,99.236-99.236V198.029C1023.082,160.823,1002.575,128.445,972.277,111.457z"/>
	<path fill="#D1C8BF" d="M887.229,1114.369c54.807,0,99.238-44.429,99.238-99.236V162.398c0-18.651-5.241-36.036-14.189-50.941
		c-12.211-20.338-31.428-35.955-54.391-43.413C900.966,56.688,880.497,50,858.434,50H281.948
		c-57.914,0-105.03,45.847-105.03,102.195v833.879c0,24.764,9.112,47.491,24.23,65.198c8.406,21.46,24.015,39.276,43.919,50.434
		c14.33,8.035,30.831,12.663,48.429,12.663H887.229z M192.21,986.074V152.195c0-48.144,40.255-87.314,89.737-87.314h576.486
		c49.475,0,89.728,39.17,89.728,87.314v833.879c0,48.144-40.253,87.314-89.728,87.314H281.948
		C232.465,1073.388,192.21,1034.217,192.21,986.074z"/>
	<path fill="#FFF6EB" d="M281.948,1073.388h576.486c49.475,0,89.728-39.171,89.728-87.314V152.195
		c0-48.144-40.253-87.314-89.728-87.314H281.948c-49.483,0-89.737,39.17-89.737,87.314v833.879
		C192.21,1034.217,232.465,1073.388,281.948,1073.388z M513.839,379.785c-4.168,10.129-7.64,95.234-7.64,174.927
		c0,183.704-0.694,205.996-6.241,220.854c-9.723,26.339-18.047,25.664-31.928-2.027c-6.251-12.156-9.028-29.718,2.083-73.618
		c1.389-5.406,3.472-23.636,4.853-50.658c-68.015,44.576-104.804,71.591-118.685,85.774c-13.881,12.839-31.226,8.109-54.136-14.851
		c-19.436-19.589-15.27-27.022,5.557-25.671c13.879,0.676,81.202-16.886,167.958-62.807c1.389-33.772,2.083-79.024,1.389-128.323
		c-12.491,5.398-29.151,11.48-46.504,16.879c-53.44,16.886-60.383,16.886-81.202,6.082c-19.436-10.129-18.047-17.562,0.694-20.941
		c12.492-2.02,70.794-18.23,89.536-24.987c10.409-3.379,22.206-4.73,36.781-0.676c-0.694-17.562-1.389-34.44-2.77-52.002
		c-2.083-29.717-9.723-67.536-21.519-83.747c-13.881-19.589-3.472-28.366,25.677-14.183
		C520.08,351.418,521.469,361.547,513.839,379.785z M834.495,741.794c-40.949,24.311-90.23,29.042-127.011,26.339
		c-90.924-7.426-117.298-44.576-111.055-185.731c1.389-30.393,2.777-158.716,2.777-181.676c0-81.727-5.555-99.281-15.27-112.789
		c-7.63-10.136-0.694-27.022,18.047-17.562c52.051,25.664,56.913,34.441,41.643,68.888c-6.249,14.183-15.964,126.972-18.743,195.184
		c24.992-14.859,54.143-39.171,74.96-60.104c9.723-9.46,22.909-27.69,24.298-38.502c2.075-14.859,15.964-14.183,45.809,4.73
		c29.149,18.237,27.76,27.015,6.936,32.421c-11.104,2.696-27.76,12.832-36.781,17.554c-51.366,30.394-85.375,47.955-115.223,61.463
		c-2.081,156.013,2.779,168.845,89.536,168.845c69.413,0,89.536-18.906,105.5-91.848c6.943-32.421,13.881-29.042,15.27,2.703
		c0.694,20.933,11.104,65.51,14.575,71.591C858.792,719.509,853.931,729.638,834.495,741.794z"/>
	<path fill="#1B669E" d="M835.19,631.708c-1.389-31.745-8.326-35.123-15.27-2.703c-15.964,72.942-36.087,91.848-105.5,91.848
		c-86.757,0-91.617-12.832-89.536-168.845c29.847-13.507,63.857-31.069,115.223-61.463c9.021-4.722,25.677-14.858,36.781-17.554
		c20.825-5.406,22.213-14.183-6.936-32.421c-29.845-18.913-43.734-19.589-45.809-4.73c-1.389,10.811-14.575,29.042-24.298,38.502
		c-20.817,20.933-49.968,45.245-74.96,60.104c2.779-68.212,12.494-181.001,18.743-195.184c15.27-34.447,10.408-43.225-41.643-68.888
		c-18.742-9.46-25.677,7.426-18.047,17.562c9.715,13.507,15.27,31.061,15.27,112.789c0,22.96-1.389,151.283-2.777,181.676
		c-6.243,141.155,20.13,178.305,111.055,185.731c36.781,2.703,86.062-2.027,127.011-26.339
		c19.436-12.156,24.296-22.285,15.27-38.495C846.293,697.218,835.884,652.641,835.19,631.708z"/>
	<path fill="#1B669E" d="M477.743,329.81c-29.149-14.183-39.558-5.406-25.677,14.183c11.796,16.21,19.436,54.029,21.519,83.747
		c1.381,17.562,2.075,34.441,2.77,52.002c-14.575-4.054-26.372-2.703-36.781,0.676c-18.742,6.757-77.043,22.967-89.536,24.987
		c-18.742,3.378-20.13,10.812-0.694,20.941c20.819,10.804,27.762,10.804,81.202-6.082c17.353-5.399,34.013-11.48,46.504-16.879
		c0.694,49.299,0,94.551-1.389,128.323c-86.757,45.921-154.079,63.482-167.958,62.807c-20.826-1.351-24.992,6.082-5.557,25.671
		c22.909,22.96,40.255,27.69,54.136,14.851c13.881-14.183,50.67-41.198,118.685-85.774c-1.381,27.022-3.464,45.252-4.853,50.658
		c-11.111,43.9-8.334,61.463-2.083,73.618c13.881,27.69,22.206,28.366,31.928,2.027c5.547-14.858,6.241-37.15,6.241-220.854
		c0-79.692,3.472-164.798,7.64-174.927C521.469,361.547,520.08,351.418,477.743,329.81z"/>
</g>
</svg>
