<?xml version="1.0" encoding="utf-8"?>
<!-- Generator: Adobe Illustrator 23.1.0, SVG Export Plug-In . SVG Version: 6.00 Build 0)  -->
<svg version="1.1" id="Layer_1" xmlns="http://www.w3.org/2000/svg" xmlns:xlink="http://www.w3.org/1999/xlink" x="0px" y="0px"
	 viewBox="0 0 1200 1200" enable-background="new 0 0 1200 1200" xml:space="preserve">
<g>
	<path fill="#C1B6AC" d="M972.276,111.455c8.948,14.906,14.189,32.291,14.189,50.941v852.737c0,54.807-44.43,99.236-99.236,99.236
		H293.494c-17.6,0-34.099-4.628-48.431-12.663c17.345,28.895,48.891,48.294,85.047,48.294h593.735
		c54.807,0,99.236-44.429,99.236-99.236V198.027C1023.081,160.82,1002.574,128.442,972.276,111.455z"/>
	<path fill="#D1C8BF" d="M887.23,1114.369c54.805,0,99.236-44.429,99.236-99.236V162.396c0-18.651-5.241-36.036-14.189-50.941
		c-12.211-20.339-31.43-35.958-54.395-43.415C900.961,56.686,880.492,50,858.431,50H281.943
		c-57.91,0-105.025,45.848-105.025,102.195v833.874c0,24.766,9.11,47.493,24.226,65.201c8.406,21.461,24.015,39.277,43.919,50.436
		c14.332,8.035,30.831,12.663,48.431,12.663H887.23z M192.21,986.068V152.195c0-48.144,40.255-87.315,89.734-87.315h576.487
		c49.479,0,89.734,39.171,89.734,87.315v833.874c0,48.151-40.255,87.322-89.734,87.322H281.943
		C232.464,1073.39,192.21,1034.22,192.21,986.068z"/>
	<path fill="#FFF6EB" d="M281.943,1073.39h576.487c49.479,0,89.734-39.17,89.734-87.322V152.195
		c0-48.144-40.255-87.315-89.734-87.315H281.943c-49.479,0-89.734,39.171-89.734,87.315v833.874
		C192.21,1034.22,232.464,1073.39,281.943,1073.39z M394.718,594.755c18.892,0,62.133-2.419,100.4-6.292
		c-7.952-20.308-14.41-29.5-20.876-33.852c-8.446-5.319-4.474-14.51,12.424-12.091c25.85,3.866,30.323,7.738,30.323,18.375
		c0,7.259,0,16.93,0.993,25.148c34.788-4.832,60.632-7.738,81.008-10.151c7.459-24.181,7.459-37.725,4.48-45.463
		c-4.973-13.057,1.488-16.443,18.884-7.738c24.35,12.091,26.836,19.829,17.891,29.987c-5.467,6.285-8.446,10.637-12.426,19.342
		c16.406-2.42,29.322-4.832,42.741-7.738c26.843-4.839,38.274-3.865,49.707,5.318c15.903,12.578,12.917,22.248-10.938,19.349
		c-16.898-1.933-57.653-1.453-90.455,0.479c-7.952,14.03-22.364,31.919-29.823,38.212c-9.94,9.671-13.419,7.738-8.947-2.42
		c5.467-12.577,9.94-23.701,13.419-33.372c-18.884,1.933-46.721,4.839-73.557,8.704c4.472,22.735,3.98,29.507,0.993,35.305
		c-3.479,7.259-10.438,6.292-14.41-9.671c-2.486-8.218-4.474-16.443-6.468-22.728c-32.301,3.386-61.623,8.218-72.562,10.637
		c-12.919,3.386-21.371,1.933-41.248-8.705C377.822,601.04,378.815,594.755,394.718,594.755z M732.692,790.622
		c-5.465,4.839-7.952,12.091-8.452,21.769c-4.472,71.09-10.931,92.372-33.302,112.201c-10.432,9.671-13.912,9.191-20.87-2.42
		c-8.452-14.503-21.371-28.047-35.788-39.17c-7.954-6.772-6.46-9.671,1.491-7.738c39.762,10.637,43.742,9.184,47.714-6.772
		c7.954-32.406,9.447-48.362,7.954-70.61c-0.993-12.578-8.947-17.896-39.262-15.477c-29.823,1.933-63.617,4.832-100.898,8.705
		l-0.993,38.204l44.232-8.218c-1.986-3.386-3.972-7.738-5.958-11.124c-4.472-9.191-0.5-12.091,10.43-6.772
		c30.815,15.477,39.269,30.953,35.788,43.53c-3.98,14.51-13.917,16.922-20.876,7.252c-3.479-5.319-8.945-13.544-14.412-22.728
		c-35.288,8.705-81.508,21.761-100.4,29.5c-10.43,4.352-14.91,3.866-29.815-8.225c-11.931-10.15-9.945-14.989,3.479-14.023
		c8.947,0.966,35.782-1.453,57.653-4.839l0.493-40.137c-26.336,2.899-54.665,6.772-98.907,12.57
		c5.473,36.279,8.452,86.094,5.473,102.537c-1.994,12.091-9.445,14.51-14.419,8.218c-7.952-9.184-9.938-17.409-9.437-28.533
		c1.986-33.372-4.472-78.348-14.91-93.345c-5.968-9.184-1.493-15.477,26.343-3.866c39.26-5.319,73.557-9.191,105.858-13.544
		l0.5-29.02c-13.919,1.94-27.836,3.386-39.262,5.326c-1.001,2.899-4.48,4.832-6.959,4.832c-5.966,0-8.454-4.352-15.905-29.986
		c-10.438-39.171-20.376-59.966-27.336-66.258c-9.945-8.705-6.466-15.477,20.378-10.158c46.22-3.865,138.167-17.409,151.093-21.761
		c10.438-3.386,18.39-2.899,32.802,5.318c24.85,14.031,24.85,20.316,16.898,26.601c-6.961,5.805-10.933,12.09-16.898,27.087
		c-14.91,34.818-20.378,45.943-27.336,54.647c-6.458,8.712-13.419,8.225-14.91,1.453c-0.995-3.865-2.981-4.352-15.405-3.386
		c-10.44,0.966-22.864,1.933-35.79,3.386l-0.993,29.5c30.817-3.386,61.633-6.285,94.927-9.671
		c18.392-2.419,26.844-3.866,34.795-6.772c6.959-2.419,13.919-2.899,33.796,7.259C738.652,777.565,738.652,784.824,732.692,790.622z
		 M757.542,238.943c-8.452,8.217-13.917,19.829-18.392,43.522c-19.383,107.856-37.274,156.704-53.177,171.215
		c-16.898,16.443-23.364,13.057-26.343-3.386c-8.446-46.429-9.447-48.849-34.297-51.268c-14.91-1.453-95.426,3.386-128.229,8.704
		c-31.308,4.839-45.225,5.318-66.103,1.453c-0.993,15.956-5.465,19.342-8.947,19.342c-5.465,0-12.424-9.184-14.91-39.17
		c-7.451-86.574-9.439-96.731-18.392-129.617c-3.472-14.023-9.437-29.5-14.41-36.272c-8.444-10.637-3.479-13.057,10.938-10.637
		c11.926,1.933,17.891,2.899,21.371,5.319c51.193-5.319,109.337-11.124,152.579-14.51c73.064-5.805,116.804-10.157,128.729-13.057
		c26.842-6.292,29.322-6.292,51.693,9.184C770.46,220.56,770.961,225.399,757.542,238.943z"/>
	<path fill="#FFF6EB" d="M589.052,693.411c-7.954,3.873-21.371,7.259-34.788,9.678l-0.993,26.113
		c33.795-4.839,42.239-4.839,44.725-3.386c1.994,1.453,4.973,0,7.459-6.772c8.947-26.6,11.926-40.623,14.412-56.587
		c1.493-9.184-2.486-12.091-12.924-12.57c-7.954-0.487-29.322,0.48-53.181,3.386c0.993,8.218,0.993,18.375,0.993,29.979
		c18.892-6.285,27.336-5.798,35.29-1.446C597.997,685.194,597.504,689.546,589.052,693.411z"/>
	<path fill="#FFF6EB" d="M502.571,693.898c8.945-0.966,19.383-2.899,29.322-4.839c-0.993-16.922-2.481-24.661-4.474-30.953
		c-19.375,3.386-36.281,5.805-51.686,7.738c4.975,20.795,6.961,29.02,15.905,73.517c15.405-2.42,28.329-4.839,39.762-6.292
		l0.493-27.567c-14.412,0.487-26.336,0-29.817-1.933C494.618,698.73,495.118,694.865,502.571,693.898z"/>
	<path fill="#FFF6EB" d="M674.54,214.762c-11.931-0.487-50.693,1.446-96.42,4.832c35.29,14.51,36.775,19.829,30.315,31.919
		c-6.959,12.577-8.945,35.792-5.966,51.755c1.495,8.217,9.447,10.637,29.824,7.738c25.841-3.386,33.795-3.386,42.739,3.865
		c10.94,9.191,11.933,16.93-16.396,20.315c-58.646,6.772-85.982,2.42-81.51-54.167c2.481-34.826,1.986-51.268-6.466-60.939
		c-21.371,1.453-44.725,2.899-66.596,4.839c24.85,18.375,25.843,25.627,22.362,31.919c-5.958,10.15-7.451,15.956-13.417,37.724
		c-8.444,30.466-32.802,55.134-51.686,64.318c-18.892,8.712-21.378,5.805-7.459-6.765c10.938-10.644,27.836-32.893,34.795-55.621
		c6.951-22.735,9.437-55.134,3.479-70.61c-30.815,1.933-59.645,5.318-78.037,7.251c5.966,28.533,16.898,135.423,17.399,163.469
		c52.186-3.386,105.365-12.091,166.496-19.829c32.802-4.352,40.755-2.419,57.159,16.443c12.426,14.03,16.898,14.03,21.371,1.94
		c14.912-39.665,25.35-88.027,28.829-150.412C706.841,219.594,702.369,215.728,674.54,214.762z"/>
	<path fill="#1B669E" d="M739.652,199.765c-22.371-15.476-24.852-15.476-51.693-9.184c-11.926,2.899-55.665,7.251-128.729,13.057
		c-43.241,3.386-101.385,9.191-152.579,14.51c-3.479-2.42-9.445-3.386-21.371-5.319c-14.418-2.42-19.383,0-10.938,10.637
		c4.973,6.772,10.938,22.248,14.41,36.272c8.952,32.885,10.94,43.043,18.392,129.617c2.486,29.986,9.445,39.17,14.91,39.17
		c3.481,0,7.954-3.386,8.947-19.342c20.878,3.866,34.795,3.386,66.103-1.453c32.803-5.319,113.319-10.158,128.229-8.704
		c24.85,2.419,25.85,4.839,34.297,51.268c2.979,16.443,9.445,19.829,26.343,3.386c15.903-14.51,33.795-63.359,53.177-171.215
		c4.474-23.694,9.94-35.305,18.392-43.522C770.961,225.399,770.46,220.56,739.652,199.765z M705.356,244.748
		c-3.479,62.385-13.917,110.747-28.829,150.412c-4.472,12.091-8.945,12.091-21.371-1.94c-16.404-18.862-24.357-20.795-57.159-16.443
		c-61.131,7.738-114.31,16.443-166.496,19.829c-0.5-28.046-11.433-134.936-17.399-163.469c18.392-1.933,47.221-5.318,78.037-7.251
		c5.958,15.476,3.472,47.875-3.479,70.61c-6.959,22.728-23.857,44.976-34.795,55.621c-13.919,12.57-11.433,15.477,7.459,6.765
		c18.884-9.184,43.241-33.852,51.686-64.318c5.966-21.769,7.459-27.574,13.417-37.724c3.481-6.292,2.488-13.544-22.362-31.919
		c21.871-1.94,45.226-3.386,66.596-4.839c8.452,9.671,8.947,26.113,6.466,60.939c-4.472,56.587,22.864,60.94,81.51,54.167
		c28.329-3.386,27.336-11.124,16.396-20.315c-8.945-7.252-16.898-7.252-42.739-3.865c-20.378,2.899-28.329,0.479-29.824-7.738
		c-2.979-15.963-0.993-39.178,5.966-51.755c6.46-12.091,4.975-17.409-30.315-31.919c45.728-3.386,84.489-5.319,96.42-4.832
		C702.369,215.728,706.841,219.594,705.356,244.748z"/>
	<path fill="#CC403A" d="M427.521,614.097c10.938-2.419,40.26-7.251,72.562-10.637c1.994,6.285,3.982,14.51,6.468,22.728
		c3.972,15.963,10.931,16.93,14.41,9.671c2.987-5.798,3.479-12.57-0.993-35.305c26.836-3.865,54.672-6.772,73.557-8.704
		c-3.479,9.671-7.952,20.795-13.419,33.372c-4.472,10.158-0.993,12.091,8.947,2.42c7.459-6.292,21.871-24.181,29.823-38.212
		c32.802-1.933,73.557-2.412,90.455-0.479c23.855,2.899,26.842-6.772,10.938-19.349c-11.433-9.184-22.864-10.157-49.707-5.318
		c-13.419,2.906-26.336,5.318-42.741,7.738c3.98-8.705,6.959-13.057,12.426-19.342c8.945-10.158,6.458-17.896-17.891-29.987
		c-17.397-8.705-23.857-5.319-18.884,7.738c2.979,7.738,2.979,21.282-4.48,45.463c-20.376,2.413-46.22,5.319-81.008,10.151
		c-0.993-8.218-0.993-17.889-0.993-25.148c0-10.637-4.472-14.51-30.323-18.375c-16.898-2.42-20.87,6.772-12.424,12.091
		c6.466,4.352,12.924,13.543,20.876,33.852c-38.267,3.873-81.508,6.292-100.4,6.292c-15.903,0-16.896,6.285-8.444,10.637
		C406.151,616.029,414.603,617.483,427.521,614.097z"/>
	<path fill="#CC403A" d="M715.295,765.962c-19.877-10.158-26.838-9.678-33.796-7.259c-7.952,2.906-16.404,4.352-34.795,6.772
		c-33.294,3.386-64.11,6.285-94.927,9.671l0.993-29.5c12.926-1.453,25.35-2.419,35.79-3.386c12.424-0.966,14.41-0.479,15.405,3.386
		c1.491,6.772,8.452,7.259,14.91-1.453c6.959-8.705,12.426-19.829,27.336-54.647c5.966-14.997,9.938-21.282,16.898-27.087
		c7.952-6.285,7.952-12.57-16.898-26.601c-14.412-8.217-22.364-8.704-32.802-5.318c-12.926,4.352-104.872,17.896-151.093,21.761
		c-26.844-5.319-30.323,1.453-20.378,10.158c6.961,6.292,16.898,27.087,27.336,66.258c7.451,25.634,9.94,29.986,15.905,29.986
		c2.479,0,5.958-1.933,6.959-4.832c11.425-1.94,25.343-3.386,39.262-5.326l-0.5,29.02c-32.301,4.352-66.598,8.225-105.858,13.544
		c-27.836-11.611-32.311-5.319-26.343,3.866c10.438,14.997,16.896,59.973,14.91,93.345c-0.5,11.124,1.486,19.349,9.437,28.533
		c4.975,6.292,12.426,3.873,14.419-8.218c2.979-16.443,0-66.258-5.473-102.537c44.242-5.798,72.571-9.671,98.907-12.57
		l-0.493,40.137c-21.871,3.386-48.707,5.806-57.653,4.839c-13.425-0.966-15.411,3.873-3.479,14.023
		c14.905,12.091,19.385,12.578,29.815,8.225c18.892-7.738,65.112-20.795,100.4-29.5c5.467,9.184,10.933,17.409,14.412,22.728
		c6.959,9.671,16.896,7.259,20.876-7.252c3.481-12.577-4.973-28.053-35.788-43.53c-10.931-5.318-14.903-2.419-10.43,6.772
		c1.986,3.386,3.972,7.738,5.958,11.124l-44.232,8.218l0.993-38.204c37.281-3.873,71.076-6.772,100.898-8.705
		c30.315-2.419,38.269,2.899,39.262,15.477c1.493,22.248,0,38.204-7.954,70.61c-3.972,15.956-7.952,17.409-47.714,6.772
		c-7.952-1.933-9.445,0.966-1.491,7.738c14.418,11.124,27.336,24.668,35.788,39.17c6.959,11.611,10.438,12.091,20.87,2.42
		c22.371-19.829,28.83-41.111,33.302-112.201c0.5-9.678,2.987-16.93,8.452-21.769C738.652,784.824,738.652,777.565,715.295,765.962z
		 M590.045,681.808c-7.954-4.352-16.398-4.839-35.29,1.446c0-11.604,0-21.761-0.993-29.979c23.859-2.906,45.227-3.873,53.181-3.386
		c10.438,0.48,14.418,3.386,12.924,12.57c-2.486,15.963-5.465,29.986-14.412,56.587c-2.486,6.772-5.465,8.225-7.459,6.772
		c-2.486-1.453-10.931-1.453-44.725,3.386l0.993-26.113c13.417-2.42,26.834-5.806,34.788-9.678
		C597.504,689.546,597.997,685.194,590.045,681.808z M502.077,703.569c3.481,1.933,15.405,2.42,29.817,1.933l-0.493,27.567
		c-11.433,1.453-24.357,3.873-39.762,6.292c-8.945-44.496-10.931-52.722-15.905-73.517c15.405-1.933,32.311-4.352,51.686-7.738
		c1.994,6.292,3.481,14.031,4.474,30.953c-9.94,1.94-20.378,3.873-29.322,4.839C495.118,694.865,494.618,698.73,502.077,703.569z"/>
</g>
</svg>
