<?xml version="1.0" encoding="utf-8"?>
<!-- Generator: Adobe Illustrator 23.1.0, SVG Export Plug-In . SVG Version: 6.00 Build 0)  -->
<svg version="1.1" id="Layer_1" xmlns="http://www.w3.org/2000/svg" xmlns:xlink="http://www.w3.org/1999/xlink" x="0px" y="0px"
	 viewBox="0 0 1200 1200" enable-background="new 0 0 1200 1200" xml:space="preserve">
<g>
	<path fill="#C1B6AC" d="M972.278,111.456c8.948,14.906,14.187,32.291,14.187,50.941v852.735c0,54.806-44.43,99.236-99.236,99.236
		H293.496c-17.6,0-34.099-4.628-48.431-12.663c17.347,28.895,48.891,48.294,85.048,48.294h593.733
		c54.807,0,99.236-44.429,99.236-99.236V198.029C1023.081,160.822,1002.576,128.444,972.278,111.456z"/>
	<path fill="#D1C8BF" d="M887.23,1114.369c54.805,0,99.236-44.429,99.236-99.236V162.398c0-18.651-5.239-36.036-14.187-50.941
		c-12.211-20.339-31.43-35.957-54.395-43.414C900.963,56.687,880.492,50,858.427,50H281.947
		c-57.912,0-105.028,45.848-105.028,102.195v833.879c0,24.763,9.11,47.49,24.23,65.197c8.404,21.46,24.015,39.276,43.917,50.435
		c14.332,8.035,30.831,12.663,48.431,12.663H887.23z M192.211,986.074V152.195c0-48.144,40.253-87.314,89.736-87.314h576.481
		c49.483,0,89.737,39.17,89.737,87.314v833.879c0,48.144-40.255,87.314-89.737,87.314H281.947
		C232.464,1073.388,192.211,1034.218,192.211,986.074z"/>
	<path fill="#FFF6EB" d="M281.947,1073.388h576.481c49.483,0,89.737-39.171,89.737-87.314V152.195
		c0-48.144-40.255-87.314-89.737-87.314H281.947c-49.483,0-89.736,39.17-89.736,87.314v833.879
		C192.211,1034.218,232.464,1073.388,281.947,1073.388z M388.822,655.402c18.882,0,62.124-2.419,100.39-6.292
		c-7.952-20.308-14.41-29.5-20.87-33.852c-8.452-5.319-4.472-14.51,12.426-12.091c25.843,3.866,30.315,7.738,30.315,18.375
		c0,7.259,0,16.93,0.993,25.148c34.795-4.832,60.638-7.738,81.015-10.151c7.453-24.181,7.453-37.725,4.472-45.463
		c-4.973-13.056,1.493-16.443,18.884-7.738c24.357,12.091,26.843,19.829,17.899,29.987c-5.473,6.285-8.452,10.637-12.426,19.342
		c16.398-2.419,29.322-4.832,42.741-7.738c26.836-4.839,38.267-3.865,49.7,5.319c15.903,12.577,12.924,22.248-10.933,19.349
		c-16.896-1.933-57.651-1.453-90.46,0.479c-7.952,14.03-22.364,31.919-29.815,38.212c-9.945,9.671-13.419,7.738-8.945-2.42
		c5.463-12.577,9.938-23.701,13.417-33.372c-18.892,1.933-46.721,4.839-73.564,8.704c4.48,22.735,3.98,29.507,1.001,35.305
		c-3.479,7.258-10.438,6.292-14.418-9.671c-2.486-8.218-4.472-16.443-6.458-22.728c-32.311,3.386-61.633,8.218-72.563,10.638
		c-12.926,3.386-21.371,1.933-41.255-8.705C371.924,661.688,372.917,655.402,388.822,655.402z M485.733,412.278
		c-2.979-19.349,4.973-21.282,28.829-6.285c21.37,13.536,26.836,21.761,10.438,30.466c-6.458,3.386-18.882,13.544-30.315,24.668
		c-28.337,27.567-68.089,51.261-89.467,59.486c-20.378,7.738-23.857,1.933-7.952-9.191
		C460.391,465.479,488.22,424.369,485.733,412.278z M607.504,396.315c74.057,41.11,97.413,69.164,97.912,99.63
		c0.5,30.473-13.917,40.144-31.808,11.611c-21.37-34.826-59.145-85.607-76.043-103.503
		C586.633,393.416,591.598,387.61,607.504,396.315z M726.786,851.269c-5.465,4.839-7.952,12.091-8.444,21.769
		c-4.472,71.09-10.94,92.372-33.304,112.2c-10.438,9.671-13.917,9.191-20.876-2.42c-8.446-14.503-21.37-28.046-35.782-39.17
		c-7.952-6.772-6.458-9.671,1.495-7.738c39.76,10.637,43.732,9.184,47.712-6.772c7.954-32.406,9.439-48.362,7.954-70.61
		c-1.001-12.577-8.954-17.896-39.269-15.476c-29.822,1.933-63.617,4.831-100.893,8.704l-0.993,38.204l44.234-8.218
		c-1.986-3.386-3.98-7.738-5.966-11.124c-4.472-9.191-0.493-12.091,10.438-6.772c30.815,15.477,39.262,30.953,35.782,43.53
		c-3.974,14.51-13.912,16.922-20.87,7.251c-3.479-5.318-8.947-13.543-14.419-22.728c-35.28,8.704-81.508,21.761-100.392,29.5
		c-10.438,4.352-14.91,3.865-29.822-8.225c-11.924-10.151-9.938-14.99,3.481-14.023c8.945,0.966,35.788-1.453,57.651-4.839
		l0.498-40.137c-26.343,2.899-54.672,6.772-98.905,12.57c5.465,36.279,8.444,86.094,5.465,102.537
		c-1.986,12.091-9.445,14.51-14.41,8.218c-7.954-9.184-9.94-17.409-9.447-28.534c1.986-33.372-4.472-78.348-14.91-93.345
		c-5.966-9.184-1.488-15.477,26.343-3.866c39.267-5.319,73.555-9.191,105.863-13.544l0.495-29.02
		c-13.912,1.94-27.831,3.386-39.262,5.326c-0.993,2.899-4.472,4.832-6.959,4.832c-5.966,0-8.444-4.352-15.905-29.986
		c-10.438-39.171-20.378-59.965-27.336-66.258c-9.938-8.704-6.458-15.477,20.378-10.158c46.228-3.865,138.174-17.409,151.093-21.761
		c10.438-3.386,18.391-2.899,32.801,5.319c24.857,14.03,24.857,20.315,16.898,26.6c-6.953,5.805-10.933,12.09-16.898,27.087
		c-14.912,34.818-20.378,45.943-27.336,54.647c-6.458,8.712-13.417,8.225-14.905,1.453c-1.001-3.865-2.987-4.352-15.411-3.386
		c-10.438,0.966-22.864,1.933-35.782,3.386l-0.999,29.5c30.814-3.386,61.631-6.285,94.933-9.671
		c18.391-2.42,26.836-3.865,34.787-6.772c6.961-2.419,13.919-2.899,33.802,7.259C732.751,838.212,732.751,845.471,726.786,851.269z
		 M716.848,345.533c-77.036-9.184-250.499,11.611-296.718,24.668c-19.384,5.319-26.343,3.866-43.241-5.318
		c-17.391-9.671-15.905-14.51,0.5-15.477c53.679-2.419,277.828-32.885,305.164-38.211c28.828-5.319,60.638-2.412,76.541,9.191
		C780.465,336.349,778.479,352.305,716.848,345.533z M570.728,270.571c-10.938-9.191-23.857-20.795-45.728-42.557
		c-10.938-10.644-9.938-16.443,10.933-14.997c47.714,3.386,63.124,17.896,68.089,35.792
		C610.49,271.058,593.584,289.92,570.728,270.571z"/>
	<path fill="#FFF6EB" d="M583.154,754.059c-7.952,3.873-21.378,7.259-34.797,9.678l-0.993,26.113
		c33.796-4.839,42.248-4.839,44.735-3.386c1.986,1.453,4.965,0,7.453-6.772c8.945-26.601,11.931-40.624,14.418-56.587
		c1.486-9.184-2.486-12.091-12.926-12.57c-7.952-0.487-29.322,0.479-53.177,3.386c0.993,8.218,0.993,18.375,0.993,29.979
		c18.882-6.285,27.336-5.798,35.288-1.446C592.099,745.841,591.598,750.193,583.154,754.059z"/>
	<path fill="#FFF6EB" d="M496.671,754.546c8.947-0.966,19.384-2.899,29.322-4.839c-0.993-16.922-2.484-24.661-4.47-30.953
		c-19.384,3.386-36.283,5.805-51.693,7.738c4.973,20.795,6.959,29.02,15.903,73.517c15.413-2.42,28.329-4.839,39.762-6.292
		l0.498-27.567c-14.41,0.487-26.341,0-29.821-1.933C488.72,759.378,489.213,755.512,496.671,754.546z"/>
	<path fill="#1B669E" d="M759.095,320.386c-15.903-11.604-47.714-14.51-76.541-9.191c-27.336,5.326-251.485,35.792-305.164,38.211
		c-16.405,0.966-17.891,5.806-0.5,15.477c16.898,9.184,23.857,10.637,43.241,5.318c46.218-13.056,219.682-33.852,296.718-24.668
		C778.479,352.305,780.465,336.349,759.095,320.386z"/>
	<path fill="#1B669E" d="M535.933,213.018c-20.87-1.446-21.871,4.352-10.933,14.997c21.871,21.761,34.789,33.365,45.728,42.557
		c22.856,19.349,39.762,0.487,33.294-21.761C599.057,230.914,583.647,216.404,535.933,213.018z"/>
	<path fill="#1B669E" d="M673.607,507.556c17.891,28.533,32.309,18.862,31.808-11.611c-0.498-30.466-23.855-58.52-97.912-99.63
		c-15.905-8.704-20.87-2.899-9.94,7.738C614.462,421.949,652.236,472.73,673.607,507.556z"/>
	<path fill="#1B669E" d="M397.266,511.421c-15.905,11.124-12.426,16.93,7.952,9.191c21.378-8.225,61.131-31.919,89.467-59.486
		c11.433-11.124,23.857-21.282,30.315-24.668c16.398-8.704,10.933-16.93-10.438-30.466c-23.857-14.997-31.808-13.064-28.829,6.285
		C488.22,424.369,460.391,465.479,397.266,511.421z"/>
	<path fill="#CC403A" d="M709.395,826.609c-19.883-10.158-26.842-9.678-33.802-7.259c-7.952,2.907-16.396,4.352-34.787,6.772
		c-33.302,3.386-64.119,6.285-94.933,9.671l0.999-29.5c12.919-1.453,25.344-2.42,35.782-3.386
		c12.424-0.966,14.41-0.479,15.411,3.386c1.488,6.772,8.446,7.258,14.905-1.453c6.959-8.704,12.424-19.829,27.336-54.647
		c5.966-14.997,9.945-21.282,16.898-27.087c7.959-6.285,7.959-12.57-16.898-26.6c-14.41-8.218-22.364-8.705-32.801-5.319
		c-12.919,4.352-104.865,17.896-151.093,21.761c-26.836-5.319-30.315,1.453-20.378,10.158c6.959,6.292,16.898,27.087,27.336,66.258
		c7.461,25.634,9.94,29.986,15.905,29.986c2.486,0,5.966-1.933,6.959-4.832c11.431-1.94,25.35-3.386,39.262-5.326l-0.495,29.02
		c-32.309,4.352-66.596,8.225-105.863,13.544c-27.831-11.611-32.309-5.319-26.343,3.866c10.438,14.997,16.896,59.973,14.91,93.345
		c-0.493,11.124,1.493,19.349,9.447,28.534c4.965,6.292,12.424,3.873,14.41-8.218c2.979-16.443,0-66.258-5.465-102.537
		c44.232-5.798,72.562-9.671,98.905-12.57l-0.498,40.137c-21.863,3.386-48.707,5.805-57.651,4.839
		c-13.419-0.966-15.405,3.873-3.481,14.023c14.912,12.09,19.384,12.577,29.822,8.225c18.884-7.738,65.112-20.795,100.392-29.5
		c5.473,9.184,10.94,17.409,14.419,22.728c6.959,9.671,16.896,7.259,20.87-7.251c3.479-12.578-4.967-28.054-35.782-43.53
		c-10.931-5.318-14.91-2.419-10.438,6.772c1.986,3.386,3.98,7.738,5.966,11.124l-44.234,8.218l0.993-38.204
		c37.276-3.873,71.07-6.772,100.893-8.704c30.315-2.42,38.269,2.899,39.269,15.476c1.486,22.248,0,38.204-7.954,70.61
		c-3.98,15.956-7.952,17.409-47.712,6.772c-7.954-1.933-9.447,0.966-1.495,7.738c14.412,11.124,27.336,24.668,35.782,39.17
		c6.959,11.611,10.438,12.091,20.876,2.42c22.364-19.829,28.831-41.111,33.304-112.2c0.493-9.678,2.979-16.93,8.444-21.769
		C732.751,845.471,732.751,838.212,709.395,826.609z M584.147,742.455c-7.952-4.352-16.406-4.839-35.288,1.446
		c0-11.604,0-21.761-0.993-29.979c23.855-2.906,45.225-3.873,53.177-3.386c10.44,0.479,14.412,3.386,12.926,12.57
		c-2.486,15.963-5.473,29.986-14.418,56.587c-2.488,6.772-5.467,8.225-7.453,6.772c-2.486-1.453-10.938-1.453-44.735,3.386
		l0.993-26.113c13.419-2.42,26.845-5.805,34.797-9.678C591.598,750.193,592.099,745.841,584.147,742.455z M496.173,764.217
		c3.479,1.933,15.411,2.42,29.821,1.933l-0.498,27.567c-11.433,1.453-24.35,3.873-39.762,6.292
		c-8.945-44.496-10.931-52.721-15.903-73.517c15.411-1.933,32.309-4.352,51.693-7.738c1.986,6.292,3.477,14.03,4.47,30.953
		c-9.938,1.94-20.376,3.873-29.322,4.839C489.213,755.512,488.72,759.378,496.173,764.217z"/>
	<path fill="#CC403A" d="M421.624,674.744c10.931-2.42,40.253-7.252,72.563-10.638c1.986,6.285,3.972,14.51,6.458,22.728
		c3.98,15.963,10.938,16.93,14.418,9.671c2.979-5.798,3.479-12.57-1.001-35.305c26.843-3.865,54.672-6.772,73.564-8.704
		c-3.479,9.671-7.954,20.795-13.417,33.372c-4.474,10.158-1.001,12.091,8.945,2.42c7.451-6.292,21.863-24.181,29.815-38.212
		c32.809-1.932,73.564-2.412,90.46-0.479c23.857,2.899,26.836-6.772,10.933-19.349c-11.433-9.184-22.864-10.158-49.7-5.319
		c-13.419,2.906-26.343,5.319-42.741,7.738c3.974-8.704,6.953-13.057,12.426-19.342c8.945-10.158,6.458-17.896-17.899-29.987
		c-17.391-8.704-23.857-5.318-18.884,7.738c2.981,7.738,2.981,21.282-4.472,45.463c-20.378,2.413-46.22,5.319-81.015,10.151
		c-0.993-8.218-0.993-17.889-0.993-25.148c0-10.637-4.472-14.51-30.315-18.375c-16.898-2.42-20.878,6.772-12.426,12.091
		c6.46,4.352,12.919,13.543,20.87,33.852c-38.267,3.873-81.508,6.292-100.39,6.292c-15.905,0-16.898,6.285-8.454,10.637
		C400.253,676.677,408.697,678.13,421.624,674.744z"/>
</g>
</svg>
