<?xml version="1.0" encoding="utf-8"?>
<!-- Generator: Adobe Illustrator 23.1.0, SVG Export Plug-In . SVG Version: 6.00 Build 0)  -->
<svg version="1.1" id="Layer_1" xmlns="http://www.w3.org/2000/svg" xmlns:xlink="http://www.w3.org/1999/xlink" x="0px" y="0px"
	 viewBox="0 0 1200 1200" enable-background="new 0 0 1200 1200" xml:space="preserve">
<g>
	<path fill="#C1B6AC" d="M972.194,111.594c8.947,14.904,14.186,32.286,14.186,50.935v852.623c0,54.799-44.422,99.223-99.223,99.223
		H293.501c-17.598,0-34.094-4.627-48.424-12.661c17.345,28.891,48.885,48.288,85.037,48.288H923.77
		c54.798,0,99.223-44.423,99.223-99.223V198.155C1022.992,160.953,1002.488,128.579,972.194,111.594z"/>
	<path fill="#D1C8BF" d="M887.157,1114.374c54.8,0,99.223-44.423,99.223-99.223V162.528c0-18.648-5.238-36.031-14.186-50.935
		c-12.19-20.307-31.372-35.904-54.29-43.373C901.171,56.745,880.952,50,859.176,50H281.138c-57.414,0-104.13,46.716-104.13,104.138
		v830.146c0,25.171,8.981,48.281,23.903,66.305c8.339,21.765,24.053,39.846,44.166,51.122c14.33,8.034,30.827,12.661,48.424,12.661
		H887.157z M192.169,984.285V154.138c0-49.063,39.913-88.976,88.969-88.976h578.038c49.056,0,88.969,39.912,88.969,88.976v830.146
		c0,49.06-39.913,88.972-88.969,88.972H281.138C232.082,1073.257,192.169,1033.345,192.169,984.285z"/>
	<path fill="#FFF6EB" d="M281.138,1073.257h578.038c49.056,0,88.969-39.912,88.969-88.972V154.138
		c0-49.063-39.913-88.976-88.969-88.976H281.138c-49.056,0-88.969,39.912-88.969,88.976v830.146
		C192.169,1033.345,232.082,1073.257,281.138,1073.257z M457.65,799.953c0.711,1.658,1.073,3.374,1.073,5.108l-0.021,1.435
		c0.004,1.776-0.354,3.529-1.065,5.219c-11.007,64.119-10.671,129.545,1.004,194.458l0.061,0.668
		c0.011,4.23-2.047,8.311-5.794,11.49c-4.67,3.962-11.549,6.235-18.872,6.235h-76.103c-13.613,0-24.687-7.844-24.687-17.484
		l0.061-0.676c6.079-33.937,9.143-68.042,9.107-101.37c-0.027-24.775-1.759-49.832-5.149-74.478
		c-0.816-5.945-1.782-12.189-2.878-18.571c-0.759-1.708-1.141-3.472-1.141-5.253l0.076-0.781c-0.048-0.244-0.076-0.568-0.076-0.893
		c0-1.687,0.361-3.391,1.078-5.071c5.402-32.058,8.124-64.116,8.089-95.301c-0.027-24.775-1.759-49.833-5.149-74.476
		c-1.08-7.884-2.404-16.153-3.937-24.581c-0.053-0.26-0.082-0.59-0.082-0.919c0-9.642,11.074-17.486,24.687-17.486h76.103
		c13.613,0,24.687,7.844,24.687,17.486l-0.063,0.69C446.963,669.362,446.62,734.816,457.65,799.953z M457.65,326.696
		c0.711,1.658,1.073,3.374,1.073,5.108l-0.021,1.435c0.004,1.776-0.354,3.529-1.065,5.219
		c-11.007,64.119-10.671,129.545,1.004,194.458l0.061,0.668c0.011,4.23-2.047,8.311-5.794,11.49
		c-4.67,3.962-11.549,6.235-18.872,6.235h-76.103c-13.613,0-24.687-7.844-24.687-17.484l0.061-0.676
		c6.079-33.937,9.143-68.042,9.107-101.37c-0.027-24.775-1.759-49.832-5.149-74.478c-0.816-5.945-1.782-12.189-2.878-18.571
		c-0.759-1.709-1.141-3.472-1.141-5.253l0.076-0.781c-0.048-0.244-0.076-0.569-0.076-0.893c0-1.687,0.361-3.391,1.078-5.071
		c5.402-32.058,8.124-64.116,8.089-95.301c-0.027-24.775-1.759-49.833-5.149-74.476c-1.08-7.884-2.404-16.153-3.937-24.581
		c-0.053-0.26-0.082-0.59-0.082-0.919c0-9.642,11.074-17.486,24.687-17.486h76.103c13.613,0,24.687,7.844,24.687,17.486l-0.063,0.69
		C446.963,196.104,446.62,261.559,457.65,326.696z M638.695,799.953c0.711,1.658,1.073,3.374,1.073,5.108l-0.021,1.435
		c0.004,1.776-0.354,3.529-1.065,5.219c-11.007,64.119-10.671,129.545,1.004,194.458l0.061,0.668
		c0.011,4.23-2.047,8.311-5.794,11.49c-4.669,3.962-11.549,6.235-18.872,6.235h-76.103c-13.613,0-24.689-7.844-24.689-17.484
		l0.061-0.676c6.081-33.937,9.145-68.042,9.109-101.37c-0.027-24.775-1.759-49.832-5.149-74.478
		c-0.816-5.945-1.784-12.189-2.878-18.571c-0.759-1.708-1.143-3.472-1.143-5.253l0.078-0.781c-0.048-0.244-0.078-0.568-0.078-0.893
		c0-1.687,0.363-3.391,1.08-5.071c5.402-32.058,8.124-64.116,8.089-95.301c-0.027-24.775-1.759-49.833-5.149-74.476
		c-1.08-7.884-2.404-16.153-3.937-24.581c-0.053-0.26-0.084-0.59-0.084-0.919c0-9.642,11.076-17.486,24.689-17.486h76.103
		c13.611,0,24.687,7.844,24.687,17.486l-0.063,0.69C628.006,669.362,627.665,734.816,638.695,799.953z M638.695,326.696
		c0.711,1.658,1.073,3.374,1.073,5.108l-0.021,1.435c0.004,1.776-0.354,3.529-1.065,5.219
		c-11.007,64.119-10.671,129.545,1.004,194.458l0.061,0.668c0.011,4.23-2.047,8.311-5.794,11.49
		c-4.669,3.962-11.549,6.235-18.872,6.235h-76.103c-13.613,0-24.689-7.844-24.689-17.484l0.061-0.676
		c6.081-33.937,9.145-68.042,9.109-101.37c-0.027-24.775-1.759-49.832-5.149-74.478c-0.816-5.945-1.784-12.189-2.878-18.571
		c-0.759-1.709-1.143-3.472-1.143-5.253l0.078-0.781c-0.048-0.244-0.078-0.569-0.078-0.893c0-1.687,0.363-3.391,1.08-5.071
		c5.402-32.058,8.124-64.116,8.089-95.301c-0.027-24.775-1.759-49.833-5.149-74.476c-1.08-7.884-2.404-16.153-3.937-24.581
		c-0.053-0.26-0.084-0.59-0.084-0.919c0-9.642,11.076-17.486,24.689-17.486h76.103c13.611,0,24.687,7.844,24.687,17.486l-0.063,0.69
		C628.006,196.104,627.665,261.559,638.695,326.696z M805.256,799.953c0.711,1.658,1.073,3.374,1.073,5.108l-0.021,1.435
		c0.004,1.776-0.354,3.529-1.065,5.219c-11.007,64.119-10.671,129.545,1.004,194.458l0.061,0.668
		c0.013,4.23-2.045,8.311-5.794,11.49c-4.67,3.962-11.551,6.235-18.874,6.235h-76.101c-13.613,0-24.689-7.844-24.689-17.484
		l0.061-0.676c6.081-33.937,9.145-68.042,9.109-101.37c-0.029-24.775-1.759-49.832-5.149-74.478
		c-0.814-5.945-1.784-12.189-2.878-18.571c-0.759-1.708-1.143-3.472-1.143-5.253l0.08-0.781c-0.049-0.244-0.08-0.568-0.08-0.893
		c0-1.687,0.363-3.391,1.08-5.071c5.402-32.058,8.126-64.116,8.089-95.301c-0.029-24.775-1.759-49.833-5.149-74.476
		c-1.08-7.884-2.404-16.153-3.937-24.581c-0.053-0.26-0.084-0.59-0.084-0.919c0-9.642,11.076-17.486,24.689-17.486h76.101
		c13.615,0,24.689,7.844,24.689,17.486l-0.063,0.69C794.567,669.362,794.228,734.816,805.256,799.953z M805.256,326.696
		c0.711,1.658,1.073,3.374,1.073,5.108l-0.021,1.435c0.004,1.776-0.354,3.529-1.065,5.219
		c-11.007,64.119-10.671,129.545,1.004,194.458l0.061,0.668c0.013,4.23-2.045,8.311-5.794,11.49
		c-4.67,3.962-11.551,6.235-18.874,6.235h-76.101c-13.613,0-24.689-7.844-24.689-17.484l0.061-0.676
		c6.081-33.937,9.145-68.042,9.109-101.37c-0.029-24.775-1.759-49.832-5.149-74.478c-0.814-5.945-1.784-12.189-2.878-18.571
		c-0.759-1.709-1.143-3.472-1.143-5.253l0.08-0.781c-0.049-0.244-0.08-0.569-0.08-0.893c0-1.687,0.363-3.391,1.08-5.071
		c5.402-32.058,8.126-64.116,8.089-95.301c-0.029-24.775-1.759-49.833-5.149-74.476c-1.08-7.884-2.404-16.153-3.937-24.581
		c-0.053-0.26-0.084-0.59-0.084-0.919c0-9.642,11.076-17.486,24.689-17.486h76.101c13.615,0,24.689,7.844,24.689,17.486l-0.063,0.69
		C794.567,196.104,794.228,261.559,805.256,326.696z"/>
	<path fill="#FFF6EB" d="M436.378,824.144c-0.774,0.052-1.556,0.078-2.341,0.078h-76.103c-0.782,0-1.558-0.026-2.328-0.077
		c0.249,1.682,0.489,3.356,0.717,5.018c3.447,25.08,5.208,50.603,5.236,75.862c0.034,33.863-3.053,68.354-9.174,102.517
		c0.24,1.567,2.629,3.332,5.546,3.332h76.103c2.775,0,5.314-1.653,5.529-3.534C428.593,946.235,427.527,884.64,436.378,824.144z"/>
	<path fill="#FFF6EB" d="M434.034,337.273c1.984,0,3.901-0.838,4.89-2.091l0.137-0.813c0.103-0.598,0.202-1.197,0.306-1.795
		c-0.105-0.613-0.207-1.226-0.308-1.839l-0.112-0.675c-0.883-1.059-2.646-2.049-4.913-2.049h-76.101
		c-1.086,0-2.147,0.231-3.062,0.667c-0.786,0.372-1.409,0.848-1.835,1.394l-0.135,0.798c-0.095,0.572-0.188,1.144-0.287,1.715
		c0.164,0.908,0.323,1.815,0.483,2.722c0.903,1.021,2.642,1.966,4.835,1.966H434.034z"/>
	<path fill="#FFF6EB" d="M436.378,350.886c-0.774,0.052-1.556,0.078-2.341,0.078h-76.103c-0.782,0-1.558-0.026-2.328-0.077
		c0.249,1.682,0.489,3.356,0.717,5.018c3.447,25.08,5.208,50.603,5.236,75.862c0.034,33.863-3.053,68.354-9.174,102.517
		c0.24,1.567,2.629,3.332,5.546,3.332h76.103c2.775,0,5.314-1.653,5.529-3.534C428.593,472.978,427.527,411.383,436.378,350.886z"/>
	<path fill="#FFF6EB" d="M617.423,824.144c-0.774,0.052-1.556,0.078-2.341,0.078h-76.103c-0.782,0-1.558-0.026-2.33-0.077
		c0.251,1.682,0.491,3.356,0.717,5.018c3.448,25.08,5.21,50.603,5.238,75.862c0.034,33.863-3.053,68.354-9.175,102.517
		c0.242,1.567,2.631,3.332,5.548,3.332h76.101c2.777,0,5.316-1.653,5.531-3.534C609.638,946.235,608.571,884.64,617.423,824.144z"/>
	<path fill="#FFF6EB" d="M434.034,127.663h-76.101c-2.726,0-5.248,1.617-5.516,3.463c1.489,8.217,2.804,16.436,3.905,24.434
		c3.447,25.079,5.208,50.601,5.236,75.86c0.029,27.349-1.995,55.23-6.014,82.976c0.787-0.052,1.584-0.079,2.389-0.079h76.103
		c0.805,0,1.602,0.028,2.397,0.082c-8.919-61.414-7.861-123.081,3.146-183.41C439.335,129.425,436.948,127.663,434.034,127.663z"/>
	<path fill="#FFF6EB" d="M434.034,600.921h-76.101c-2.726,0-5.248,1.617-5.516,3.463c1.489,8.218,2.804,16.436,3.905,24.434
		c3.447,25.079,5.208,50.601,5.236,75.86c0.029,27.349-1.995,55.23-6.014,82.976c0.787-0.052,1.584-0.079,2.389-0.079h76.103
		c0.805,0,1.602,0.028,2.397,0.082c-8.919-61.414-7.861-123.081,3.146-183.41C439.335,602.682,436.948,600.921,434.034,600.921z"/>
	<path fill="#FFF6EB" d="M434.034,810.53c1.984,0,3.901-0.838,4.89-2.091l0.137-0.813c0.103-0.598,0.202-1.197,0.306-1.795
		c-0.105-0.613-0.207-1.226-0.308-1.839l-0.112-0.675c-0.883-1.059-2.646-2.049-4.913-2.049h-76.101
		c-1.086,0-2.147,0.231-3.062,0.667c-0.786,0.372-1.409,0.848-1.835,1.394l-0.135,0.798c-0.095,0.572-0.188,1.144-0.287,1.715
		c0.164,0.908,0.323,1.815,0.483,2.722c0.903,1.021,2.642,1.966,4.835,1.966H434.034z"/>
	<path fill="#FFF6EB" d="M615.078,810.53c1.986,0,3.903-0.838,4.892-2.091l0.137-0.813c0.101-0.598,0.202-1.197,0.306-1.795
		c-0.107-0.613-0.207-1.226-0.31-1.839l-0.112-0.675c-0.881-1.059-2.644-2.049-4.913-2.049h-76.099
		c-1.086,0-2.147,0.231-3.062,0.667c-0.786,0.372-1.409,0.848-1.835,1.394l-0.135,0.798c-0.095,0.572-0.188,1.144-0.287,1.715
		c0.164,0.908,0.323,1.815,0.481,2.722c0.905,1.021,2.644,1.966,4.837,1.966H615.078z"/>
	<path fill="#FFF6EB" d="M783.984,824.144c-0.774,0.052-1.556,0.078-2.343,0.078h-76.101c-0.78,0-1.558-0.026-2.328-0.077
		c0.249,1.682,0.489,3.356,0.715,5.018c3.448,25.08,5.21,50.603,5.238,75.862c0.034,33.863-3.053,68.354-9.175,102.517
		c0.242,1.567,2.63,3.332,5.548,3.332h76.103c2.777,0,5.314-1.653,5.529-3.534C776.201,946.235,775.132,884.64,783.984,824.144z"/>
	<path fill="#FFF6EB" d="M783.984,350.886c-0.774,0.052-1.556,0.078-2.343,0.078h-76.101c-0.78,0-1.558-0.026-2.328-0.077
		c0.249,1.682,0.489,3.356,0.715,5.018c3.448,25.08,5.21,50.603,5.238,75.862c0.034,33.863-3.053,68.354-9.175,102.517
		c0.242,1.567,2.63,3.332,5.548,3.332h76.103c2.777,0,5.314-1.653,5.529-3.534C776.201,472.978,775.132,411.383,783.984,350.886z"/>
	<path fill="#FFF6EB" d="M615.078,127.663h-76.099c-2.726,0-5.248,1.617-5.516,3.463c1.489,8.217,2.804,16.436,3.903,24.434
		c3.448,25.079,5.21,50.601,5.238,75.86c0.027,27.349-1.995,55.23-6.016,82.976c0.789-0.052,1.586-0.079,2.391-0.079h76.103
		c0.805,0,1.602,0.028,2.395,0.082c-8.917-61.414-7.861-123.081,3.148-183.41C620.38,129.425,617.993,127.663,615.078,127.663z"/>
	<path fill="#FFF6EB" d="M781.641,600.921h-76.101c-2.726,0-5.248,1.617-5.516,3.463c1.491,8.218,2.804,16.436,3.903,24.434
		c3.448,25.079,5.21,50.601,5.238,75.86c0.027,27.349-1.995,55.23-6.014,82.976c0.787-0.052,1.586-0.079,2.389-0.079h76.101
		c0.806,0,1.605,0.028,2.397,0.082c-8.917-61.414-7.859-123.081,3.15-183.41C786.942,602.682,784.554,600.921,781.641,600.921z"/>
	<path fill="#FFF6EB" d="M615.078,600.921h-76.099c-2.726,0-5.248,1.617-5.516,3.463c1.489,8.218,2.804,16.436,3.903,24.434
		c3.448,25.079,5.21,50.601,5.238,75.86c0.027,27.349-1.995,55.23-6.016,82.976c0.789-0.052,1.586-0.079,2.391-0.079h76.103
		c0.805,0,1.602,0.028,2.395,0.082c-8.917-61.414-7.861-123.081,3.148-183.41C620.38,602.682,617.993,600.921,615.078,600.921z"/>
	<path fill="#FFF6EB" d="M781.641,810.53c1.986,0,3.903-0.838,4.888-2.091l0.141-0.813c0.099-0.598,0.202-1.197,0.304-1.795
		c-0.107-0.613-0.205-1.226-0.308-1.839l-0.114-0.675c-0.881-1.059-2.644-2.049-4.911-2.049h-76.101
		c-1.086,0-2.146,0.231-3.062,0.667c-0.784,0.372-1.409,0.848-1.837,1.394l-0.133,0.798c-0.095,0.572-0.188,1.144-0.287,1.715
		c0.164,0.908,0.325,1.815,0.481,2.722c0.905,1.021,2.644,1.966,4.837,1.966H781.641z"/>
	<path fill="#FFF6EB" d="M615.078,337.273c1.986,0,3.903-0.838,4.892-2.091l0.137-0.813c0.101-0.598,0.202-1.197,0.306-1.795
		c-0.107-0.613-0.207-1.226-0.31-1.839l-0.112-0.675c-0.881-1.059-2.644-2.049-4.913-2.049h-76.099
		c-1.086,0-2.147,0.231-3.062,0.667c-0.786,0.372-1.409,0.848-1.835,1.394l-0.135,0.798c-0.095,0.572-0.188,1.144-0.287,1.715
		c0.164,0.908,0.323,1.815,0.481,2.722c0.905,1.021,2.644,1.966,4.837,1.966H615.078z"/>
	<path fill="#FFF6EB" d="M617.423,350.886c-0.774,0.052-1.556,0.078-2.341,0.078h-76.103c-0.782,0-1.558-0.026-2.33-0.077
		c0.251,1.682,0.491,3.356,0.717,5.018c3.448,25.08,5.21,50.603,5.238,75.862c0.034,33.863-3.053,68.354-9.175,102.517
		c0.242,1.567,2.631,3.332,5.548,3.332h76.101c2.777,0,5.316-1.653,5.531-3.534C609.638,472.978,608.571,411.383,617.423,350.886z"
		/>
	<path fill="#FFF6EB" d="M781.641,337.273c1.986,0,3.903-0.838,4.888-2.091l0.141-0.813c0.099-0.598,0.202-1.197,0.304-1.795
		c-0.107-0.613-0.205-1.226-0.308-1.839l-0.114-0.675c-0.881-1.059-2.644-2.049-4.911-2.049h-76.101
		c-1.086,0-2.146,0.231-3.062,0.667c-0.784,0.372-1.409,0.848-1.837,1.394l-0.133,0.798c-0.095,0.572-0.188,1.144-0.287,1.715
		c0.164,0.908,0.325,1.815,0.481,2.722c0.905,1.021,2.644,1.966,4.837,1.966H781.641z"/>
	<path fill="#FFF6EB" d="M781.641,127.663h-76.101c-2.726,0-5.248,1.617-5.516,3.463c1.491,8.217,2.804,16.436,3.903,24.434
		c3.448,25.079,5.21,50.601,5.238,75.86c0.027,27.349-1.995,55.23-6.014,82.976c0.787-0.052,1.586-0.079,2.389-0.079h76.101
		c0.806,0,1.605,0.028,2.397,0.082c-8.917-61.414-7.859-123.081,3.15-183.41C786.942,129.425,784.554,127.663,781.641,127.663z"/>
	<path fill="#4D915F" d="M458.723,604.715c0-9.642-11.074-17.486-24.687-17.486h-76.103c-13.613,0-24.687,7.844-24.687,17.486
		c0,0.33,0.029,0.66,0.082,0.919c1.533,8.428,2.857,16.697,3.937,24.581c3.389,24.643,5.122,49.701,5.149,74.476
		c0.034,31.185-2.688,63.243-8.089,95.301c-0.717,1.68-1.078,3.384-1.078,5.071c0,0.325,0.029,0.649,0.076,0.893l-0.076,0.781
		c0,1.78,0.382,3.544,1.141,5.253c1.096,6.382,2.062,12.626,2.878,18.571c3.389,24.645,5.122,49.703,5.149,74.478
		c0.036,33.327-3.028,67.433-9.107,101.37l-0.061,0.676c0,9.641,11.074,17.484,24.687,17.484h76.103
		c7.323,0,14.203-2.273,18.872-6.235c3.747-3.179,5.805-7.26,5.794-11.49l-0.061-0.668c-11.675-64.913-12.011-130.339-1.004-194.458
		c0.711-1.69,1.069-3.444,1.065-5.219l0.021-1.435c0-1.734-0.361-3.45-1.073-5.108c-11.03-65.137-10.688-130.592,1.01-194.549
		L458.723,604.715z M434.034,1010.875h-76.103c-2.918,0-5.307-1.765-5.546-3.332c6.121-34.163,9.208-68.654,9.174-102.517
		c-0.029-25.259-1.79-50.782-5.236-75.862c-0.228-1.662-0.468-3.336-0.717-5.018c0.77,0.051,1.546,0.077,2.328,0.077h76.103
		c0.786,0,1.567-0.026,2.341-0.078c-8.85,60.496-7.785,122.091,3.186,183.198C439.349,1009.222,436.809,1010.875,434.034,1010.875z
		 M352.613,805.842c0.099-0.571,0.192-1.143,0.287-1.715l0.135-0.798c0.426-0.546,1.05-1.022,1.835-1.394
		c0.915-0.437,1.976-0.667,3.062-0.667h76.101c2.267,0,4.03,0.99,4.913,2.049l0.112,0.675c0.101,0.613,0.203,1.226,0.308,1.839
		c-0.105,0.598-0.204,1.197-0.306,1.795l-0.137,0.813c-0.989,1.253-2.906,2.091-4.89,2.091h-76.103
		c-2.193,0-3.932-0.945-4.835-1.966C352.936,807.657,352.777,806.75,352.613,805.842z M436.433,787.657
		c-0.795-0.054-1.592-0.082-2.397-0.082h-76.103c-0.805,0-1.602,0.027-2.389,0.079c4.019-27.746,6.043-55.627,6.014-82.976
		c-0.029-25.259-1.79-50.782-5.236-75.86c-1.101-7.998-2.416-16.216-3.905-24.434c0.268-1.846,2.79-3.463,5.516-3.463h76.101
		c2.914,0,5.301,1.762,5.544,3.326C428.572,664.577,427.514,726.243,436.433,787.657z"/>
	<path fill="#4D915F" d="M639.768,604.715c0-9.642-11.076-17.486-24.687-17.486h-76.103c-13.613,0-24.689,7.844-24.689,17.486
		c0,0.33,0.03,0.66,0.084,0.919c1.533,8.428,2.857,16.697,3.937,24.581c3.389,24.643,5.122,49.701,5.149,74.476
		c0.034,31.185-2.688,63.243-8.089,95.301c-0.717,1.68-1.08,3.384-1.08,5.071c0,0.325,0.03,0.649,0.078,0.893l-0.078,0.781
		c0,1.78,0.384,3.544,1.143,5.253c1.094,6.382,2.062,12.626,2.878,18.571c3.389,24.645,5.122,49.703,5.149,74.478
		c0.036,33.327-3.028,67.433-9.109,101.37l-0.061,0.676c0,9.641,11.076,17.484,24.689,17.484h76.103
		c7.323,0,14.203-2.273,18.872-6.235c3.747-3.179,5.805-7.26,5.794-11.49l-0.061-0.668c-11.675-64.913-12.011-130.339-1.004-194.458
		c0.711-1.69,1.069-3.444,1.065-5.219l0.021-1.435c0-1.734-0.361-3.45-1.073-5.108c-11.03-65.137-10.69-130.592,1.01-194.549
		L639.768,604.715z M615.078,1010.875h-76.101c-2.918,0-5.307-1.765-5.548-3.332c6.123-34.163,9.21-68.654,9.175-102.517
		c-0.029-25.259-1.79-50.782-5.238-75.862c-0.226-1.662-0.466-3.336-0.717-5.018c0.772,0.051,1.548,0.077,2.33,0.077h76.103
		c0.786,0,1.567-0.026,2.341-0.078c-8.852,60.496-7.785,122.091,3.186,183.198C620.394,1009.222,617.855,1010.875,615.078,1010.875z
		 M533.658,805.842c0.099-0.571,0.192-1.143,0.287-1.715l0.135-0.798c0.426-0.546,1.05-1.022,1.835-1.394
		c0.915-0.437,1.976-0.667,3.062-0.667h76.099c2.269,0,4.032,0.99,4.913,2.049l0.112,0.675c0.103,0.613,0.203,1.226,0.31,1.839
		c-0.105,0.598-0.205,1.197-0.306,1.795l-0.137,0.813c-0.989,1.253-2.906,2.091-4.892,2.091h-76.101
		c-2.193,0-3.932-0.945-4.837-1.966C533.982,807.657,533.822,806.75,533.658,805.842z M617.476,787.657
		c-0.793-0.054-1.59-0.082-2.395-0.082h-76.103c-0.805,0-1.602,0.027-2.391,0.079c4.021-27.746,6.043-55.627,6.016-82.976
		c-0.029-25.259-1.79-50.782-5.238-75.86c-1.099-7.998-2.414-16.216-3.903-24.434c0.268-1.846,2.79-3.463,5.516-3.463h76.099
		c2.916,0,5.303,1.762,5.546,3.326C609.615,664.577,608.559,726.243,617.476,787.657z"/>
	<path fill="#4D915F" d="M458.723,131.457c0-9.642-11.074-17.486-24.687-17.486h-76.103c-13.613,0-24.687,7.844-24.687,17.486
		c0,0.33,0.029,0.66,0.082,0.919c1.533,8.428,2.857,16.697,3.937,24.581c3.389,24.643,5.122,49.701,5.149,74.476
		c0.034,31.185-2.688,63.243-8.089,95.301c-0.717,1.68-1.078,3.384-1.078,5.071c0,0.324,0.029,0.649,0.076,0.893l-0.076,0.781
		c0,1.78,0.382,3.544,1.141,5.253c1.096,6.382,2.062,12.626,2.878,18.571c3.389,24.645,5.122,49.703,5.149,74.478
		c0.036,33.327-3.028,67.433-9.107,101.37l-0.061,0.676c0,9.641,11.074,17.484,24.687,17.484h76.103
		c7.323,0,14.203-2.272,18.872-6.235c3.747-3.179,5.805-7.26,5.794-11.49l-0.061-0.668c-11.675-64.913-12.011-130.339-1.004-194.458
		c0.711-1.69,1.069-3.444,1.065-5.219l0.021-1.435c0-1.734-0.361-3.45-1.073-5.108c-11.03-65.137-10.688-130.592,1.01-194.549
		L458.723,131.457z M434.034,537.618h-76.103c-2.918,0-5.307-1.765-5.546-3.332c6.121-34.163,9.208-68.654,9.174-102.517
		c-0.029-25.259-1.79-50.782-5.236-75.862c-0.228-1.662-0.468-3.336-0.717-5.018c0.77,0.051,1.546,0.077,2.328,0.077h76.103
		c0.786,0,1.567-0.026,2.341-0.078c-8.85,60.496-7.785,122.091,3.186,183.198C439.349,535.965,436.809,537.618,434.034,537.618z
		 M352.613,332.584c0.099-0.571,0.192-1.143,0.287-1.715l0.135-0.798c0.426-0.546,1.05-1.022,1.835-1.394
		c0.915-0.437,1.976-0.667,3.062-0.667h76.101c2.267,0,4.03,0.99,4.913,2.049l0.112,0.675c0.101,0.613,0.203,1.226,0.308,1.839
		c-0.105,0.598-0.204,1.197-0.306,1.795l-0.137,0.813c-0.989,1.253-2.906,2.091-4.89,2.091h-76.103
		c-2.193,0-3.932-0.945-4.835-1.966C352.936,334.399,352.777,333.493,352.613,332.584z M436.433,314.4
		c-0.795-0.054-1.592-0.082-2.397-0.082h-76.103c-0.805,0-1.602,0.027-2.389,0.079c4.019-27.746,6.043-55.628,6.014-82.976
		c-0.029-25.259-1.79-50.782-5.236-75.86c-1.101-7.998-2.416-16.217-3.905-24.434c0.268-1.846,2.79-3.463,5.516-3.463h76.101
		c2.914,0,5.301,1.762,5.544,3.326C428.572,191.319,427.514,252.986,436.433,314.4z"/>
	<path fill="#4D915F" d="M639.768,131.457c0-9.642-11.076-17.486-24.687-17.486h-76.103c-13.613,0-24.689,7.844-24.689,17.486
		c0,0.33,0.03,0.66,0.084,0.919c1.533,8.428,2.857,16.697,3.937,24.581c3.389,24.643,5.122,49.701,5.149,74.476
		c0.034,31.185-2.688,63.243-8.089,95.301c-0.717,1.68-1.08,3.384-1.08,5.071c0,0.324,0.03,0.649,0.078,0.893l-0.078,0.781
		c0,1.78,0.384,3.544,1.143,5.253c1.094,6.382,2.062,12.626,2.878,18.571c3.389,24.645,5.122,49.703,5.149,74.478
		c0.036,33.327-3.028,67.433-9.109,101.37l-0.061,0.676c0,9.641,11.076,17.484,24.689,17.484h76.103
		c7.323,0,14.203-2.272,18.872-6.235c3.747-3.179,5.805-7.26,5.794-11.49l-0.061-0.668c-11.675-64.913-12.011-130.339-1.004-194.458
		c0.711-1.69,1.069-3.444,1.065-5.219l0.021-1.435c0-1.734-0.361-3.45-1.073-5.108c-11.03-65.137-10.69-130.592,1.01-194.549
		L639.768,131.457z M615.078,537.618h-76.101c-2.918,0-5.307-1.765-5.548-3.332c6.123-34.163,9.21-68.654,9.175-102.517
		c-0.029-25.259-1.79-50.782-5.238-75.862c-0.226-1.662-0.466-3.336-0.717-5.018c0.772,0.051,1.548,0.077,2.33,0.077h76.103
		c0.786,0,1.567-0.026,2.341-0.078c-8.852,60.496-7.785,122.091,3.186,183.198C620.394,535.965,617.855,537.618,615.078,537.618z
		 M533.658,332.584c0.099-0.571,0.192-1.143,0.287-1.715l0.135-0.798c0.426-0.546,1.05-1.022,1.835-1.394
		c0.915-0.437,1.976-0.667,3.062-0.667h76.099c2.269,0,4.032,0.99,4.913,2.049l0.112,0.675c0.103,0.613,0.203,1.226,0.31,1.839
		c-0.105,0.598-0.205,1.197-0.306,1.795l-0.137,0.813c-0.989,1.253-2.906,2.091-4.892,2.091h-76.101
		c-2.193,0-3.932-0.945-4.837-1.966C533.982,334.399,533.822,333.493,533.658,332.584z M617.476,314.4
		c-0.793-0.054-1.59-0.082-2.395-0.082h-76.103c-0.805,0-1.602,0.027-2.391,0.079c4.021-27.746,6.043-55.628,6.016-82.976
		c-0.029-25.259-1.79-50.782-5.238-75.86c-1.099-7.998-2.414-16.217-3.903-24.434c0.268-1.846,2.79-3.463,5.516-3.463h76.099
		c2.916,0,5.303,1.762,5.546,3.326C609.615,191.319,608.559,252.986,617.476,314.4z"/>
	<path fill="#4D915F" d="M806.329,604.715c0-9.642-11.074-17.486-24.689-17.486h-76.101c-13.613,0-24.689,7.844-24.689,17.486
		c0,0.33,0.03,0.66,0.084,0.919c1.533,8.428,2.857,16.697,3.937,24.581c3.389,24.643,5.12,49.701,5.149,74.476
		c0.036,31.185-2.688,63.243-8.089,95.301c-0.717,1.68-1.08,3.384-1.08,5.071c0,0.325,0.03,0.649,0.08,0.893l-0.08,0.781
		c0,1.78,0.384,3.544,1.143,5.253c1.094,6.382,2.064,12.626,2.878,18.571c3.389,24.645,5.12,49.703,5.149,74.478
		c0.036,33.327-3.028,67.433-9.109,101.37l-0.061,0.676c0,9.641,11.076,17.484,24.689,17.484h76.101
		c7.323,0,14.205-2.273,18.874-6.235c3.749-3.179,5.807-7.26,5.794-11.49l-0.061-0.668c-11.675-64.913-12.011-130.339-1.004-194.458
		c0.711-1.69,1.069-3.444,1.065-5.219l0.021-1.435c0-1.734-0.361-3.45-1.073-5.108c-11.028-65.137-10.69-130.592,1.01-194.549
		L806.329,604.715z M781.641,1010.875h-76.103c-2.918,0-5.307-1.765-5.548-3.332c6.123-34.163,9.21-68.654,9.175-102.517
		c-0.029-25.259-1.79-50.782-5.238-75.862c-0.226-1.662-0.466-3.336-0.715-5.018c0.77,0.051,1.548,0.077,2.328,0.077h76.101
		c0.787,0,1.569-0.026,2.343-0.078c-8.852,60.496-7.783,122.091,3.186,183.198C786.955,1009.222,784.417,1010.875,781.641,1010.875z
		 M700.219,805.842c0.099-0.571,0.192-1.143,0.287-1.715l0.133-0.798c0.428-0.546,1.054-1.022,1.837-1.394
		c0.917-0.437,1.976-0.667,3.062-0.667h76.101c2.267,0,4.03,0.99,4.911,2.049l0.114,0.675c0.103,0.613,0.202,1.226,0.308,1.839
		c-0.103,0.598-0.205,1.197-0.304,1.795l-0.141,0.813c-0.985,1.253-2.903,2.091-4.888,2.091h-76.103
		c-2.193,0-3.932-0.945-4.837-1.966C700.544,807.657,700.383,806.75,700.219,805.842z M784.037,787.657
		c-0.791-0.054-1.59-0.082-2.397-0.082h-76.101c-0.803,0-1.602,0.027-2.389,0.079c4.019-27.746,6.041-55.627,6.014-82.976
		c-0.029-25.259-1.79-50.782-5.238-75.86c-1.099-7.998-2.412-16.216-3.903-24.434c0.268-1.846,2.79-3.463,5.516-3.463h76.101
		c2.914,0,5.301,1.762,5.546,3.326C776.178,664.577,775.12,726.243,784.037,787.657z"/>
	<path fill="#4D915F" d="M806.329,131.457c0-9.642-11.074-17.486-24.689-17.486h-76.101c-13.613,0-24.689,7.844-24.689,17.486
		c0,0.33,0.03,0.66,0.084,0.919c1.533,8.428,2.857,16.697,3.937,24.581c3.389,24.643,5.12,49.701,5.149,74.476
		c0.036,31.185-2.688,63.243-8.089,95.301c-0.717,1.68-1.08,3.384-1.08,5.071c0,0.324,0.03,0.649,0.08,0.893l-0.08,0.781
		c0,1.78,0.384,3.544,1.143,5.253c1.094,6.382,2.064,12.626,2.878,18.571c3.389,24.645,5.12,49.703,5.149,74.478
		c0.036,33.327-3.028,67.433-9.109,101.37l-0.061,0.676c0,9.641,11.076,17.484,24.689,17.484h76.101
		c7.323,0,14.205-2.272,18.874-6.235c3.749-3.179,5.807-7.26,5.794-11.49l-0.061-0.668c-11.675-64.913-12.011-130.339-1.004-194.458
		c0.711-1.69,1.069-3.444,1.065-5.219l0.021-1.435c0-1.734-0.361-3.45-1.073-5.108c-11.028-65.137-10.69-130.592,1.01-194.549
		L806.329,131.457z M781.641,537.618h-76.103c-2.918,0-5.307-1.765-5.548-3.332c6.123-34.163,9.21-68.654,9.175-102.517
		c-0.029-25.259-1.79-50.782-5.238-75.862c-0.226-1.662-0.466-3.336-0.715-5.018c0.77,0.051,1.548,0.077,2.328,0.077h76.101
		c0.787,0,1.569-0.026,2.343-0.078c-8.852,60.496-7.783,122.091,3.186,183.198C786.955,535.965,784.417,537.618,781.641,537.618z
		 M700.219,332.584c0.099-0.571,0.192-1.143,0.287-1.715l0.133-0.798c0.428-0.546,1.054-1.022,1.837-1.394
		c0.917-0.437,1.976-0.667,3.062-0.667h76.101c2.267,0,4.03,0.99,4.911,2.049l0.114,0.675c0.103,0.613,0.202,1.226,0.308,1.839
		c-0.103,0.598-0.205,1.197-0.304,1.795l-0.141,0.813c-0.985,1.253-2.903,2.091-4.888,2.091h-76.103
		c-2.193,0-3.932-0.945-4.837-1.966C700.544,334.399,700.383,333.493,700.219,332.584z M784.037,314.4
		c-0.791-0.054-1.59-0.082-2.397-0.082h-76.101c-0.803,0-1.602,0.027-2.389,0.079c4.019-27.746,6.041-55.628,6.014-82.976
		c-0.029-25.259-1.79-50.782-5.238-75.86c-1.099-7.998-2.412-16.217-3.903-24.434c0.268-1.846,2.79-3.463,5.516-3.463h76.101
		c2.914,0,5.301,1.762,5.546,3.326C776.178,191.319,775.12,252.986,784.037,314.4z"/>
</g>
</svg>
