<?xml version="1.0" encoding="utf-8"?>
<!-- Generator: Adobe Illustrator 23.1.0, SVG Export Plug-In . SVG Version: 6.00 Build 0)  -->
<svg version="1.1" id="Layer_1" xmlns="http://www.w3.org/2000/svg" xmlns:xlink="http://www.w3.org/1999/xlink" x="0px" y="0px"
	 viewBox="0 0 1200 1200" enable-background="new 0 0 1200 1200" xml:space="preserve">
<g>
	<path fill="#C1B6AC" d="M972.273,111.459c8.948,14.905,14.189,32.291,14.189,50.942v852.732c0,54.806-44.428,99.235-99.235,99.235
		H293.495c-17.6,0-34.099-4.628-48.431-12.663c17.347,28.895,48.891,48.294,85.046,48.294h593.734
		c54.805,0,99.235-44.429,99.235-99.235V198.032C1023.08,160.825,1002.573,128.447,972.273,111.459z"/>
	<path fill="#D1C8BF" d="M887.227,1114.369c54.807,0,99.235-44.429,99.235-99.235V162.401c0-18.651-5.241-36.037-14.189-50.942
		c-12.209-20.335-31.422-35.95-54.381-43.409C900.969,56.69,880.495,50,858.425,50H281.948C224.034,50,176.92,95.848,176.92,152.202
		v833.869c0,24.767,9.11,47.495,24.228,65.203c8.406,21.46,24.015,39.274,43.916,50.432c14.332,8.035,30.831,12.663,48.431,12.663
		H887.227z M192.213,986.071V152.202c0-48.151,40.253-87.321,89.735-87.321h576.477c49.483,0,89.737,39.17,89.737,87.321v833.869
		c0,48.151-40.255,87.321-89.737,87.321H281.948C232.465,1073.392,192.213,1034.222,192.213,986.071z"/>
	<path fill="#FFF6EB" d="M281.948,1073.392h576.477c49.483,0,89.737-39.17,89.737-87.321V152.202
		c0-48.151-40.255-87.321-89.737-87.321H281.948c-49.483,0-89.735,39.17-89.735,87.321v833.869
		C192.213,1034.222,232.465,1073.392,281.948,1073.392z M245.367,281.721c0.544-0.528,0.955-0.997,1.231-1.398
		c0.276-0.401,0.687-0.863,1.238-1.405c1.649-2.134,3.017-3.74,4.117-4.81c2.477-3.74,4.944-7.547,7.411-11.42
		c2.477-3.867,4.807-7.673,7.008-11.42v-0.401c0.202-0.199,0.308-0.304,0.419-0.411c0.259-0.255,0.399-0.455,0.399-0.593
		c0-0.127,0.137-0.328,0.411-0.602c0.276-0.529,0.552-1.064,0.826-1.599c0.268-0.536,0.55-1.064,0.826-1.606
		c1.092-2.134,2.467-4.409,4.118-6.81c1.368-2.409,2.673-4.81,3.911-7.212c1.238-2.408,2.538-4.81,3.913-7.219
		c2.475-5.071,5.005-10.082,7.617-15.026c2.606-4.937,5.15-9.814,7.617-14.624c4.118-8.55,8.168-16.967,12.156-25.249
		c3.974-8.276,7.75-16.692,11.324-25.249c0-0.261,0.061-0.462,0.205-0.602c0.131-0.127,0.207-0.328,0.207-0.602
		c1.092-1.86,2.606-3.733,4.531-5.607c0.818-1.063,1.642-2.067,2.467-3.004c0.824-0.936,1.781-1.94,2.88-3.01l4.944-4.804
		c1.092-1.071,2.123-2.067,3.086-3.01c0.963-0.93,1.994-1.8,3.095-2.603c1.368-1.331,2.736-2.535,4.118-3.606
		c1.368-1.064,2.88-2.134,4.531-3.204c0.266,0,0.542-0.134,0.818-0.401c0.55-0.535,1.092-0.803,1.649-0.803h0.413
		c0.542,0,0.542,0.267,0,0.803c0,7.212,0,14.491,0,21.837c0,7.352-0.145,14.632-0.413,21.844c0,15.226-0.068,30.393-0.207,45.486
		c-0.143,15.093-0.35,30.253-0.618,45.48v1.204h37.064c0,1.071-0.413,2.141-1.231,3.204c-1.1,1.071-1.925,2.007-2.475,2.81
		c-1.644,2.141-3.361,4.141-5.15,6.007c-1.788,1.873-3.774,3.88-5.967,6.015c-1.925,1.873-3.913,3.74-5.975,5.606
		c-2.054,1.873-4.187,3.606-6.38,5.212c-0.555,0.542-1.442,1.271-2.68,2.201c-1.231,0.944-2.406,1.405-3.5,1.405h-3.706
		c-0.274,8.557-0.413,16.9-0.413,25.048c0,8.156-0.137,16.498-0.411,25.048c0,1.338-0.413,2.469-1.231,3.405
		c-0.826,0.937-1.512,1.8-2.064,2.603c-1.644,2.141-3.437,4.208-5.355,6.215c-1.919,2.001-3.982,3.941-6.173,5.807
		c-3.295,3.747-7.282,7.352-11.943,10.825c-1.375,1.071-2.477,1.867-3.295,2.402c-0.824,0.542-1.587,0.936-2.268,1.204
		c-0.689,0.267-1.031,0.267-1.031,0c0.274-7.48,0.411-14.893,0.411-22.245c0-7.346,0-14.759,0-22.238
		c0.276-6.416,0.415-12.758,0.415-19.04c0-6.269,0-12.618,0-19.034c-24.711,0.542-49.42,1.338-74.129,2.409
		C244.13,283.594,244.541,282.523,245.367,281.721z M865.166,675.929h-50.232l22.729,22.117c4.547,4.419,4.547,11.593,0,16.013
		c-2.271,2.212-5.25,3.318-8.227,3.318c-2.977,0-5.954-1.106-8.227-3.318l-39.184-38.129h-39.553l56.818,55.285
		c4.547,4.419,4.547,11.589,0,16.013c-2.271,2.211-5.25,3.318-8.227,3.318c-2.977,0-5.954-1.106-8.227-3.318l-73.277-71.297H598.452
		l78.561,76.447h103.624c6.424,0,11.636,5.068,11.636,11.324c0,6.255-5.212,11.323-11.636,11.323h-80.349l27.968,27.215h55.42
		c6.424,0,11.638,5.069,11.638,11.324c0,6.255-5.214,11.324-11.638,11.324h-32.145l35.516,34.561c4.547,4.42,4.547,11.593,0,16.012
		c-2.271,2.212-5.25,3.318-8.227,3.318s-5.954-1.106-8.227-3.318l-35.516-34.561v31.277c0,6.256-5.212,11.324-11.638,11.324
		c-6.424,0-11.636-5.068-11.636-11.324V818.25l-27.964-27.211v78.183c0,6.255-5.212,11.324-11.636,11.324
		c-6.426,0-11.638-5.069-11.638-11.324V768.392l-78.565-76.45V800.06l73.269,71.297c4.547,4.419,4.547,11.593,0,16.012
		c-2.271,2.212-5.25,3.318-8.227,3.318s-5.954-1.106-8.227-3.318l-56.814-55.284v38.49l39.184,38.126
		c4.547,4.419,4.547,11.589,0,16.013c-2.271,2.211-5.25,3.318-8.227,3.318c-2.977,0-5.954-1.106-8.227-3.318l-22.729-22.115v48.876
		c0,6.256-5.212,11.324-11.636,11.324s-11.636-5.068-11.636-11.324v-48.876l-22.729,22.115c-4.546,4.423-11.91,4.423-16.455,0
		c-4.546-4.423-4.546-11.593,0-16.013l39.184-38.126v-38.49l-56.814,55.284c-4.546,4.424-11.91,4.424-16.455,0
		c-4.546-4.42-4.546-11.593,0-16.012l73.269-71.297V691.941l-78.565,76.45v100.831c0,6.255-5.212,11.324-11.638,11.324
		c-6.424,0-11.636-5.069-11.636-11.324v-78.183l-27.964,27.211v53.924c0,6.256-5.212,11.324-11.636,11.324
		c-6.426,0-11.638-5.068-11.638-11.324v-31.277l-35.516,34.561c-2.273,2.212-5.25,3.318-8.229,3.318
		c-2.975,0-5.954-1.106-8.226-3.318c-4.546-4.419-4.546-11.593,0-16.012l35.516-34.561h-32.145c-6.426,0-11.638-5.069-11.638-11.324
		c0-6.255,5.212-11.324,11.638-11.324h55.42l27.966-27.215h-80.347c-6.424,0-11.636-5.068-11.636-11.323
		c0-6.256,5.212-11.324,11.636-11.324h103.622l78.561-76.447H431.164l-73.277,71.297c-2.273,2.211-5.25,3.318-8.227,3.318
		c-2.977,0-5.956-1.106-8.227-3.318c-4.546-4.423-4.546-11.593,0-16.013l56.818-55.285h-39.553l-39.184,38.129
		c-2.273,2.212-5.25,3.318-8.229,3.318c-2.975,0-5.954-1.106-8.226-3.318c-4.547-4.42-4.547-11.593,0-16.013l22.727-22.117h-50.23
		c-6.424,0-11.636-5.069-11.636-11.324c0-6.255,5.212-11.324,11.636-11.324h50.23l-22.727-22.117
		c-4.547-4.419-4.547-11.593,0-16.013c4.545-4.423,11.908-4.423,16.455,0l39.184,38.129h39.553l-56.818-55.285
		c-4.546-4.419-4.546-11.589,0-16.013c4.545-4.423,11.908-4.423,16.455,0l73.277,71.297h111.104l-78.565-76.45H360.085
		c-6.424,0-11.636-5.069-11.636-11.324c0-6.255,5.212-11.323,11.636-11.323h80.346l-27.964-27.211h-55.42
		c-6.426,0-11.638-5.068-11.638-11.323c0-6.256,5.212-11.324,11.638-11.324h32.145l-35.516-34.561
		c-4.546-4.419-4.546-11.593,0-16.012c4.545-4.424,11.908-4.424,16.455,0l35.516,34.561v-31.28c0-6.256,5.212-11.324,11.638-11.324
		c6.424,0,11.636,5.068,11.636,11.324v53.928l27.964,27.211v-78.183c0-6.255,5.212-11.324,11.636-11.324
		c6.426,0,11.638,5.069,11.638,11.324v100.83l78.565,76.451V529.15l-73.269-71.297c-4.546-4.419-4.546-11.593,0-16.013
		c4.545-4.423,11.908-4.423,16.455,0l56.814,55.285v-38.49l-39.184-38.13c-4.546-4.42-4.546-11.593,0-16.013
		c4.545-4.423,11.908-4.423,16.455,0l22.729,22.117v-48.875c0-6.255,5.212-11.323,11.636-11.323s11.636,5.068,11.636,11.323v48.875
		l22.729-22.117c4.547-4.423,11.91-4.423,16.455,0c4.547,4.42,4.547,11.593,0,16.013l-39.184,38.13v38.49l56.814-55.285
		c4.547-4.423,11.91-4.423,16.455,0c4.547,4.42,4.547,11.593,0,16.013l-73.269,71.297v108.118l78.565-76.451v-100.83
		c0-6.255,5.212-11.324,11.638-11.324c6.424,0,11.636,5.069,11.636,11.324v78.183l27.964-27.211v-53.928
		c0-6.256,5.212-11.324,11.636-11.324c6.426,0,11.638,5.068,11.638,11.324v31.28l35.516-34.561c4.547-4.424,11.91-4.424,16.455,0
		c4.547,4.42,4.547,11.593,0,16.012l-35.516,34.561h32.145c6.424,0,11.638,5.068,11.638,11.324c0,6.255-5.214,11.323-11.638,11.323
		h-55.42l-27.964,27.211h80.346c6.424,0,11.636,5.068,11.636,11.323c0,6.256-5.212,11.324-11.636,11.324h-103.62l-78.565,76.45
		h111.106l73.277-71.297c4.547-4.423,11.91-4.423,16.455,0c4.547,4.423,4.547,11.593,0,16.013l-56.818,55.285h39.553l39.184-38.129
		c4.547-4.423,11.91-4.423,16.455,0c4.547,4.42,4.547,11.593,0,16.013l-22.729,22.117h50.232c6.424,0,11.636,5.069,11.636,11.324
		C876.803,670.86,871.59,675.929,865.166,675.929z M820.666,312.269c1.246,6.532-4.72,11.124-13.411,6.532
		c-5.713-3.146-21.608-14.503-43.964-30.938c-3.727-2.906-2.734-4.352,3.479-3.873C801.789,286.89,818.432,299.706,820.666,312.269z
		 M778.941,242.422c23.103,2.412,32.04,8.458,36.267,20.541c2.231,6.525-1.495,8.704-6.713,7.252
		c-5.713-1.693-17.136-8.697-34.527-23.447C770.496,243.628,771.489,241.696,778.941,242.422z M911.328,250.393
		c-40.732,7.498-45.95,6.772-53.649,2.42c-26.828-14.983-37.258-23.687-59.862-41.328c-31.293,30.451-62.095,43.021-100.847,50.033
		c-7.699,1.446-8.199-1.94-0.995-4.839c43.719-15.949,70.047-31.665,91.657-53.412c-15.898-11.604-25.335-16.922-32.286-18.855
		c-6.213,5.318-12.919,9.911-19.624,13.289c-6.711,3.146-6.711,0-1.994-4.105c16.645-15.229,28.321-28.039,38.253-43.021
		c9.192-13.536,11.178-19.342,10.685-25.38c-0.748-7.978,3.725-8.704,16.143-1.213c9.192,5.566,8.945,8.944,4.472,12.57
		c-3.232,2.18-12.171,11.364-20.863,21.028c2.481,0.966,5.46,0.966,9.439,0.487c7.697-1.206,19.622-4.352,29.807-9.184
		c5.212-2.42,6.451-2.659,14.897,3.625c10.683,8.458,9.445,11.117,3.232,14.256c-3.232,1.693-7.451,4.839-12.917,11.364
		c-7.206,8.704-14.905,18.855-23.349,27.312c40.239,24.174,62.593,30.939,103.826,37.95
		C919.279,245.321,920.272,248.707,911.328,250.393z"/>
	<path fill="#FFF6EB" d="M318.67,229.625c0.268-7.473,0.413-14.893,0.413-22.238c0-7.346,0-14.759,0-22.245
		c-1.375,2.141-2.543,4.409-3.498,6.81c-0.97,2.409-2.132,4.683-3.5,6.817c-4.676,8.55-9.413,17.033-14.21,25.449
		c-4.807,8.41-10.086,16.498-15.856,24.245c-0.557,0.535-1.031,1.197-1.444,2c-0.411,0.803-0.894,1.472-1.436,2.007
		c3.837-0.268,7.68-0.468,11.53-0.602c3.843-0.134,7.68-0.334,11.53-0.602c2.743,0,5.418-0.067,8.03-0.201
		c2.606-0.134,5.418-0.201,8.442-0.201V229.625z"/>
	<path fill="#FFF6EB" d="M811.727,162.658c-3.232,0.727-15.403,2.659-18.875,2.659c-6.46,0-9.439-0.487-14.157-3.146
		c-5.22,5.806-11.178,11.844-17.638,17.649c7.198,0.966,13.164,4.105,31.795,17.881c9.192-9.903,17.383-21.028,21.608-28.998
		C817.194,163.624,816.201,161.451,811.727,162.658z"/>
	<path fill="#1B669E" d="M865.166,653.281h-50.232l22.729-22.117c4.547-4.419,4.547-11.593,0-16.013
		c-4.545-4.423-11.908-4.423-16.455,0l-39.184,38.129h-39.553l56.818-55.285c4.547-4.419,4.547-11.589,0-16.013
		c-4.545-4.423-11.908-4.423-16.455,0l-73.277,71.297H598.452l78.565-76.45h103.62c6.424,0,11.636-5.069,11.636-11.324
		c0-6.255-5.212-11.323-11.636-11.323h-80.346l27.964-27.211h55.42c6.424,0,11.638-5.068,11.638-11.323
		c0-6.256-5.214-11.324-11.638-11.324h-32.145l35.516-34.561c4.547-4.419,4.547-11.593,0-16.012c-4.545-4.424-11.908-4.424-16.455,0
		l-35.516,34.561v-31.28c0-6.256-5.212-11.324-11.638-11.324c-6.424,0-11.636,5.068-11.636,11.324v53.928l-27.964,27.211v-78.183
		c0-6.255-5.212-11.324-11.636-11.324c-6.426,0-11.638,5.069-11.638,11.324v100.83l-78.565,76.451V529.15l73.269-71.297
		c4.547-4.419,4.547-11.593,0-16.013c-4.545-4.423-11.908-4.423-16.455,0l-56.814,55.285v-38.49l39.184-38.13
		c4.547-4.42,4.547-11.593,0-16.013c-4.545-4.423-11.908-4.423-16.455,0l-22.729,22.117v-48.875c0-6.255-5.212-11.323-11.636-11.323
		s-11.636,5.068-11.636,11.323v48.875l-22.729-22.117c-4.546-4.423-11.91-4.423-16.455,0c-4.546,4.42-4.546,11.593,0,16.013
		l39.184,38.13v38.49l-56.814-55.285c-4.546-4.423-11.91-4.423-16.455,0c-4.546,4.42-4.546,11.593,0,16.013l73.269,71.297v108.118
		l-78.565-76.451v-100.83c0-6.255-5.212-11.324-11.638-11.324c-6.424,0-11.636,5.069-11.636,11.324v78.183l-27.964-27.211v-53.928
		c0-6.256-5.212-11.324-11.636-11.324c-6.426,0-11.638,5.068-11.638,11.324v31.28l-35.516-34.561c-4.546-4.424-11.91-4.424-16.455,0
		c-4.546,4.42-4.546,11.593,0,16.012l35.516,34.561h-32.145c-6.426,0-11.638,5.068-11.638,11.324
		c0,6.255,5.212,11.323,11.638,11.323h55.42l27.964,27.211h-80.346c-6.424,0-11.636,5.068-11.636,11.323
		c0,6.256,5.212,11.324,11.636,11.324h103.618l78.565,76.45H431.164l-73.277-71.297c-4.546-4.423-11.91-4.423-16.455,0
		c-4.546,4.423-4.546,11.593,0,16.013l56.818,55.285h-39.553l-39.184-38.129c-4.547-4.423-11.91-4.423-16.455,0
		c-4.547,4.42-4.547,11.593,0,16.013l22.727,22.117h-50.23c-6.424,0-11.636,5.069-11.636,11.324c0,6.255,5.212,11.324,11.636,11.324
		h50.23l-22.727,22.117c-4.547,4.419-4.547,11.593,0,16.013c2.271,2.212,5.25,3.318,8.226,3.318c2.979,0,5.956-1.106,8.229-3.318
		l39.184-38.129h39.553l-56.818,55.285c-4.546,4.419-4.546,11.589,0,16.013c2.271,2.211,5.25,3.318,8.227,3.318
		c2.977,0,5.954-1.106,8.227-3.318l73.277-71.297h111.104l-78.561,76.447H360.085c-6.424,0-11.636,5.068-11.636,11.324
		c0,6.255,5.212,11.323,11.636,11.323h80.347l-27.966,27.215h-55.42c-6.426,0-11.638,5.069-11.638,11.324
		c0,6.255,5.212,11.324,11.638,11.324h32.145l-35.516,34.561c-4.546,4.42-4.546,11.593,0,16.012c2.271,2.212,5.25,3.318,8.226,3.318
		c2.979,0,5.956-1.106,8.229-3.318l35.516-34.561v31.277c0,6.256,5.212,11.324,11.638,11.324c6.424,0,11.636-5.068,11.636-11.324
		V818.25l27.964-27.211v78.183c0,6.255,5.212,11.324,11.636,11.324c6.426,0,11.638-5.069,11.638-11.324V768.392l78.565-76.45V800.06
		l-73.269,71.297c-4.546,4.419-4.546,11.593,0,16.012c4.545,4.424,11.908,4.424,16.455,0l56.814-55.284v38.49l-39.184,38.126
		c-4.546,4.419-4.546,11.589,0,16.013c4.545,4.423,11.908,4.423,16.455,0l22.729-22.115v48.876c0,6.256,5.212,11.324,11.636,11.324
		s11.636-5.068,11.636-11.324v-48.876l22.729,22.115c2.273,2.211,5.25,3.318,8.227,3.318c2.977,0,5.956-1.106,8.227-3.318
		c4.547-4.423,4.547-11.593,0-16.013l-39.184-38.126v-38.49l56.814,55.284c2.273,2.212,5.25,3.318,8.227,3.318
		s5.956-1.106,8.227-3.318c4.547-4.42,4.547-11.593,0-16.012l-73.269-71.297V691.941l78.565,76.45v100.831
		c0,6.255,5.212,11.324,11.638,11.324c6.424,0,11.636-5.069,11.636-11.324v-78.183l27.964,27.211v53.924
		c0,6.256,5.212,11.324,11.636,11.324c6.426,0,11.638-5.068,11.638-11.324v-31.277l35.516,34.561
		c2.273,2.212,5.25,3.318,8.227,3.318s5.956-1.106,8.227-3.318c4.547-4.419,4.547-11.593,0-16.012l-35.516-34.561h32.145
		c6.424,0,11.638-5.069,11.638-11.324c0-6.255-5.214-11.324-11.638-11.324h-55.42l-27.968-27.215h80.349
		c6.424,0,11.636-5.068,11.636-11.323c0-6.256-5.212-11.324-11.636-11.324H677.014l-78.561-76.447h111.106l73.277,71.297
		c2.273,2.211,5.25,3.318,8.227,3.318c2.977,0,5.956-1.106,8.227-3.318c4.547-4.423,4.547-11.593,0-16.013l-56.818-55.285h39.553
		l39.184,38.129c2.273,2.212,5.25,3.318,8.227,3.318c2.977,0,5.956-1.106,8.227-3.318c4.547-4.42,4.547-11.593,0-16.013
		l-22.729-22.117h50.232c6.424,0,11.636-5.069,11.636-11.324C876.803,658.35,871.59,653.281,865.166,653.281z"/>
	<path fill="#1B669E" d="M318.259,301.557c0,6.282-0.139,12.624-0.415,19.04c0,7.479,0,14.892,0,22.238
		c0,7.352-0.137,14.765-0.411,22.245c0,0.267,0.342,0.267,1.031,0c0.681-0.268,1.444-0.662,2.268-1.204
		c0.818-0.535,1.919-1.332,3.295-2.402c4.661-3.472,8.648-7.078,11.943-10.825c2.191-1.867,4.254-3.806,6.173-5.807
		c1.918-2.007,3.711-4.074,5.355-6.215c0.552-0.803,1.238-1.666,2.064-2.603c0.818-0.936,1.231-2.067,1.231-3.405
		c0.274-8.55,0.411-16.892,0.411-25.048c0-8.148,0.139-16.491,0.413-25.048h3.706c1.094,0,2.269-0.461,3.5-1.405
		c1.238-0.93,2.125-1.659,2.68-2.201c2.193-1.606,4.326-3.339,6.38-5.212c2.062-1.866,4.05-3.733,5.975-5.606
		c2.193-2.134,4.179-4.141,5.967-6.015c1.788-1.867,3.506-3.867,5.15-6.007c0.55-0.803,1.375-1.74,2.475-2.81
		c0.818-1.064,1.231-2.134,1.231-3.204h-37.064v-1.204c0.268-15.227,0.476-30.387,0.618-45.48
		c0.139-15.093,0.207-30.26,0.207-45.486c0.268-7.212,0.413-14.491,0.413-21.844c0-7.346,0-14.625,0-21.837
		c0.542-0.535,0.542-0.803,0-0.803h-0.413c-0.557,0-1.1,0.267-1.649,0.803c-0.276,0.267-0.552,0.401-0.818,0.401
		c-1.651,1.071-3.164,2.141-4.531,3.204c-1.383,1.071-2.751,2.275-4.118,3.606c-1.101,0.803-2.132,1.673-3.095,2.603
		c-0.963,0.943-1.994,1.94-3.086,3.01l-4.944,4.804c-1.1,1.07-2.056,2.074-2.88,3.01c-0.826,0.936-1.649,1.94-2.467,3.004
		c-1.925,1.873-3.439,3.747-4.531,5.607c0,0.274-0.076,0.475-0.207,0.602c-0.145,0.14-0.205,0.341-0.205,0.602
		c-3.574,8.557-7.35,16.973-11.324,25.249c-3.987,8.282-8.037,16.698-12.156,25.249c-2.467,4.81-5.011,9.687-7.617,14.624
		c-2.612,4.944-5.142,9.955-7.617,15.026c-1.375,2.408-2.675,4.81-3.913,7.219c-1.238,2.402-2.543,4.803-3.911,7.212
		c-1.651,2.402-3.027,4.676-4.118,6.81c-0.276,0.542-0.557,1.071-0.826,1.606c-0.274,0.535-0.55,1.07-0.826,1.599
		c-0.274,0.274-0.411,0.475-0.411,0.602c0,0.138-0.141,0.338-0.399,0.593c-0.11,0.107-0.217,0.212-0.419,0.411v0.401
		c-2.201,3.747-4.531,7.553-7.008,11.42c-2.467,3.874-4.935,7.681-7.411,11.42c-1.1,1.07-2.467,2.676-4.117,4.81
		c-0.552,0.542-0.963,1.003-1.238,1.405c-0.276,0.401-0.687,0.87-1.231,1.398c-0.826,0.803-1.236,1.873-1.236,3.212
		c24.709-1.071,49.418-1.867,74.129-2.409C318.259,288.939,318.259,295.288,318.259,301.557z M310.227,251.066
		c-2.612,0.134-5.286,0.201-8.03,0.201c-3.85,0.268-7.687,0.468-11.53,0.602c-3.85,0.134-7.693,0.334-11.53,0.602
		c0.542-0.535,1.025-1.204,1.436-2.007c0.413-0.803,0.886-1.465,1.444-2c5.77-7.748,11.049-15.836,15.856-24.245
		c4.798-8.416,9.534-16.9,14.21-25.449c1.368-2.134,2.53-4.409,3.5-6.817c0.955-2.402,2.123-4.67,3.498-6.81
		c0,7.486,0,14.899,0,22.245c0,7.346-0.145,14.765-0.413,22.238v21.241C315.645,250.866,312.834,250.933,310.227,251.066z"/>
	<path fill="#1B669E" d="M907.356,243.389c-41.232-7.011-63.586-13.776-103.826-37.95c8.444-8.457,16.143-18.608,23.349-27.312
		c5.465-6.525,9.685-9.671,12.917-11.364c6.213-3.139,7.451-5.798-3.232-14.256c-8.446-6.285-9.685-6.045-14.897-3.625
		c-10.185,4.832-22.11,7.978-29.807,9.184c-3.98,0.48-6.959,0.48-9.439-0.487c8.692-9.664,17.631-18.848,20.863-21.028
		c4.472-3.626,4.72-7.004-4.472-12.57c-12.418-7.491-16.891-6.765-16.143,1.213c0.493,6.038-1.493,11.843-10.685,25.38
		c-9.932,14.982-21.608,27.792-38.253,43.021c-4.718,4.105-4.718,7.252,1.994,4.105c6.706-3.378,13.411-7.971,19.624-13.289
		c6.951,1.933,16.388,7.251,32.286,18.855c-21.61,21.747-47.938,37.463-91.657,53.412c-7.204,2.899-6.704,6.285,0.995,4.839
		c38.752-7.012,69.554-19.582,100.847-50.033c22.603,17.641,33.033,26.346,59.862,41.328c7.699,4.352,12.917,5.079,53.649-2.42
		C920.272,248.707,919.279,245.321,907.356,243.389z M792.852,197.701c-18.631-13.776-24.597-16.915-31.795-17.881
		c6.46-5.805,12.418-11.843,17.638-17.649c4.718,2.659,7.697,3.146,14.157,3.146c3.472,0,15.643-1.933,18.875-2.659
		c4.474-1.206,5.467,0.966,2.734,6.045C810.235,176.673,802.044,187.797,792.852,197.701z"/>
	<path fill="#1B669E" d="M763.291,287.863c22.356,16.435,38.251,27.792,43.964,30.938c8.692,4.592,14.657,0,13.411-6.532
		c-2.233-12.563-18.877-25.38-53.896-28.279C760.557,283.511,759.564,284.957,763.291,287.863z"/>
	<path fill="#1B669E" d="M815.208,262.963c-4.227-12.083-13.164-18.128-36.267-20.541c-7.451-0.727-8.444,1.206-4.973,4.345
		c17.391,14.75,28.814,21.754,34.527,23.447C813.713,271.667,817.44,269.488,815.208,262.963z"/>
</g>
</svg>
