<?xml version="1.0" encoding="utf-8"?>
<!-- Generator: Adobe Illustrator 23.1.0, SVG Export Plug-In . SVG Version: 6.00 Build 0)  -->
<svg version="1.1" id="Layer_1" xmlns="http://www.w3.org/2000/svg" xmlns:xlink="http://www.w3.org/1999/xlink" x="0px" y="0px"
	 viewBox="0 0 1200 1200" enable-background="new 0 0 1200 1200" xml:space="preserve">
<g>
	<path fill="#C1B6AC" d="M972.196,111.594c8.947,14.904,14.187,32.286,14.187,50.935v852.623c0,54.799-44.424,99.223-99.223,99.223
		H293.503c-17.596,0-34.094-4.627-48.423-12.661c17.343,28.891,48.885,48.288,85.035,48.288h593.656
		c54.798,0,99.223-44.423,99.223-99.223V198.155C1022.994,160.953,1002.49,128.579,972.196,111.594z"/>
	<path fill="#D1C8BF" d="M887.161,1114.374c54.798,0,99.223-44.423,99.223-99.223V162.528c0-18.648-5.24-36.031-14.187-50.935
		c-12.19-20.305-31.369-35.902-54.283-43.371C901.179,56.746,880.956,50,859.176,50H281.145
		c-57.421,0-104.139,46.716-104.139,104.138v830.146c0,25.173,8.985,48.285,23.909,66.309c8.339,21.763,24.053,39.842,44.166,51.118
		c14.328,8.034,30.827,12.661,48.423,12.661H887.161z M192.169,984.285V154.138c0-49.063,39.913-88.976,88.976-88.976h578.031
		c49.064,0,88.976,39.912,88.976,88.976v830.146c0,49.06-39.913,88.972-88.976,88.972H281.145
		C232.082,1073.257,192.169,1033.345,192.169,984.285z"/>
	<path fill="#FFF6EB" d="M281.145,1073.257h578.031c49.064,0,88.976-39.912,88.976-88.972V154.138
		c0-49.063-39.913-88.976-88.976-88.976H281.145c-49.063,0-88.976,39.912-88.976,88.976v830.146
		C192.169,1033.345,232.082,1073.257,281.145,1073.257z M459.36,875.388c0.649,1.091,0.98,2.22,0.98,3.361l-0.019,0.944
		c0.004,1.168-0.323,2.322-0.974,3.435c-10.056,42.194-9.748,85.249,0.919,127.967l0.055,0.439c0.011,2.784-1.87,5.469-5.293,7.562
		c-4.266,2.607-10.553,4.103-17.244,4.103h-69.53c-12.438,0-22.555-5.161-22.555-11.505l0.053-0.445
		c5.556-22.333,8.356-44.776,8.323-66.708c-0.027-16.303-1.609-32.793-4.704-49.012c-0.746-3.912-1.63-8.021-2.631-12.221
		c-0.692-1.125-1.042-2.285-1.042-3.457l0.07-0.514c-0.044-0.161-0.07-0.374-0.07-0.588c0-1.11,0.331-2.231,0.985-3.337
		c4.936-21.096,7.422-42.193,7.391-62.715c-0.027-16.304-1.609-32.793-4.704-49.01c-0.987-5.188-2.197-10.63-3.597-16.176
		c-0.049-0.171-0.076-0.388-0.076-0.605c0-6.345,10.117-11.506,22.555-11.506h69.53c12.438,0,22.556,5.162,22.556,11.506
		l-0.057,0.455C449.593,789.449,449.283,832.523,459.36,875.388z M459.36,563.952c0.649,1.091,0.98,2.22,0.98,3.361l-0.019,0.944
		c0.004,1.168-0.323,2.322-0.974,3.435c-10.056,42.195-9.748,85.249,0.919,127.967l0.055,0.44c0.011,2.784-1.87,5.469-5.293,7.561
		c-4.266,2.607-10.553,4.103-17.244,4.103h-69.53c-12.438,0-22.555-5.161-22.555-11.506l0.053-0.445
		c5.556-22.333,8.356-44.776,8.323-66.708c-0.027-16.303-1.609-32.793-4.704-49.012c-0.746-3.912-1.63-8.021-2.631-12.221
		c-0.692-1.125-1.042-2.285-1.042-3.457l0.07-0.514c-0.044-0.16-0.07-0.374-0.07-0.588c0-1.11,0.331-2.231,0.985-3.337
		c4.936-21.096,7.422-42.193,7.391-62.715c-0.027-16.304-1.609-32.793-4.704-49.01c-0.987-5.188-2.197-10.63-3.597-16.176
		c-0.049-0.171-0.076-0.388-0.076-0.605c0-6.345,10.117-11.507,22.555-11.507h69.53c12.438,0,22.556,5.162,22.556,11.507
		l-0.057,0.454C449.593,478.014,449.283,521.088,459.36,563.952z M459.36,251.694c0.649,1.091,0.98,2.22,0.98,3.361l-0.019,0.944
		c0.004,1.168-0.323,2.322-0.974,3.435c-10.056,42.195-9.748,85.25,0.919,127.967l0.055,0.44c0.011,2.784-1.87,5.469-5.293,7.562
		c-4.266,2.607-10.553,4.103-17.244,4.103h-69.53c-12.438,0-22.555-5.162-22.555-11.506l0.053-0.445
		c5.556-22.333,8.356-44.777,8.323-66.708c-0.027-16.303-1.609-32.793-4.704-49.011c-0.746-3.912-1.63-8.021-2.631-12.221
		c-0.692-1.124-1.042-2.285-1.042-3.457l0.07-0.514c-0.044-0.161-0.07-0.374-0.07-0.588c0-1.11,0.331-2.232,0.985-3.337
		c4.936-21.096,7.422-42.193,7.391-62.714c-0.027-16.304-1.609-32.793-4.704-49.01c-0.987-5.188-2.197-10.63-3.597-16.176
		c-0.049-0.171-0.076-0.388-0.076-0.605c0-6.345,10.117-11.506,22.555-11.506h69.53c12.438,0,22.556,5.162,22.556,11.506
		l-0.057,0.454C449.593,165.755,449.283,208.829,459.36,251.694z M618.153,875.388c0.651,1.091,0.98,2.22,0.98,3.361l-0.019,0.944
		c0.004,1.168-0.323,2.322-0.974,3.435c-10.056,42.194-9.748,85.249,0.919,127.967l0.055,0.439c0.011,2.784-1.87,5.469-5.293,7.562
		c-4.266,2.607-10.553,4.103-17.244,4.103h-69.53c-12.438,0-22.556-5.161-22.556-11.505l0.057-0.445
		c5.554-22.333,8.354-44.776,8.321-66.708c-0.025-16.303-1.607-32.793-4.704-49.012c-0.746-3.912-1.63-8.021-2.631-12.221
		c-0.692-1.125-1.044-2.285-1.044-3.457l0.072-0.514c-0.044-0.161-0.072-0.374-0.072-0.588c0-1.11,0.333-2.231,0.987-3.337
		c4.936-21.096,7.424-42.193,7.391-62.715c-0.025-16.304-1.607-32.793-4.704-49.01c-0.989-5.188-2.199-10.63-3.599-16.176
		c-0.048-0.171-0.076-0.388-0.076-0.605c0-6.345,10.119-11.506,22.556-11.506h69.53c12.439,0,22.556,5.162,22.556,11.506
		l-0.057,0.455C608.386,789.449,608.076,832.523,618.153,875.388z M618.153,563.952c0.651,1.091,0.98,2.22,0.98,3.361l-0.019,0.944
		c0.004,1.168-0.323,2.322-0.974,3.435c-10.056,42.195-9.748,85.249,0.919,127.967l0.055,0.44c0.011,2.784-1.87,5.469-5.293,7.561
		c-4.266,2.607-10.553,4.103-17.244,4.103h-69.53c-12.438,0-22.556-5.161-22.556-11.506l0.057-0.445
		c5.554-22.333,8.354-44.776,8.321-66.708c-0.025-16.303-1.607-32.793-4.704-49.012c-0.746-3.912-1.63-8.021-2.631-12.221
		c-0.692-1.125-1.044-2.285-1.044-3.457l0.072-0.514c-0.044-0.16-0.072-0.374-0.072-0.588c0-1.11,0.333-2.231,0.987-3.337
		c4.936-21.096,7.424-42.193,7.391-62.715c-0.025-16.304-1.607-32.793-4.704-49.01c-0.989-5.188-2.199-10.63-3.599-16.176
		c-0.048-0.171-0.076-0.388-0.076-0.605c0-6.345,10.119-11.507,22.556-11.507h69.53c12.439,0,22.556,5.162,22.556,11.507
		l-0.057,0.454C608.386,478.014,608.076,521.088,618.153,563.952z M618.153,251.694c0.651,1.091,0.98,2.22,0.98,3.361l-0.019,0.944
		c0.004,1.168-0.323,2.322-0.974,3.435c-10.056,42.195-9.748,85.25,0.919,127.967l0.055,0.44c0.011,2.784-1.87,5.469-5.293,7.562
		c-4.266,2.607-10.553,4.103-17.244,4.103h-69.53c-12.438,0-22.556-5.162-22.556-11.506l0.057-0.445
		c5.554-22.333,8.354-44.777,8.321-66.708c-0.025-16.303-1.607-32.793-4.704-49.011c-0.746-3.912-1.63-8.021-2.631-12.221
		c-0.692-1.124-1.044-2.285-1.044-3.457l0.072-0.514c-0.044-0.161-0.072-0.374-0.072-0.588c0-1.11,0.333-2.232,0.987-3.337
		c4.936-21.096,7.424-42.193,7.391-62.714c-0.025-16.304-1.607-32.793-4.704-49.01c-0.989-5.188-2.199-10.63-3.599-16.176
		c-0.048-0.171-0.076-0.388-0.076-0.605c0-6.345,10.119-11.506,22.556-11.506h69.53c12.439,0,22.556,5.162,22.556,11.506
		l-0.057,0.454C608.386,165.755,608.076,208.829,618.153,251.694z M776.946,875.388c0.651,1.091,0.98,2.22,0.98,3.361l-0.019,0.944
		c0.004,1.168-0.323,2.322-0.974,3.435c-10.056,42.194-9.748,85.249,0.919,127.967l0.055,0.439c0.011,2.784-1.868,5.469-5.293,7.562
		c-4.266,2.607-10.553,4.103-17.242,4.103H685.84c-12.438,0-22.555-5.161-22.555-11.505l0.055-0.445
		c5.556-22.333,8.356-44.776,8.321-66.708c-0.025-16.303-1.607-32.793-4.704-49.012c-0.746-3.912-1.63-8.021-2.63-12.221
		c-0.692-1.125-1.042-2.285-1.042-3.457l0.07-0.514c-0.044-0.161-0.07-0.374-0.07-0.588c0-1.11,0.331-2.231,0.985-3.337
		c4.936-21.096,7.424-42.193,7.391-62.715c-0.025-16.304-1.607-32.793-4.704-49.01c-0.987-5.188-2.197-10.63-3.597-16.176
		c-0.049-0.171-0.076-0.388-0.076-0.605c0-6.345,10.117-11.506,22.555-11.506h69.531c12.436,0,22.555,5.162,22.555,11.506
		l-0.057,0.455C767.179,789.449,766.869,832.523,776.946,875.388z M776.946,563.952c0.651,1.091,0.98,2.22,0.98,3.361l-0.019,0.944
		c0.004,1.168-0.323,2.322-0.974,3.435c-10.056,42.195-9.748,85.249,0.919,127.967l0.055,0.44c0.011,2.784-1.868,5.469-5.293,7.561
		c-4.266,2.607-10.553,4.103-17.242,4.103H685.84c-12.438,0-22.555-5.161-22.555-11.506l0.055-0.445
		c5.556-22.333,8.356-44.776,8.321-66.708c-0.025-16.303-1.607-32.793-4.704-49.012c-0.746-3.912-1.63-8.021-2.63-12.221
		c-0.692-1.125-1.042-2.285-1.042-3.457l0.07-0.514c-0.044-0.16-0.07-0.374-0.07-0.588c0-1.11,0.331-2.231,0.985-3.337
		c4.936-21.096,7.424-42.193,7.391-62.715c-0.025-16.304-1.607-32.793-4.704-49.01c-0.987-5.188-2.197-10.63-3.597-16.176
		c-0.049-0.171-0.076-0.388-0.076-0.605c0-6.345,10.117-11.507,22.555-11.507h69.531c12.436,0,22.555,5.162,22.555,11.507
		l-0.057,0.454C767.179,478.014,766.869,521.088,776.946,563.952z M776.946,251.694c0.651,1.091,0.98,2.22,0.98,3.361l-0.019,0.944
		c0.004,1.168-0.323,2.322-0.974,3.435c-10.056,42.195-9.748,85.25,0.919,127.967l0.055,0.44c0.011,2.784-1.868,5.469-5.293,7.562
		c-4.266,2.607-10.553,4.103-17.242,4.103H685.84c-12.438,0-22.555-5.162-22.555-11.506l0.055-0.445
		c5.556-22.333,8.356-44.777,8.321-66.708c-0.025-16.303-1.607-32.793-4.704-49.011c-0.746-3.912-1.63-8.021-2.63-12.221
		c-0.692-1.124-1.042-2.285-1.042-3.457l0.07-0.514c-0.044-0.161-0.07-0.374-0.07-0.588c0-1.11,0.331-2.232,0.985-3.337
		c4.936-21.096,7.424-42.193,7.391-62.714c-0.025-16.304-1.607-32.793-4.704-49.01c-0.987-5.188-2.197-10.63-3.597-16.176
		c-0.049-0.171-0.076-0.388-0.076-0.605c0-6.345,10.117-11.506,22.555-11.506h69.531c12.436,0,22.555,5.162,22.555,11.506
		l-0.057,0.454C767.179,165.755,766.869,208.829,776.946,251.694z"/>
	<path fill="#FFF6EB" d="M439.923,267.612c-0.706,0.035-1.421,0.052-2.14,0.052h-69.53c-0.713,0-1.423-0.017-2.126-0.05
		c0.228,1.107,0.445,2.208,0.654,3.302c3.15,16.504,4.759,33.301,4.784,49.922c0.032,22.284-2.788,44.982-8.382,67.464
		c0.221,1.031,2.402,2.193,5.069,2.193h69.53c2.537,0,4.858-1.088,5.054-2.325C432.811,347.957,431.837,307.423,439.923,267.612z"/>
	<path fill="#FFF6EB" d="M437.781,120.716h-69.528c-2.492,0-4.793,1.064-5.04,2.279c1.362,5.408,2.562,10.816,3.568,16.079
		c3.15,16.504,4.759,33.299,4.784,49.921c0.025,17.998-1.822,36.345-5.495,54.604c0.721-0.034,1.449-0.052,2.184-0.052h69.53
		c0.736,0,1.466,0.018,2.189,0.054c-8.146-40.414-7.182-80.995,2.876-120.696C442.626,121.876,440.446,120.716,437.781,120.716z"/>
	<path fill="#FFF6EB" d="M437.781,258.653c1.815,0,3.566-0.552,4.468-1.376l0.127-0.535c0.091-0.394,0.185-0.788,0.28-1.181
		c-0.097-0.404-0.188-0.807-0.283-1.211l-0.103-0.444c-0.805-0.697-2.416-1.348-4.489-1.348h-69.528
		c-0.993,0-1.961,0.152-2.798,0.439c-0.717,0.245-1.288,0.558-1.678,0.918l-0.122,0.525c-0.087,0.377-0.173,0.752-0.264,1.128
		c0.15,0.598,0.297,1.195,0.441,1.791c0.826,0.672,2.416,1.294,4.418,1.294H437.781z"/>
	<path fill="#FFF6EB" d="M596.576,570.912c1.813,0,3.564-0.552,4.466-1.376l0.127-0.535c0.093-0.394,0.185-0.788,0.28-1.182
		c-0.097-0.403-0.188-0.807-0.281-1.21l-0.105-0.444c-0.805-0.697-2.416-1.348-4.487-1.348h-69.53c-0.991,0-1.961,0.152-2.798,0.439
		c-0.717,0.245-1.288,0.558-1.678,0.917l-0.122,0.525c-0.087,0.376-0.173,0.752-0.262,1.128c0.148,0.598,0.297,1.195,0.439,1.791
		c0.827,0.672,2.416,1.294,4.418,1.294H596.576z"/>
	<path fill="#FFF6EB" d="M596.576,744.411h-69.53c-2.49,0-4.795,1.064-5.039,2.279c1.362,5.408,2.56,10.816,3.566,16.08
		c3.15,16.503,4.759,33.299,4.784,49.921c0.027,17.997-1.822,36.345-5.493,54.604c0.719-0.034,1.447-0.051,2.182-0.051h69.53
		c0.736,0,1.465,0.018,2.191,0.053c-8.148-40.414-7.182-80.995,2.876-120.696C601.419,745.57,599.239,744.411,596.576,744.411z"/>
	<path fill="#FFF6EB" d="M598.718,579.871c-0.708,0.034-1.423,0.052-2.142,0.052h-69.53c-0.713,0-1.423-0.017-2.128-0.051
		c0.23,1.107,0.449,2.208,0.656,3.302c3.15,16.505,4.759,33.301,4.784,49.923c0.032,22.284-2.788,44.982-8.38,67.464
		c0.221,1.031,2.4,2.193,5.067,2.193h69.531c2.535,0,4.856-1.088,5.052-2.325C591.604,660.216,590.63,619.682,598.718,579.871z"/>
	<path fill="#FFF6EB" d="M596.576,882.348c1.813,0,3.564-0.552,4.466-1.376l0.127-0.534c0.093-0.394,0.185-0.788,0.28-1.182
		c-0.097-0.403-0.188-0.807-0.281-1.21l-0.105-0.444c-0.805-0.697-2.416-1.348-4.487-1.348h-69.53c-0.991,0-1.961,0.152-2.798,0.438
		c-0.717,0.245-1.288,0.558-1.678,0.918l-0.122,0.525c-0.087,0.376-0.173,0.752-0.262,1.128c0.148,0.598,0.297,1.194,0.439,1.791
		c0.827,0.672,2.416,1.294,4.418,1.294H596.576z"/>
	<path fill="#FFF6EB" d="M437.781,432.975h-69.528c-2.492,0-4.793,1.064-5.04,2.279c1.362,5.408,2.562,10.816,3.568,16.08
		c3.15,16.503,4.759,33.299,4.784,49.921c0.025,17.997-1.822,36.345-5.495,54.604c0.721-0.034,1.449-0.051,2.184-0.051h69.53
		c0.736,0,1.466,0.018,2.189,0.054c-8.146-40.415-7.182-80.996,2.876-120.697C442.626,434.134,440.446,432.975,437.781,432.975z"/>
	<path fill="#FFF6EB" d="M437.781,882.348c1.815,0,3.566-0.552,4.468-1.376l0.127-0.534c0.091-0.394,0.185-0.788,0.28-1.182
		c-0.097-0.403-0.188-0.807-0.283-1.21l-0.103-0.444c-0.805-0.697-2.416-1.348-4.489-1.348h-69.528
		c-0.993,0-1.961,0.152-2.798,0.438c-0.717,0.245-1.288,0.558-1.678,0.918l-0.122,0.525c-0.087,0.376-0.173,0.752-0.264,1.128
		c0.15,0.598,0.297,1.194,0.441,1.791c0.826,0.672,2.416,1.294,4.418,1.294H437.781z"/>
	<path fill="#FFF6EB" d="M439.923,891.307c-0.706,0.034-1.421,0.052-2.14,0.052h-69.53c-0.713,0-1.423-0.017-2.126-0.051
		c0.228,1.107,0.445,2.208,0.654,3.302c3.15,16.505,4.759,33.301,4.784,49.922c0.032,22.284-2.788,44.982-8.382,67.464
		c0.221,1.031,2.402,2.193,5.069,2.193h69.53c2.537,0,4.858-1.087,5.054-2.325C432.811,971.651,431.837,931.117,439.923,891.307z"/>
	<path fill="#FFF6EB" d="M437.781,744.411h-69.528c-2.492,0-4.793,1.064-5.04,2.279c1.362,5.408,2.562,10.816,3.568,16.08
		c3.15,16.503,4.759,33.299,4.784,49.921c0.025,17.997-1.822,36.345-5.495,54.604c0.721-0.034,1.449-0.051,2.184-0.051h69.53
		c0.736,0,1.466,0.018,2.189,0.053c-8.146-40.414-7.182-80.995,2.876-120.696C442.626,745.57,440.446,744.411,437.781,744.411z"/>
	<path fill="#FFF6EB" d="M437.781,570.912c1.815,0,3.566-0.552,4.468-1.376l0.127-0.535c0.091-0.394,0.185-0.788,0.28-1.182
		c-0.097-0.403-0.188-0.807-0.283-1.21l-0.103-0.444c-0.805-0.697-2.416-1.348-4.489-1.348h-69.528
		c-0.993,0-1.961,0.152-2.798,0.439c-0.717,0.245-1.288,0.558-1.678,0.917l-0.122,0.525c-0.087,0.376-0.173,0.752-0.264,1.128
		c0.15,0.598,0.297,1.195,0.441,1.791c0.826,0.672,2.416,1.294,4.418,1.294H437.781z"/>
	<path fill="#FFF6EB" d="M439.923,579.871c-0.706,0.034-1.421,0.052-2.14,0.052h-69.53c-0.713,0-1.423-0.017-2.126-0.051
		c0.228,1.107,0.445,2.208,0.654,3.302c3.15,16.505,4.759,33.301,4.784,49.923c0.032,22.284-2.788,44.982-8.382,67.464
		c0.221,1.031,2.402,2.193,5.069,2.193h69.53c2.537,0,4.858-1.088,5.054-2.325C432.811,660.216,431.837,619.682,439.923,579.871z"/>
	<path fill="#FFF6EB" d="M598.718,891.307c-0.708,0.034-1.423,0.052-2.142,0.052h-69.53c-0.713,0-1.423-0.017-2.128-0.051
		c0.23,1.107,0.449,2.208,0.656,3.302c3.15,16.505,4.759,33.301,4.784,49.922c0.032,22.284-2.788,44.982-8.38,67.464
		c0.221,1.031,2.4,2.193,5.067,2.193h69.531c2.535,0,4.856-1.087,5.052-2.325C591.604,971.651,590.63,931.117,598.718,891.307z"/>
	<path fill="#FFF6EB" d="M755.369,744.411h-69.53c-2.49,0-4.793,1.064-5.04,2.279c1.362,5.408,2.564,10.816,3.568,16.08
		c3.15,16.503,4.759,33.299,4.786,49.921c0.025,17.997-1.824,36.345-5.497,54.604c0.721-0.034,1.449-0.051,2.184-0.051h69.531
		c0.734,0,1.465,0.018,2.189,0.053c-8.148-40.414-7.182-80.995,2.876-120.696C760.212,745.57,758.032,744.411,755.369,744.411z"/>
	<path fill="#FFF6EB" d="M755.369,882.348c1.813,0,3.564-0.552,4.468-1.376l0.125-0.534c0.093-0.394,0.185-0.788,0.28-1.182
		c-0.097-0.403-0.188-0.807-0.281-1.21l-0.105-0.444c-0.805-0.697-2.416-1.348-4.487-1.348h-69.53c-0.993,0-1.961,0.152-2.798,0.438
		c-0.717,0.245-1.288,0.558-1.678,0.918l-0.122,0.525c-0.087,0.376-0.173,0.752-0.262,1.128c0.148,0.598,0.297,1.194,0.439,1.791
		c0.827,0.672,2.416,1.294,4.42,1.294H755.369z"/>
	<path fill="#FFF6EB" d="M757.511,579.871c-0.708,0.034-1.423,0.052-2.14,0.052H685.84c-0.713,0-1.423-0.017-2.127-0.051
		c0.228,1.107,0.447,2.208,0.654,3.302c3.15,16.505,4.759,33.301,4.786,49.923c0.03,22.284-2.788,44.982-8.382,67.464
		c0.219,1.031,2.402,2.193,5.069,2.193h69.53c2.535,0,4.856-1.088,5.052-2.325C750.399,660.216,749.424,619.682,757.511,579.871z"/>
	<path fill="#FFF6EB" d="M755.369,432.975h-69.53c-2.49,0-4.793,1.064-5.04,2.279c1.362,5.408,2.564,10.816,3.568,16.08
		c3.15,16.503,4.759,33.299,4.786,49.921c0.025,17.997-1.824,36.345-5.497,54.604c0.721-0.034,1.449-0.051,2.184-0.051h69.531
		c0.734,0,1.465,0.018,2.189,0.054c-8.148-40.415-7.182-80.996,2.876-120.697C760.212,434.134,758.032,432.975,755.369,432.975z"/>
	<path fill="#FFF6EB" d="M755.369,570.912c1.813,0,3.564-0.552,4.468-1.376l0.125-0.535c0.093-0.394,0.185-0.788,0.28-1.182
		c-0.097-0.403-0.188-0.807-0.281-1.21l-0.105-0.444c-0.805-0.697-2.416-1.348-4.487-1.348h-69.53c-0.993,0-1.961,0.152-2.798,0.439
		c-0.717,0.245-1.288,0.558-1.678,0.917l-0.122,0.525c-0.087,0.376-0.173,0.752-0.262,1.128c0.148,0.598,0.297,1.195,0.439,1.791
		c0.827,0.672,2.416,1.294,4.42,1.294H755.369z"/>
	<path fill="#FFF6EB" d="M757.511,891.307c-0.708,0.034-1.423,0.052-2.14,0.052H685.84c-0.713,0-1.423-0.017-2.127-0.051
		c0.228,1.107,0.447,2.208,0.654,3.302c3.15,16.505,4.759,33.301,4.786,49.922c0.03,22.284-2.788,44.982-8.382,67.464
		c0.219,1.031,2.402,2.193,5.069,2.193h69.53c2.535,0,4.856-1.087,5.052-2.325C750.399,971.651,749.424,931.117,757.511,891.307z"/>
	<path fill="#FFF6EB" d="M596.576,432.975h-69.53c-2.49,0-4.795,1.064-5.039,2.279c1.362,5.408,2.56,10.816,3.566,16.08
		c3.15,16.503,4.759,33.299,4.784,49.921c0.027,17.997-1.822,36.345-5.493,54.604c0.719-0.034,1.447-0.051,2.182-0.051h69.53
		c0.736,0,1.465,0.018,2.191,0.054c-8.148-40.415-7.182-80.996,2.876-120.697C601.419,434.134,599.239,432.975,596.576,432.975z"/>
	<path fill="#FFF6EB" d="M598.718,267.612c-0.708,0.035-1.423,0.052-2.142,0.052h-69.53c-0.713,0-1.423-0.017-2.128-0.05
		c0.23,1.107,0.449,2.208,0.656,3.302c3.15,16.504,4.759,33.301,4.784,49.922c0.032,22.284-2.788,44.982-8.38,67.464
		c0.221,1.031,2.4,2.193,5.067,2.193h69.531c2.535,0,4.856-1.088,5.052-2.325C591.604,347.957,590.63,307.423,598.718,267.612z"/>
	<path fill="#FFF6EB" d="M755.369,258.653c1.813,0,3.564-0.552,4.468-1.376l0.125-0.535c0.093-0.394,0.185-0.788,0.28-1.181
		c-0.097-0.404-0.188-0.807-0.281-1.211l-0.105-0.444c-0.805-0.697-2.416-1.348-4.487-1.348h-69.53
		c-0.993,0-1.961,0.152-2.798,0.439c-0.717,0.245-1.288,0.558-1.678,0.918l-0.122,0.525c-0.087,0.377-0.173,0.752-0.262,1.128
		c0.148,0.598,0.297,1.195,0.439,1.791c0.827,0.672,2.416,1.294,4.42,1.294H755.369z"/>
	<path fill="#FFF6EB" d="M755.369,120.716h-69.53c-2.49,0-4.793,1.064-5.04,2.279c1.362,5.408,2.564,10.816,3.568,16.079
		c3.15,16.504,4.759,33.299,4.786,49.921c0.025,17.998-1.824,36.345-5.497,54.604c0.721-0.034,1.449-0.052,2.184-0.052h69.531
		c0.734,0,1.465,0.018,2.189,0.054c-8.148-40.414-7.182-80.995,2.876-120.696C760.212,121.876,758.032,120.716,755.369,120.716z"/>
	<path fill="#FFF6EB" d="M596.576,258.653c1.813,0,3.564-0.552,4.466-1.376l0.127-0.535c0.093-0.394,0.185-0.788,0.28-1.181
		c-0.097-0.404-0.188-0.807-0.281-1.211l-0.105-0.444c-0.805-0.697-2.416-1.348-4.487-1.348h-69.53
		c-0.991,0-1.961,0.152-2.798,0.439c-0.717,0.245-1.288,0.558-1.678,0.918l-0.122,0.525c-0.087,0.377-0.173,0.752-0.262,1.128
		c0.148,0.598,0.297,1.195,0.439,1.791c0.827,0.672,2.416,1.294,4.418,1.294H596.576z"/>
	<path fill="#FFF6EB" d="M596.576,120.716h-69.53c-2.49,0-4.795,1.064-5.039,2.279c1.362,5.408,2.56,10.816,3.566,16.079
		c3.15,16.504,4.759,33.299,4.784,49.921c0.027,17.998-1.822,36.345-5.493,54.604c0.719-0.034,1.447-0.052,2.182-0.052h69.53
		c0.736,0,1.465,0.018,2.191,0.054c-8.148-40.414-7.182-80.995,2.876-120.696C601.419,121.876,599.239,120.716,596.576,120.716z"/>
	<path fill="#FFF6EB" d="M757.511,267.612c-0.708,0.035-1.423,0.052-2.14,0.052H685.84c-0.713,0-1.423-0.017-2.127-0.05
		c0.228,1.107,0.447,2.208,0.654,3.302c3.15,16.504,4.759,33.301,4.786,49.922c0.03,22.284-2.788,44.982-8.382,67.464
		c0.219,1.031,2.402,2.193,5.069,2.193h69.53c2.535,0,4.856-1.088,5.052-2.325C750.399,347.957,749.424,307.423,757.511,267.612z"/>
	<path fill="#4D915F" d="M460.34,746.907c0-6.345-10.119-11.506-22.556-11.506h-69.53c-12.438,0-22.555,5.162-22.555,11.506
		c0,0.217,0.027,0.434,0.076,0.605c1.4,5.546,2.61,10.988,3.597,16.176c3.095,16.217,4.677,32.706,4.704,49.01
		c0.03,20.522-2.456,41.618-7.391,62.715c-0.654,1.106-0.985,2.226-0.985,3.337c0,0.214,0.027,0.427,0.07,0.588l-0.07,0.514
		c0,1.172,0.35,2.332,1.042,3.457c1,4.2,1.885,8.309,2.631,12.221c3.095,16.218,4.677,32.708,4.704,49.012
		c0.032,21.932-2.767,44.375-8.323,66.708l-0.053,0.445c0,6.344,10.117,11.505,22.555,11.505h69.53
		c6.691,0,12.978-1.495,17.244-4.103c3.424-2.092,5.305-4.778,5.293-7.562l-0.055-0.439c-10.667-42.718-10.975-85.773-0.919-127.967
		c0.651-1.113,0.978-2.266,0.974-3.435l0.019-0.944c0-1.141-0.331-2.271-0.98-3.361c-10.077-42.865-9.767-85.939,0.923-128.026
		L460.34,746.907z M437.781,1014.189h-69.53c-2.667,0-4.848-1.162-5.069-2.193c5.594-22.482,8.415-45.18,8.382-67.464
		c-0.025-16.622-1.634-33.418-4.784-49.922c-0.209-1.094-0.426-2.195-0.654-3.302c0.704,0.034,1.413,0.051,2.126,0.051h69.53
		c0.719,0,1.434-0.018,2.14-0.052c-8.086,39.81-7.112,80.345,2.912,120.557C442.639,1013.101,440.319,1014.189,437.781,1014.189z
		 M363.392,879.263c0.091-0.376,0.177-0.752,0.264-1.128l0.122-0.525c0.39-0.359,0.961-0.672,1.678-0.918
		c0.837-0.287,1.805-0.438,2.798-0.438h69.528c2.073,0,3.684,0.651,4.489,1.348l0.103,0.444c0.095,0.403,0.186,0.807,0.283,1.21
		c-0.095,0.393-0.188,0.787-0.28,1.182l-0.127,0.534c-0.902,0.825-2.653,1.376-4.468,1.376h-69.53c-2.003,0-3.593-0.622-4.418-1.294
		C363.689,880.457,363.542,879.86,363.392,879.263z M439.973,867.296c-0.723-0.036-1.453-0.053-2.189-0.053h-69.53
		c-0.734,0-1.463,0.017-2.184,0.051c3.673-18.259,5.52-36.606,5.495-54.604c-0.025-16.622-1.634-33.418-4.784-49.921
		c-1.006-5.263-2.206-10.672-3.568-16.08c0.247-1.214,2.549-2.279,5.04-2.279h69.528c2.665,0,4.845,1.159,5.067,2.189
		C432.79,786.301,431.826,826.881,439.973,867.296z"/>
	<path fill="#CC403A" d="M619.133,746.907c0-6.345-10.117-11.506-22.556-11.506h-69.53c-12.438,0-22.556,5.162-22.556,11.506
		c0,0.217,0.029,0.434,0.076,0.605c1.4,5.546,2.61,10.988,3.599,16.176c3.097,16.217,4.679,32.706,4.704,49.01
		c0.032,20.522-2.456,41.618-7.391,62.715c-0.654,1.106-0.987,2.226-0.987,3.337c0,0.214,0.029,0.427,0.072,0.588l-0.072,0.514
		c0,1.172,0.352,2.332,1.044,3.457c1,4.2,1.885,8.309,2.631,12.221c3.097,16.218,4.679,32.708,4.704,49.012
		c0.032,21.932-2.767,44.375-8.321,66.708l-0.057,0.445c0,6.344,10.119,11.505,22.556,11.505h69.53
		c6.691,0,12.978-1.495,17.244-4.103c3.424-2.092,5.305-4.778,5.293-7.562l-0.055-0.439c-10.667-42.718-10.975-85.773-0.919-127.967
		c0.651-1.113,0.978-2.266,0.974-3.435l0.019-0.944c0-1.141-0.329-2.271-0.98-3.361c-10.077-42.865-9.767-85.939,0.922-128.026
		L619.133,746.907z M596.576,1014.189h-69.531c-2.667,0-4.846-1.162-5.067-2.193c5.592-22.482,8.413-45.18,8.38-67.464
		c-0.025-16.622-1.634-33.418-4.784-49.922c-0.207-1.094-0.426-2.195-0.656-3.302c0.706,0.034,1.415,0.051,2.128,0.051h69.53
		c0.719,0,1.434-0.018,2.142-0.052c-8.088,39.81-7.114,80.345,2.91,120.557C601.432,1013.101,599.112,1014.189,596.576,1014.189z
		 M522.187,879.263c0.089-0.376,0.175-0.752,0.262-1.128l0.122-0.525c0.39-0.359,0.961-0.672,1.678-0.918
		c0.837-0.287,1.807-0.438,2.798-0.438h69.53c2.071,0,3.682,0.651,4.487,1.348l0.105,0.444c0.093,0.403,0.185,0.807,0.281,1.21
		c-0.095,0.393-0.186,0.787-0.28,1.182l-0.127,0.534c-0.902,0.825-2.653,1.376-4.466,1.376h-69.531
		c-2.003,0-3.591-0.622-4.418-1.294C522.484,880.457,522.335,879.86,522.187,879.263z M598.767,867.296
		c-0.727-0.036-1.455-0.053-2.191-0.053h-69.53c-0.734,0-1.463,0.017-2.182,0.051c3.671-18.259,5.52-36.606,5.493-54.604
		c-0.025-16.622-1.634-33.418-4.784-49.921c-1.006-5.263-2.204-10.672-3.566-16.08c0.243-1.214,2.549-2.279,5.039-2.279h69.53
		c2.663,0,4.843,1.159,5.067,2.189C591.585,786.301,590.619,826.881,598.767,867.296z"/>
	<path fill="#4D915F" d="M460.34,435.472c0-6.345-10.119-11.507-22.556-11.507h-69.53c-12.438,0-22.555,5.162-22.555,11.507
		c0,0.217,0.027,0.434,0.076,0.605c1.4,5.546,2.61,10.988,3.597,16.176c3.095,16.217,4.677,32.706,4.704,49.01
		c0.03,20.522-2.456,41.618-7.391,62.715c-0.654,1.106-0.985,2.226-0.985,3.337c0,0.214,0.027,0.427,0.07,0.588l-0.07,0.514
		c0,1.172,0.35,2.332,1.042,3.457c1,4.2,1.885,8.309,2.631,12.221c3.095,16.218,4.677,32.708,4.704,49.012
		c0.032,21.932-2.767,44.375-8.323,66.708l-0.053,0.445c0,6.344,10.117,11.506,22.555,11.506h69.53
		c6.691,0,12.978-1.495,17.244-4.103c3.424-2.092,5.305-4.778,5.293-7.561l-0.055-0.44c-10.667-42.718-10.975-85.772-0.919-127.967
		c0.651-1.113,0.978-2.266,0.974-3.435l0.019-0.944c0-1.141-0.331-2.271-0.98-3.361c-10.077-42.865-9.767-85.939,0.923-128.026
		L460.34,435.472z M437.781,702.753h-69.53c-2.667,0-4.848-1.162-5.069-2.193c5.594-22.482,8.415-45.18,8.382-67.464
		c-0.025-16.622-1.634-33.418-4.784-49.923c-0.209-1.094-0.426-2.195-0.654-3.302c0.704,0.034,1.413,0.051,2.126,0.051h69.53
		c0.719,0,1.434-0.018,2.14-0.052c-8.086,39.81-7.112,80.345,2.912,120.557C442.639,701.665,440.319,702.753,437.781,702.753z
		 M363.392,567.827c0.091-0.376,0.177-0.752,0.264-1.128l0.122-0.525c0.39-0.359,0.961-0.672,1.678-0.917
		c0.837-0.287,1.805-0.439,2.798-0.439h69.528c2.073,0,3.684,0.651,4.489,1.348l0.103,0.444c0.095,0.403,0.186,0.807,0.283,1.21
		c-0.095,0.393-0.188,0.788-0.28,1.182l-0.127,0.535c-0.902,0.824-2.653,1.376-4.468,1.376h-69.53c-2.003,0-3.593-0.622-4.418-1.294
		C363.689,569.021,363.542,568.424,363.392,567.827z M439.973,555.86c-0.723-0.036-1.453-0.054-2.189-0.054h-69.53
		c-0.734,0-1.463,0.017-2.184,0.051c3.673-18.259,5.52-36.607,5.495-54.604c-0.025-16.622-1.634-33.418-4.784-49.921
		c-1.006-5.263-2.206-10.672-3.568-16.08c0.247-1.214,2.549-2.279,5.04-2.279h69.528c2.665,0,4.845,1.159,5.067,2.189
		C432.79,474.865,431.826,515.446,439.973,555.86z"/>
	<path fill="#CC403A" d="M619.133,435.472c0-6.345-10.117-11.507-22.556-11.507h-69.53c-12.438,0-22.556,5.162-22.556,11.507
		c0,0.217,0.029,0.434,0.076,0.605c1.4,5.546,2.61,10.988,3.599,16.176c3.097,16.217,4.679,32.706,4.704,49.01
		c0.032,20.522-2.456,41.618-7.391,62.715c-0.654,1.106-0.987,2.226-0.987,3.337c0,0.214,0.029,0.427,0.072,0.588l-0.072,0.514
		c0,1.172,0.352,2.332,1.044,3.457c1,4.2,1.885,8.309,2.631,12.221c3.097,16.218,4.679,32.708,4.704,49.012
		c0.032,21.932-2.767,44.375-8.321,66.708l-0.057,0.445c0,6.344,10.119,11.506,22.556,11.506h69.53
		c6.691,0,12.978-1.495,17.244-4.103c3.424-2.092,5.305-4.778,5.293-7.561l-0.055-0.44c-10.667-42.718-10.975-85.772-0.919-127.967
		c0.651-1.113,0.978-2.266,0.974-3.435l0.019-0.944c0-1.141-0.329-2.271-0.98-3.361c-10.077-42.865-9.767-85.939,0.922-128.026
		L619.133,435.472z M596.576,702.753h-69.531c-2.667,0-4.846-1.162-5.067-2.193c5.592-22.482,8.413-45.18,8.38-67.464
		c-0.025-16.622-1.634-33.418-4.784-49.923c-0.207-1.094-0.426-2.195-0.656-3.302c0.706,0.034,1.415,0.051,2.128,0.051h69.53
		c0.719,0,1.434-0.018,2.142-0.052c-8.088,39.81-7.114,80.345,2.91,120.557C601.432,701.665,599.112,702.753,596.576,702.753z
		 M522.187,567.827c0.089-0.376,0.175-0.752,0.262-1.128l0.122-0.525c0.39-0.359,0.961-0.672,1.678-0.917
		c0.837-0.287,1.807-0.439,2.798-0.439h69.53c2.071,0,3.682,0.651,4.487,1.348l0.105,0.444c0.093,0.403,0.185,0.807,0.281,1.21
		c-0.095,0.393-0.186,0.788-0.28,1.182l-0.127,0.535c-0.902,0.824-2.653,1.376-4.466,1.376h-69.531
		c-2.003,0-3.591-0.622-4.418-1.294C522.484,569.021,522.335,568.424,522.187,567.827z M598.767,555.86
		c-0.727-0.036-1.455-0.054-2.191-0.054h-69.53c-0.734,0-1.463,0.017-2.182,0.051c3.671-18.259,5.52-36.607,5.493-54.604
		c-0.025-16.622-1.634-33.418-4.784-49.921c-1.006-5.263-2.204-10.672-3.566-16.08c0.243-1.214,2.549-2.279,5.039-2.279h69.53
		c2.663,0,4.843,1.159,5.067,2.189C591.585,474.865,590.619,515.446,598.767,555.86z"/>
	<path fill="#4D915F" d="M777.926,746.907c0-6.345-10.119-11.506-22.555-11.506H685.84c-12.438,0-22.555,5.162-22.555,11.506
		c0,0.217,0.027,0.434,0.076,0.605c1.4,5.546,2.61,10.988,3.597,16.176c3.097,16.217,4.679,32.706,4.704,49.01
		c0.032,20.522-2.456,41.618-7.391,62.715c-0.654,1.106-0.985,2.226-0.985,3.337c0,0.214,0.027,0.427,0.07,0.588l-0.07,0.514
		c0,1.172,0.35,2.332,1.042,3.457c1,4.2,1.885,8.309,2.63,12.221c3.097,16.218,4.679,32.708,4.704,49.012
		c0.034,21.932-2.766,44.375-8.321,66.708l-0.055,0.445c0,6.344,10.117,11.505,22.555,11.505h69.531
		c6.69,0,12.976-1.495,17.242-4.103c3.426-2.092,5.305-4.778,5.293-7.562l-0.055-0.439c-10.667-42.718-10.975-85.773-0.919-127.967
		c0.651-1.113,0.978-2.266,0.974-3.435l0.019-0.944c0-1.141-0.329-2.271-0.98-3.361c-10.077-42.865-9.767-85.939,0.922-128.026
		L777.926,746.907z M755.369,1014.189h-69.53c-2.667,0-4.85-1.162-5.069-2.193c5.594-22.482,8.413-45.18,8.382-67.464
		c-0.027-16.622-1.636-33.418-4.786-49.922c-0.207-1.094-0.426-2.195-0.654-3.302c0.704,0.034,1.413,0.051,2.127,0.051h69.531
		c0.717,0,1.432-0.018,2.14-0.052c-8.088,39.81-7.112,80.345,2.91,120.557C760.225,1013.101,757.905,1014.189,755.369,1014.189z
		 M680.98,879.263c0.089-0.376,0.175-0.752,0.262-1.128l0.122-0.525c0.39-0.359,0.961-0.672,1.678-0.918
		c0.837-0.287,1.805-0.438,2.798-0.438h69.53c2.071,0,3.682,0.651,4.487,1.348l0.105,0.444c0.093,0.403,0.185,0.807,0.281,1.21
		c-0.095,0.393-0.186,0.787-0.28,1.182l-0.125,0.534c-0.904,0.825-2.655,1.376-4.468,1.376h-69.53c-2.005,0-3.593-0.622-4.42-1.294
		C681.277,880.457,681.128,879.86,680.98,879.263z M757.56,867.296c-0.725-0.036-1.455-0.053-2.189-0.053H685.84
		c-0.734,0-1.463,0.017-2.184,0.051c3.673-18.259,5.522-36.606,5.497-54.604c-0.027-16.622-1.636-33.418-4.786-49.921
		c-1.004-5.263-2.206-10.672-3.568-16.08c0.247-1.214,2.551-2.279,5.04-2.279h69.53c2.663,0,4.843,1.159,5.067,2.189
		C750.378,786.301,749.412,826.881,757.56,867.296z"/>
	<path fill="#4D915F" d="M777.926,435.472c0-6.345-10.119-11.507-22.555-11.507H685.84c-12.438,0-22.555,5.162-22.555,11.507
		c0,0.217,0.027,0.434,0.076,0.605c1.4,5.546,2.61,10.988,3.597,16.176c3.097,16.217,4.679,32.706,4.704,49.01
		c0.032,20.522-2.456,41.618-7.391,62.715c-0.654,1.106-0.985,2.226-0.985,3.337c0,0.214,0.027,0.427,0.07,0.588l-0.07,0.514
		c0,1.172,0.35,2.332,1.042,3.457c1,4.2,1.885,8.309,2.63,12.221c3.097,16.218,4.679,32.708,4.704,49.012
		c0.034,21.932-2.766,44.375-8.321,66.708l-0.055,0.445c0,6.344,10.117,11.506,22.555,11.506h69.531
		c6.69,0,12.976-1.495,17.242-4.103c3.426-2.092,5.305-4.778,5.293-7.561l-0.055-0.44c-10.667-42.718-10.975-85.772-0.919-127.967
		c0.651-1.113,0.978-2.266,0.974-3.435l0.019-0.944c0-1.141-0.329-2.271-0.98-3.361c-10.077-42.865-9.767-85.939,0.922-128.026
		L777.926,435.472z M755.369,702.753h-69.53c-2.667,0-4.85-1.162-5.069-2.193c5.594-22.482,8.413-45.18,8.382-67.464
		c-0.027-16.622-1.636-33.418-4.786-49.923c-0.207-1.094-0.426-2.195-0.654-3.302c0.704,0.034,1.413,0.051,2.127,0.051h69.531
		c0.717,0,1.432-0.018,2.14-0.052c-8.088,39.81-7.112,80.345,2.91,120.557C760.225,701.665,757.905,702.753,755.369,702.753z
		 M680.98,567.827c0.089-0.376,0.175-0.752,0.262-1.128l0.122-0.525c0.39-0.359,0.961-0.672,1.678-0.917
		c0.837-0.287,1.805-0.439,2.798-0.439h69.53c2.071,0,3.682,0.651,4.487,1.348l0.105,0.444c0.093,0.403,0.185,0.807,0.281,1.21
		c-0.095,0.393-0.186,0.788-0.28,1.182l-0.125,0.535c-0.904,0.824-2.655,1.376-4.468,1.376h-69.53c-2.005,0-3.593-0.622-4.42-1.294
		C681.277,569.021,681.128,568.424,680.98,567.827z M757.56,555.86c-0.725-0.036-1.455-0.054-2.189-0.054H685.84
		c-0.734,0-1.463,0.017-2.184,0.051c3.673-18.259,5.522-36.607,5.497-54.604c-0.027-16.622-1.636-33.418-4.786-49.921
		c-1.004-5.263-2.206-10.672-3.568-16.08c0.247-1.214,2.551-2.279,5.04-2.279h69.53c2.663,0,4.843,1.159,5.067,2.189
		C750.378,474.865,749.412,515.446,757.56,555.86z"/>
	<path fill="#4D915F" d="M460.34,123.213c0-6.345-10.119-11.506-22.556-11.506h-69.53c-12.438,0-22.555,5.162-22.555,11.506
		c0,0.217,0.027,0.434,0.076,0.605c1.4,5.546,2.61,10.988,3.597,16.176c3.095,16.217,4.677,32.706,4.704,49.01
		c0.03,20.521-2.456,41.618-7.391,62.714c-0.654,1.106-0.985,2.227-0.985,3.337c0,0.214,0.027,0.427,0.07,0.588l-0.07,0.514
		c0,1.172,0.35,2.332,1.042,3.457c1,4.2,1.885,8.309,2.631,12.221c3.095,16.218,4.677,32.708,4.704,49.011
		c0.032,21.932-2.767,44.375-8.323,66.708l-0.053,0.445c0,6.344,10.117,11.506,22.555,11.506h69.53
		c6.691,0,12.978-1.496,17.244-4.103c3.424-2.092,5.305-4.778,5.293-7.562l-0.055-0.44c-10.667-42.717-10.975-85.772-0.919-127.967
		c0.651-1.112,0.978-2.266,0.974-3.435l0.019-0.944c0-1.141-0.331-2.271-0.98-3.361c-10.077-42.865-9.767-85.939,0.923-128.027
		L460.34,123.213z M437.781,390.494h-69.53c-2.667,0-4.848-1.162-5.069-2.193c5.594-22.482,8.415-45.179,8.382-67.464
		c-0.025-16.622-1.634-33.418-4.784-49.922c-0.209-1.094-0.426-2.195-0.654-3.302c0.704,0.034,1.413,0.05,2.126,0.05h69.53
		c0.719,0,1.434-0.017,2.14-0.052c-8.086,39.811-7.112,80.345,2.912,120.557C442.639,389.406,440.319,390.494,437.781,390.494z
		 M363.392,255.568c0.091-0.376,0.177-0.752,0.264-1.128l0.122-0.525c0.39-0.359,0.961-0.673,1.678-0.918
		c0.837-0.287,1.805-0.439,2.798-0.439h69.528c2.073,0,3.684,0.651,4.489,1.348l0.103,0.444c0.095,0.404,0.186,0.807,0.283,1.211
		c-0.095,0.393-0.188,0.787-0.28,1.181l-0.127,0.535c-0.902,0.825-2.653,1.376-4.468,1.376h-69.53c-2.003,0-3.593-0.622-4.418-1.294
		C363.689,256.763,363.542,256.166,363.392,255.568z M439.973,243.602c-0.723-0.036-1.453-0.054-2.189-0.054h-69.53
		c-0.734,0-1.463,0.018-2.184,0.052c3.673-18.259,5.52-36.606,5.495-54.604c-0.025-16.622-1.634-33.417-4.784-49.921
		c-1.006-5.263-2.206-10.671-3.568-16.079c0.247-1.215,2.549-2.279,5.04-2.279h69.528c2.665,0,4.845,1.159,5.067,2.189
		C432.79,162.606,431.826,203.187,439.973,243.602z"/>
	<path fill="#CC403A" d="M619.133,123.213c0-6.345-10.117-11.506-22.556-11.506h-69.53c-12.438,0-22.556,5.162-22.556,11.506
		c0,0.217,0.029,0.434,0.076,0.605c1.4,5.546,2.61,10.988,3.599,16.176c3.097,16.217,4.679,32.706,4.704,49.01
		c0.032,20.521-2.456,41.618-7.391,62.714c-0.654,1.106-0.987,2.227-0.987,3.337c0,0.214,0.029,0.427,0.072,0.588l-0.072,0.514
		c0,1.172,0.352,2.332,1.044,3.457c1,4.2,1.885,8.309,2.631,12.221c3.097,16.218,4.679,32.708,4.704,49.011
		c0.032,21.932-2.767,44.375-8.321,66.708l-0.057,0.445c0,6.344,10.119,11.506,22.556,11.506h69.53
		c6.691,0,12.978-1.496,17.244-4.103c3.424-2.092,5.305-4.778,5.293-7.562l-0.055-0.44c-10.667-42.717-10.975-85.772-0.919-127.967
		c0.651-1.112,0.978-2.266,0.974-3.435l0.019-0.944c0-1.141-0.329-2.271-0.98-3.361c-10.077-42.865-9.767-85.939,0.922-128.027
		L619.133,123.213z M596.576,390.494h-69.531c-2.667,0-4.846-1.162-5.067-2.193c5.592-22.482,8.413-45.179,8.38-67.464
		c-0.025-16.622-1.634-33.418-4.784-49.922c-0.207-1.094-0.426-2.195-0.656-3.302c0.706,0.034,1.415,0.05,2.128,0.05h69.53
		c0.719,0,1.434-0.017,2.142-0.052c-8.088,39.811-7.114,80.345,2.91,120.557C601.432,389.406,599.112,390.494,596.576,390.494z
		 M522.187,255.568c0.089-0.376,0.175-0.752,0.262-1.128l0.122-0.525c0.39-0.359,0.961-0.673,1.678-0.918
		c0.837-0.287,1.807-0.439,2.798-0.439h69.53c2.071,0,3.682,0.651,4.487,1.348l0.105,0.444c0.093,0.404,0.185,0.807,0.281,1.211
		c-0.095,0.393-0.186,0.787-0.28,1.181l-0.127,0.535c-0.902,0.825-2.653,1.376-4.466,1.376h-69.531
		c-2.003,0-3.591-0.622-4.418-1.294C522.484,256.763,522.335,256.166,522.187,255.568z M598.767,243.602
		c-0.727-0.036-1.455-0.054-2.191-0.054h-69.53c-0.734,0-1.463,0.018-2.182,0.052c3.671-18.259,5.52-36.606,5.493-54.604
		c-0.025-16.622-1.634-33.417-4.784-49.921c-1.006-5.263-2.204-10.671-3.566-16.079c0.243-1.215,2.549-2.279,5.039-2.279h69.53
		c2.663,0,4.843,1.159,5.067,2.189C591.585,162.606,590.619,203.187,598.767,243.602z"/>
	<path fill="#4D915F" d="M777.926,123.213c0-6.345-10.119-11.506-22.555-11.506H685.84c-12.438,0-22.555,5.162-22.555,11.506
		c0,0.217,0.027,0.434,0.076,0.605c1.4,5.546,2.61,10.988,3.597,16.176c3.097,16.217,4.679,32.706,4.704,49.01
		c0.032,20.521-2.456,41.618-7.391,62.714c-0.654,1.106-0.985,2.227-0.985,3.337c0,0.214,0.027,0.427,0.07,0.588l-0.07,0.514
		c0,1.172,0.35,2.332,1.042,3.457c1,4.2,1.885,8.309,2.63,12.221c3.097,16.218,4.679,32.708,4.704,49.011
		c0.034,21.932-2.766,44.375-8.321,66.708l-0.055,0.445c0,6.344,10.117,11.506,22.555,11.506h69.531
		c6.69,0,12.976-1.496,17.242-4.103c3.426-2.092,5.305-4.778,5.293-7.562l-0.055-0.44c-10.667-42.717-10.975-85.772-0.919-127.967
		c0.651-1.112,0.978-2.266,0.974-3.435l0.019-0.944c0-1.141-0.329-2.271-0.98-3.361c-10.077-42.865-9.767-85.939,0.922-128.027
		L777.926,123.213z M755.369,390.494h-69.53c-2.667,0-4.85-1.162-5.069-2.193c5.594-22.482,8.413-45.179,8.382-67.464
		c-0.027-16.622-1.636-33.418-4.786-49.922c-0.207-1.094-0.426-2.195-0.654-3.302c0.704,0.034,1.413,0.05,2.127,0.05h69.531
		c0.717,0,1.432-0.017,2.14-0.052c-8.088,39.811-7.112,80.345,2.91,120.557C760.225,389.406,757.905,390.494,755.369,390.494z
		 M680.98,255.568c0.089-0.376,0.175-0.752,0.262-1.128l0.122-0.525c0.39-0.359,0.961-0.673,1.678-0.918
		c0.837-0.287,1.805-0.439,2.798-0.439h69.53c2.071,0,3.682,0.651,4.487,1.348l0.105,0.444c0.093,0.404,0.185,0.807,0.281,1.211
		c-0.095,0.393-0.186,0.787-0.28,1.181l-0.125,0.535c-0.904,0.825-2.655,1.376-4.468,1.376h-69.53c-2.005,0-3.593-0.622-4.42-1.294
		C681.277,256.763,681.128,256.166,680.98,255.568z M757.56,243.602c-0.725-0.036-1.455-0.054-2.189-0.054H685.84
		c-0.734,0-1.463,0.018-2.184,0.052c3.673-18.259,5.522-36.606,5.497-54.604c-0.027-16.622-1.636-33.417-4.786-49.921
		c-1.004-5.263-2.206-10.671-3.568-16.079c0.247-1.215,2.551-2.279,5.04-2.279h69.53c2.663,0,4.843,1.159,5.067,2.189
		C750.378,162.606,749.412,203.187,757.56,243.602z"/>
</g>
</svg>
