<?xml version="1.0" encoding="utf-8"?>
<!-- Generator: Adobe Illustrator 23.1.0, SVG Export Plug-In . SVG Version: 6.00 Build 0)  -->
<svg version="1.1" id="Layer_1" xmlns="http://www.w3.org/2000/svg" xmlns:xlink="http://www.w3.org/1999/xlink" x="0px" y="0px"
	 viewBox="0 0 1200 1200" enable-background="new 0 0 1200 1200" xml:space="preserve">
<g>
	<path fill="#C1B6AC" d="M972.277,111.458c8.948,14.906,14.189,32.291,14.189,50.941v852.734c0,54.806-44.43,99.236-99.236,99.236
		H293.497c-17.6,0-34.101-4.628-48.431-12.663c17.347,28.895,48.891,48.294,85.046,48.294h593.734
		c54.807,0,99.236-44.429,99.236-99.236V198.03C1023.082,160.823,1002.577,128.445,972.277,111.458z"/>
	<path fill="#D1C8BF" d="M887.231,1114.369c54.805,0,99.236-44.429,99.236-99.236V162.399c0-18.651-5.241-36.036-14.189-50.941
		c-12.209-20.338-31.426-35.955-54.389-43.412C900.967,56.688,880.497,50,858.434,50H281.946
		c-57.912,0-105.028,45.848-105.028,102.195v833.878c0,24.764,9.112,47.491,24.23,65.198c8.406,21.461,24.015,39.276,43.918,50.435
		c14.33,8.035,30.831,12.663,48.431,12.663H887.231z M192.211,986.073V152.195c0-48.144,40.253-87.314,89.735-87.314h576.487
		c49.475,0,89.73,39.171,89.73,87.314v833.878c0,48.144-40.255,87.314-89.73,87.314H281.946
		C232.464,1073.387,192.211,1034.217,192.211,986.073z"/>
	<path fill="#FFF6EB" d="M281.946,1073.387h576.487c49.475,0,89.73-39.17,89.73-87.314V152.195c0-48.144-40.255-87.314-89.73-87.314
		H281.946c-49.483,0-89.735,39.171-89.735,87.314v833.878C192.211,1034.217,232.464,1073.387,281.946,1073.387z M806.411,474.888
		c-8.945,4.018-26.836,24.108-40.597,44.199c-28.209,40.841-32.339,47.533-22.708,58.251c10.32,10.717,7.573,20.09-13.761,19.422
		c-32.339-0.669-86.703,1.337-146.565,8.704c0,35.487-0.696,68.968-0.696,89.719c-0.687,64.957-9.631,165.394-15.821,189.502
		c-6.884,26.782-18.578,23.433-22.019-2.013c-2.07-14.059-3.443-58.926-2.756-89.719c2.068-72.325,3.443-127.226,3.443-183.478
		c-43.354,5.362-86.018,8.704-119.044,9.373c-1.373,29.47-8.945,36.163-18.578,28.802c-10.326-6.699-13.075-11.386-16.516-51.559
		c-4.13-50.89-11.701-80.36-20.648-95.757c-11.005-19.422-16.508-26.782-23.393-36.83c-9.631-12.715,0-18.078,22.019-12.047
		c11.007,2.674,18.578,4.686,24.776,7.368c37.156-4.026,69.495-8.036,150.008-18.085c-0.692-71.649-3.441-113.159-22.019-135.923
		c-13.075-16.741-7.571-24.777,26.149-18.085c51.604,10.717,51.604,22.095,44.727,42.854c-5.511,16.741-7.571,38.168-8.258,105.799
		c96.336-12.054,123.172-16.072,127.989-17.409c26.836-8.036,30.279-8.036,63.992,8.704
		C826.37,452.124,829.814,463.502,806.411,474.888z"/>
	<path fill="#FFF6EB" d="M690.124,446.093c-16.518,0-57.115,4.694-105.97,10.049c-0.689,31.468-0.689,79.685-1.373,125.882
		c50.228-5.355,68.12-8.036,83.949-10.041c19.951-2.681,35.094-8.036,44.727-36.155c8.945-26.121,10.318-38.175,12.388-56.921
		C725.904,455.466,721.087,445.425,690.124,446.093z"/>
	<path fill="#FFF6EB" d="M411.438,478.906c6.19,27.451,13.075,80.354,14.448,121.195c50.228-5.355,88.079-10.041,119.044-13.391
		c0.687-37.499,0-77.672-1.375-125.882C495.387,466.852,445.151,474.219,411.438,478.906z"/>
	<path fill="#CC403A" d="M776.134,426.678c-33.713-16.741-37.156-16.741-63.992-8.704c-4.817,1.337-31.652,5.355-127.989,17.409
		c0.687-67.631,2.747-89.058,8.258-105.799c6.877-20.759,6.877-32.137-44.727-42.854c-33.72-6.692-39.224,1.344-26.149,18.085
		c18.578,22.764,21.327,64.274,22.019,135.923c-80.513,10.049-112.852,14.059-150.008,18.085
		c-6.198-2.681-13.769-4.694-24.776-7.368c-22.019-6.031-31.651-0.669-22.019,12.047c6.884,10.048,12.388,17.409,23.393,36.83
		c8.947,15.397,16.518,44.867,20.648,95.757c3.441,40.173,6.19,44.86,16.516,51.559c9.633,7.36,17.204,0.668,18.578-28.802
		c33.026-0.668,75.691-4.011,119.044-9.373c0,56.253-1.375,111.154-3.443,183.478c-0.687,30.793,0.687,75.66,2.756,89.719
		c3.441,25.445,15.135,28.795,22.019,2.013c6.19-24.108,15.135-124.545,15.821-189.502c0-20.751,0.696-54.233,0.696-89.719
		c59.862-7.368,114.226-9.373,146.565-8.704c21.334,0.669,24.081-8.704,13.761-19.422c-9.631-10.718-5.501-17.409,22.708-58.251
		c13.761-20.09,31.652-40.18,40.597-44.199C829.814,463.502,826.37,452.124,776.134,426.678z M544.93,586.71
		c-30.966,3.35-68.816,8.036-119.044,13.391c-1.373-40.842-8.258-93.745-14.448-121.195c33.713-4.686,83.949-12.054,132.117-18.078
		C544.93,509.037,545.617,549.211,544.93,586.71z M723.844,478.906c-2.07,18.746-3.443,30.8-12.388,56.921
		c-9.633,28.119-24.776,33.474-44.727,36.155c-15.829,2.005-33.72,4.686-83.949,10.041c0.685-46.196,0.685-94.413,1.373-125.882
		c48.855-5.355,89.452-10.049,105.97-10.049C721.087,445.425,725.904,455.466,723.844,478.906z"/>
</g>
</svg>
