<?xml version="1.0" encoding="utf-8"?>
<!-- Generator: Adobe Illustrator 23.1.0, SVG Export Plug-In . SVG Version: 6.00 Build 0)  -->
<svg version="1.1" id="Layer_1" xmlns="http://www.w3.org/2000/svg" xmlns:xlink="http://www.w3.org/1999/xlink" x="0px" y="0px"
	 viewBox="0 0 1200 1200" enable-background="new 0 0 1200 1200" xml:space="preserve">
<g>
	<path fill="#C1B6AC" d="M972.276,111.46c8.948,14.905,14.189,32.291,14.189,50.941v852.733c0,54.806-44.43,99.236-99.235,99.236
		H293.497c-17.6,0-34.099-4.627-48.431-12.663c17.347,28.895,48.891,48.294,85.047,48.294h593.732
		c54.807,0,99.235-44.429,99.235-99.235V198.032C1023.081,160.825,1002.575,128.447,972.276,111.46z"/>
	<path fill="#D1C8BF" d="M887.23,1114.369c54.805,0,99.235-44.43,99.235-99.236V162.401c0-18.651-5.241-36.036-14.189-50.941
		c-12.208-20.336-31.424-35.952-54.383-43.41C900.97,56.69,880.498,50,858.433,50H281.948c-57.914,0-105.029,45.848-105.029,102.202
		v833.869c0,24.768,9.113,47.498,24.232,65.206c8.407,21.458,24.016,39.272,43.916,50.429c14.332,8.036,30.831,12.663,48.431,12.663
		H887.23z M192.211,986.071V152.202c0-48.151,40.255-87.321,89.737-87.321h576.484c49.475,0,89.73,39.17,89.73,87.321v833.869
		c0,48.151-40.255,87.321-89.73,87.321H281.948C232.466,1073.392,192.211,1034.222,192.211,986.071z"/>
	<path fill="#FFF6EB" d="M281.948,1073.392h576.484c49.475,0,89.73-39.17,89.73-87.321V152.202c0-48.151-40.255-87.321-89.73-87.321
		H281.948c-49.483,0-89.737,39.17-89.737,87.321v833.869C192.211,1034.222,232.466,1073.392,281.948,1073.392z M290.769,360.569
		c-0.826,0.542-1.582,1.003-2.269,1.405c-0.687,0.401-1.023,0.468-1.023,0.201v-0.401c-0.283-0.535-0.413-1.064-0.413-1.606
		c0-0.529,0-1.064,0-1.599v-5.613c0-2.937-0.076-6.015-0.206-9.219c-0.145-3.205-0.206-6.276-0.206-9.219
		c-0.557-29.116-0.763-57.97-0.618-86.558c0.137-28.587-0.481-57.442-1.857-86.564c0-2.402,0-4.87,0-7.412
		c0-2.536-0.138-5.138-0.405-7.814c-0.557,0.803-1.177,1.538-1.857,2.201c-0.688,0.676-1.307,1.405-1.857,2.208
		c-2.2,2.141-4.318,4.275-6.38,6.409c-2.062,2.141-4.187,4.282-6.38,6.416c-1.925,1.599-3.712,3.144-5.355,4.609
		c-1.651,1.472-3.576,2.87-5.769,4.208c-0.551,0.535-1.306,1.07-2.262,1.599c-0.969,0.542-1.3,0.14-1.032-1.204l2.469-3.606
		c1.1-1.867,2.475-3.606,4.118-5.205c0.551-0.535,1.169-1.204,1.857-2.007c0.68-0.803,1.299-1.465,1.856-2l22.235-24.044
		c0.55-0.803,1.237-1.606,2.063-2.409c1.643-2.134,3.43-4.208,5.348-6.208c1.918-2.007,3.844-4.075,5.769-6.215
		c2.193-1.867,4.255-3.74,6.181-5.607c1.911-1.867,3.974-3.612,6.173-5.211c1.369-0.803,2.469-1.465,3.294-2.007
		c0.825-0.528,1.582-0.997,2.268-1.398c0.681-0.401,1.025-0.468,1.025-0.201v0.401c0.274,0.535,0.343,1.071,0.205,1.599
		c-0.137,0.542-0.205,1.071-0.205,1.606c0,0.803,0.068,1.673,0.205,2.602c0.138,0.943,0.206,1.806,0.206,2.609
		c0,3.205,0,6.349,0,9.413c0,3.077,0.138,6.215,0.413,9.42l2.063,172.72c0.267,3.746,0.412,7.486,0.412,11.226
		s0.13,7.479,0.412,11.219c0,1.071-0.487,2.141-1.443,3.204c-0.963,1.07-1.719,2.001-2.268,2.803
		c-1.644,2.141-3.432,4.208-5.349,6.215c-1.925,2-3.987,3.94-6.181,5.807c-3.294,3.479-7.411,7.219-12.355,11.226
		C292.55,359.364,291.594,360.033,290.769,360.569z M767.615,726.738c-3.438,0.89-6.249,3.279-7.609,6.471
		c-1.362,3.192-1.117,6.819,0.668,9.815c25.597,42.693,28.209,83.823,6.673,104.778c-21.535,20.934-63.802,18.393-107.654-6.493
		c-3.079-1.738-6.805-1.976-10.109-0.652c-3.281,1.325-5.735,4.061-6.65,7.405c-12.943,47.797-40.973,78.654-71.411,78.654
		c-30.463,0-58.492-30.858-71.435-78.654c-0.915-3.344-3.37-6.08-6.65-7.405c-1.406-0.564-2.878-0.847-4.352-0.847
		c-1.986,0-3.972,0.499-5.734,1.499c-43.852,24.886-86.119,27.427-107.654,6.493c-21.536-20.956-18.924-62.085,6.65-104.778
		c1.784-2.997,2.053-6.623,0.692-9.815c-1.362-3.192-4.196-5.581-7.633-6.471c-49.096-12.595-80.83-39.87-80.83-69.491
		c0-29.642,31.734-56.917,80.83-69.512c3.437-0.891,6.271-3.279,7.633-6.472c1.36-3.192,1.092-6.818-0.692-9.815
		c-25.575-42.693-28.186-83.822-6.65-104.778c21.535-20.956,63.78-18.415,107.654,6.493c3.079,1.737,6.806,1.998,10.087,0.651
		c3.281-1.324,5.735-4.06,6.65-7.405c12.943-47.775,40.972-78.654,71.435-78.654c30.439,0,58.468,30.88,71.411,78.654
		c0.915,3.344,3.37,6.08,6.65,7.405c3.303,1.347,7.03,1.086,10.109-0.651c43.852-24.908,86.119-27.427,107.654-6.493
		c21.536,20.956,18.924,62.085-6.649,104.778c-1.808,2.997-2.054,6.623-0.692,9.815c1.36,3.193,4.172,5.581,7.632,6.472
		c49.095,12.595,80.829,39.87,80.829,69.512C848.467,686.867,816.732,714.143,767.615,726.738z M896.402,281.295
		c-40.739,5.319-46.451,3.626-53.903-2.412c-24.589-20.061-43.465-38.916-63.588-62.123c-8.199,1.213-15.897,2.42-22.102,3.146
		c-5.466,12.57-10.684,21.754-19.876,31.665c2.486,0.72,3.98,1.206,5.465,2.413c18.629-2.173,33.041-4.592,42.478-7.491
		c5.459-1.693,7.946-1.933,13.904,1.693c4.973,3.139,11.178,8.217,13.911,11.117s2.987,4.352,0.747,6.285
		c-2.733,2.659-3.479,8.944-0.993,36.736c0.993,11.604-1.74,22.001-5.465,28.039c-7.945,12.81-9.685,12.33-17.383-9.424
		c-1.986-5.558-4.973-8.217-9.939-7.978c-6.459,0.24-22.355,1.453-32.54,2.659c-0.748,13.297-3.226,17.641-5.466,17.641
		c-3.225,0-8.938-11.117-7.452-21.267c3.479-22.234,4.227-36.497-0.493-56.318c-17.136,19.582-35.272,31.905-62.348,42.542
		c-4.472,1.693-5.465-0.966-0.993-3.626c37.506-23.207,64.089-50.999,74.272-72.753c-12.918,1.933-20.869,3.865-26.081,5.319
		c-7.706,2.419-15.405,3.386-22.61-1.453c-4.966-3.139-4.719-4.832,1.493-5.072c5.466-0.247,36.266-4.352,49.923-6.525
		c1.994-6.532,4.227-10.877,5.72-17.649c-16.398,1.933-20.124,1.453-26.335-0.24c-5.212-1.453-4.965-4.113,1.247-4.592
		c6.705-0.487,16.643-1.933,26.82-3.865c1.493-7.252,2.733-12.091,3.48-18.615c-20.863,2.659-24.589,2.18-30.301,0.24
		c-6.706-2.413-5.967-4.345,0.747-5.072c7.198-0.727,18.877-2.659,30.547-5.079c1.246-13.536,0.245-22.72-2.734-27.792
		c-3.726-6.285,1.248-8.465,10.932-4.352c12.671,5.318,13.165,6.525,10.431,12.81c-1.486,3.386-3.479,9.671-4.72,16.435
		c10.185-2.172,19.624-4.592,26.329-6.525c10.185-3.146,16.89-3.386,24.096-1.206c4.965,1.446,4.72,5.312,0,7.004
		c-6.951,2.659-28.814,7.739-52.41,11.364c-1.238,7.004-2.733,11.596-4.226,18.368c10.932-2.172,21.116-4.592,28.815-6.772
		c7.952-2.172,12.917-2.652,18.383-1.933c5.466,0.727,6.212,4.352-0.747,7.252c-7.451,3.386-24.588,7.498-48.437,11.124
		c-1.986,7.971-3.726,12.323-5.211,17.154c17.883-3.139,36.012-7.004,48.929-10.15c20.124-5.072,31.548-5.559,39.493-0.727
		c7.452,4.599,6.212,8.465-6.459,9.191c-17.883,0.966-27.321,1.933-54.642,5.072c50.423,42.302,66.32,48.587,108.792,59.217
		C903.354,276.703,903.106,280.329,896.402,281.295z"/>
	<path fill="#FFF6EB" d="M740.612,646.172h-66.725c-2.098-18.437-9.373-36.374-21.894-51.597l47.133-45.864
		c4.44-4.322,4.44-11.336,0-15.657c-4.442-4.321-11.65-4.321-16.091,0l-47.132,45.864c-15.644-12.183-34.077-19.262-53.001-21.303
		v-64.908c0-6.124-5.111-11.075-11.38-11.075c-6.295,0-11.382,4.951-11.382,11.075v64.908c-18.924,2.041-37.379,9.121-53.001,21.303
		l-47.132-45.864c-4.441-4.321-11.649-4.321-16.091,0c-4.463,4.322-4.463,11.336,0,15.657l47.11,45.864
		c-12.519,15.223-19.795,33.16-21.871,51.597H402.43c-6.293,0-11.381,4.952-11.381,11.075c0,6.102,5.089,11.075,11.381,11.075
		h66.725c2.075,18.415,9.352,36.352,21.871,51.575l-47.11,45.863c-4.463,4.322-4.463,11.336,0,15.657
		c2.21,2.15,5.133,3.235,8.034,3.235c2.924,0,5.824-1.086,8.056-3.235l47.132-45.864c15.622,12.183,34.077,19.262,53.001,21.303
		v64.908c0,6.123,5.088,11.075,11.382,11.075c6.27,0,11.38-4.951,11.38-11.075v-64.908c18.924-2.041,37.379-9.121,53.001-21.303
		l47.132,45.864c2.21,2.15,5.133,3.235,8.034,3.235c2.923,0,5.825-1.086,8.056-3.235c4.44-4.322,4.44-11.336,0-15.657
		l-47.133-45.863c12.521-15.223,19.795-33.16,21.894-51.575h66.725c6.271,0,11.381-4.973,11.381-11.075
		C751.993,651.124,746.883,646.172,740.612,646.172z M628.316,712.514c-31.309,30.489-82.28,30.489-113.612,0
		c-31.31-30.489-31.31-80.066,0-110.555c15.665-15.244,36.241-22.867,56.818-22.867c20.575,0,41.128,7.623,56.794,22.867
		C659.648,632.448,659.648,682.025,628.316,712.514z"/>
	<path fill="#FFF6EB" d="M780.651,276.95c6.959,1.685,7.205,4.592,0.499,6.765c-10.184,3.386-22.109,4.352-34.033,2.899
		c0.245,9.184,0.245,16.922,0,23.207c11.178-1.453,18.876-2.659,24.095-3.626c8.199-1.933,11.926-1.693,16.891,1.693
		c5.465,3.865,7.206,4.105,8.444-5.566c1.493-11.596,0.748-25.859-1.238-37.703c-1.493-7.252-4.72-10.877-14.905-9.911
		c-6.959,0.487-23.849,2.899-34.527,4.832c0.493,7.978,0.993,15.716,1.24,22.967C764.754,276.463,774.439,275.497,780.651,276.95z"
		/>
	<path fill="#CC403A" d="M767.638,587.735c-3.46-0.891-6.272-3.279-7.632-6.472c-1.362-3.192-1.117-6.818,0.692-9.815
		c25.574-42.693,28.185-83.822,6.649-104.778c-21.535-20.934-63.802-18.415-107.654,6.493c-3.079,1.737-6.805,1.998-10.109,0.651
		c-3.281-1.324-5.735-4.06-6.65-7.405c-12.943-47.775-40.973-78.654-71.411-78.654c-30.463,0-58.492,30.88-71.435,78.654
		c-0.915,3.344-3.37,6.08-6.65,7.405c-3.281,1.347-7.008,1.086-10.087-0.651c-43.874-24.908-86.119-27.449-107.654-6.493
		c-21.536,20.956-18.924,62.085,6.65,104.778c1.784,2.997,2.053,6.623,0.692,9.815c-1.362,3.193-4.196,5.581-7.633,6.472
		c-49.096,12.595-80.83,39.87-80.83,69.512c0,29.62,31.734,56.895,80.83,69.491c3.437,0.89,6.271,3.279,7.633,6.471
		c1.36,3.192,1.092,6.819-0.692,9.815c-25.575,42.693-28.186,83.823-6.65,104.778c21.535,20.934,63.802,18.393,107.654-6.493
		c1.762-0.999,3.748-1.499,5.734-1.499c1.474,0,2.947,0.283,4.352,0.847c3.281,1.325,5.735,4.061,6.65,7.405
		c12.943,47.797,40.972,78.654,71.435,78.654c30.439,0,58.468-30.858,71.411-78.654c0.915-3.344,3.37-6.08,6.65-7.405
		c3.303-1.324,7.03-1.086,10.109,0.652c43.852,24.886,86.119,27.427,107.654,6.493c21.536-20.956,18.924-62.085-6.673-104.778
		c-1.784-2.997-2.03-6.623-0.668-9.815c1.36-3.192,4.172-5.581,7.609-6.471c49.117-12.595,80.852-39.87,80.852-69.491
		C848.467,627.605,816.732,600.33,767.638,587.735z M740.612,668.322h-66.725c-2.098,18.415-9.373,36.352-21.894,51.575
		l47.133,45.863c4.44,4.322,4.44,11.336,0,15.657c-2.231,2.15-5.133,3.235-8.056,3.235c-2.901,0-5.825-1.086-8.034-3.235
		l-47.132-45.864c-15.622,12.183-34.077,19.262-53.001,21.303v64.908c0,6.123-5.111,11.075-11.38,11.075
		c-6.295,0-11.382-4.951-11.382-11.075v-64.908c-18.924-2.041-37.379-9.121-53.001-21.303l-47.132,45.864
		c-2.232,2.15-5.132,3.235-8.056,3.235c-2.901,0-5.825-1.086-8.034-3.235c-4.463-4.322-4.463-11.336,0-15.657l47.11-45.863
		c-12.519-15.223-19.795-33.16-21.871-51.575H402.43c-6.293,0-11.381-4.973-11.381-11.075c0-6.124,5.089-11.075,11.381-11.075
		h66.725c2.075-18.437,9.352-36.374,21.871-51.597l-47.11-45.864c-4.463-4.322-4.463-11.336,0-15.657
		c4.442-4.321,11.65-4.321,16.091,0l47.132,45.864c15.622-12.183,34.077-19.262,53.001-21.303v-64.908
		c0-6.124,5.088-11.075,11.382-11.075c6.27,0,11.38,4.951,11.38,11.075v64.908c18.924,2.041,37.357,9.121,53.001,21.303
		l47.132-45.864c4.441-4.321,11.649-4.321,16.091,0c4.44,4.322,4.44,11.336,0,15.657l-47.133,45.864
		c12.521,15.223,19.795,33.16,21.894,51.597h66.725c6.271,0,11.381,4.952,11.381,11.075
		C751.993,663.349,746.883,668.322,740.612,668.322z"/>
	<path fill="#CC403A" d="M571.522,579.092c-20.577,0-41.152,7.623-56.818,22.867c-31.31,30.489-31.31,80.066,0,110.555
		c31.332,30.489,82.303,30.489,113.612,0c31.332-30.489,31.332-80.066,0-110.555C612.65,586.715,592.097,579.092,571.522,579.092z"
		/>
	<path fill="#1B669E" d="M312.185,341.535c1.918-2.007,3.706-4.075,5.349-6.215c0.55-0.803,1.306-1.733,2.268-2.803
		c0.956-1.063,1.443-2.134,1.443-3.204c-0.282-3.74-0.412-7.479-0.412-11.219s-0.145-7.48-0.412-11.226l-2.063-172.72
		c-0.275-3.204-0.413-6.342-0.413-9.42c0-3.064,0-6.208,0-9.413c0-0.803-0.068-1.666-0.206-2.609c-0.137-0.93-0.205-1.8-0.205-2.602
		c0-0.535,0.068-1.064,0.205-1.606c0.138-0.528,0.068-1.063-0.205-1.599v-0.401c0-0.267-0.344-0.201-1.025,0.201
		c-0.687,0.401-1.444,0.87-2.268,1.398c-0.825,0.542-1.925,1.205-3.294,2.007c-2.199,1.599-4.262,3.345-6.173,5.211
		c-1.925,1.867-3.987,3.74-6.181,5.607c-1.925,2.141-3.85,4.208-5.769,6.215c-1.918,2-3.706,4.074-5.348,6.208
		c-0.826,0.803-1.513,1.606-2.063,2.409l-22.235,24.044c-0.556,0.535-1.176,1.197-1.856,2c-0.688,0.803-1.306,1.472-1.857,2.007
		c-1.643,1.599-3.018,3.338-4.118,5.205l-2.469,3.606c-0.268,1.344,0.063,1.746,1.032,1.204c0.956-0.529,1.711-1.064,2.262-1.599
		c2.192-1.338,4.118-2.736,5.769-4.208c1.643-1.465,3.43-3.01,5.355-4.609c2.193-2.134,4.318-4.275,6.38-6.416
		c2.062-2.134,4.18-4.268,6.38-6.409c0.55-0.803,1.169-1.532,1.857-2.208c0.68-0.662,1.299-1.398,1.857-2.201
		c0.267,2.676,0.405,5.278,0.405,7.814c0,2.542,0,5.011,0,7.412c1.375,29.122,1.994,57.977,1.857,86.564
		c-0.145,28.587,0.061,57.442,0.618,86.558c0,2.943,0.062,6.014,0.206,9.219c0.13,3.204,0.206,6.282,0.206,9.219v5.613
		c0,0.535,0,1.071,0,1.599c0,0.542,0.13,1.07,0.413,1.606v0.401c0,0.268,0.337,0.201,1.023-0.201
		c0.688-0.401,1.444-0.863,2.269-1.405c0.825-0.536,1.781-1.205,2.88-2.001c4.944-4.007,9.062-7.747,12.355-11.226
		C308.198,345.475,310.26,343.535,312.185,341.535z"/>
	<path fill="#1B669E" d="M895.901,274.77c-42.472-10.63-58.368-16.915-108.792-59.217c27.321-3.139,36.759-4.105,54.642-5.072
		c12.671-0.727,13.912-4.592,6.459-9.191c-7.945-4.832-19.368-4.345-39.493,0.727c-12.917,3.146-31.047,7.011-48.929,10.15
		c1.486-4.832,3.225-9.184,5.211-17.154c23.849-3.626,40.986-7.739,48.437-11.124c6.959-2.899,6.213-6.525,0.747-7.252
		c-5.466-0.719-10.431-0.24-18.383,1.933c-7.699,2.18-17.883,4.599-28.815,6.772c1.493-6.772,2.988-11.364,4.226-18.368
		c23.596-3.625,45.459-8.704,52.41-11.364c4.72-1.693,4.965-5.558,0-7.004c-7.206-2.18-13.911-1.94-24.096,1.206
		c-6.705,1.933-16.144,4.352-26.329,6.525c1.24-6.765,3.234-13.049,4.72-16.435c2.734-6.285,2.24-7.491-10.431-12.81
		c-9.684-4.113-14.657-1.933-10.932,4.352c2.979,5.072,3.98,14.256,2.734,27.792c-11.671,2.42-23.349,4.352-30.547,5.079
		c-6.713,0.726-7.452,2.659-0.747,5.072c5.712,1.94,9.438,2.419,30.301-0.24c-0.748,6.524-1.987,11.363-3.48,18.615
		c-10.177,1.933-20.116,3.378-26.82,3.865c-6.212,0.479-6.459,3.139-1.247,4.592c6.212,1.693,9.938,2.172,26.335,0.24
		c-1.493,6.772-3.727,11.117-5.72,17.649c-13.657,2.173-44.457,6.278-49.923,6.525c-6.212,0.24-6.459,1.933-1.493,5.072
		c7.205,4.839,14.904,3.873,22.61,1.453c5.212-1.453,13.164-3.386,26.081-5.319c-10.184,21.754-36.767,49.546-74.272,72.753
		c-4.472,2.659-3.479,5.318,0.993,3.626c27.075-10.637,45.212-22.96,62.348-42.542c4.72,19.822,3.972,34.084,0.493,56.318
		c-1.486,10.15,4.227,21.267,7.452,21.267c2.24,0,4.719-4.345,5.466-17.641c10.185-1.206,26.081-2.42,32.54-2.659
		c4.966-0.24,7.953,2.42,9.939,7.978c7.699,21.754,9.438,22.234,17.383,9.424c3.726-6.038,6.458-16.435,5.465-28.039
		c-2.486-27.792-1.74-34.077,0.993-36.736c2.24-1.933,1.986-3.386-0.747-6.285s-8.938-7.978-13.911-11.117
		c-5.958-3.626-8.445-3.386-13.904-1.693c-9.437,2.899-23.849,5.318-42.478,7.491c-1.486-1.207-2.979-1.693-5.465-2.413
		c9.192-9.911,14.41-19.095,19.876-31.665c6.205-0.726,13.903-1.933,22.102-3.146c20.123,23.207,38.999,42.062,63.588,62.123
		c7.451,6.038,13.164,7.731,53.903,2.412C903.106,280.329,903.354,276.703,895.901,274.77z M780.404,254.709
		c10.185-0.966,13.411,2.659,14.905,9.911c1.986,11.843,2.732,26.106,1.238,37.703c-1.238,9.671-2.979,9.431-8.444,5.566
		c-4.965-3.386-8.692-3.626-16.891-1.693c-5.219,0.966-12.917,2.172-24.095,3.626c0.245-6.285,0.245-14.023,0-23.207
		c11.924,1.453,23.849,0.487,34.033-2.899c6.706-2.173,6.459-5.079-0.499-6.765c-6.213-1.453-15.898-0.487-33.534,5.558
		c-0.247-7.251-0.748-14.989-1.24-22.967C756.555,257.608,773.446,255.196,780.404,254.709z"/>
</g>
</svg>
