<?xml version="1.0" encoding="utf-8"?>
<!-- Generator: Adobe Illustrator 23.1.0, SVG Export Plug-In . SVG Version: 6.00 Build 0)  -->
<svg version="1.1" id="Layer_1" xmlns="http://www.w3.org/2000/svg" xmlns:xlink="http://www.w3.org/1999/xlink" x="0px" y="0px"
	 viewBox="0 0 1200 1200" enable-background="new 0 0 1200 1200" xml:space="preserve">
<g>
	<path fill="#C1B6AC" d="M972.275,111.457c8.948,14.906,14.188,32.291,14.188,50.941v852.735c0,54.806-44.429,99.236-99.236,99.236
		H293.494c-17.599,0-34.1-4.628-48.431-12.663c17.346,28.895,48.892,48.294,85.047,48.294h593.734
		c54.806,0,99.236-44.429,99.236-99.236V198.03C1023.08,160.823,1002.573,128.445,972.275,111.457z"/>
	<path fill="#D1C8BF" d="M887.228,1114.369c54.806,0,99.236-44.429,99.236-99.236V162.399c0-18.651-5.24-36.036-14.188-50.941
		c-12.209-20.338-31.428-35.956-54.391-43.413C900.964,56.688,880.492,50,858.428,50H281.946
		c-57.91,0-105.026,45.848-105.026,102.195v833.878c0,24.761,9.109,47.485,24.224,65.191c8.405,21.464,24.015,39.282,43.919,50.442
		c14.331,8.035,30.832,12.663,48.431,12.663H887.228z M192.212,986.073V152.195c0-48.144,40.255-87.314,89.734-87.314h576.482
		c49.479,0,89.734,39.17,89.734,87.314v833.878c0,48.144-40.255,87.314-89.734,87.314H281.946
		C232.467,1073.388,192.212,1034.217,192.212,986.073z"/>
	<path fill="#FFF6EB" d="M281.946,1073.388h576.482c49.479,0,89.734-39.17,89.734-87.314V152.195
		c0-48.144-40.255-87.314-89.734-87.314H281.946c-49.479,0-89.734,39.17-89.734,87.314v833.878
		C192.212,1034.217,232.467,1073.388,281.946,1073.388z M406.754,614.967c18.883,0,62.124-2.419,100.396-6.292
		c-7.954-20.308-14.416-29.5-20.874-33.852c-8.453-5.319-4.476-14.51,12.424-12.091c25.843,3.865,30.316,7.738,30.316,18.375
		c0,7.259,0,16.93,0.993,25.148c34.792-4.832,60.639-7.739,81.015-10.151c7.456-24.181,7.456-37.725,4.473-45.463
		c-4.97-13.057,1.49-16.443,18.887-7.738c24.353,12.091,26.84,19.829,17.89,29.987c-5.465,6.285-8.448,10.637-12.424,19.342
		c16.4-2.42,29.326-4.832,42.743-7.738c26.84-4.839,38.269-3.865,49.7,5.318c15.905,12.578,12.926,22.248-10.931,19.349
		c-16.902-1.933-57.656-1.453-90.458,0.479c-7.952,14.03-22.366,31.919-29.822,38.212c-9.938,9.671-13.417,7.738-8.945-2.42
		c5.469-12.577,9.941-23.701,13.421-33.372c-18.886,1.933-46.72,4.839-73.559,8.704c4.473,22.735,3.977,29.507,0.994,35.305
		c-3.48,7.259-10.436,6.292-14.412-9.671c-2.486-8.217-4.476-16.443-6.462-22.728c-32.305,3.386-61.632,8.218-72.563,10.637
		c-12.924,3.386-21.374,1.933-41.254-8.704C389.852,621.253,390.849,614.967,406.754,614.967z M744.72,810.834
		c-5.466,4.839-7.954,12.091-8.45,21.769c-4.472,71.09-10.931,92.372-33.298,112.2c-10.438,9.671-13.918,9.191-20.874-2.419
		c-8.448-14.503-21.373-28.047-35.784-39.17c-7.953-6.772-6.462-9.671,1.49-7.739c39.761,10.638,43.737,9.184,47.714-6.772
		c7.952-32.406,9.441-48.362,7.952-70.61c-0.993-12.578-8.945-17.896-39.265-15.477c-29.819,1.933-63.618,4.832-100.892,8.705
		l-0.993,38.204l44.233-8.218c-1.991-3.386-3.977-7.738-5.967-11.124c-4.472-9.191-0.497-12.09,10.439-6.772
		c30.816,15.477,39.265,30.953,35.785,43.53c-3.976,14.51-13.918,16.922-20.874,7.252c-3.479-5.319-8.948-13.543-14.415-22.728
		c-35.289,8.704-81.512,21.761-100.395,29.5c-10.439,4.352-14.912,3.865-29.822-8.225c-11.929-10.15-9.94-14.989,3.479-14.023
		c8.945,0.966,35.784-1.453,57.655-4.839l0.497-40.137c-26.343,2.899-54.672,6.772-98.907,12.57
		c5.466,36.279,8.449,86.094,5.466,102.537c-1.986,12.091-9.442,14.51-14.411,8.217c-7.952-9.184-9.942-17.409-9.446-28.533
		c1.991-33.372-4.472-78.348-14.911-93.345c-5.962-9.184-1.49-15.476,26.343-3.865c39.265-5.319,73.56-9.191,105.865-13.544
		l0.496-29.02c-13.918,1.94-27.833,3.386-39.264,5.326c-0.993,2.899-4.472,4.832-6.96,4.832c-5.962,0-8.448-4.352-15.903-29.987
		c-10.436-39.17-20.377-59.965-27.336-66.258c-9.94-8.704-6.459-15.476,20.377-10.157c46.223-3.865,138.171-17.409,151.091-21.761
		c10.439-3.386,18.391-2.899,32.805,5.318c24.85,14.03,24.85,20.316,16.898,26.6c-6.959,5.806-10.935,12.091-16.898,27.087
		c-14.91,34.818-20.377,45.943-27.336,54.647c-6.462,8.712-13.421,8.225-14.91,1.453c-0.993-3.865-2.983-4.352-15.409-3.386
		c-10.434,0.966-22.864,1.933-35.784,3.386l-0.993,29.5c30.815-3.386,61.627-6.285,94.93-9.671
		c18.391-2.419,26.84-3.866,34.792-6.772c6.955-2.419,13.914-2.899,33.794,7.259C750.685,797.777,750.685,805.036,744.72,810.834z
		 M756.651,452.611c-52.686-9.191-79.522-10.644-185.387-4.352c-58.648,3.386-121.273,12.091-145.626,17.896
		c-24.849,5.798-34.292,4.352-57.651-9.678c-15.904-9.184-12.425-17.889,9.442-15.956c5.966,0.48,31.808-0.487,46.223-1.933
		C552.873,426.49,690.05,412.954,698.003,411.5c37.274-6.285,61.131-2.419,80.019,13.544
		C799.888,443.419,795.415,459.383,756.651,452.611z M579.713,219.979c-68.09,9.678-83.995,7.738-99.899-0.479
		c-15.905-8.225-14.912-12.091,1.986-14.03c26.84-2.899,98.409-14.99,107.855-17.409c67.589-16.443,73.555-15.956,92.939-10.157
		c15.905,4.839,13.419,15.963,0,22.735C671.66,205.469,644.82,210.794,579.713,219.979z M656.748,323.961
		c-13.913,0-52.186,1.94-67.593,4.352c-73.06,10.645-79.522,10.645-98.406,2.42c-17.894-7.738-17.894-11.604,1.986-14.023
		c34.792-3.873,89.961-14.03,108.844-19.349c25.35-6.285,46.721-3.386,63.619,6.292C679.611,311.87,676.132,323.961,656.748,323.961
		z"/>
	<path fill="#FFF6EB" d="M514.606,714.111c8.945-0.966,19.385-2.899,29.322-4.839c-0.993-16.922-2.486-24.661-4.472-30.953
		c-19.385,3.386-36.282,5.805-51.689,7.738c4.969,20.795,6.959,29.02,15.904,73.516c15.408-2.42,28.329-4.839,39.761-6.292
		l0.497-27.567c-14.415,0.487-26.343,0-29.822-1.933C506.654,718.943,507.15,715.077,514.606,714.111z"/>
	<path fill="#FFF6EB" d="M601.082,713.624c-7.952,3.873-21.37,7.259-34.787,9.678l-0.997,26.113
		c33.798-4.839,42.247-4.839,44.734-3.386c1.986,1.453,4.97,0,7.452-6.772c8.948-26.6,11.931-40.624,14.414-56.587
		c1.49-9.184-2.482-12.09-12.92-12.57c-7.953-0.487-29.322,0.48-53.179,3.386c0.993,8.217,0.993,18.375,0.993,29.979
		c18.884-6.285,27.336-5.798,35.288-1.446C610.032,705.406,609.531,709.758,601.082,713.624z"/>
	<path fill="#1B669E" d="M682.594,177.902c-19.383-5.798-25.35-6.285-92.939,10.157c-9.446,2.42-81.015,14.51-107.855,17.409
		c-16.898,1.94-17.891,5.805-1.986,14.03c15.903,8.217,31.808,10.157,99.899,0.479c65.107-9.184,91.947-14.51,102.881-19.342
		C696.013,193.865,698.499,182.741,682.594,177.902z"/>
	<path fill="#1B669E" d="M601.579,297.36c-18.883,5.318-74.052,15.476-108.844,19.349c-19.88,2.42-19.88,6.285-1.986,14.023
		c18.884,8.225,25.346,8.225,98.406-2.42c15.407-2.412,53.679-4.352,67.593-4.352c19.385,0,22.864-12.091,8.45-20.308
		C648.299,293.974,626.929,291.075,601.579,297.36z"/>
	<path fill="#1B669E" d="M778.021,425.044c-18.888-15.963-42.745-19.829-80.019-13.544c-7.953,1.453-145.13,14.99-274.351,27.087
		c-14.415,1.446-40.258,2.413-46.223,1.933c-21.867-1.933-25.346,6.772-9.442,15.956c23.359,14.03,32.802,15.476,57.651,9.678
		c24.353-5.805,86.978-14.51,145.626-17.896c105.865-6.292,132.701-4.839,185.387,4.352
		C795.415,459.383,799.888,443.419,778.021,425.044z"/>
	<path fill="#CC403A" d="M439.556,634.309c10.932-2.419,40.258-7.251,72.563-10.637c1.986,6.285,3.976,14.51,6.462,22.728
		c3.976,15.963,10.932,16.93,14.412,9.671c2.983-5.798,3.479-12.57-0.994-35.305c26.84-3.865,54.673-6.772,73.559-8.704
		c-3.479,9.671-7.952,20.795-13.421,33.372c-4.472,10.158-0.993,12.091,8.945,2.42c7.456-6.292,21.871-24.181,29.822-38.212
		c32.802-1.933,73.556-2.412,90.458-0.479c23.857,2.899,26.836-6.772,10.931-19.349c-11.431-9.184-22.86-10.157-49.7-5.318
		c-13.417,2.906-26.343,5.318-42.743,7.738c3.976-8.704,6.959-13.057,12.424-19.342c8.949-10.158,6.463-17.896-17.89-29.987
		c-17.398-8.704-23.857-5.319-18.887,7.738c2.983,7.738,2.983,21.282-4.473,45.463c-20.377,2.412-46.223,5.319-81.015,10.151
		c-0.993-8.218-0.993-17.889-0.993-25.148c0-10.637-4.473-14.51-30.316-18.375c-16.9-2.42-20.877,6.772-12.424,12.091
		c6.458,4.352,12.92,13.543,20.874,33.852c-38.272,3.873-81.513,6.292-100.396,6.292c-15.905,0-16.902,6.285-8.453,10.637
		C418.182,636.242,426.632,637.695,439.556,634.309z"/>
	<path fill="#CC403A" d="M727.325,786.174c-19.881-10.158-26.84-9.678-33.794-7.259c-7.953,2.906-16.402,4.352-34.792,6.772
		c-33.303,3.386-64.114,6.285-94.93,9.671l0.993-29.5c12.92-1.453,25.35-2.419,35.784-3.386c12.426-0.966,14.416-0.48,15.409,3.386
		c1.49,6.772,8.448,7.259,14.91-1.453c6.96-8.705,12.426-19.829,27.336-54.647c5.963-14.997,9.94-21.282,16.898-27.087
		c7.952-6.285,7.952-12.57-16.898-26.6c-14.414-8.217-22.366-8.704-32.805-5.318c-12.92,4.352-104.868,17.896-151.091,21.761
		c-26.836-5.319-30.316,1.453-20.377,10.157c6.959,6.292,16.9,27.087,27.336,66.258c7.455,25.634,9.941,29.987,15.903,29.987
		c2.487,0,5.967-1.933,6.96-4.832c11.432-1.94,25.346-3.386,39.264-5.326l-0.496,29.02c-32.305,4.352-66.601,8.225-105.865,13.544
		c-27.833-11.611-32.305-5.319-26.343,3.865c10.439,14.997,16.902,59.973,14.911,93.345c-0.496,11.124,1.494,19.349,9.446,28.533
		c4.969,6.292,12.425,3.873,14.411-8.217c2.983-16.443,0-66.258-5.466-102.537c44.234-5.798,72.563-9.671,98.907-12.57
		l-0.497,40.137c-21.871,3.386-48.71,5.806-57.655,4.839c-13.419-0.966-15.409,3.873-3.479,14.023
		c14.91,12.091,19.384,12.578,29.822,8.225c18.883-7.738,65.106-20.795,100.395-29.5c5.466,9.184,10.935,17.409,14.415,22.728
		c6.956,9.671,16.898,7.259,20.874-7.252c3.479-12.577-4.969-28.053-35.785-43.53c-10.935-5.318-14.911-2.419-10.439,6.772
		c1.99,3.386,3.976,7.739,5.967,11.124l-44.233,8.218l0.993-38.204c37.274-3.873,71.073-6.772,100.892-8.705
		c30.32-2.419,38.271,2.899,39.265,15.477c1.49,22.248,0,38.204-7.952,70.61c-3.977,15.956-7.953,17.409-47.714,6.772
		c-7.952-1.933-9.442,0.966-1.49,7.739c14.411,11.124,27.336,24.668,35.784,39.17c6.956,11.611,10.436,12.091,20.874,2.419
		c22.367-19.828,28.826-41.11,33.298-112.2c0.496-9.678,2.984-16.93,8.45-21.769C750.685,805.036,750.685,797.777,727.325,786.174z
		 M602.079,702.02c-7.952-4.352-16.404-4.839-35.288,1.446c0-11.604,0-21.761-0.993-29.979c23.857-2.906,45.226-3.873,53.179-3.386
		c10.438,0.48,14.411,3.386,12.92,12.57c-2.482,15.963-5.465,29.987-14.414,56.587c-2.482,6.772-5.466,8.225-7.452,6.772
		c-2.486-1.453-10.935-1.453-44.734,3.386l0.997-26.113c13.418-2.42,26.836-5.806,34.787-9.678
		C609.531,709.758,610.032,705.406,602.079,702.02z M514.105,723.782c3.479,1.933,15.408,2.42,29.822,1.933l-0.497,27.567
		c-11.432,1.453-24.353,3.873-39.761,6.292c-8.946-44.496-10.935-52.721-15.904-73.516c15.408-1.933,32.305-4.352,51.689-7.738
		c1.986,6.292,3.479,14.03,4.472,30.953c-9.938,1.94-20.378,3.873-29.322,4.839C507.15,715.077,506.654,718.943,514.105,723.782z"/>
</g>
</svg>
