<?xml version="1.0" encoding="utf-8"?>
<!-- Generator: Adobe Illustrator 23.1.0, SVG Export Plug-In . SVG Version: 6.00 Build 0)  -->
<svg version="1.1" id="Layer_1" xmlns="http://www.w3.org/2000/svg" xmlns:xlink="http://www.w3.org/1999/xlink" x="0px" y="0px"
	 viewBox="0 0 1200 1200" enable-background="new 0 0 1200 1200" xml:space="preserve">
<g>
	<path fill="#C1B6AC" d="M972.196,111.594c8.947,14.904,14.187,32.286,14.187,50.935v852.623c0,54.799-44.424,99.223-99.223,99.223
		H293.505c-17.598,0-34.094-4.627-48.424-12.661c17.343,28.891,48.885,48.288,85.035,48.288h593.656
		c54.8,0,99.223-44.423,99.223-99.223V198.155C1022.994,160.953,1002.49,128.579,972.196,111.594z"/>
	<path fill="#D1C8BF" d="M887.161,1114.374c54.798,0,99.223-44.423,99.223-99.223V162.528c0-18.648-5.24-36.031-14.187-50.935
		c-12.19-20.306-31.371-35.903-54.286-43.372C901.175,56.746,880.954,50,859.174,50H281.143
		c-57.421,0-104.137,46.716-104.137,104.135v830.15c0,25.174,8.985,48.286,23.911,66.311c8.339,21.762,24.053,39.84,44.164,51.116
		c14.33,8.034,30.827,12.661,48.424,12.661H887.161z M192.169,984.285v-830.15c0-49.06,39.913-88.972,88.974-88.972h578.031
		c49.063,0,88.976,39.912,88.976,88.972v830.15c0,49.06-39.913,88.972-88.976,88.972H281.143
		C232.082,1073.257,192.169,1033.345,192.169,984.285z"/>
	<path fill="#FFF6EB" d="M281.143,1073.257h578.031c49.063,0,88.976-39.912,88.976-88.972v-830.15
		c0-49.06-39.913-88.972-88.976-88.972H281.143c-49.062,0-88.974,39.912-88.974,88.972v830.15
		C192.169,1033.345,232.082,1073.257,281.143,1073.257z M435.613,1030.331c-58.671,0-106.234-46.282-106.234-103.374
		c0-57.092,47.563-103.374,106.234-103.374s106.234,46.282,106.234,103.374C541.847,984.049,494.284,1030.331,435.613,1030.331z
		 M435.613,794.027c-58.671,0-106.234-46.282-106.234-103.373c0-57.092,47.563-103.374,106.234-103.374
		s106.234,46.282,106.234,103.374C541.847,747.745,494.284,794.027,435.613,794.027z M435.613,557.724
		c-58.671,0-106.234-46.282-106.234-103.374s47.563-103.373,106.234-103.373s106.234,46.282,106.234,103.373
		S494.284,557.724,435.613,557.724z M435.613,321.421c-58.671,0-106.234-46.282-106.234-103.374s47.563-103.374,106.234-103.374
		s106.234,46.282,106.234,103.374S494.284,321.421,435.613,321.421z M685.79,1030.331c-58.671,0-106.232-46.282-106.232-103.374
		c0-57.092,47.561-103.374,106.232-103.374s106.234,46.282,106.234,103.374C792.024,984.049,744.461,1030.331,685.79,1030.331z
		 M685.79,794.027c-58.671,0-106.232-46.282-106.232-103.373c0-57.092,47.561-103.374,106.232-103.374
		s106.234,46.282,106.234,103.374C792.024,747.745,744.461,794.027,685.79,794.027z M685.79,557.724
		c-58.671,0-106.232-46.282-106.232-103.374S627.12,350.977,685.79,350.977s106.234,46.282,106.234,103.373
		S744.461,557.724,685.79,557.724z M685.79,321.421c-58.671,0-106.232-46.282-106.232-103.374S627.12,114.673,685.79,114.673
		s106.234,46.282,106.234,103.374S744.461,321.421,685.79,321.421z"/>
	<path fill="#1B669E" d="M435.613,823.583c-58.671,0-106.234,46.282-106.234,103.374c0,57.092,47.563,103.374,106.234,103.374
		s106.234-46.282,106.234-103.374C541.847,869.865,494.284,823.583,435.613,823.583z M373.035,862.233
		c15.127,1.534,29.832,7.935,41.423,19.215c11.593,11.281,18.172,25.589,19.747,40.309c0.236,2.2-1.676,4.06-3.937,3.831
		c-15.127-1.534-29.83-7.935-41.423-19.216c-11.593-11.28-18.17-25.589-19.747-40.309
		C368.862,863.863,370.774,862.004,373.035,862.233z M414.458,976.014c-12.614,12.275-28.913,18.768-45.434,19.501
		c-2.182,0.096-3.966-1.638-3.865-3.762c0.753-16.076,7.426-31.936,20.04-44.212c12.616-12.275,28.915-18.768,45.434-19.501
		c2.184-0.096,3.966,1.638,3.867,3.762C433.747,947.877,427.075,963.738,414.458,976.014z M498.191,991.681
		c-15.127-1.534-29.832-7.935-41.423-19.215c-11.593-11.281-18.172-25.589-19.747-40.309c-0.236-2.2,1.676-4.06,3.937-3.831
		c15.125,1.534,29.83,7.935,41.423,19.216c11.591,11.28,18.17,25.589,19.747,40.309C502.364,990.051,500.452,991.91,498.191,991.681
		z M486.027,906.372c-12.616,12.276-28.915,18.769-45.434,19.502c-2.184,0.096-3.966-1.638-3.867-3.762
		c0.753-16.076,7.426-31.936,20.042-44.212c12.614-12.275,28.913-18.768,45.432-19.501c2.184-0.096,3.966,1.638,3.867,3.762
		C505.314,878.236,498.641,894.097,486.027,906.372z"/>
	<path fill="#FFFFFF" d="M430.633,928.04c-16.519,0.733-32.818,7.226-45.434,19.501c-12.614,12.276-19.287,28.137-20.04,44.212
		c-0.101,2.124,1.683,3.858,3.865,3.762c16.521-0.733,32.82-7.226,45.434-19.501c12.616-12.276,19.289-28.137,20.042-44.212
		C434.599,929.677,432.817,927.943,430.633,928.04z"/>
	<path fill="#FFFFFF" d="M430.268,925.588c2.262,0.229,4.173-1.631,3.937-3.831c-1.575-14.72-8.154-29.029-19.747-40.309
		c-11.591-11.28-26.296-17.681-41.423-19.215c-2.262-0.229-4.173,1.631-3.937,3.831c1.577,14.72,8.154,29.029,19.747,40.309
		C400.438,917.653,415.141,924.054,430.268,925.588z"/>
	<path fill="#FFFFFF" d="M440.958,928.326c-2.262-0.229-4.173,1.631-3.937,3.831c1.575,14.72,8.154,29.028,19.747,40.309
		c11.591,11.28,26.296,17.682,41.423,19.215c2.262,0.229,4.173-1.631,3.937-3.831c-1.577-14.72-8.156-29.029-19.747-40.309
		C470.788,936.261,456.083,929.86,440.958,928.326z"/>
	<path fill="#FFFFFF" d="M502.2,858.399c-16.519,0.733-32.818,7.226-45.432,19.501c-12.616,12.276-19.289,28.137-20.042,44.212
		c-0.099,2.124,1.683,3.858,3.867,3.762c16.519-0.733,32.818-7.226,45.434-19.502c12.614-12.275,19.287-28.136,20.04-44.212
		C506.166,860.037,504.384,858.302,502.2,858.399z"/>
	<path fill="#1B669E" d="M685.79,823.583c-58.671,0-106.232,46.282-106.232,103.374c0,57.092,47.561,103.374,106.232,103.374
		s106.234-46.282,106.234-103.374C792.024,869.865,744.461,823.583,685.79,823.583z M623.213,862.233
		c15.129,1.534,29.832,7.935,41.425,19.215c11.593,11.281,18.17,25.589,19.745,40.309c0.236,2.2-1.674,4.06-3.935,3.831
		c-15.127-1.534-29.832-7.935-41.425-19.216c-11.591-11.28-18.17-25.589-19.745-40.309
		C619.041,863.863,620.953,862.004,623.213,862.233z M664.638,976.014c-12.616,12.275-28.915,18.768-45.434,19.501
		c-2.184,0.096-3.966-1.638-3.867-3.762c0.753-16.076,7.426-31.936,20.042-44.212c12.614-12.275,28.915-18.768,45.434-19.501
		c2.182-0.096,3.966,1.638,3.865,3.762C683.926,947.877,677.252,963.738,664.638,976.014z M748.368,991.681
		c-15.127-1.534-29.832-7.935-41.423-19.215c-11.593-11.281-18.172-25.589-19.747-40.309c-0.236-2.2,1.676-4.06,3.937-3.831
		c15.127,1.534,29.832,7.935,41.423,19.216c11.593,11.28,18.172,25.589,19.747,40.309
		C752.541,990.051,750.629,991.91,748.368,991.681z M736.204,906.372c-12.614,12.276-28.915,18.769-45.434,19.502
		c-2.184,0.096-3.966-1.638-3.865-3.762c0.751-16.076,7.426-31.936,20.04-44.212c12.614-12.275,28.915-18.768,45.434-19.501
		c2.184-0.096,3.966,1.638,3.867,3.762C755.493,878.236,748.821,894.097,736.204,906.372z"/>
	<path fill="#FFFFFF" d="M680.813,928.04c-16.519,0.733-32.82,7.226-45.434,19.501c-12.616,12.276-19.289,28.137-20.042,44.212
		c-0.099,2.124,1.683,3.858,3.867,3.762c16.519-0.733,32.818-7.226,45.434-19.501c12.614-12.276,19.289-28.137,20.04-44.212
		C684.778,929.677,682.994,927.943,680.813,928.04z"/>
	<path fill="#FFFFFF" d="M680.447,925.588c2.262,0.229,4.171-1.631,3.935-3.831c-1.575-14.72-8.152-29.029-19.745-40.309
		c-11.593-11.28-26.296-17.681-41.425-19.215c-2.26-0.229-4.171,1.631-3.935,3.831c1.575,14.72,8.154,29.029,19.745,40.309
		C650.616,917.653,665.32,924.054,680.447,925.588z"/>
	<path fill="#FFFFFF" d="M691.135,928.326c-2.262-0.229-4.173,1.631-3.937,3.831c1.575,14.72,8.154,29.028,19.747,40.309
		c11.591,11.28,26.296,17.682,41.423,19.215c2.262,0.229,4.173-1.631,3.937-3.831c-1.575-14.72-8.154-29.029-19.747-40.309
		C720.967,936.261,706.262,929.86,691.135,928.326z"/>
	<path fill="#FFFFFF" d="M752.379,858.399c-16.519,0.733-32.82,7.226-45.434,19.501c-12.614,12.276-19.289,28.137-20.04,44.212
		c-0.101,2.124,1.681,3.858,3.865,3.762c16.519-0.733,32.82-7.226,45.434-19.502c12.616-12.275,19.289-28.136,20.042-44.212
		C756.345,860.037,754.563,858.302,752.379,858.399z"/>
	<path fill="#1B669E" d="M435.613,587.28c-58.671,0-106.234,46.282-106.234,103.374c0,57.092,47.563,103.373,106.234,103.373
		s106.234-46.282,106.234-103.373C541.847,633.562,494.284,587.28,435.613,587.28z M373.035,625.93
		c15.127,1.534,29.832,7.934,41.423,19.215c11.593,11.281,18.172,25.589,19.747,40.309c0.236,2.2-1.676,4.06-3.937,3.831
		c-15.127-1.534-29.83-7.934-41.423-19.215c-11.593-11.281-18.17-25.589-19.747-40.309
		C368.862,627.56,370.774,625.701,373.035,625.93z M414.458,739.71c-12.614,12.276-28.913,18.769-45.434,19.501
		c-2.182,0.097-3.966-1.637-3.865-3.762c0.753-16.075,7.426-31.936,20.04-44.212c12.616-12.275,28.915-18.768,45.434-19.501
		c2.184-0.097,3.966,1.638,3.867,3.762C433.747,711.574,427.075,727.435,414.458,739.71z M498.191,755.378
		c-15.127-1.534-29.832-7.935-41.423-19.215c-11.593-11.281-18.172-25.589-19.747-40.309c-0.236-2.2,1.676-4.06,3.937-3.831
		c15.125,1.534,29.83,7.935,41.423,19.215c11.591,11.281,18.17,25.589,19.747,40.309
		C502.364,753.747,500.452,755.607,498.191,755.378z M486.027,670.069c-12.616,12.276-28.915,18.769-45.434,19.501
		c-2.184,0.097-3.966-1.637-3.867-3.762c0.753-16.075,7.426-31.936,20.042-44.212c12.614-12.275,28.913-18.769,45.432-19.501
		c2.184-0.097,3.966,1.638,3.867,3.762C505.314,641.933,498.641,657.794,486.027,670.069z"/>
	<path fill="#FFFFFF" d="M430.633,691.737c-16.519,0.733-32.818,7.226-45.434,19.501c-12.614,12.276-19.287,28.137-20.04,44.212
		c-0.101,2.125,1.683,3.859,3.865,3.762c16.521-0.732,32.82-7.225,45.434-19.501c12.616-12.275,19.289-28.136,20.042-44.212
		C434.599,693.374,432.817,691.64,430.633,691.737z"/>
	<path fill="#FFFFFF" d="M430.268,689.284c2.262,0.229,4.173-1.631,3.937-3.831c-1.575-14.72-8.154-29.028-19.747-40.309
		c-11.591-11.281-26.296-17.681-41.423-19.215c-2.262-0.229-4.173,1.631-3.937,3.831c1.577,14.72,8.154,29.028,19.747,40.309
		C400.438,681.35,415.141,687.751,430.268,689.284z"/>
	<path fill="#FFFFFF" d="M440.958,692.023c-2.262-0.229-4.173,1.631-3.937,3.831c1.575,14.72,8.154,29.029,19.747,40.309
		c11.591,11.28,26.296,17.682,41.423,19.215c2.262,0.229,4.173-1.63,3.937-3.831c-1.577-14.72-8.156-29.029-19.747-40.309
		C470.788,699.958,456.083,693.556,440.958,692.023z"/>
	<path fill="#FFFFFF" d="M502.2,622.096c-16.519,0.733-32.818,7.226-45.432,19.501c-12.616,12.275-19.289,28.137-20.042,44.212
		c-0.099,2.125,1.683,3.859,3.867,3.762c16.519-0.732,32.818-7.225,45.434-19.501c12.614-12.275,19.287-28.136,20.04-44.212
		C506.166,623.733,504.384,621.999,502.2,622.096z"/>
	<path fill="#1B669E" d="M685.79,587.28c-58.671,0-106.232,46.282-106.232,103.374c0,57.092,47.561,103.373,106.232,103.373
		s106.234-46.282,106.234-103.373C792.024,633.562,744.461,587.28,685.79,587.28z M623.213,625.93
		c15.129,1.534,29.832,7.934,41.425,19.215c11.593,11.281,18.17,25.589,19.745,40.309c0.236,2.2-1.674,4.06-3.935,3.831
		c-15.127-1.534-29.832-7.934-41.425-19.215c-11.591-11.281-18.17-25.589-19.745-40.309
		C619.041,627.56,620.953,625.701,623.213,625.93z M664.638,739.71c-12.616,12.276-28.915,18.769-45.434,19.501
		c-2.184,0.097-3.966-1.637-3.867-3.762c0.753-16.075,7.426-31.936,20.042-44.212c12.614-12.275,28.915-18.768,45.434-19.501
		c2.182-0.097,3.966,1.638,3.865,3.762C683.926,711.574,677.252,727.435,664.638,739.71z M748.368,755.378
		c-15.127-1.534-29.832-7.935-41.423-19.215c-11.593-11.281-18.172-25.589-19.747-40.309c-0.236-2.2,1.676-4.06,3.937-3.831
		c15.127,1.534,29.832,7.935,41.423,19.215c11.593,11.281,18.172,25.589,19.747,40.309
		C752.541,753.747,750.629,755.607,748.368,755.378z M736.204,670.069c-12.614,12.276-28.915,18.769-45.434,19.501
		c-2.184,0.097-3.966-1.637-3.865-3.762c0.751-16.075,7.426-31.936,20.04-44.212c12.614-12.275,28.915-18.769,45.434-19.501
		c2.184-0.097,3.966,1.638,3.867,3.762C755.493,641.933,748.821,657.794,736.204,670.069z"/>
	<path fill="#FFFFFF" d="M680.813,691.737c-16.519,0.733-32.82,7.226-45.434,19.501c-12.616,12.276-19.289,28.137-20.042,44.212
		c-0.099,2.125,1.683,3.859,3.867,3.762c16.519-0.732,32.818-7.225,45.434-19.501c12.614-12.275,19.289-28.136,20.04-44.212
		C684.778,693.374,682.994,691.64,680.813,691.737z"/>
	<path fill="#FFFFFF" d="M680.447,689.284c2.262,0.229,4.171-1.631,3.935-3.831c-1.575-14.72-8.152-29.028-19.745-40.309
		c-11.593-11.281-26.296-17.681-41.425-19.215c-2.26-0.229-4.171,1.631-3.935,3.831c1.575,14.72,8.154,29.028,19.745,40.309
		C650.616,681.35,665.32,687.751,680.447,689.284z"/>
	<path fill="#FFFFFF" d="M691.135,692.023c-2.262-0.229-4.173,1.631-3.937,3.831c1.575,14.72,8.154,29.029,19.747,40.309
		c11.591,11.28,26.296,17.682,41.423,19.215c2.262,0.229,4.173-1.63,3.937-3.831c-1.575-14.72-8.154-29.029-19.747-40.309
		C720.967,699.958,706.262,693.556,691.135,692.023z"/>
	<path fill="#FFFFFF" d="M752.379,622.096c-16.519,0.733-32.82,7.226-45.434,19.501c-12.614,12.275-19.289,28.137-20.04,44.212
		c-0.101,2.125,1.681,3.859,3.865,3.762c16.519-0.732,32.82-7.225,45.434-19.501c12.616-12.275,19.289-28.136,20.042-44.212
		C756.345,623.733,754.563,621.999,752.379,622.096z"/>
	<path fill="#1B669E" d="M435.613,350.977c-58.671,0-106.234,46.282-106.234,103.373s47.563,103.374,106.234,103.374
		s106.234-46.282,106.234-103.374S494.284,350.977,435.613,350.977z M373.035,389.627c15.127,1.533,29.832,7.934,41.423,19.215
		c11.593,11.281,18.172,25.589,19.747,40.309c0.236,2.2-1.676,4.06-3.937,3.831c-15.127-1.534-29.83-7.935-41.423-19.215
		c-11.593-11.281-18.17-25.589-19.747-40.309C368.862,391.257,370.774,389.397,373.035,389.627z M414.458,503.407
		c-12.614,12.275-28.913,18.769-45.434,19.501c-2.182,0.097-3.966-1.638-3.865-3.762c0.753-16.075,7.426-31.936,20.04-44.212
		c12.616-12.276,28.915-18.769,45.434-19.501c2.184-0.097,3.966,1.637,3.867,3.762C433.747,475.27,427.075,491.131,414.458,503.407z
		 M498.191,519.074c-15.127-1.534-29.832-7.934-41.423-19.215c-11.593-11.281-18.172-25.589-19.747-40.309
		c-0.236-2.2,1.676-4.06,3.937-3.831c15.125,1.534,29.83,7.934,41.423,19.215c11.591,11.281,18.17,25.589,19.747,40.309
		C502.364,517.444,500.452,519.303,498.191,519.074z M486.027,433.766c-12.616,12.275-28.915,18.769-45.434,19.501
		c-2.184,0.097-3.966-1.638-3.867-3.762c0.753-16.075,7.426-31.936,20.042-44.212c12.614-12.276,28.913-18.769,45.432-19.501
		c2.184-0.097,3.966,1.637,3.867,3.762C505.314,405.63,498.641,421.49,486.027,433.766z"/>
	<path fill="#FFFFFF" d="M430.633,455.433c-16.519,0.733-32.818,7.225-45.434,19.501c-12.614,12.275-19.287,28.137-20.04,44.212
		c-0.101,2.124,1.683,3.859,3.865,3.762c16.521-0.733,32.82-7.226,45.434-19.501c12.616-12.276,19.289-28.137,20.042-44.212
		C434.599,457.071,432.817,455.336,430.633,455.433z"/>
	<path fill="#FFFFFF" d="M430.268,452.981c2.262,0.229,4.173-1.631,3.937-3.831c-1.575-14.72-8.154-29.029-19.747-40.309
		c-11.591-11.28-26.296-17.681-41.423-19.215c-2.262-0.229-4.173,1.631-3.937,3.831c1.577,14.72,8.154,29.028,19.747,40.309
		C400.438,445.046,415.141,451.448,430.268,452.981z"/>
	<path fill="#FFFFFF" d="M440.958,455.72c-2.262-0.229-4.173,1.631-3.937,3.831c1.575,14.72,8.154,29.028,19.747,40.309
		c11.591,11.281,26.296,17.682,41.423,19.215c2.262,0.229,4.173-1.63,3.937-3.831c-1.577-14.72-8.156-29.028-19.747-40.309
		C470.788,463.654,456.083,457.253,440.958,455.72z"/>
	<path fill="#FFFFFF" d="M502.2,385.793c-16.519,0.733-32.818,7.225-45.432,19.501c-12.616,12.275-19.289,28.137-20.042,44.212
		c-0.099,2.124,1.683,3.859,3.867,3.762c16.519-0.733,32.818-7.226,45.434-19.501c12.614-12.276,19.287-28.137,20.04-44.212
		C506.166,387.43,504.384,385.696,502.2,385.793z"/>
	<path fill="#1B669E" d="M685.79,350.977c-58.671,0-106.232,46.282-106.232,103.373S627.12,557.724,685.79,557.724
		s106.234-46.282,106.234-103.374S744.461,350.977,685.79,350.977z M623.213,389.627c15.129,1.533,29.832,7.934,41.425,19.215
		c11.593,11.281,18.17,25.589,19.745,40.309c0.236,2.2-1.674,4.06-3.935,3.831c-15.127-1.534-29.832-7.935-41.425-19.215
		c-11.591-11.281-18.17-25.589-19.745-40.309C619.041,391.257,620.953,389.397,623.213,389.627z M664.638,503.407
		c-12.616,12.275-28.915,18.769-45.434,19.501c-2.184,0.097-3.966-1.638-3.867-3.762c0.753-16.075,7.426-31.936,20.042-44.212
		c12.614-12.276,28.915-18.769,45.434-19.501c2.182-0.097,3.966,1.637,3.865,3.762C683.926,475.27,677.252,491.131,664.638,503.407z
		 M748.368,519.074c-15.127-1.534-29.832-7.934-41.423-19.215c-11.593-11.281-18.172-25.589-19.747-40.309
		c-0.236-2.2,1.676-4.06,3.937-3.831c15.127,1.534,29.832,7.934,41.423,19.215c11.593,11.281,18.172,25.589,19.747,40.309
		C752.541,517.444,750.629,519.303,748.368,519.074z M736.204,433.766c-12.614,12.275-28.915,18.769-45.434,19.501
		c-2.184,0.097-3.966-1.638-3.865-3.762c0.751-16.075,7.426-31.936,20.04-44.212c12.614-12.276,28.915-18.769,45.434-19.501
		c2.184-0.097,3.966,1.637,3.867,3.762C755.493,405.63,748.821,421.49,736.204,433.766z"/>
	<path fill="#FFFFFF" d="M680.813,455.433c-16.519,0.733-32.82,7.225-45.434,19.501c-12.616,12.275-19.289,28.137-20.042,44.212
		c-0.099,2.124,1.683,3.859,3.867,3.762c16.519-0.733,32.818-7.226,45.434-19.501c12.614-12.276,19.289-28.137,20.04-44.212
		C684.778,457.071,682.994,455.336,680.813,455.433z"/>
	<path fill="#FFFFFF" d="M680.447,452.981c2.262,0.229,4.171-1.631,3.935-3.831c-1.575-14.72-8.152-29.029-19.745-40.309
		c-11.593-11.28-26.296-17.681-41.425-19.215c-2.26-0.229-4.171,1.631-3.935,3.831c1.575,14.72,8.154,29.028,19.745,40.309
		C650.616,445.046,665.32,451.448,680.447,452.981z"/>
	<path fill="#FFFFFF" d="M691.135,455.72c-2.262-0.229-4.173,1.631-3.937,3.831c1.575,14.72,8.154,29.028,19.747,40.309
		c11.591,11.281,26.296,17.682,41.423,19.215c2.262,0.229,4.173-1.63,3.937-3.831c-1.575-14.72-8.154-29.028-19.747-40.309
		C720.967,463.654,706.262,457.253,691.135,455.72z"/>
	<path fill="#FFFFFF" d="M752.379,385.793c-16.519,0.733-32.82,7.225-45.434,19.501c-12.614,12.275-19.289,28.137-20.04,44.212
		c-0.101,2.124,1.681,3.859,3.865,3.762c16.519-0.733,32.82-7.226,45.434-19.501c12.616-12.276,19.289-28.137,20.042-44.212
		C756.345,387.43,754.563,385.696,752.379,385.793z"/>
	<path fill="#1B669E" d="M435.613,114.673c-58.671,0-106.234,46.282-106.234,103.374s47.563,103.374,106.234,103.374
		s106.234-46.282,106.234-103.374S494.284,114.673,435.613,114.673z M373.035,153.323c15.127,1.534,29.832,7.935,41.423,19.215
		c11.593,11.281,18.172,25.589,19.747,40.309c0.236,2.2-1.676,4.06-3.937,3.831c-15.127-1.534-29.83-7.935-41.423-19.215
		c-11.593-11.28-18.17-25.589-19.747-40.309C368.862,154.953,370.774,153.094,373.035,153.323z M414.458,267.103
		c-12.614,12.276-28.913,18.769-45.434,19.502c-2.182,0.097-3.966-1.638-3.865-3.762c0.753-16.076,7.426-31.936,20.04-44.212
		c12.616-12.275,28.915-18.769,45.434-19.501c2.184-0.097,3.966,1.638,3.867,3.762C433.747,238.967,427.075,254.828,414.458,267.103
		z M498.191,282.771c-15.127-1.534-29.832-7.935-41.423-19.215c-11.593-11.281-18.172-25.589-19.747-40.309
		c-0.236-2.2,1.676-4.06,3.937-3.831c15.125,1.534,29.83,7.935,41.423,19.215c11.591,11.28,18.17,25.589,19.747,40.309
		C502.364,281.141,500.452,283,498.191,282.771z M486.027,197.462c-12.616,12.276-28.915,18.769-45.434,19.502
		c-2.184,0.097-3.966-1.638-3.867-3.762c0.753-16.076,7.426-31.936,20.042-44.212c12.614-12.275,28.913-18.769,45.432-19.501
		c2.184-0.097,3.966,1.638,3.867,3.762C505.314,169.326,498.641,185.187,486.027,197.462z"/>
	<path fill="#FFFFFF" d="M430.633,219.13c-16.519,0.733-32.818,7.226-45.434,19.501c-12.614,12.276-19.287,28.137-20.04,44.212
		c-0.101,2.124,1.683,3.858,3.865,3.762c16.521-0.733,32.82-7.226,45.434-19.502c12.616-12.275,19.289-28.136,20.042-44.212
		C434.599,220.767,432.817,219.033,430.633,219.13z"/>
	<path fill="#FFFFFF" d="M430.268,216.678c2.262,0.229,4.173-1.631,3.937-3.831c-1.575-14.72-8.154-29.029-19.747-40.309
		c-11.591-11.28-26.296-17.682-41.423-19.215c-2.262-0.229-4.173,1.631-3.937,3.831c1.577,14.72,8.154,29.029,19.747,40.309
		C400.438,208.743,415.141,215.144,430.268,216.678z"/>
	<path fill="#FFFFFF" d="M440.958,219.416c-2.262-0.229-4.173,1.631-3.937,3.831c1.575,14.72,8.154,29.028,19.747,40.309
		c11.591,11.28,26.296,17.681,41.423,19.215c2.262,0.229,4.173-1.631,3.937-3.831c-1.577-14.72-8.156-29.029-19.747-40.309
		C470.788,227.351,456.083,220.95,440.958,219.416z"/>
	<path fill="#FFFFFF" d="M502.2,149.489c-16.519,0.733-32.818,7.226-45.432,19.501c-12.616,12.276-19.289,28.137-20.042,44.212
		c-0.099,2.124,1.683,3.858,3.867,3.762c16.519-0.733,32.818-7.226,45.434-19.502c12.614-12.275,19.287-28.136,20.04-44.212
		C506.166,151.127,504.384,149.392,502.2,149.489z"/>
	<path fill="#1B669E" d="M685.79,114.673c-58.671,0-106.232,46.282-106.232,103.374S627.12,321.421,685.79,321.421
		s106.234-46.282,106.234-103.374S744.461,114.673,685.79,114.673z M623.213,153.323c15.129,1.534,29.832,7.935,41.425,19.215
		c11.593,11.281,18.17,25.589,19.745,40.309c0.236,2.2-1.674,4.06-3.935,3.831c-15.127-1.534-29.832-7.935-41.425-19.215
		c-11.591-11.28-18.17-25.589-19.745-40.309C619.041,154.953,620.953,153.094,623.213,153.323z M664.638,267.103
		c-12.616,12.276-28.915,18.769-45.434,19.502c-2.184,0.097-3.966-1.638-3.867-3.762c0.753-16.076,7.426-31.936,20.042-44.212
		c12.614-12.275,28.915-18.769,45.434-19.501c2.182-0.097,3.966,1.638,3.865,3.762C683.926,238.967,677.252,254.828,664.638,267.103
		z M748.368,282.771c-15.127-1.534-29.832-7.935-41.423-19.215c-11.593-11.281-18.172-25.589-19.747-40.309
		c-0.236-2.2,1.676-4.06,3.937-3.831c15.127,1.534,29.832,7.935,41.423,19.215c11.593,11.28,18.172,25.589,19.747,40.309
		C752.541,281.141,750.629,283,748.368,282.771z M736.204,197.462c-12.614,12.276-28.915,18.769-45.434,19.502
		c-2.184,0.097-3.966-1.638-3.865-3.762c0.751-16.076,7.426-31.936,20.04-44.212c12.614-12.275,28.915-18.769,45.434-19.501
		c2.184-0.097,3.966,1.638,3.867,3.762C755.493,169.326,748.821,185.187,736.204,197.462z"/>
	<path fill="#FFFFFF" d="M680.813,219.13c-16.519,0.733-32.82,7.226-45.434,19.501c-12.616,12.276-19.289,28.137-20.042,44.212
		c-0.099,2.124,1.683,3.858,3.867,3.762c16.519-0.733,32.818-7.226,45.434-19.502c12.614-12.275,19.289-28.136,20.04-44.212
		C684.778,220.767,682.994,219.033,680.813,219.13z"/>
	<path fill="#FFFFFF" d="M680.447,216.678c2.262,0.229,4.171-1.631,3.935-3.831c-1.575-14.72-8.152-29.029-19.745-40.309
		c-11.593-11.28-26.296-17.682-41.425-19.215c-2.26-0.229-4.171,1.631-3.935,3.831c1.575,14.72,8.154,29.029,19.745,40.309
		C650.616,208.743,665.32,215.144,680.447,216.678z"/>
	<path fill="#FFFFFF" d="M691.135,219.416c-2.262-0.229-4.173,1.631-3.937,3.831c1.575,14.72,8.154,29.028,19.747,40.309
		c11.591,11.28,26.296,17.681,41.423,19.215c2.262,0.229,4.173-1.631,3.937-3.831c-1.575-14.72-8.154-29.029-19.747-40.309
		C720.967,227.351,706.262,220.95,691.135,219.416z"/>
	<path fill="#FFFFFF" d="M752.379,149.489c-16.519,0.733-32.82,7.226-45.434,19.501c-12.614,12.276-19.289,28.137-20.04,44.212
		c-0.101,2.124,1.681,3.858,3.865,3.762c16.519-0.733,32.82-7.226,45.434-19.502c12.616-12.275,19.289-28.136,20.042-44.212
		C756.345,151.127,754.563,149.392,752.379,149.489z"/>
</g>
</svg>
