<?xml version="1.0" encoding="utf-8"?>
<!-- Generator: Adobe Illustrator 23.1.0, SVG Export Plug-In . SVG Version: 6.00 Build 0)  -->
<svg version="1.1" id="Layer_1" xmlns="http://www.w3.org/2000/svg" xmlns:xlink="http://www.w3.org/1999/xlink" x="0px" y="0px"
	 viewBox="0 0 1200 1200" enable-background="new 0 0 1200 1200" xml:space="preserve">
<g>
	<path fill="#C1B6AC" d="M972.272,111.461c8.948,14.905,14.189,32.291,14.189,50.941v852.732c0,54.806-44.43,99.235-99.235,99.235
		H293.494c-17.6,0-34.099-4.628-48.431-12.664C262.411,1130.6,293.954,1150,330.111,1150h593.73
		c54.807,0,99.235-44.429,99.235-99.235V198.033C1023.077,160.826,1002.57,128.448,972.272,111.461z"/>
	<path fill="#D1C8BF" d="M887.226,1114.369c54.805,0,99.235-44.429,99.235-99.235V162.402c0-18.651-5.241-36.036-14.189-50.941
		c-12.207-20.336-31.424-35.952-54.381-43.41C900.968,56.69,880.496,50,858.429,50H281.943c-57.904,0-105.02,45.848-105.02,102.202
		V986.07c0,24.763,9.108,47.488,24.22,65.195c8.406,21.463,24.015,39.281,43.92,50.44c14.332,8.036,30.831,12.664,48.431,12.664
		H887.226z M192.214,986.07V152.202c0-48.151,40.255-87.322,89.729-87.322h576.486c49.475,0,89.728,39.171,89.728,87.322V986.07
		c0,48.151-40.253,87.321-89.728,87.321H281.943C232.468,1073.391,192.214,1034.221,192.214,986.07z"/>
	<path fill="#FFF6EB" d="M281.943,1073.391h576.486c49.475,0,89.728-39.17,89.728-87.321V152.202
		c0-48.151-40.253-87.322-89.728-87.322H281.943c-49.475,0-89.729,39.171-89.729,87.322V986.07
		C192.214,1034.221,232.468,1073.391,281.943,1073.391z M396.903,640.243c18.884,0,62.123-2.419,100.392-6.292
		c-7.952-20.308-14.41-29.499-20.87-33.851c-8.452-5.319-4.472-14.51,12.426-12.091c25.841,3.865,30.315,7.738,30.315,18.375
		c0,7.259,0,16.93,0.993,25.147c34.795-4.832,60.638-7.738,81.015-10.151c7.451-24.181,7.451-37.724,4.472-45.463
		c-4.973-13.056,1.493-16.443,18.884-7.738c24.357,12.091,26.843,19.829,17.897,29.986c-5.473,6.285-8.452,10.637-12.424,19.342
		c16.396-2.419,29.322-4.832,42.739-7.738c26.838-4.839,38.269-3.865,49.699,5.319c15.905,12.577,12.926,22.248-10.931,19.349
		c-16.898-1.933-57.651-1.453-90.46,0.479c-7.953,14.03-22.363,31.919-29.815,38.211c-9.947,9.671-13.419,7.738-8.946-2.42
		c5.465-12.577,9.94-23.701,13.417-33.372c-18.89,1.933-46.719,4.839-73.562,8.704c4.48,22.735,3.98,29.507,1.001,35.305
		c-3.479,7.258-10.44,6.292-14.419-9.671c-2.486-8.217-4.472-16.443-6.458-22.728c-32.309,3.386-61.631,8.218-72.563,10.638
		c-12.924,3.386-21.37,1.933-41.253-8.705C380.005,646.528,380.998,640.243,396.903,640.243z M734.867,836.109
		c-5.465,4.839-7.952,12.091-8.446,21.768c-4.472,71.089-10.938,92.371-33.302,112.2c-10.438,9.671-13.917,9.191-20.876-2.42
		c-8.446-14.503-21.37-28.046-35.782-39.17c-7.952-6.772-6.458-9.671,1.493-7.738c39.762,10.637,43.734,9.184,47.713-6.772
		c7.952-32.406,9.437-48.362,7.952-70.609c-1.001-12.578-8.952-17.896-39.267-15.476c-29.822,1.933-63.619,4.831-100.892,8.704
		l-0.993,38.204l44.234-8.218c-1.988-3.386-3.982-7.738-5.968-11.124c-4.472-9.191-0.491-12.091,10.44-6.772
		c30.815,15.477,39.26,30.953,35.78,43.53c-3.972,14.51-13.91,16.922-20.87,7.251c-3.479-5.318-8.945-13.543-14.417-22.728
		c-35.282,8.704-81.508,21.761-100.392,29.499c-10.438,4.352-14.912,3.865-29.822-8.225c-11.924-10.15-9.938-14.989,3.479-14.023
		c8.947,0.966,35.788-1.453,57.651-4.839l0.5-40.137c-26.343,2.899-54.672,6.772-98.904,12.57
		c5.465,36.279,8.444,86.094,5.465,102.536c-1.986,12.091-9.445,14.51-14.412,8.218c-7.952-9.184-9.938-17.409-9.445-28.534
		c1.986-33.372-4.472-78.348-14.912-93.344c-5.966-9.184-1.486-15.477,26.343-3.865c39.269-5.319,73.556-9.191,105.865-13.544
		l0.493-29.02c-13.91,1.94-27.829,3.386-39.26,5.326c-0.993,2.899-4.472,4.832-6.961,4.832c-5.966,0-8.444-4.352-15.903-29.986
		c-10.44-39.171-20.377-59.966-27.336-66.258c-9.938-8.705-6.458-15.477,20.377-10.158c46.226-3.865,138.173-17.409,151.092-21.761
		c10.438-3.386,18.39-2.899,32.801,5.319c24.857,14.03,24.857,20.315,16.896,26.6c-6.951,5.805-10.931,12.09-16.896,27.087
		c-14.912,34.818-20.377,45.942-27.336,54.647c-6.46,8.712-13.419,8.225-14.905,1.453c-1.001-3.865-2.987-4.352-15.412-3.386
		c-10.438,0.966-22.862,1.933-35.78,3.386l-1.001,29.499c30.815-3.386,61.633-6.285,94.934-9.671
		c18.39-2.42,26.836-3.865,34.787-6.772c6.959-2.419,13.919-2.899,33.802,7.259C740.833,823.053,740.833,830.311,734.867,836.109z
		 M734.375,318.772c-39.269,7.252-98.906,21.282-173.956,44.496c-0.5,77.861,14.912,104.461,39.262,113.166
		c20.375,6.772,73.062,3.873,91.453-1.933c21.863-7.259,29.822-12.578,40.755-65.291c1.493-6.772,6.959-7.252,7.952,2.419
		c2.486,20.795,8.446,41.111,13.917,52.234c5.467,12.091,1.488,19.829-9.445,28.047c-29.822,22.735-103.378,23.701-134.687,17.409
		c-59.144-11.604-71.076-52.227-73.564-138.313c-49.197,16.443-99.897,35.785-113.816,42.556c-18.884,9.671-28.329,9.191-53.671,0
		c-20.377-7.251-14.418-16.93,0.493-17.896c10.938-0.966,25.35-3.386,55.172-11.124c21.37-5.318,73.056-21.274,111.33-33.851
		c-2.486-115.106-4.472-147.512-15.903-163.468c-13.919-19.829-4.472-25.147,27.336-12.091
		c31.308,13.536,32.301,24.66,26.335,34.818c-7.451,12.091-8.444,21.768-12.426,132.036c47.221-15.963,81.017-29.02,104.872-38.691
		c37.276-15.963,63.118-20.316,78.028-10.645C764.189,305.715,765.683,312.967,734.375,318.772z"/>
	<path fill="#FFF6EB" d="M504.754,739.386c8.945-0.966,19.384-2.899,29.322-4.839c-0.993-16.922-2.486-24.66-4.472-30.953
		c-19.383,3.386-36.281,5.805-51.693,7.738c4.975,20.795,6.961,29.02,15.905,73.516c15.41-2.42,28.329-4.839,39.76-6.292l0.5-27.567
		c-14.41,0.487-26.343,0-29.822-1.933C496.802,744.218,497.295,740.352,504.754,739.386z"/>
	<path fill="#FFF6EB" d="M591.236,738.899c-7.953,3.873-21.378,7.259-34.797,9.678l-0.993,26.113
		c33.796-4.839,42.248-4.839,44.734-3.386c1.986,1.453,4.965,0,7.451-6.772c8.947-26.6,11.933-40.623,14.418-56.586
		c1.488-9.184-2.484-12.091-12.924-12.57c-7.952-0.487-29.322,0.479-53.179,3.386c0.993,8.218,0.993,18.375,0.993,29.979
		c18.884-6.285,27.336-5.798,35.29-1.446C600.181,730.682,599.68,735.034,591.236,738.899z"/>
	<path fill="#1B669E" d="M743.812,292.651c-14.91-9.671-40.753-5.318-78.028,10.645c-23.855,9.671-57.651,22.728-104.872,38.691
		c3.982-110.267,4.975-119.945,12.426-132.036c5.966-10.158,4.973-21.282-26.335-34.818c-31.808-13.056-41.255-7.738-27.336,12.091
		c11.431,15.956,13.417,48.362,15.903,163.468c-38.274,12.577-89.96,28.533-111.33,33.851
		c-29.822,7.739-44.234,10.158-55.172,11.124c-14.91,0.966-20.87,10.645-0.493,17.896c25.342,9.191,34.787,9.671,53.671,0
		c13.919-6.772,64.619-26.113,113.816-42.556c2.488,86.086,14.419,126.71,73.564,138.313c31.308,6.292,104.864,5.326,134.687-17.409
		c10.932-8.218,14.912-15.956,9.445-28.047c-5.471-11.124-11.431-31.439-13.917-52.234c-0.993-9.671-6.458-9.191-7.952-2.419
		c-10.933,52.714-18.892,58.032-40.755,65.291c-18.391,5.805-71.077,8.704-91.453,1.933c-24.349-8.705-39.762-35.305-39.262-113.166
		c75.049-23.214,134.687-37.245,173.956-44.496C765.683,312.967,764.189,305.715,743.812,292.651z"/>
	<path fill="#CC403A" d="M717.476,811.449c-19.883-10.158-26.843-9.678-33.802-7.259c-7.952,2.907-16.398,4.352-34.787,6.772
		c-33.302,3.386-64.119,6.285-94.934,9.671l1.001-29.499c12.918-1.453,25.342-2.42,35.78-3.386
		c12.426-0.966,14.412-0.479,15.412,3.386c1.486,6.772,8.444,7.258,14.905-1.453c6.959-8.704,12.424-19.829,27.336-54.647
		c5.966-14.997,9.945-21.281,16.896-27.087c7.961-6.285,7.961-12.57-16.896-26.6c-14.412-8.218-22.363-8.705-32.801-5.319
		c-12.919,4.352-104.866,17.896-151.092,21.761c-26.836-5.319-30.315,1.453-20.377,10.158c6.959,6.292,16.896,27.087,27.336,66.258
		c7.459,25.634,9.938,29.986,15.903,29.986c2.488,0,5.967-1.933,6.961-4.832c11.431-1.94,25.35-3.386,39.26-5.326l-0.493,29.02
		c-32.309,4.352-66.596,8.225-105.865,13.544c-27.829-11.611-32.309-5.319-26.343,3.865c10.44,14.997,16.898,59.972,14.912,93.344
		c-0.493,11.124,1.493,19.349,9.445,28.534c4.967,6.292,12.426,3.873,14.412-8.218c2.979-16.443,0-66.258-5.465-102.536
		c44.232-5.798,72.561-9.671,98.904-12.57l-0.5,40.137c-21.863,3.386-48.705,5.805-57.651,4.839
		c-13.417-0.966-15.403,3.873-3.479,14.023c14.91,12.091,19.384,12.578,29.822,8.225c18.884-7.738,65.11-20.795,100.392-29.499
		c5.473,9.184,10.938,17.409,14.417,22.728c6.961,9.671,16.898,7.259,20.87-7.251c3.479-12.578-4.965-28.054-35.78-43.53
		c-10.931-5.318-14.912-2.419-10.44,6.772c1.986,3.386,3.98,7.738,5.968,11.124l-44.234,8.218l0.993-38.204
		c37.274-3.873,71.07-6.772,100.892-8.704c30.315-2.42,38.267,2.899,39.267,15.476c1.486,22.248,0,38.204-7.952,70.609
		c-3.98,15.956-7.952,17.409-47.713,6.772c-7.952-1.933-9.445,0.966-1.493,7.738c14.412,11.124,27.336,24.668,35.782,39.17
		c6.959,11.611,10.438,12.091,20.876,2.42c22.363-19.829,28.829-41.111,33.302-112.2c0.495-9.678,2.981-16.93,8.446-21.768
		C740.833,830.311,740.833,823.053,717.476,811.449z M592.229,727.296c-7.953-4.352-16.405-4.839-35.29,1.446
		c0-11.604,0-21.761-0.993-29.979c23.857-2.906,45.227-3.873,53.179-3.386c10.44,0.479,14.412,3.386,12.924,12.57
		c-2.484,15.963-5.471,29.986-14.418,56.586c-2.486,6.772-5.465,8.225-7.451,6.772c-2.486-1.453-10.938-1.453-44.734,3.386
		l0.993-26.113c13.419-2.42,26.843-5.805,34.797-9.678C599.68,735.034,600.181,730.682,592.229,727.296z M504.254,749.057
		c3.479,1.933,15.412,2.42,29.822,1.933l-0.5,27.567c-11.431,1.453-24.349,3.873-39.76,6.292
		c-8.945-44.496-10.931-52.721-15.905-73.516c15.412-1.933,32.311-4.352,51.693-7.738c1.986,6.292,3.479,14.03,4.472,30.953
		c-9.938,1.94-20.377,3.873-29.322,4.839C497.295,740.352,496.802,744.218,504.254,749.057z"/>
	<path fill="#CC403A" d="M429.704,659.585c10.933-2.42,40.255-7.252,72.563-10.638c1.986,6.285,3.972,14.51,6.458,22.728
		c3.98,15.963,10.94,16.93,14.419,9.671c2.979-5.798,3.479-12.57-1.001-35.305c26.843-3.865,54.672-6.772,73.562-8.704
		c-3.477,9.671-7.952,20.795-13.417,33.372c-4.472,10.158-1.001,12.091,8.946,2.42c7.451-6.292,21.861-24.181,29.815-38.211
		c32.809-1.933,73.562-2.412,90.46-0.479c23.857,2.899,26.836-6.772,10.931-19.349c-11.431-9.184-22.862-10.158-49.699-5.319
		c-13.417,2.906-26.343,5.319-42.739,7.738c3.972-8.704,6.951-13.057,12.424-19.342c8.947-10.158,6.46-17.896-17.897-29.986
		c-17.391-8.704-23.857-5.318-18.884,7.738c2.979,7.738,2.979,21.282-4.472,45.463c-20.377,2.413-46.22,5.319-81.015,10.151
		c-0.993-8.218-0.993-17.889-0.993-25.147c0-10.637-4.474-14.51-30.315-18.375c-16.898-2.42-20.878,6.772-12.426,12.091
		c6.46,4.352,12.918,13.543,20.87,33.851c-38.269,3.873-81.508,6.292-100.392,6.292c-15.905,0-16.898,6.285-8.452,10.637
		C408.334,661.518,416.78,662.971,429.704,659.585z"/>
</g>
</svg>
