<?xml version="1.0" encoding="utf-8"?>
<!-- Generator: Adobe Illustrator 23.1.0, SVG Export Plug-In . SVG Version: 6.00 Build 0)  -->
<svg version="1.1" id="Layer_1" xmlns="http://www.w3.org/2000/svg" xmlns:xlink="http://www.w3.org/1999/xlink" x="0px" y="0px"
	 viewBox="0 0 1200 1200" enable-background="new 0 0 1200 1200" xml:space="preserve">
<g>
	<path fill="#C1B6AC" d="M972.275,111.456c8.948,14.906,14.187,32.291,14.187,50.941v852.735c0,54.806-44.428,99.236-99.236,99.236
		H293.492c-17.6,0-34.099-4.628-48.431-12.663c17.347,28.895,48.891,48.294,85.048,48.294h593.734
		c54.805,0,99.236-44.429,99.236-99.236V198.029C1023.08,160.822,1002.573,128.444,972.275,111.456z"/>
	<path fill="#D1C8BF" d="M887.226,1114.369c54.807,0,99.236-44.429,99.236-99.236V162.398c0-18.651-5.239-36.036-14.187-50.941
		c-12.211-20.339-31.432-35.958-54.396-43.415C900.959,56.687,880.49,50,858.427,50H281.941
		C224.037,50,176.92,95.847,176.92,152.195v833.879c0,24.76,9.108,47.484,24.22,65.189c8.406,21.464,24.017,39.282,43.92,50.443
		c14.332,8.035,30.831,12.663,48.431,12.663H887.226z M192.213,986.074V152.195c0-48.144,40.253-87.314,89.728-87.314h576.486
		c49.477,0,89.73,39.17,89.73,87.314v833.879c0,48.144-40.253,87.314-89.73,87.314H281.941
		C232.466,1073.388,192.213,1034.218,192.213,986.074z"/>
	<path fill="#FFF6EB" d="M281.941,1073.388h576.486c49.477,0,89.73-39.17,89.73-87.314V152.195c0-48.144-40.253-87.314-89.73-87.314
		H281.941c-49.475,0-89.728,39.17-89.728,87.314v833.879C192.213,1034.218,232.466,1073.388,281.941,1073.388z M412.097,645.288
		c18.884,0,62.124-2.42,100.392-6.292c-7.952-20.308-14.412-29.5-20.87-33.852c-8.452-5.319-4.472-14.51,12.424-12.091
		c25.843,3.865,30.315,7.738,30.315,18.375c0,7.259,0,16.93,0.993,25.148c34.797-4.832,60.64-7.739,81.015-10.151
		c7.453-24.181,7.453-37.725,4.474-45.463c-4.973-13.057,1.493-16.443,18.882-7.738c24.357,12.091,26.845,19.829,17.899,29.987
		c-5.473,6.285-8.452,10.637-12.424,19.342c16.396-2.42,29.322-4.832,42.739-7.738c26.836-4.839,38.269-3.866,49.7,5.318
		c15.905,12.578,12.926,22.248-10.931,19.349c-16.898-1.933-57.653-1.453-90.46,0.479c-7.954,14.03-22.364,31.919-29.817,38.212
		c-9.945,9.671-13.425,7.738-8.945-2.42c5.465-12.577,9.938-23.701,13.419-33.372c-18.892,1.933-46.721,4.839-73.558,8.704
		c4.474,22.735,3.974,29.507,0.995,35.305c-3.479,7.259-10.44,6.292-14.419-9.671c-2.479-8.217-4.472-16.443-6.458-22.728
		c-32.309,3.386-61.631,8.218-72.563,10.637c-12.924,3.386-21.371,1.933-41.255-8.704
		C395.199,651.573,396.192,645.288,412.097,645.288z M750.063,841.155c-5.465,4.839-7.954,12.091-8.446,21.769
		c-4.472,71.09-10.938,92.372-33.302,112.2c-10.438,9.671-13.919,9.191-20.878-2.419c-8.444-14.503-21.37-28.047-35.78-39.17
		c-7.952-6.772-6.458-9.671,1.493-7.739c39.762,10.638,43.734,9.184,47.714-6.772c7.952-32.406,9.437-48.362,7.952-70.61
		c-1.001-12.578-8.952-17.896-39.267-15.477c-29.824,1.933-63.619,4.832-100.893,8.704l-0.993,38.205l44.234-8.218
		c-1.988-3.386-3.982-7.738-5.968-11.124c-4.472-9.191-0.493-12.09,10.438-6.772c30.817,15.477,39.262,30.953,35.782,43.53
		c-3.972,14.51-13.91,16.922-20.87,7.252c-3.479-5.319-8.945-13.544-14.41-22.728c-35.29,8.704-81.518,21.761-100.4,29.5
		c-10.44,4.352-14.912,3.865-29.822-8.225c-11.926-10.15-9.94-14.989,3.479-14.023c8.945,0.966,35.788-1.453,57.651-4.839
		l0.5-40.137c-26.343,2.899-54.672,6.772-98.907,12.57c5.467,36.279,8.454,86.094,5.467,102.537
		c-1.986,12.09-9.447,14.51-14.412,8.217c-7.952-9.184-9.938-17.409-9.445-28.533c1.986-33.372-4.472-78.348-14.912-93.345
		c-5.958-9.184-1.486-15.476,26.343-3.866c39.26-5.318,73.556-9.191,105.865-13.543l0.493-29.02
		c-13.91,1.94-27.829,3.386-39.26,5.326c-0.993,2.899-4.474,4.832-6.961,4.832c-5.966,0-8.444-4.352-15.903-29.987
		c-10.44-39.17-20.378-59.965-27.336-66.258c-9.94-8.704-6.458-15.476,20.376-10.157c46.228-3.865,138.176-17.409,151.093-21.761
		c10.44-3.386,18.391-2.899,32.803,5.318c24.848,14.03,24.848,20.316,16.904,26.6c-6.959,5.806-10.938,12.091-16.904,27.087
		c-14.905,34.818-20.378,45.943-27.336,54.647c-6.46,8.712-13.419,8.225-14.905,1.453c-1.001-3.865-2.987-4.352-15.412-3.386
		c-10.438,0.966-22.864,1.933-35.78,3.386l-0.993,29.5c30.808-3.386,61.623-6.285,94.925-9.671
		c18.391-2.419,26.838-3.865,34.789-6.772c6.959-2.419,13.917-2.899,33.802,7.259C756.028,828.098,756.028,835.357,750.063,841.155z
		 M780.385,515.817c-34.297,16.93-98.414,18.375-134.695,0.966c-38.769-17.896-50.2-50.782-38.769-111.234
		c7.459-36.271,14.419-70.13,21.37-105.435c1.493-7.739,0.5-8.218-5.465-6.772c-16.898,3.386-38.267,9.191-61.133,15.963
		c-28.828,105.436-72.061,175.08-165.503,206.032c-19.885,6.285-21.871,0.48-6.466-8.712
		c67.597-39.657,111.831-90.439,141.155-188.616c-27.831,8.704-53.181,17.409-69.084,23.701c-19.877,7.738-32.803,6.765-46.22-3.386
		c-12.926-9.678-11.933-18.862,3.479-17.416c21.371,1.94,81.508-11.604,117.289-21.275c3.982-15.963,5.968-27.087,10.94-61.426
		c3.972-26.113,1.986-47.395-5.465-58.999c-8.952-12.577-4.973-21.282,23.857-8.704c31.808,14.99,33.794,18.855,25.343,30.466
		c-3.974,5.319-6.458,15.476-8.947,26.113c-4.973,22.735-9.938,43.53-15.403,63.846c49.698-15.963,56.158-19.349,66.596-28.54
		c6.961-6.772,14.912-9.184,33.304,1.453c24.349,14.997,23.357,22.728,7.952,31.919c-16.898,10.644-32.803,51.268-41.255,94.312
		c-12.924,63.359-7.451,90.926,17.891,99.143c30.815,10.158,83.502,6.772,101.893-3.865c12.917-6.772,19.877-17.896,29.322-58.04
		c5.966-28.533,11.924-26.113,11.924,1.453c0,24.181,3.479,42.556,6.466,55.134C804.242,499.374,801.255,505.18,780.385,515.817z"/>
	<path fill="#FFF6EB" d="M519.948,744.432c8.945-0.966,19.384-2.899,29.322-4.839c-0.993-16.922-2.486-24.661-4.472-30.953
		c-19.384,3.386-36.281,5.805-51.693,7.738c4.973,20.795,6.959,29.02,15.903,73.517c15.412-2.42,28.337-4.839,39.762-6.292
		l0.5-27.567c-14.41,0.487-26.343,0-29.822-1.933C511.996,749.263,512.489,745.398,519.948,744.432z"/>
	<path fill="#FFF6EB" d="M606.429,743.945c-7.952,3.873-21.37,7.259-34.795,9.678l-0.993,26.113
		c33.794-4.839,42.248-4.839,44.733-3.386c1.988,1.453,4.967,0,7.453-6.772c8.945-26.6,11.931-40.624,14.418-56.587
		c1.486-9.184-2.486-12.09-12.924-12.57c-7.953-0.487-29.322,0.48-53.179,3.386c0.993,8.217,0.993,18.375,0.993,29.979
		c18.884-6.285,27.336-5.798,35.288-1.446C615.373,735.727,614.875,740.079,606.429,743.945z"/>
	<path fill="#1B669E" d="M794.295,428.764c0-27.567-5.958-29.987-11.924-1.453c-9.445,40.144-16.405,51.268-29.322,58.04
		c-18.391,10.637-71.078,14.023-101.893,3.865c-25.343-8.217-30.815-35.784-17.891-99.143c8.452-43.043,24.357-83.667,41.255-94.312
		c15.405-9.191,16.398-16.922-7.952-31.919c-18.391-10.637-26.343-8.225-33.304-1.453c-10.438,9.191-16.898,12.577-66.596,28.54
		c5.465-20.315,10.43-41.11,15.403-63.846c2.488-10.637,4.973-20.795,8.947-26.113c8.452-11.611,6.466-15.476-25.343-30.466
		c-28.829-12.578-32.809-3.873-23.857,8.704c7.451,11.604,9.437,32.886,5.465,58.999c-4.973,34.339-6.959,45.463-10.94,61.426
		c-35.78,9.671-95.918,23.215-117.289,21.275c-15.412-1.446-16.405,7.738-3.479,17.416c13.417,10.151,26.343,11.124,46.22,3.386
		c15.903-6.292,41.253-14.997,69.084-23.701c-29.324,98.177-73.558,148.958-141.155,188.616
		c-15.405,9.191-13.419,14.997,6.466,8.712c93.441-30.952,136.675-100.596,165.503-206.032
		c22.866-6.772,44.234-12.577,61.133-15.963c5.966-1.446,6.959-0.966,5.465,6.772c-6.951,35.305-13.912,69.164-21.37,105.435
		c-11.431,60.452,0,93.338,38.769,111.234c36.281,17.409,100.398,15.963,134.695-0.966c20.87-10.638,23.857-16.443,20.376-31.919
		C797.774,471.321,794.295,452.945,794.295,428.764z"/>
	<path fill="#CC403A" d="M444.898,664.63c10.933-2.419,40.255-7.251,72.563-10.637c1.986,6.285,3.98,14.51,6.458,22.728
		c3.98,15.963,10.94,16.93,14.419,9.671c2.979-5.798,3.479-12.57-0.995-35.305c26.838-3.865,54.667-6.772,73.558-8.704
		c-3.481,9.671-7.954,20.795-13.419,33.372c-4.48,10.158-1.001,12.091,8.945,2.42c7.453-6.292,21.863-24.181,29.817-38.212
		c32.807-1.933,73.562-2.412,90.46-0.479c23.857,2.899,26.836-6.772,10.931-19.349c-11.431-9.184-22.864-10.158-49.7-5.318
		c-13.417,2.906-26.343,5.318-42.739,7.738c3.972-8.704,6.951-13.057,12.424-19.342c8.947-10.158,6.458-17.896-17.899-29.987
		c-17.389-8.704-23.855-5.319-18.882,7.738c2.979,7.738,2.979,21.282-4.474,45.463c-20.376,2.412-46.218,5.319-81.015,10.151
		c-0.993-8.218-0.993-17.889-0.993-25.148c0-10.637-4.472-14.51-30.315-18.375c-16.896-2.42-20.876,6.772-12.424,12.091
		c6.458,4.352,12.919,13.544,20.87,33.852c-38.269,3.873-81.508,6.292-100.392,6.292c-15.905,0-16.898,6.285-8.454,10.637
		C423.528,666.563,431.974,668.016,444.898,664.63z"/>
	<path fill="#CC403A" d="M732.672,816.495c-19.885-10.158-26.843-9.678-33.802-7.259c-7.952,2.906-16.398,4.352-34.789,6.772
		c-33.302,3.386-64.117,6.285-94.925,9.671l0.993-29.5c12.917-1.453,25.343-2.419,35.78-3.386
		c12.426-0.966,14.412-0.48,15.412,3.386c1.486,6.772,8.444,7.259,14.905-1.453c6.959-8.704,12.432-19.829,27.336-54.647
		c5.966-14.997,9.945-21.282,16.904-27.087c7.944-6.285,7.944-12.57-16.904-26.6c-14.412-8.218-22.364-8.705-32.803-5.318
		c-12.917,4.352-104.865,17.896-151.093,21.761c-26.834-5.319-30.315,1.453-20.376,10.157c6.959,6.292,16.896,27.087,27.336,66.258
		c7.459,25.635,9.938,29.987,15.903,29.987c2.486,0,5.968-1.933,6.961-4.832c11.431-1.94,25.35-3.386,39.26-5.326l-0.493,29.02
		c-32.309,4.352-66.605,8.225-105.865,13.543c-27.829-11.611-32.301-5.318-26.343,3.866c10.44,14.997,16.898,59.973,14.912,93.345
		c-0.493,11.124,1.493,19.349,9.445,28.533c4.965,6.292,12.426,3.873,14.412-8.217c2.987-16.443,0-66.258-5.467-102.537
		c44.234-5.798,72.563-9.671,98.907-12.57l-0.5,40.137c-21.863,3.386-48.707,5.805-57.651,4.839
		c-13.419-0.966-15.405,3.873-3.479,14.023c14.91,12.091,19.383,12.578,29.822,8.225c18.882-7.738,65.11-20.795,100.4-29.5
		c5.465,9.184,10.931,17.409,14.41,22.728c6.961,9.671,16.898,7.259,20.87-7.252c3.479-12.577-4.965-28.053-35.782-43.53
		c-10.931-5.318-14.91-2.419-10.438,6.772c1.986,3.386,3.98,7.739,5.968,11.124l-44.234,8.218l0.993-38.205
		c37.274-3.873,71.068-6.772,100.893-8.704c30.315-2.419,38.267,2.899,39.267,15.477c1.486,22.248,0,38.204-7.952,70.61
		c-3.98,15.956-7.952,17.409-47.714,6.772c-7.952-1.933-9.445,0.966-1.493,7.739c14.41,11.124,27.336,24.668,35.78,39.17
		c6.959,11.611,10.44,12.091,20.878,2.419c22.364-19.828,28.829-41.11,33.302-112.2c0.493-9.678,2.981-16.93,8.446-21.769
		C756.028,835.357,756.028,828.098,732.672,816.495z M607.422,732.341c-7.952-4.352-16.404-4.839-35.288,1.446
		c0-11.604,0-21.761-0.993-29.979c23.857-2.906,45.225-3.873,53.179-3.386c10.438,0.48,14.41,3.386,12.924,12.57
		c-2.486,15.963-5.473,29.987-14.418,56.587c-2.486,6.772-5.465,8.225-7.453,6.772c-2.484-1.453-10.938-1.453-44.733,3.386
		l0.993-26.113c13.425-2.42,26.843-5.806,34.795-9.678C614.875,740.079,615.373,735.727,607.422,732.341z M519.448,754.102
		c3.479,1.933,15.412,2.42,29.822,1.933l-0.5,27.567c-11.425,1.453-24.35,3.873-39.762,6.292
		c-8.945-44.496-10.931-52.721-15.903-73.517c15.413-1.933,32.309-4.352,51.693-7.738c1.986,6.292,3.479,14.03,4.472,30.953
		c-9.938,1.94-20.378,3.873-29.322,4.839C512.489,745.398,511.996,749.263,519.448,754.102z"/>
</g>
</svg>
