<?xml version="1.0" encoding="utf-8"?>
<!-- Generator: Adobe Illustrator 23.1.0, SVG Export Plug-In . SVG Version: 6.00 Build 0)  -->
<svg version="1.1" id="Layer_1" xmlns="http://www.w3.org/2000/svg" xmlns:xlink="http://www.w3.org/1999/xlink" x="0px" y="0px"
	 viewBox="0 0 1200 1200" enable-background="new 0 0 1200 1200" xml:space="preserve">
<g>
	<path fill="#C1B6AC" d="M972.276,111.457c8.948,14.906,14.189,32.291,14.189,50.941v852.735c0,54.806-44.43,99.236-99.236,99.236
		H293.495c-17.599,0-34.1-4.628-48.431-12.663c17.346,28.895,48.892,48.294,85.047,48.294h593.734
		c54.805,0,99.236-44.429,99.236-99.236V198.029C1023.081,160.823,1002.574,128.444,972.276,111.457z"/>
	<path fill="#D1C8BF" d="M887.23,1114.369c54.805,0,99.236-44.429,99.236-99.236V162.398c0-18.651-5.241-36.036-14.189-50.941
		c-12.209-20.338-31.428-35.956-54.391-43.413C900.965,56.688,880.492,50,858.427,50H281.948
		c-57.913,0-105.029,45.847-105.029,102.195v833.879c0,24.762,9.11,47.488,24.227,65.195c8.406,21.462,24.016,39.278,43.919,50.437
		c14.331,8.035,30.832,12.663,48.431,12.663H887.23z M192.211,986.074V152.195c0-48.144,40.254-87.314,89.736-87.314h576.479
		c49.483,0,89.737,39.17,89.737,87.314v833.879c0,48.144-40.255,87.314-89.737,87.314H281.948
		C232.465,1073.388,192.211,1034.217,192.211,986.074z"/>
	<path fill="#FFF6EB" d="M281.948,1073.388h576.479c49.483,0,89.737-39.171,89.737-87.314V152.195
		c0-48.144-40.255-87.314-89.737-87.314H281.948c-49.483,0-89.736,39.17-89.736,87.314v833.879
		C192.211,1034.217,232.465,1073.388,281.948,1073.388z M863.257,765.27c-124.232,19.582-132.566,15.528-161.023-8.109
		c-61.774-50.651-88.841-74.294-145.058-129.674c0,71.591,0.694,108.066,0.694,117.519c2.083,76.321,2.083,88.477-9.715,114.14
		c-4.86,10.805-15.268,10.805-22.908-0.675c-19.436-33.772-20.13-41.198-14.576-60.111c8.326-25.663,11.798-42.549,14.576-159.392
		c-63.162,79.024-162.411,139.81-238.066,158.041c-20.13,4.73-24.29-4.047-2.083-14.859
		c81.209-37.143,186.709-116.835,224.185-176.946c-22.208,2.027-42.338,4.047-60.385,6.074
		c-1.389,23.643-14.575,26.339-24.289,3.379c-37.484-93.207-50.671-120.898-66.635-135.081
		c-15.964-14.183,4.167-31.737,44.42-12.832c36.095-5.398,82.6-13.507,126.324-20.933c0-17.562,0-33.096,0-46.604
		c-63.162,10.129-91.618,9.453-104.109,2.703c-15.27-8.109-15.27-10.805,4.86-13.507c15.262-2.027,68.015-12.832,98.555-20.265
		c-2.777-55.38-8.332-73.618-19.436-86.45c-14.575-16.21-6.938-29.042,18.742-20.257c51.357,18.23,54.83,28.366,43.032,52.678
		c-2.777,5.406-5.555,22.285-7.632,43.225c57.608-15.535,93.694-17.562,107.575-11.48c15.964,6.075,17.353,12.156-4.853,20.258
		c-22.909,10.811-56.226,18.913-105.5,28.366c-1.389,14.183-2.083,30.394-2.083,45.928c47.198-8.777,85.37-16.21,97.86-19.589
		c22.909-6.074,27.762-5.398,80.515,21.616c13.187,6.082,13.881,17.562-2.083,30.393c-10.409,8.101-13.881,16.211-33.317,63.482
		c-17.353,41.881-19.436,45.928-30.54,64.165c-10.409,15.534-19.428,15.534-27.762-8.777c-18.047,1.352-50.662,4.047-85.368,8.101
		c0,2.703,0,4.73,0,6.757c138.123,98.606,172.821,116.835,306.777,140.479C886.861,751.087,886.861,761.891,863.257,765.27z"/>
	<path fill="#FFF6EB" d="M445.427,593.046c34.011-5.406,60.385-9.461,81.904-12.163c0-12.831,0-25.663,0-40.522
		c-45.115,5.406-61.079,4.054-71.487-2.027c-13.881-8.101-13.187-10.804,2.777-12.156c7.63-0.676,39.558-7.426,69.404-14.859
		c0-13.507,0.694-27.014,0.694-43.225c-31.928,4.73-84.674,12.156-115.907,18.237C421.138,507.265,432.24,543.064,445.427,593.046z"
		/>
	<path fill="#FFF6EB" d="M667.529,472.824c1.389-16.886-5.547-20.94-20.123-20.265c-15.964,0.676-49.977,4.055-89.536,11.48
		c0,13.514,0,27.022,0,39.177c28.457-6.757,52.053-8.109,64.543-2.027c16.658,8.777,15.27,14.183-9.713,20.933
		c-24.291,7.433-42.338,11.488-55.524,14.183c0,14.183,0,27.698,0,40.529c38.864-6.082,57.607-7.433,88.841-8.109
		C657.12,538.334,665.454,503.218,667.529,472.824z"/>
	<path fill="#1B669E" d="M863.953,747.032c-133.957-23.643-168.655-41.873-306.777-140.479c0-2.027,0-4.055,0-6.757
		c34.706-4.054,67.321-6.75,85.368-8.101c8.334,24.311,17.353,24.311,27.762,8.777c11.104-18.237,13.187-22.285,30.54-64.165
		c19.436-47.272,22.908-55.381,33.317-63.482c15.964-12.832,15.27-24.311,2.083-30.393c-52.753-27.015-57.606-27.69-80.515-21.616
		c-12.491,3.379-50.662,10.812-97.86,19.589c0-15.534,0.694-31.745,2.083-45.928c49.273-9.453,82.591-17.554,105.5-28.366
		c22.206-8.101,20.817-14.183,4.853-20.258c-13.881-6.081-49.968-4.054-107.575,11.48c2.077-20.941,4.855-37.819,7.632-43.225
		c11.798-24.311,8.324-34.447-43.032-52.678c-25.679-8.784-33.317,4.047-18.742,20.257c11.104,12.832,16.659,31.069,19.436,86.45
		c-30.54,7.433-83.292,18.237-98.555,20.265c-20.13,2.703-20.13,5.398-4.86,13.507c12.491,6.75,40.947,7.426,104.109-2.703
		c0,13.507,0,29.042,0,46.604c-43.724,7.426-90.229,15.535-126.324,20.933c-40.253-18.906-60.384-1.351-44.42,12.832
		c15.964,14.183,29.151,41.874,66.635,135.081c9.713,22.96,22.9,20.264,24.289-3.379c18.047-2.027,38.177-4.047,60.385-6.074
		c-37.475,60.111-142.975,139.803-224.185,176.946c-22.207,10.812-18.047,19.589,2.083,14.859
		c75.655-18.23,174.904-79.017,238.066-158.041c-2.777,116.843-6.249,133.729-14.576,159.392
		c-5.555,18.913-4.86,26.339,14.576,60.111c7.64,11.48,18.047,11.48,22.908,0.675c11.798-25.663,11.798-37.819,9.715-114.14
		c0-9.453-0.694-45.928-0.694-117.519c56.217,55.38,83.285,79.024,145.058,129.674c28.457,23.636,36.791,27.69,161.023,8.109
		C886.861,761.891,886.861,751.087,863.953,747.032z M557.176,536.307c13.187-2.696,31.234-6.75,55.524-14.183
		c24.983-6.75,26.372-12.156,9.713-20.933c-12.491-6.082-36.087-4.73-64.543,2.027c0-12.156,0-25.663,0-39.177
		c39.558-7.426,73.572-10.805,89.536-11.48c14.576-0.675,21.511,3.379,20.123,20.265c-2.075,30.393-10.409,65.509-21.511,95.903
		c-31.234,0.676-49.977,2.027-88.841,8.109C557.176,564.004,557.176,550.49,557.176,536.307z M528.025,511.319
		c-29.845,7.433-61.774,14.183-69.404,14.859c-15.964,1.352-16.658,4.054-2.777,12.156c10.408,6.082,26.372,7.433,71.487,2.027
		c0,14.859,0,27.69,0,40.522c-21.519,2.703-47.892,6.758-81.904,12.163c-13.187-49.982-24.29-85.782-32.615-106.715
		c31.234-6.082,83.979-13.507,115.907-18.237C528.72,484.305,528.025,497.812,528.025,511.319z"/>
</g>
</svg>
