<?xml version="1.0" encoding="utf-8"?>
<!-- Generator: Adobe Illustrator 23.1.0, SVG Export Plug-In . SVG Version: 6.00 Build 0)  -->
<svg version="1.1" id="Layer_1" xmlns="http://www.w3.org/2000/svg" xmlns:xlink="http://www.w3.org/1999/xlink" x="0px" y="0px"
	 viewBox="0 0 1200 1200" enable-background="new 0 0 1200 1200" xml:space="preserve">
<g>
	<path fill="#C1B6AC" d="M972.193,111.594c8.947,14.904,14.185,32.286,14.185,50.935v852.623c0,54.799-44.422,99.223-99.223,99.223
		H293.502c-17.598,0-34.096-4.627-48.426-12.661c17.347,28.891,48.887,48.288,85.037,48.288h593.656
		c54.8,0,99.223-44.423,99.223-99.223V198.155C1022.991,160.953,1002.487,128.579,972.193,111.594z"/>
	<path fill="#D1C8BF" d="M887.156,1114.374c54.8,0,99.223-44.423,99.223-99.223V162.528c0-18.648-5.238-36.031-14.185-50.935
		c-12.19-20.306-31.371-35.902-54.285-43.372C901.174,56.745,880.955,50,859.177,50H281.139c-57.414,0-104.13,46.716-104.13,104.138
		v830.146c0,25.169,8.982,48.278,23.901,66.302c8.339,21.766,24.053,39.849,44.166,51.125c14.33,8.034,30.829,12.661,48.426,12.661
		H887.156z M192.172,984.285V154.138c0-49.063,39.913-88.976,88.967-88.976h578.038c49.056,0,88.969,39.912,88.969,88.976v830.146
		c0,49.06-39.913,88.972-88.969,88.972H281.139C232.085,1073.257,192.172,1033.345,192.172,984.285z"/>
	<path fill="#FFF6EB" d="M281.139,1073.257h578.038c49.056,0,88.969-39.912,88.969-88.972V154.138
		c0-49.063-39.913-88.976-88.969-88.976H281.139c-49.054,0-88.967,39.912-88.967,88.976v830.146
		C192.172,1033.345,232.085,1073.257,281.139,1073.257z M470.06,876.815c0.626,1.113,0.942,2.266,0.942,3.43l-0.019,0.963
		c0.004,1.192-0.31,2.37-0.936,3.505c-9.672,43.057-9.377,86.991,0.883,130.581l0.053,0.449c0.011,2.84-1.797,5.581-5.09,7.716
		c-4.105,2.66-10.151,4.186-16.586,4.186h-66.878c-11.964,0-21.697-5.267-21.697-11.74l0.053-0.454
		c5.345-22.789,8.038-45.691,8.006-68.071c-0.025-16.636-1.546-33.463-4.525-50.013c-0.717-3.992-1.567-8.185-2.53-12.47
		c-0.666-1.147-1.004-2.331-1.004-3.527l0.068-0.524c-0.042-0.164-0.068-0.382-0.068-0.6c0-1.133,0.32-2.277,0.949-3.405
		c4.748-21.527,7.14-43.054,7.11-63.995c-0.025-16.637-1.546-33.463-4.525-50.011c-0.951-5.294-2.113-10.847-3.46-16.506
		c-0.048-0.174-0.074-0.396-0.074-0.617c0-6.474,9.733-11.742,21.697-11.742h66.878c11.964,0,21.695,5.268,21.695,11.742
		l-0.053,0.464C460.666,789.121,460.367,833.074,470.06,876.815z M470.06,559.018c0.626,1.114,0.942,2.266,0.942,3.43l-0.019,0.963
		c0.004,1.192-0.31,2.369-0.936,3.505c-9.672,43.057-9.377,86.991,0.883,130.581l0.053,0.449c0.011,2.84-1.797,5.581-5.09,7.716
		c-4.105,2.661-10.151,4.186-16.586,4.186h-66.878c-11.964,0-21.697-5.267-21.697-11.74l0.053-0.454
		c5.345-22.789,8.038-45.691,8.006-68.071c-0.025-16.636-1.546-33.463-4.525-50.013c-0.717-3.991-1.567-8.185-2.53-12.47
		c-0.666-1.147-1.004-2.331-1.004-3.527l0.068-0.524c-0.042-0.164-0.068-0.382-0.068-0.6c0-1.133,0.32-2.277,0.949-3.405
		c4.748-21.527,7.14-43.054,7.11-63.995c-0.025-16.637-1.546-33.463-4.525-50.011c-0.951-5.294-2.113-10.847-3.46-16.506
		c-0.048-0.175-0.074-0.396-0.074-0.618c0-6.474,9.733-11.741,21.697-11.741h66.878c11.964,0,21.695,5.267,21.695,11.741
		l-0.053,0.464C460.666,471.324,460.367,515.278,470.06,559.018z M517.712,388.468l0.053-0.454
		c5.345-22.789,8.038-45.691,8.006-68.07c-0.025-16.636-1.546-33.463-4.525-50.013c-0.717-3.992-1.567-8.185-2.53-12.47
		c-0.666-1.147-1.004-2.332-1.004-3.527l0.068-0.525c-0.042-0.164-0.068-0.381-0.068-0.599c0-1.133,0.32-2.277,0.949-3.405
		c4.747-21.527,7.14-43.055,7.11-63.996c-0.025-16.637-1.546-33.463-4.525-50.011c-0.951-5.294-2.113-10.846-3.46-16.506
		c-0.048-0.175-0.074-0.396-0.074-0.617c0-6.475,9.733-11.742,21.697-11.742h66.878c11.964,0,21.695,5.267,21.695,11.742
		l-0.055,0.464c-10.281,42.947-10.579,86.901-0.888,130.641c0.626,1.113,0.943,2.265,0.943,3.43l-0.019,0.963
		c0.004,1.192-0.31,2.369-0.936,3.505c-9.672,43.056-9.377,86.99,0.883,130.581l0.053,0.448c0.011,2.841-1.797,5.581-5.09,7.716
		c-4.105,2.661-10.151,4.186-16.586,4.186h-66.878C527.445,400.209,517.712,394.942,517.712,388.468z M629.161,876.815
		c0.624,1.113,0.943,2.266,0.943,3.43l-0.019,0.963c0.002,1.192-0.312,2.37-0.936,3.505c-9.674,43.057-9.377,86.991,0.883,130.581
		l0.053,0.449c0.011,2.84-1.799,5.581-5.092,7.716c-4.105,2.66-10.151,4.186-16.586,4.186H541.53
		c-11.964,0-21.695-5.267-21.695-11.74l0.053-0.454c5.343-22.789,8.036-45.691,8.004-68.071
		c-0.025-16.636-1.546-33.463-4.525-50.013c-0.717-3.992-1.567-8.185-2.53-12.47c-0.666-1.147-1.002-2.331-1.002-3.527l0.068-0.524
		c-0.044-0.164-0.068-0.382-0.068-0.6c0-1.133,0.318-2.277,0.947-3.405c4.747-21.527,7.14-43.054,7.11-63.995
		c-0.025-16.637-1.546-33.463-4.525-50.011c-0.949-5.294-2.113-10.847-3.46-16.506c-0.048-0.174-0.072-0.396-0.072-0.617
		c0-6.474,9.731-11.742,21.695-11.742h66.878c11.964,0,21.697,5.268,21.697,11.742l-0.057,0.464
		C619.767,789.121,619.469,833.074,629.161,876.815z M629.161,559.018c0.624,1.114,0.943,2.266,0.943,3.43l-0.019,0.963
		c0.002,1.192-0.312,2.369-0.936,3.505c-9.674,43.057-9.377,86.991,0.883,130.581l0.053,0.449c0.011,2.84-1.799,5.581-5.092,7.716
		c-4.105,2.661-10.151,4.186-16.586,4.186H541.53c-11.964,0-21.695-5.267-21.695-11.74l0.053-0.454
		c5.343-22.789,8.036-45.691,8.004-68.071c-0.025-16.636-1.546-33.463-4.525-50.013c-0.717-3.991-1.567-8.185-2.53-12.47
		c-0.666-1.147-1.002-2.331-1.002-3.527l0.068-0.524c-0.044-0.164-0.068-0.382-0.068-0.6c0-1.133,0.318-2.277,0.947-3.405
		c4.747-21.527,7.14-43.054,7.11-63.995c-0.025-16.637-1.546-33.463-4.525-50.011c-0.949-5.294-2.113-10.847-3.46-16.506
		c-0.048-0.175-0.072-0.396-0.072-0.618c0-6.474,9.731-11.741,21.695-11.741h66.878c11.964,0,21.697,5.267,21.697,11.741
		l-0.057,0.464C619.767,471.324,619.469,515.278,629.161,559.018z M775.534,876.815c0.626,1.113,0.943,2.266,0.943,3.43
		l-0.019,0.963c0.004,1.192-0.31,2.37-0.936,3.505c-9.672,43.057-9.377,86.991,0.883,130.581l0.053,0.449
		c0.011,2.84-1.797,5.581-5.092,7.716c-4.103,2.66-10.149,4.186-16.586,4.186h-66.878c-11.962,0-21.695-5.267-21.695-11.74
		l0.053-0.454c5.343-22.789,8.036-45.691,8.004-68.071c-0.025-16.636-1.546-33.463-4.525-50.013
		c-0.715-3.992-1.567-8.185-2.53-12.47c-0.666-1.147-1.002-2.331-1.002-3.527l0.068-0.524c-0.044-0.164-0.068-0.382-0.068-0.6
		c0-1.133,0.318-2.277,0.949-3.405c4.747-21.527,7.14-43.054,7.108-63.995c-0.025-16.637-1.546-33.463-4.525-50.011
		c-0.949-5.294-2.111-10.847-3.458-16.506c-0.049-0.174-0.074-0.396-0.074-0.617c0-6.474,9.733-11.742,21.695-11.742h66.878
		c11.964,0,21.697,5.268,21.697,11.742l-0.055,0.464C766.14,789.121,765.843,833.074,775.534,876.815z M775.534,559.018
		c0.626,1.114,0.943,2.266,0.943,3.43l-0.019,0.963c0.004,1.192-0.31,2.369-0.936,3.505c-9.672,43.057-9.377,86.991,0.883,130.581
		l0.053,0.449c0.011,2.84-1.797,5.581-5.092,7.716c-4.103,2.661-10.149,4.186-16.586,4.186h-66.878
		c-11.962,0-21.695-5.267-21.695-11.74l0.053-0.454c5.343-22.789,8.036-45.691,8.004-68.071
		c-0.025-16.636-1.546-33.463-4.525-50.013c-0.715-3.991-1.567-8.185-2.53-12.47c-0.666-1.147-1.002-2.331-1.002-3.527l0.068-0.524
		c-0.044-0.164-0.068-0.382-0.068-0.6c0-1.133,0.318-2.277,0.949-3.405c4.747-21.527,7.14-43.054,7.108-63.995
		c-0.025-16.637-1.546-33.463-4.525-50.011c-0.949-5.294-2.111-10.847-3.458-16.506c-0.049-0.175-0.074-0.396-0.074-0.618
		c0-6.474,9.733-11.741,21.695-11.741h66.878c11.964,0,21.697,5.267,21.697,11.741l-0.055,0.464
		C766.14,471.324,765.843,515.278,775.534,559.018z"/>
	<path fill="#FFF6EB" d="M610.468,893.059c-0.681,0.035-1.37,0.053-2.06,0.053H541.53c-0.687,0-1.37-0.017-2.047-0.052
		c0.221,1.129,0.43,2.253,0.63,3.37c3.03,16.842,4.578,33.981,4.603,50.942c0.03,22.739-2.684,45.9-8.063,68.842
		c0.213,1.052,2.309,2.237,4.875,2.237h66.878c2.44,0,4.671-1.11,4.862-2.372C603.626,975.044,602.689,933.682,610.468,893.059z"/>
	<path fill="#FFF6EB" d="M606.285,250.262h-66.876c-0.955,0-1.887,0.155-2.691,0.447c-0.69,0.25-1.24,0.57-1.615,0.936l-0.116,0.536
		c-0.084,0.384-0.167,0.767-0.255,1.151c0.145,0.61,0.285,1.219,0.426,1.828c0.793,0.686,2.32,1.32,4.249,1.32h66.878
		c1.744,0,3.429-0.563,4.297-1.404l0.122-0.546c0.089-0.402,0.179-0.804,0.27-1.205c-0.095-0.412-0.183-0.823-0.272-1.235
		l-0.099-0.453C609.829,250.926,608.279,250.262,606.285,250.262z"/>
	<path fill="#FFF6EB" d="M611.145,388.642c-9.64-41.033-10.579-82.395-2.8-123.019c-0.681,0.035-1.368,0.052-2.058,0.052h-66.878
		c-0.687,0-1.37-0.017-2.047-0.051c0.219,1.129,0.43,2.253,0.63,3.37c3.03,16.841,4.578,33.981,4.603,50.942
		c0.03,22.74-2.684,45.901-8.063,68.842c0.211,1.052,2.309,2.238,4.875,2.238h66.878
		C608.726,391.015,610.957,389.905,611.145,388.642z"/>
	<path fill="#FFF6EB" d="M542.595,185.401c0.023,18.365-1.754,37.087-5.286,55.719c0.692-0.035,1.394-0.053,2.1-0.053h66.878
		c0.708,0,1.408,0.018,2.106,0.055c-7.836-41.24-6.908-82.65,2.766-123.162c-0.215-1.05-2.311-2.233-4.873-2.233h-66.876
		c-2.397,0-4.612,1.086-4.848,2.325c1.309,5.518,2.465,11.037,3.431,16.408C541.022,151.301,542.57,168.439,542.595,185.401z"/>
	<path fill="#FFF6EB" d="M449.305,743.162h-66.876c-2.397,0-4.612,1.086-4.848,2.325c1.311,5.518,2.465,11.037,3.431,16.408
		c3.03,16.84,4.578,33.979,4.603,50.94c0.023,18.365-1.754,37.088-5.286,55.719c0.692-0.035,1.394-0.053,2.1-0.053h66.878
		c0.708,0,1.409,0.018,2.106,0.055c-7.836-41.24-6.908-82.649,2.767-123.161C453.963,744.345,451.867,743.162,449.305,743.162z"/>
	<path fill="#FFF6EB" d="M449.305,883.917c1.744,0,3.429-0.563,4.297-1.404l0.122-0.546c0.089-0.402,0.179-0.804,0.27-1.205
		c-0.093-0.412-0.183-0.824-0.272-1.235l-0.099-0.453c-0.774-0.711-2.324-1.376-4.318-1.376h-66.876
		c-0.955,0-1.887,0.155-2.691,0.448c-0.69,0.25-1.238,0.569-1.613,0.936l-0.118,0.536c-0.084,0.384-0.167,0.767-0.253,1.151
		c0.143,0.61,0.283,1.219,0.424,1.828c0.793,0.686,2.32,1.32,4.249,1.32H449.305z"/>
	<path fill="#FFF6EB" d="M449.305,566.12c1.744,0,3.429-0.563,4.297-1.404l0.122-0.546c0.089-0.402,0.179-0.804,0.27-1.205
		c-0.093-0.412-0.183-0.824-0.272-1.235l-0.099-0.453c-0.774-0.711-2.324-1.376-4.318-1.376h-66.876
		c-0.955,0-1.887,0.155-2.691,0.448c-0.69,0.25-1.238,0.569-1.613,0.936l-0.118,0.536c-0.084,0.384-0.167,0.767-0.253,1.151
		c0.143,0.61,0.283,1.219,0.424,1.828c0.793,0.686,2.32,1.32,4.249,1.32H449.305z"/>
	<path fill="#FFF6EB" d="M451.365,575.262c-0.679,0.035-1.368,0.053-2.058,0.053h-66.878c-0.687,0-1.369-0.017-2.047-0.052
		c0.219,1.13,0.43,2.253,0.63,3.37c3.03,16.842,4.578,33.981,4.603,50.942c0.03,22.74-2.682,45.9-8.063,68.842
		c0.211,1.052,2.311,2.237,4.875,2.237h66.878c2.44,0,4.671-1.11,4.86-2.372C444.525,657.248,443.585,615.885,451.365,575.262z"/>
	<path fill="#FFF6EB" d="M449.305,425.366h-66.876c-2.397,0-4.612,1.086-4.848,2.325c1.311,5.518,2.465,11.037,3.431,16.408
		c3.03,16.84,4.578,33.979,4.603,50.94c0.023,18.365-1.754,37.088-5.286,55.719c0.692-0.035,1.394-0.053,2.1-0.053h66.878
		c0.708,0,1.409,0.019,2.106,0.055c-7.836-41.24-6.908-82.65,2.767-123.161C453.963,426.548,451.867,425.366,449.305,425.366z"/>
	<path fill="#FFF6EB" d="M608.406,883.917c1.746,0,3.429-0.563,4.299-1.404l0.122-0.546c0.088-0.402,0.177-0.804,0.268-1.205
		c-0.093-0.412-0.181-0.824-0.272-1.235l-0.099-0.453c-0.774-0.711-2.324-1.376-4.318-1.376H541.53
		c-0.955,0-1.887,0.155-2.691,0.448c-0.69,0.25-1.238,0.569-1.613,0.936l-0.118,0.536c-0.084,0.384-0.165,0.767-0.253,1.151
		c0.143,0.61,0.285,1.219,0.424,1.828c0.793,0.686,2.322,1.32,4.249,1.32H608.406z"/>
	<path fill="#FFF6EB" d="M754.781,743.162h-66.878c-2.395,0-4.611,1.086-4.848,2.325c1.311,5.518,2.465,11.037,3.431,16.408
		c3.032,16.84,4.578,33.979,4.603,50.94c0.025,18.365-1.754,37.088-5.286,55.719c0.692-0.035,1.394-0.053,2.1-0.053h66.878
		c0.708,0,1.409,0.018,2.107,0.055c-7.836-41.24-6.908-82.649,2.766-123.161C759.439,744.345,757.341,743.162,754.781,743.162z"/>
	<path fill="#FFF6EB" d="M756.841,575.262c-0.681,0.035-1.368,0.053-2.06,0.053h-66.878c-0.687,0-1.37-0.017-2.045-0.052
		c0.219,1.13,0.43,2.253,0.628,3.37c3.032,16.842,4.578,33.981,4.603,50.942c0.03,22.74-2.682,45.9-8.063,68.842
		c0.213,1.052,2.311,2.237,4.875,2.237h66.88c2.438,0,4.67-1.11,4.86-2.372C749.999,657.248,749.061,615.885,756.841,575.262z"/>
	<path fill="#FFF6EB" d="M754.781,883.917c1.744,0,3.429-0.563,4.297-1.404l0.122-0.546c0.089-0.402,0.177-0.804,0.268-1.205
		c-0.093-0.412-0.181-0.824-0.27-1.235l-0.101-0.453c-0.774-0.711-2.322-1.376-4.316-1.376h-66.878
		c-0.953,0-1.885,0.155-2.691,0.448c-0.689,0.25-1.238,0.569-1.613,0.936l-0.118,0.536c-0.084,0.384-0.165,0.767-0.253,1.151
		c0.143,0.61,0.285,1.219,0.424,1.828c0.795,0.686,2.322,1.32,4.249,1.32H754.781z"/>
	<path fill="#FFF6EB" d="M754.781,425.366h-66.878c-2.395,0-4.611,1.086-4.848,2.325c1.311,5.518,2.465,11.037,3.431,16.408
		c3.032,16.84,4.578,33.979,4.603,50.94c0.025,18.365-1.754,37.088-5.286,55.719c0.692-0.035,1.394-0.053,2.1-0.053h66.878
		c0.708,0,1.409,0.019,2.107,0.055c-7.836-41.24-6.908-82.65,2.766-123.161C759.439,426.548,757.341,425.366,754.781,425.366z"/>
	<path fill="#FFF6EB" d="M754.781,566.12c1.744,0,3.429-0.563,4.297-1.404l0.122-0.546c0.089-0.402,0.177-0.804,0.268-1.205
		c-0.093-0.412-0.181-0.824-0.27-1.235l-0.101-0.453c-0.774-0.711-2.322-1.376-4.316-1.376h-66.878
		c-0.953,0-1.885,0.155-2.691,0.448c-0.689,0.25-1.238,0.569-1.613,0.936l-0.118,0.536c-0.084,0.384-0.165,0.767-0.253,1.151
		c0.143,0.61,0.285,1.219,0.424,1.828c0.795,0.686,2.322,1.32,4.249,1.32H754.781z"/>
	<path fill="#FFF6EB" d="M756.841,893.059c-0.681,0.035-1.368,0.053-2.06,0.053h-66.878c-0.687,0-1.37-0.017-2.045-0.052
		c0.219,1.129,0.43,2.253,0.628,3.37c3.032,16.842,4.578,33.981,4.603,50.942c0.03,22.739-2.682,45.9-8.063,68.842
		c0.213,1.052,2.311,2.237,4.875,2.237h66.88c2.438,0,4.67-1.11,4.86-2.372C749.999,975.044,749.061,933.682,756.841,893.059z"/>
	<path fill="#FFF6EB" d="M608.406,743.162H541.53c-2.397,0-4.611,1.086-4.848,2.325c1.31,5.518,2.465,11.037,3.431,16.408
		c3.03,16.84,4.578,33.979,4.603,50.94c0.025,18.365-1.754,37.088-5.286,55.719c0.692-0.035,1.394-0.053,2.1-0.053h66.878
		c0.708,0,1.409,0.018,2.106,0.055c-7.836-41.24-6.908-82.649,2.766-123.161C613.066,744.345,610.968,743.162,608.406,743.162z"/>
	<path fill="#FFF6EB" d="M610.468,575.262c-0.681,0.035-1.37,0.053-2.06,0.053H541.53c-0.687,0-1.37-0.017-2.047-0.052
		c0.221,1.13,0.43,2.253,0.63,3.37c3.03,16.842,4.578,33.981,4.603,50.942c0.03,22.74-2.684,45.9-8.063,68.842
		c0.213,1.052,2.309,2.237,4.875,2.237h66.878c2.44,0,4.671-1.11,4.862-2.372C603.626,657.248,602.689,615.885,610.468,575.262z"/>
	<path fill="#FFF6EB" d="M608.406,566.12c1.746,0,3.429-0.563,4.299-1.404l0.122-0.546c0.088-0.402,0.177-0.804,0.268-1.205
		c-0.093-0.412-0.181-0.824-0.272-1.235l-0.099-0.453c-0.774-0.711-2.324-1.376-4.318-1.376H541.53
		c-0.955,0-1.887,0.155-2.691,0.448c-0.69,0.25-1.238,0.569-1.613,0.936l-0.118,0.536c-0.084,0.384-0.165,0.767-0.253,1.151
		c0.143,0.61,0.285,1.219,0.424,1.828c0.793,0.686,2.322,1.32,4.249,1.32H608.406z"/>
	<path fill="#FFF6EB" d="M451.365,893.059c-0.679,0.035-1.368,0.053-2.058,0.053h-66.878c-0.687,0-1.369-0.017-2.047-0.052
		c0.219,1.129,0.43,2.253,0.63,3.37c3.03,16.842,4.578,33.981,4.603,50.942c0.03,22.739-2.682,45.9-8.063,68.842
		c0.211,1.052,2.311,2.237,4.875,2.237h66.878c2.44,0,4.671-1.11,4.86-2.372C444.525,975.044,443.585,933.682,451.365,893.059z"/>
	<path fill="#FFF6EB" d="M608.406,425.366H541.53c-2.397,0-4.611,1.086-4.848,2.325c1.31,5.518,2.465,11.037,3.431,16.408
		c3.03,16.84,4.578,33.979,4.603,50.94c0.025,18.365-1.754,37.088-5.286,55.719c0.692-0.035,1.394-0.053,2.1-0.053h66.878
		c0.708,0,1.409,0.019,2.106,0.055c-7.836-41.24-6.908-82.65,2.766-123.161C613.066,426.548,610.968,425.366,608.406,425.366z"/>
	<path fill="#4D915F" d="M471.002,745.71c0-6.474-9.731-11.742-21.695-11.742h-66.878c-11.964,0-21.697,5.268-21.697,11.742
		c0,0.222,0.027,0.443,0.074,0.617c1.347,5.66,2.509,11.213,3.46,16.506c2.979,16.548,4.5,33.374,4.525,50.011
		c0.03,20.941-2.362,42.468-7.11,63.995c-0.63,1.128-0.949,2.272-0.949,3.405c0,0.218,0.027,0.436,0.068,0.6l-0.068,0.524
		c0,1.196,0.339,2.38,1.004,3.527c0.962,4.286,1.813,8.479,2.53,12.47c2.979,16.55,4.5,33.376,4.525,50.013
		c0.032,22.38-2.661,45.282-8.006,68.071l-0.053,0.454c0,6.474,9.733,11.74,21.697,11.74h66.878c6.435,0,12.481-1.526,16.586-4.186
		c3.292-2.135,5.101-4.875,5.09-7.716l-0.053-0.449c-10.26-43.59-10.555-87.524-0.883-130.581c0.626-1.135,0.94-2.312,0.936-3.505
		l0.019-0.963c0-1.165-0.316-2.317-0.942-3.43c-9.693-43.74-9.394-87.694,0.888-130.641L471.002,745.71z M449.305,1018.45h-66.878
		c-2.564,0-4.664-1.185-4.875-2.237c5.381-22.941,8.093-46.102,8.063-68.842c-0.025-16.962-1.573-34.101-4.603-50.942
		c-0.2-1.116-0.411-2.24-0.63-3.37c0.677,0.035,1.36,0.052,2.047,0.052h66.878c0.69,0,1.379-0.018,2.058-0.053
		c-7.779,40.624-6.84,81.986,2.8,123.019C453.976,1017.34,451.745,1018.45,449.305,1018.45z M377.753,880.768
		c0.086-0.384,0.169-0.767,0.253-1.151l0.118-0.536c0.375-0.367,0.922-0.687,1.613-0.936c0.805-0.293,1.737-0.448,2.691-0.448
		h66.876c1.993,0,3.544,0.665,4.318,1.376l0.099,0.453c0.089,0.412,0.179,0.824,0.272,1.235c-0.091,0.401-0.181,0.804-0.27,1.205
		l-0.122,0.546c-0.867,0.841-2.553,1.404-4.297,1.404h-66.878c-1.929,0-3.456-0.635-4.249-1.32
		C378.037,881.987,377.896,881.379,377.753,880.768z M451.412,868.557c-0.696-0.037-1.398-0.055-2.106-0.055h-66.878
		c-0.706,0-1.408,0.018-2.1,0.053c3.532-18.632,5.309-37.354,5.286-55.719c-0.025-16.961-1.573-34.1-4.603-50.94
		c-0.966-5.371-2.121-10.89-3.431-16.408c0.236-1.24,2.452-2.325,4.848-2.325h66.876c2.562,0,4.658,1.183,4.875,2.233
		C444.504,785.908,443.576,827.317,451.412,868.557z"/>
	<path fill="#4D915F" d="M630.105,745.71c0-6.474-9.733-11.742-21.697-11.742H541.53c-11.964,0-21.695,5.268-21.695,11.742
		c0,0.222,0.025,0.443,0.072,0.617c1.347,5.66,2.511,11.213,3.46,16.506c2.979,16.548,4.5,33.374,4.525,50.011
		c0.03,20.941-2.362,42.468-7.11,63.995c-0.63,1.128-0.947,2.272-0.947,3.405c0,0.218,0.025,0.436,0.068,0.6l-0.068,0.524
		c0,1.196,0.337,2.38,1.002,3.527c0.962,4.286,1.813,8.479,2.53,12.47c2.979,16.55,4.5,33.376,4.525,50.013
		c0.032,22.38-2.661,45.282-8.004,68.071l-0.053,0.454c0,6.474,9.731,11.74,21.695,11.74h66.878c6.435,0,12.481-1.526,16.586-4.186
		c3.292-2.135,5.103-4.875,5.092-7.716l-0.053-0.449c-10.26-43.59-10.556-87.524-0.883-130.581c0.624-1.135,0.938-2.312,0.936-3.505
		l0.019-0.963c0-1.165-0.32-2.317-0.943-3.43c-9.693-43.74-9.394-87.694,0.886-130.641L630.105,745.71z M608.406,1018.45h-66.878
		c-2.566,0-4.662-1.185-4.875-2.237c5.379-22.941,8.093-46.102,8.063-68.842c-0.025-16.962-1.573-34.101-4.603-50.942
		c-0.2-1.116-0.409-2.24-0.63-3.37c0.677,0.035,1.36,0.052,2.047,0.052h66.878c0.69,0,1.379-0.018,2.06-0.053
		c-7.779,40.624-6.842,81.986,2.8,123.019C613.078,1017.34,610.846,1018.45,608.406,1018.45z M536.855,880.768
		c0.088-0.384,0.169-0.767,0.253-1.151l0.118-0.536c0.375-0.367,0.922-0.687,1.613-0.936c0.805-0.293,1.737-0.448,2.691-0.448
		h66.876c1.993,0,3.544,0.665,4.318,1.376l0.099,0.453c0.091,0.412,0.179,0.824,0.272,1.235c-0.091,0.401-0.181,0.804-0.268,1.205
		l-0.122,0.546c-0.869,0.841-2.553,1.404-4.299,1.404h-66.878c-1.927,0-3.456-0.635-4.249-1.32
		C537.14,881.987,536.997,881.379,536.855,880.768z M610.514,868.557c-0.696-0.037-1.398-0.055-2.106-0.055H541.53
		c-0.706,0-1.408,0.018-2.1,0.053c3.532-18.632,5.31-37.354,5.286-55.719c-0.025-16.961-1.573-34.1-4.603-50.94
		c-0.966-5.371-2.121-10.89-3.431-16.408c0.238-1.24,2.452-2.325,4.848-2.325h66.876c2.562,0,4.66,1.183,4.873,2.233
		C603.605,785.908,602.677,827.317,610.514,868.557z"/>
	<path fill="#4D915F" d="M471.002,427.913c0-6.474-9.731-11.741-21.695-11.741h-66.878c-11.964,0-21.697,5.267-21.697,11.741
		c0,0.222,0.027,0.443,0.074,0.618c1.347,5.659,2.509,11.212,3.46,16.506c2.979,16.548,4.5,33.374,4.525,50.011
		c0.03,20.941-2.362,42.468-7.11,63.995c-0.63,1.128-0.949,2.272-0.949,3.405c0,0.218,0.027,0.436,0.068,0.6l-0.068,0.524
		c0,1.196,0.339,2.38,1.004,3.527c0.962,4.286,1.813,8.479,2.53,12.47c2.979,16.55,4.5,33.376,4.525,50.013
		c0.032,22.38-2.661,45.282-8.006,68.071l-0.053,0.454c0,6.474,9.733,11.74,21.697,11.74h66.878c6.435,0,12.481-1.526,16.586-4.186
		c3.292-2.135,5.101-4.875,5.09-7.716l-0.053-0.449c-10.26-43.59-10.555-87.524-0.883-130.581c0.626-1.135,0.94-2.312,0.936-3.505
		l0.019-0.963c0-1.165-0.316-2.317-0.942-3.43c-9.693-43.74-9.394-87.694,0.888-130.641L471.002,427.913z M449.305,700.653h-66.878
		c-2.564,0-4.664-1.185-4.875-2.237c5.381-22.941,8.093-46.102,8.063-68.842c-0.025-16.962-1.573-34.101-4.603-50.942
		c-0.2-1.116-0.411-2.24-0.63-3.37c0.677,0.035,1.36,0.052,2.047,0.052h66.878c0.69,0,1.379-0.018,2.058-0.053
		c-7.779,40.624-6.84,81.986,2.8,123.019C453.976,699.544,451.745,700.653,449.305,700.653z M377.753,562.972
		c0.086-0.384,0.169-0.767,0.253-1.151l0.118-0.536c0.375-0.367,0.922-0.686,1.613-0.936c0.805-0.293,1.737-0.448,2.691-0.448
		h66.876c1.993,0,3.544,0.665,4.318,1.376l0.099,0.453c0.089,0.412,0.179,0.824,0.272,1.235c-0.091,0.401-0.181,0.804-0.27,1.205
		l-0.122,0.546c-0.867,0.841-2.553,1.404-4.297,1.404h-66.878c-1.929,0-3.456-0.635-4.249-1.32
		C378.037,564.19,377.896,563.582,377.753,562.972z M451.412,550.761c-0.696-0.036-1.398-0.055-2.106-0.055h-66.878
		c-0.706,0-1.408,0.018-2.1,0.053c3.532-18.632,5.309-37.354,5.286-55.719c-0.025-16.961-1.573-34.1-4.603-50.94
		c-0.966-5.371-2.121-10.89-3.431-16.408c0.236-1.24,2.452-2.325,4.848-2.325h66.876c2.562,0,4.658,1.183,4.875,2.233
		C444.504,468.111,443.576,509.521,451.412,550.761z"/>
	<path fill="#4D915F" d="M630.105,427.913c0-6.474-9.733-11.741-21.697-11.741H541.53c-11.964,0-21.695,5.267-21.695,11.741
		c0,0.222,0.025,0.443,0.072,0.618c1.347,5.659,2.511,11.212,3.46,16.506c2.979,16.548,4.5,33.374,4.525,50.011
		c0.03,20.941-2.362,42.468-7.11,63.995c-0.63,1.128-0.947,2.272-0.947,3.405c0,0.218,0.025,0.436,0.068,0.6l-0.068,0.524
		c0,1.196,0.337,2.38,1.002,3.527c0.962,4.286,1.813,8.479,2.53,12.47c2.979,16.55,4.5,33.376,4.525,50.013
		c0.032,22.38-2.661,45.282-8.004,68.071l-0.053,0.454c0,6.474,9.731,11.74,21.695,11.74h66.878c6.435,0,12.481-1.526,16.586-4.186
		c3.292-2.135,5.103-4.875,5.092-7.716l-0.053-0.449c-10.26-43.59-10.556-87.524-0.883-130.581c0.624-1.135,0.938-2.312,0.936-3.505
		l0.019-0.963c0-1.165-0.32-2.317-0.943-3.43c-9.693-43.74-9.394-87.694,0.886-130.641L630.105,427.913z M608.406,700.653h-66.878
		c-2.566,0-4.662-1.185-4.875-2.237c5.379-22.941,8.093-46.102,8.063-68.842c-0.025-16.962-1.573-34.101-4.603-50.942
		c-0.2-1.116-0.409-2.24-0.63-3.37c0.677,0.035,1.36,0.052,2.047,0.052h66.878c0.69,0,1.379-0.018,2.06-0.053
		c-7.779,40.624-6.842,81.986,2.8,123.019C613.078,699.544,610.846,700.653,608.406,700.653z M536.855,562.972
		c0.088-0.384,0.169-0.767,0.253-1.151l0.118-0.536c0.375-0.367,0.922-0.686,1.613-0.936c0.805-0.293,1.737-0.448,2.691-0.448
		h66.876c1.993,0,3.544,0.665,4.318,1.376l0.099,0.453c0.091,0.412,0.179,0.824,0.272,1.235c-0.091,0.401-0.181,0.804-0.268,1.205
		l-0.122,0.546c-0.869,0.841-2.553,1.404-4.299,1.404h-66.878c-1.927,0-3.456-0.635-4.249-1.32
		C537.14,564.19,536.997,563.582,536.855,562.972z M610.514,550.761c-0.696-0.036-1.398-0.055-2.106-0.055H541.53
		c-0.706,0-1.408,0.018-2.1,0.053c3.532-18.632,5.31-37.354,5.286-55.719c-0.025-16.961-1.573-34.1-4.603-50.94
		c-0.966-5.371-2.121-10.89-3.431-16.408c0.238-1.24,2.452-2.325,4.848-2.325h66.876c2.562,0,4.66,1.183,4.873,2.233
		C603.605,468.111,602.677,509.521,610.514,550.761z"/>
	<path fill="#4D915F" d="M776.477,745.71c0-6.474-9.733-11.742-21.697-11.742h-66.878c-11.962,0-21.695,5.268-21.695,11.742
		c0,0.222,0.025,0.443,0.074,0.617c1.347,5.66,2.509,11.213,3.458,16.506c2.979,16.548,4.5,33.374,4.525,50.011
		c0.032,20.941-2.36,42.468-7.108,63.995c-0.631,1.128-0.949,2.272-0.949,3.405c0,0.218,0.025,0.436,0.068,0.6l-0.068,0.524
		c0,1.196,0.337,2.38,1.002,3.527c0.962,4.286,1.815,8.479,2.53,12.47c2.979,16.55,4.5,33.376,4.525,50.013
		c0.032,22.38-2.661,45.282-8.004,68.071l-0.053,0.454c0,6.474,9.733,11.74,21.695,11.74h66.878c6.437,0,12.483-1.526,16.586-4.186
		c3.294-2.135,5.103-4.875,5.092-7.716l-0.053-0.449c-10.26-43.59-10.555-87.524-0.883-130.581c0.626-1.135,0.94-2.312,0.936-3.505
		l0.019-0.963c0-1.165-0.318-2.317-0.943-3.43c-9.691-43.74-9.394-87.694,0.888-130.641L776.477,745.71z M754.781,1018.45h-66.88
		c-2.564,0-4.662-1.185-4.875-2.237c5.381-22.941,8.093-46.102,8.063-68.842c-0.025-16.962-1.571-34.101-4.603-50.942
		c-0.198-1.116-0.409-2.24-0.628-3.37c0.675,0.035,1.358,0.052,2.045,0.052h66.878c0.692,0,1.379-0.018,2.06-0.053
		c-7.779,40.624-6.842,81.986,2.8,123.019C759.45,1017.34,757.219,1018.45,754.781,1018.45z M683.227,880.768
		c0.088-0.384,0.169-0.767,0.253-1.151l0.118-0.536c0.375-0.367,0.924-0.687,1.613-0.936c0.806-0.293,1.738-0.448,2.691-0.448
		h66.878c1.993,0,3.542,0.665,4.316,1.376l0.101,0.453c0.089,0.412,0.177,0.824,0.27,1.235c-0.091,0.401-0.179,0.804-0.268,1.205
		l-0.122,0.546c-0.867,0.841-2.553,1.404-4.297,1.404h-66.88c-1.927,0-3.454-0.635-4.249-1.32
		C683.513,881.987,683.37,881.379,683.227,880.768z M756.888,868.557c-0.698-0.037-1.4-0.055-2.107-0.055h-66.878
		c-0.706,0-1.408,0.018-2.1,0.053c3.532-18.632,5.311-37.354,5.286-55.719c-0.025-16.961-1.571-34.1-4.603-50.94
		c-0.966-5.371-2.121-10.89-3.431-16.408c0.238-1.24,2.454-2.325,4.848-2.325h66.878c2.56,0,4.658,1.183,4.873,2.233
		C749.98,785.908,749.052,827.317,756.888,868.557z"/>
	<path fill="#4D915F" d="M776.477,427.913c0-6.474-9.733-11.741-21.697-11.741h-66.878c-11.962,0-21.695,5.267-21.695,11.741
		c0,0.222,0.025,0.443,0.074,0.618c1.347,5.659,2.509,11.212,3.458,16.506c2.979,16.548,4.5,33.374,4.525,50.011
		c0.032,20.941-2.36,42.468-7.108,63.995c-0.631,1.128-0.949,2.272-0.949,3.405c0,0.218,0.025,0.436,0.068,0.6l-0.068,0.524
		c0,1.196,0.337,2.38,1.002,3.527c0.962,4.286,1.815,8.479,2.53,12.47c2.979,16.55,4.5,33.376,4.525,50.013
		c0.032,22.38-2.661,45.282-8.004,68.071l-0.053,0.454c0,6.474,9.733,11.74,21.695,11.74h66.878c6.437,0,12.483-1.526,16.586-4.186
		c3.294-2.135,5.103-4.875,5.092-7.716l-0.053-0.449c-10.26-43.59-10.555-87.524-0.883-130.581c0.626-1.135,0.94-2.312,0.936-3.505
		l0.019-0.963c0-1.165-0.318-2.317-0.943-3.43c-9.691-43.74-9.394-87.694,0.888-130.641L776.477,427.913z M754.781,700.653h-66.88
		c-2.564,0-4.662-1.185-4.875-2.237c5.381-22.941,8.093-46.102,8.063-68.842c-0.025-16.962-1.571-34.101-4.603-50.942
		c-0.198-1.116-0.409-2.24-0.628-3.37c0.675,0.035,1.358,0.052,2.045,0.052h66.878c0.692,0,1.379-0.018,2.06-0.053
		c-7.779,40.624-6.842,81.986,2.8,123.019C759.45,699.544,757.219,700.653,754.781,700.653z M683.227,562.972
		c0.088-0.384,0.169-0.767,0.253-1.151l0.118-0.536c0.375-0.367,0.924-0.686,1.613-0.936c0.806-0.293,1.738-0.448,2.691-0.448
		h66.878c1.993,0,3.542,0.665,4.316,1.376l0.101,0.453c0.089,0.412,0.177,0.824,0.27,1.235c-0.091,0.401-0.179,0.804-0.268,1.205
		l-0.122,0.546c-0.867,0.841-2.553,1.404-4.297,1.404h-66.88c-1.927,0-3.454-0.635-4.249-1.32
		C683.513,564.19,683.37,563.582,683.227,562.972z M756.888,550.761c-0.698-0.036-1.4-0.055-2.107-0.055h-66.878
		c-0.706,0-1.408,0.018-2.1,0.053c3.532-18.632,5.311-37.354,5.286-55.719c-0.025-16.961-1.571-34.1-4.603-50.94
		c-0.966-5.371-2.121-10.89-3.431-16.408c0.238-1.24,2.454-2.325,4.848-2.325h66.878c2.56,0,4.658,1.183,4.873,2.233
		C749.98,468.111,749.052,509.521,756.888,550.761z"/>
	<path fill="#CC403A" d="M606.287,400.209c6.435,0,12.481-1.526,16.586-4.186c3.292-2.135,5.101-4.875,5.09-7.716l-0.053-0.448
		c-10.26-43.59-10.555-87.524-0.883-130.581c0.626-1.135,0.94-2.312,0.936-3.505l0.019-0.963c0-1.165-0.318-2.317-0.943-3.43
		c-9.691-43.741-9.392-87.694,0.888-130.641l0.055-0.464c0-6.475-9.731-11.742-21.695-11.742h-66.878
		c-11.964,0-21.697,5.267-21.697,11.742c0,0.221,0.027,0.443,0.074,0.617c1.347,5.66,2.509,11.212,3.46,16.506
		c2.979,16.548,4.5,33.374,4.525,50.011c0.03,20.941-2.362,42.469-7.11,63.996c-0.63,1.128-0.949,2.272-0.949,3.405
		c0,0.218,0.027,0.436,0.068,0.599l-0.068,0.525c0,1.195,0.339,2.38,1.004,3.527c0.962,4.285,1.813,8.478,2.53,12.47
		c2.979,16.55,4.5,33.376,4.525,50.013c0.032,22.38-2.661,45.282-8.006,68.07l-0.053,0.454c0,6.474,9.733,11.741,21.697,11.741
		H606.287z M539.409,115.726h66.876c2.562,0,4.658,1.183,4.873,2.233c-9.674,40.512-10.602,81.921-2.766,123.162
		c-0.698-0.037-1.398-0.055-2.106-0.055h-66.878c-0.706,0-1.408,0.018-2.1,0.053c3.532-18.632,5.309-37.354,5.286-55.719
		c-0.025-16.962-1.573-34.1-4.603-50.941c-0.966-5.371-2.123-10.89-3.431-16.408C534.797,116.812,537.013,115.726,539.409,115.726z
		 M610.974,253.325c-0.091,0.401-0.181,0.804-0.27,1.205l-0.122,0.546c-0.867,0.841-2.553,1.404-4.297,1.404h-66.878
		c-1.929,0-3.456-0.634-4.249-1.32c-0.141-0.609-0.281-1.218-0.426-1.828c0.088-0.384,0.171-0.767,0.255-1.151l0.116-0.536
		c0.375-0.367,0.924-0.686,1.615-0.936c0.805-0.293,1.737-0.447,2.691-0.447h66.876c1.993,0,3.544,0.665,4.318,1.376l0.099,0.453
		C610.791,252.502,610.879,252.914,610.974,253.325z M534.532,388.777c5.379-22.941,8.093-46.102,8.063-68.842
		c-0.025-16.961-1.573-34.1-4.603-50.942c-0.2-1.117-0.411-2.24-0.63-3.37c0.677,0.034,1.36,0.051,2.047,0.051h66.878
		c0.69,0,1.377-0.018,2.058-0.052c-7.779,40.624-6.84,81.985,2.8,123.019c-0.188,1.263-2.419,2.373-4.86,2.373h-66.878
		C536.841,391.015,534.743,389.829,534.532,388.777z"/>
</g>
</svg>
