<?xml version="1.0" encoding="utf-8"?>
<!-- Generator: Adobe Illustrator 23.1.0, SVG Export Plug-In . SVG Version: 6.00 Build 0)  -->
<svg version="1.1" id="Layer_1" xmlns="http://www.w3.org/2000/svg" xmlns:xlink="http://www.w3.org/1999/xlink" x="0px" y="0px"
	 viewBox="0 0 1200 1200" enable-background="new 0 0 1200 1200" xml:space="preserve">
<g>
	<path fill="#C1B6AC" d="M972.273,111.458c8.948,14.905,14.189,32.291,14.189,50.941v852.734c0,54.806-44.428,99.236-99.236,99.236
		H293.493c-17.6,0-34.099-4.628-48.431-12.663c17.347,28.895,48.891,48.294,85.046,48.294h593.735
		c54.805,0,99.236-44.429,99.236-99.235V198.031C1023.08,160.824,1002.573,128.446,972.273,111.458z"/>
	<path fill="#D1C8BF" d="M887.227,1114.369c54.807,0,99.236-44.429,99.236-99.236V162.399c0-18.651-5.241-36.036-14.189-50.941
		c-12.207-20.336-31.422-35.952-54.383-43.41C900.967,56.689,880.495,50,858.428,50H281.941c-57.904,0-105.02,45.847-105.02,102.202
		v833.871c0,24.761,9.108,47.485,24.222,65.191c8.406,21.464,24.017,39.282,43.92,50.442c14.332,8.035,30.831,12.663,48.431,12.663
		H887.227z M192.211,986.072V152.202c0-48.151,40.255-87.321,89.73-87.321h576.487c49.483,0,89.735,39.17,89.735,87.321v833.871
		c0,48.143-40.253,87.314-89.735,87.314H281.941C232.466,1073.386,192.211,1034.216,192.211,986.072z"/>
	<path fill="#FFF6EB" d="M281.941,1073.386h576.487c49.483,0,89.735-39.17,89.735-87.314V152.202
		c0-48.151-40.253-87.321-89.735-87.321H281.941c-49.475,0-89.73,39.17-89.73,87.321v833.871
		C192.211,1034.216,232.466,1073.386,281.941,1073.386z M372.895,449.544c79.022-59.486,120.775-143.64,118.289-162.988
		c-2.486-20.309,5.966-25.147,26.343-6.765c19.384,17.409,20.377,26.113,10.931,35.305c-5.465,5.319-12.424,14.503-24.355,32.886
		c-36.775,58.52-84.487,92.371-122.263,109.301C364.442,465.02,357.983,460.181,372.895,449.544z M415.142,599.81
		c18.884,0,62.125-2.419,100.392-6.292c-7.952-20.308-14.412-29.5-20.87-33.852c-8.452-5.319-4.472-14.51,12.426-12.091
		c25.843,3.865,30.315,7.738,30.315,18.375c0,7.259,0,16.93,0.993,25.147c34.795-4.832,60.638-7.738,81.015-10.151
		c7.451-24.181,7.451-37.724,4.472-45.463c-4.973-13.056,1.493-16.443,18.884-7.738c24.357,12.091,26.843,19.829,17.899,29.987
		c-5.475,6.285-8.454,10.637-12.426,19.342c16.398-2.419,29.322-4.832,42.741-7.738c26.836-4.839,38.267-3.865,49.7,5.319
		c15.903,12.577,12.924,22.248-10.933,19.349c-16.898-1.933-57.651-1.453-90.46,0.48c-7.952,14.03-22.363,31.919-29.817,38.211
		c-9.945,9.671-13.417,7.738-8.945-2.42c5.467-12.577,9.938-23.701,13.419-33.372c-18.892,1.933-46.721,4.839-73.564,8.704
		c4.48,22.735,3.98,29.507,1.001,35.305c-3.479,7.258-10.438,6.292-14.418-9.671c-2.488-8.217-4.474-16.443-6.46-22.727
		c-32.309,3.386-61.631,8.217-72.561,10.637c-12.926,3.386-21.37,1.933-41.255-8.704C398.246,606.095,399.239,599.81,415.142,599.81
		z M753.107,795.677c-5.465,4.839-7.952,12.091-8.444,21.769c-4.474,71.09-10.94,92.372-33.302,112.2
		c-10.44,9.671-13.919,9.191-20.878-2.42c-8.446-14.503-21.37-28.046-35.782-39.17c-7.952-6.772-6.458-9.671,1.493-7.738
		c39.762,10.637,43.734,9.184,47.714-6.772c7.952-32.406,9.439-48.362,7.952-70.61c-1.001-12.577-8.952-17.896-39.267-15.476
		c-29.822,1.933-63.617,4.832-100.892,8.704l-0.993,38.204l44.234-8.217c-1.986-3.386-3.98-7.739-5.966-11.124
		c-4.474-9.191-0.495-12.091,10.438-6.772c30.815,15.476,39.262,30.952,35.78,43.53c-3.972,14.51-13.91,16.922-20.868,7.251
		c-3.481-5.318-8.947-13.543-14.419-22.728c-35.28,8.704-81.508,21.761-100.392,29.5c-10.438,4.352-14.91,3.865-29.822-8.225
		c-11.926-10.151-9.938-14.99,3.479-14.023c8.945,0.966,35.79-1.453,57.651-4.839l0.502-40.137
		c-26.343,2.899-54.674,6.772-98.906,12.57c5.465,36.278,8.444,86.093,5.465,102.536c-1.986,12.091-9.447,14.51-14.412,8.218
		c-7.952-9.184-9.938-17.409-9.445-28.533c1.986-33.373-4.472-78.348-14.912-93.345c-5.966-9.184-1.486-15.477,26.343-3.865
		c39.269-5.319,73.556-9.191,105.867-13.544l0.491-29.02c-13.91,1.94-27.829,3.386-39.26,5.326
		c-0.993,2.899-4.472,4.831-6.959,4.831c-5.966,0-8.446-4.352-15.905-29.986c-10.438-39.17-20.377-59.965-27.336-66.258
		c-9.938-8.704-6.458-15.477,20.377-10.158c46.228-3.865,138.174-17.409,151.09-21.761c10.44-3.386,18.391-2.899,32.803,5.319
		c24.857,14.03,24.857,20.315,16.896,26.6c-6.951,5.805-10.931,12.091-16.896,27.087c-14.912,34.818-20.378,45.942-27.336,54.646
		c-6.46,8.712-13.419,8.225-14.905,1.453c-1.001-3.865-2.987-4.352-15.411-3.386c-10.44,0.966-22.864,1.933-35.782,3.386
		l-1.001,29.499c30.815-3.386,61.631-6.285,94.934-9.671c18.39-2.42,26.836-3.865,34.787-6.772
		c6.959-2.419,13.917-2.899,33.802,7.259C759.072,782.62,759.072,789.878,753.107,795.677z M808.279,453.409
		c-101.393-2.412-109.344-5.319-136.18-54.167c-40.761-73.509-84.002-149.925-98.414-171.206
		c-13.417-19.342-21.369-27.08-47.213-43.523c-11.931-7.738-4.472-16.93,23.357-10.644c22.864,5.318,28.329,9.191,41.255,33.372
		c34.787,62.872,68.591,114.14,101.393,149.445c39.26,42.077,54.665,53.68,115.302,79.801
		C828.657,445.192,829.15,453.896,808.279,453.409z"/>
	<path fill="#FFF6EB" d="M522.993,698.953c8.947-0.966,19.384-2.899,29.324-4.839c-0.993-16.922-2.488-24.661-4.474-30.953
		c-19.384,3.386-36.281,5.805-51.693,7.738c4.973,20.795,6.959,29.02,15.905,73.516c15.411-2.419,28.329-4.839,39.76-6.292
		l0.502-27.567c-14.412,0.487-26.343,0-29.824-1.933C515.041,703.785,515.534,699.919,522.993,698.953z"/>
	<path fill="#FFF6EB" d="M609.473,698.466c-7.952,3.873-21.376,7.259-34.795,9.678l-0.993,26.113
		c33.794-4.839,42.248-4.839,44.735-3.386c1.986,1.453,4.965,0,7.451-6.772c8.945-26.601,11.933-40.624,14.419-56.587
		c1.486-9.184-2.486-12.091-12.926-12.57c-7.952-0.487-29.322,0.479-53.179,3.386c0.993,8.218,0.993,18.376,0.993,29.979
		c18.884-6.285,27.336-5.798,35.288-1.446C618.42,690.249,617.92,694.601,609.473,698.466z"/>
	<path fill="#1B669E" d="M807.779,436.487c-60.638-26.121-76.043-37.725-115.302-79.801
		c-32.801-35.305-66.605-86.573-101.393-149.445c-12.926-24.181-18.391-28.054-41.255-33.372
		c-27.829-6.285-35.288,2.906-23.357,10.644c25.845,16.443,33.796,24.181,47.213,43.523c14.412,21.282,57.653,97.697,98.414,171.206
		c26.836,48.848,34.787,51.755,136.18,54.167C829.15,453.896,828.657,445.192,807.779,436.487z"/>
	<path fill="#1B669E" d="M504.103,347.981c11.931-18.383,18.89-27.567,24.355-32.886c9.447-9.191,8.454-17.896-10.931-35.305
		c-20.378-18.383-28.829-13.544-26.343,6.765c2.486,19.349-39.267,103.502-118.289,162.988c-14.912,10.637-8.454,15.476,8.945,7.738
		C419.616,440.353,467.328,406.501,504.103,347.981z"/>
	<path fill="#CC403A" d="M447.945,619.152c10.931-2.42,40.253-7.252,72.561-10.637c1.986,6.285,3.972,14.51,6.46,22.727
		c3.98,15.963,10.938,16.93,14.418,9.671c2.979-5.798,3.479-12.57-1.001-35.305c26.843-3.865,54.672-6.772,73.564-8.704
		c-3.481,9.671-7.952,20.795-13.419,33.372c-4.472,10.158-1.001,12.091,8.945,2.42c7.453-6.292,21.865-24.181,29.817-38.211
		c32.809-1.933,73.562-2.413,90.46-0.48c23.857,2.899,26.836-6.772,10.933-19.349c-11.433-9.184-22.864-10.158-49.7-5.319
		c-13.419,2.906-26.343,5.319-42.741,7.738c3.972-8.704,6.951-13.057,12.426-19.342c8.945-10.158,6.458-17.896-17.899-29.987
		c-17.391-8.704-23.857-5.318-18.884,7.738c2.979,7.739,2.979,21.282-4.472,45.463c-20.378,2.413-46.22,5.319-81.015,10.151
		c-0.993-8.218-0.993-17.889-0.993-25.147c0-10.637-4.472-14.51-30.315-18.375c-16.898-2.419-20.878,6.772-12.426,12.091
		c6.458,4.352,12.919,13.543,20.87,33.852c-38.267,3.873-81.508,6.292-100.392,6.292c-15.903,0-16.896,6.285-8.452,10.638
		C426.575,621.085,435.019,622.538,447.945,619.152z"/>
	<path fill="#CC403A" d="M735.716,771.016c-19.885-10.157-26.843-9.678-33.802-7.259c-7.952,2.907-16.398,4.352-34.787,6.772
		c-33.304,3.386-64.119,6.285-94.934,9.671l1.001-29.499c12.919-1.453,25.342-2.42,35.782-3.386
		c12.424-0.966,14.41-0.479,15.411,3.386c1.486,6.772,8.444,7.259,14.905-1.453c6.959-8.704,12.424-19.829,27.336-54.646
		c5.966-14.997,9.945-21.282,16.896-27.087c7.961-6.285,7.961-12.57-16.896-26.6c-14.412-8.218-22.364-8.705-32.803-5.319
		c-12.917,4.352-104.863,17.896-151.09,21.761c-26.836-5.319-30.315,1.453-20.377,10.158c6.959,6.292,16.898,27.087,27.336,66.258
		c7.459,25.634,9.94,29.986,15.905,29.986c2.486,0,5.966-1.932,6.959-4.831c11.431-1.94,25.35-3.386,39.26-5.326l-0.491,29.02
		c-32.311,4.352-66.598,8.225-105.867,13.544c-27.829-11.611-32.309-5.319-26.343,3.865c10.44,14.997,16.898,59.972,14.912,93.345
		c-0.493,11.124,1.493,19.349,9.445,28.533c4.965,6.292,12.426,3.873,14.412-8.218c2.979-16.443,0-66.258-5.465-102.536
		c44.232-5.798,72.563-9.671,98.906-12.57l-0.502,40.137c-21.861,3.386-48.707,5.805-57.651,4.839
		c-13.417-0.966-15.405,3.873-3.479,14.023c14.912,12.09,19.384,12.577,29.822,8.225c18.884-7.738,65.112-20.795,100.392-29.5
		c5.473,9.184,10.938,17.409,14.419,22.728c6.959,9.671,16.896,7.259,20.868-7.251c3.481-12.578-4.965-28.054-35.78-43.53
		c-10.933-5.319-14.912-2.42-10.438,6.772c1.986,3.386,3.98,7.738,5.966,11.124l-44.234,8.217l0.993-38.204
		c37.276-3.873,71.07-6.772,100.892-8.704c30.315-2.42,38.267,2.899,39.267,15.476c1.488,22.248,0,38.204-7.952,70.61
		c-3.98,15.956-7.952,17.409-47.714,6.772c-7.952-1.933-9.445,0.966-1.493,7.738c14.412,11.124,27.336,24.668,35.782,39.17
		c6.959,11.611,10.438,12.091,20.878,2.42c22.362-19.829,28.827-41.111,33.302-112.2c0.493-9.678,2.979-16.93,8.444-21.769
		C759.072,789.878,759.072,782.62,735.716,771.016z M610.466,686.862c-7.952-4.352-16.404-4.839-35.288,1.446
		c0-11.604,0-21.761-0.993-29.979c23.857-2.906,45.227-3.873,53.179-3.386c10.44,0.479,14.412,3.386,12.926,12.57
		c-2.486,15.963-5.475,29.986-14.419,56.587c-2.486,6.772-5.465,8.225-7.451,6.772c-2.486-1.453-10.94-1.453-44.735,3.386
		l0.993-26.113c13.419-2.42,26.843-5.805,34.795-9.678C617.92,694.601,618.42,690.249,610.466,686.862z M522.493,708.624
		c3.481,1.933,15.412,2.42,29.824,1.933l-0.502,27.567c-11.431,1.453-24.349,3.873-39.76,6.292
		c-8.947-44.496-10.933-52.721-15.905-73.516c15.412-1.933,32.309-4.352,51.693-7.738c1.986,6.292,3.481,14.03,4.474,30.953
		c-9.94,1.94-20.378,3.873-29.324,4.839C515.534,699.919,515.041,703.785,522.493,708.624z"/>
</g>
</svg>
