<?xml version="1.0" encoding="utf-8"?>
<!-- Generator: Adobe Illustrator 23.1.0, SVG Export Plug-In . SVG Version: 6.00 Build 0)  -->
<svg version="1.1" id="Layer_1" xmlns="http://www.w3.org/2000/svg" xmlns:xlink="http://www.w3.org/1999/xlink" x="0px" y="0px"
	 viewBox="0 0 1200 1200" enable-background="new 0 0 1200 1200" xml:space="preserve">
<g>
	<path fill="#C1B6AC" d="M972.277,111.458c8.948,14.906,14.189,32.291,14.189,50.941v852.734c0,54.806-44.43,99.236-99.236,99.236
		H293.497c-17.6,0-34.099-4.628-48.431-12.664C262.411,1130.6,293.957,1150,330.113,1150h593.734
		c54.805,0,99.236-44.429,99.236-99.236V198.03C1023.082,160.823,1002.575,128.445,972.277,111.458z"/>
	<path fill="#D1C8BF" d="M887.231,1114.369c54.805,0,99.236-44.429,99.236-99.236V162.399c0-18.651-5.241-36.036-14.189-50.941
		c-12.209-20.337-31.426-35.954-54.387-43.412C900.969,56.689,880.497,50,858.434,50H281.948
		c-57.914,0-105.03,45.848-105.03,102.195v833.878c0,24.764,9.112,47.49,24.23,65.197c8.406,21.461,24.015,39.277,43.918,50.436
		c14.332,8.036,30.831,12.664,48.431,12.664H887.231z M192.211,986.073V152.195c0-48.144,40.255-87.314,89.737-87.314h576.486
		c49.475,0,89.73,39.171,89.73,87.314v833.878c0,48.144-40.255,87.314-89.73,87.314H281.948
		C232.465,1073.387,192.211,1034.217,192.211,986.073z"/>
	<path fill="#FFF6EB" d="M281.948,1073.387h576.486c49.475,0,89.73-39.17,89.73-87.314V152.195c0-48.144-40.255-87.314-89.73-87.314
		H281.948c-49.483,0-89.737,39.171-89.737,87.314v833.878C192.211,1034.217,232.465,1073.387,281.948,1073.387z M277.057,617.111
		c-15.829,6.692-19.959,2.005-6.198-8.704c59.183-45.535,98.406-82.366,130.059-127.226c-20.648-16.072-47.483-40.18-55.055-50.89
		c-7.564-10.717-4.815-14.059,13.075-11.385c28.904,4.018,47.482,18.085,55.053,43.522c17.204-28.787,33.713-62.937,41.286-86.377
		c8.945-26.782,7.571-28.787-4.817-25.445c-44.04,12.722-58.488,10.717-77.066,0c-8.258-4.687-7.571-10.71,3.436-10.71
		c14.456,0,66.746-12.054,85.332-25.445c5.501-4.687,13.073-6.699,39.222,8.036c28.211,15.397,28.898,19.414,10.32,38.168
		c-4.13,4.018-8.258,10.71-21.332,35.487C426.379,515.998,356.191,580.948,277.057,617.111z M480.05,659.965
		c17.204,12.047,18.578,20.083,14.45,25.438c-6.19,8.036-11.007,21.434-18.578,65.626c-6.884,47.541-14.45,63.613-48.857,90.395
		c-10.326,8.036-20.646,5.355-23.4-3.349c-6.19-16.072-19.265-34.818-42.657-54.908c-8.26-7.36-2.07-14.728,2.747-12.723
		c52.298,23.44,60.556,21.427,67.44,7.368c11.693-24.108,17.891-50.222,19.951-82.359c1.381-17.409-6.19-24.777-22.706-24.108
		c-24.081,1.344-37.156,8.704-60.558,34.818c-9.631,10.049-19.951,6.699-22.019-12.047c-0.687-7.368,2.756-15.403,8.947-21.427
		c23.4-23.44,38.535-71.649,29.59-87.721c-5.503-11.386,1.373-18.746,13.075-10.71c16.516,11.378,40.597,13.391,56.426,8.704
		c11.007-3.349,15.137-8.036,24.081-56.921c1.381-9.373,0-11.378-10.32-9.373c-11.012,2.681-34.407,2.013-41.284-2.005
		c-9.639-4.687-9.639-8.704,0.687-10.717c13.763-2.674,46.787-11.379,59.864-17.409c9.639-4.686,16.516-4.018,34.405,6.699
		c19.274,12.723,19.274,23.432,12.388,27.45c-4.128,2.013-11.012,5.355-16.516,11.386c-28.896,33.482-28.896,35.487-18.578,44.191
		c14.448,12.054,13.761,20.09,0.687,21.428c-13.761,0.668-70.187,4.686-85.324,6.699c-2.755,12.723-11.012,38.836-15.829,53.564
		C442.889,645.229,464.221,647.911,480.05,659.965z M561.244,500.594c-12.386-18.078,2.07-22.764,31.652-6.692
		c19.272-4.018,37.163-10.717,43.354-16.741c8.945-8.704,14.448-9.373,36.475,2.005c22.013,10.717,23.395,22.103,11.693,30.807
		c-8.945,7.36-12.388,16.734-16.516,35.487c-4.13,26.782,0,34.15,25.46,32.137c38.537-3.342,46.797-0.669,54.368,10.717
		c3.434,6.023,1.373,10.041-13.769,16.072c-8.947,4.018-51.604,6.692-61.237,2.674c-27.53-8.036-31.66-15.396-31.66-43.522
		c0-14.06,2.07-38.168,4.13-51.559c2.068-9.373-0.687-11.386-11.005-10.041c-6.198,1.337-22.708,4.686-35.782,8.704
		c4.13,67.631-12.388,102.449-62.624,130.568c-12.38,6.699-15.823,4.018-4.13-10.041c23.4-28.795,33.72-54.24,36.477-91.739
		C569.504,524.703,566.75,508.631,561.244,500.594z M751.165,836.069c-2.06,12.047-11.005,15.396-19.951,7.36
		c-17.891-16.065-55.739-46.872-86.018-70.973c-30.277,29.463-79.134,50.222-126.615,54.232
		c-17.197,1.344-19.265-2.674-2.747-10.041c60.556-25.445,80.507-38.836,101.84-64.95c-17.891-12.723-43.352-29.463-67.433-43.523
		c-13.761-8.704-8.947-15.403,3.434-11.385c34.409,12.723,61.245,22.095,80.517,31.468c7.564-12.716,17.889-32.137,22.019-46.197
		c4.13-13.391,0.687-16.072-8.947-14.067c-3.441,0.675-23.4,5.362-47.482,10.717c-8.258,2.005-33.72,0-41.978-5.355
		c-12.38-8.036-11.693-10.049,11.014-12.723c25.462-2.681,68.12-12.054,81.881-18.753c14.456-7.36,20.646-9.373,38.537,1.344
		c30.277,16.741,31.651,27.451,19.959,34.818c-8.26,6.692-15.831,16.072-20.646,26.782c-8.947,18.746-13.763,28.795-20.646,38.168
		C729.146,775.805,756.676,803.924,751.165,836.069z M894.296,558.852c-105.281,14.059-114.226,11.386-136.934-11.386
		c-31.652-32.805-96.338-100.436-113.541-118.514c-57.115-62.276-78.447-81.69-90.148-88.39
		c-14.448-8.704-11.692-16.741,6.886-17.409c8.258,0,24.087,5.355,33.72,16.741c1.373,1.337,3.434,4.018,6.19,6.692
		c22.019-25.438,33.032-48.209,30.277-63.606c-2.06-12.054,4.128-15.403,29.592-7.368c32.337,10.042,35.094,20.759,20.636,29.463
		c-9.631,6.692-29.583,20.758-37.154,26.782c-11.701,10.71-24.089,19.422-33.034,26.114c19.959,20.09,27.53,28.795,49.551,50.222
		c54.356-42.855,63.303-59.595,63.303-76.336c0-14.728,8.945-17.409,37.161,0c26.141,16.741,26.838,26.782,12.38,33.481
		c-11.692,4.687-23.393,10.71-34.407,17.409c-19.951,11.386-48.855,27.45-65.365,36.823
		c96.338,87.721,125.234,99.107,221.573,123.877C914.247,548.135,914.936,556.172,894.296,558.852z"/>
	<path fill="#4D915F" d="M531.654,631.17c-11.693,14.059-8.25,16.741,4.13,10.041c50.236-28.119,66.754-62.937,62.624-130.568
		c13.075-4.018,29.585-7.368,35.782-8.704c10.318-1.344,13.073,0.668,11.005,10.041c-2.06,13.391-4.13,37.499-4.13,51.559
		c0,28.126,4.13,35.487,31.66,43.522c9.633,4.018,52.291,1.344,61.237-2.674c15.142-6.031,17.203-10.049,13.769-16.072
		c-7.571-11.386-15.831-14.059-54.368-10.717c-25.46,2.013-29.59-5.355-25.46-32.137c4.128-18.753,7.571-28.127,16.516-35.487
		c11.701-8.704,10.32-20.09-11.693-30.807c-22.027-11.378-27.53-10.71-36.475-2.005c-6.19,6.024-24.081,12.723-43.354,16.741
		c-29.583-16.072-44.038-11.386-31.652,6.692c5.505,8.036,8.26,24.108,6.886,38.837C565.374,576.93,555.054,602.375,531.654,631.17z
		"/>
	<path fill="#4D915F" d="M894.985,543.449c-96.338-24.769-125.234-36.155-221.573-123.877c16.51-9.373,45.414-25.438,65.365-36.823
		c11.014-6.699,22.715-12.723,34.407-17.409c14.458-6.699,13.761-16.74-12.38-33.481c-28.217-17.409-37.161-14.728-37.161,0
		c0,16.741-8.947,33.481-63.303,76.336c-22.021-21.427-29.592-30.132-49.551-50.222c8.945-6.692,21.332-15.404,33.034-26.114
		c7.571-6.024,27.523-20.09,37.154-26.782c14.458-8.704,11.701-19.422-20.636-29.463c-25.464-8.036-31.652-4.686-29.592,7.368
		c2.755,15.397-8.258,38.168-30.277,63.606c-2.756-2.674-4.817-5.355-6.19-6.692c-9.633-11.386-25.462-16.741-33.72-16.741
		c-18.578,0.668-21.334,8.704-6.886,17.409c11.701,6.699,33.034,26.114,90.148,88.39c17.203,18.078,81.888,85.709,113.541,118.514
		c22.708,22.772,31.652,25.445,136.934,11.386C914.936,556.172,914.247,548.135,894.985,543.449z"/>
	<path fill="#4D915F" d="M667.903,742.992c6.883-9.373,11.699-19.422,20.646-38.168c4.815-10.71,12.386-20.09,20.646-26.782
		c11.692-7.368,10.318-18.078-19.959-34.818c-17.891-10.717-24.081-8.704-38.537-1.344c-13.761,6.699-56.419,16.072-81.881,18.753
		c-22.708,2.674-23.395,4.686-11.014,12.723c8.258,5.355,33.72,7.36,41.978,5.355c24.081-5.355,44.04-10.042,47.482-10.717
		c9.633-2.005,13.076,0.675,8.947,14.067c-4.13,14.059-14.456,33.481-22.019,46.197c-19.272-9.373-46.108-18.746-80.517-31.468
		c-12.38-4.018-17.195,2.681-3.434,11.385c24.081,14.06,49.542,30.8,67.433,43.523c-21.332,26.114-41.284,39.505-101.84,64.95
		c-16.518,7.368-14.45,11.386,2.747,10.041c47.482-4.011,96.338-24.769,126.615-54.232c30.279,24.101,68.127,54.908,86.018,70.973
		c8.947,8.036,17.891,4.687,19.951-7.36C756.676,803.924,729.146,775.805,667.903,742.992z"/>
	<path fill="#4D915F" d="M499.315,597.689c13.075-1.337,13.761-9.373-0.687-21.428c-10.318-8.704-10.318-10.71,18.578-44.191
		c5.503-6.031,12.388-9.373,16.516-11.386c6.886-4.018,6.886-14.728-12.388-27.45c-17.889-10.718-24.766-11.386-34.405-6.699
		c-13.076,6.031-46.1,14.735-59.864,17.409c-10.326,2.013-10.326,6.03-0.687,10.717c6.877,4.018,30.271,4.686,41.284,2.005
		c10.32-2.005,11.701,0,10.32,9.373c-8.945,48.885-13.075,53.572-24.081,56.921c-15.829,4.686-39.91,2.674-56.426-8.704
		c-11.701-8.036-18.578-0.676-13.075,10.71c8.945,16.072-6.19,64.281-29.59,87.721c-6.19,6.024-9.633,14.059-8.947,21.427
		c2.068,18.746,12.388,22.096,22.019,12.047c23.402-26.113,36.477-33.474,60.558-34.818c16.516-0.669,24.087,6.699,22.706,24.108
		c-2.06,32.137-8.258,58.251-19.951,82.359c-6.884,14.059-15.142,16.072-67.44-7.368c-4.817-2.006-11.007,5.362-2.747,12.723
		c23.393,20.09,36.467,38.836,42.657,54.908c2.755,8.704,13.075,11.386,23.4,3.349c34.407-26.782,41.972-42.854,48.857-90.395
		c7.571-44.191,12.388-57.59,18.578-65.626c4.128-5.355,2.755-13.391-14.45-25.438c-15.829-12.054-37.161-14.735-81.888-2.013
		c4.817-14.728,13.075-40.841,15.829-53.564C429.127,602.375,485.554,598.357,499.315,597.689z"/>
	<path fill="#4D915F" d="M490.37,396.14c13.075-24.777,17.203-31.468,21.332-35.487c18.578-18.753,17.891-22.771-10.32-38.168
		c-26.149-14.735-33.72-12.723-39.222-8.036c-18.586,13.391-70.876,25.445-85.332,25.445c-11.007,0-11.693,6.023-3.436,10.71
		c18.578,10.717,33.026,12.722,77.066,0c12.388-3.342,13.761-1.337,4.817,25.445c-7.573,23.44-24.081,57.59-41.286,86.377
		c-7.571-25.438-26.149-39.505-55.053-43.522c-17.889-2.674-20.638,0.668-13.075,11.385c7.571,10.71,34.407,34.818,55.055,50.89
		c-31.652,44.86-70.876,81.691-130.059,127.226c-13.761,10.71-9.631,15.396,6.198,8.704
		C356.191,580.948,426.379,515.998,490.37,396.14z"/>
</g>
</svg>
