<?xml version="1.0" encoding="utf-8"?>
<!-- Generator: Adobe Illustrator 23.1.0, SVG Export Plug-In . SVG Version: 6.00 Build 0)  -->
<svg version="1.1" id="Layer_1" xmlns="http://www.w3.org/2000/svg" xmlns:xlink="http://www.w3.org/1999/xlink" x="0px" y="0px"
	 viewBox="0 0 1200 1200" enable-background="new 0 0 1200 1200" xml:space="preserve">
<g>
	<path fill="#C1B6AC" d="M972.194,111.594c8.947,14.904,14.187,32.286,14.187,50.935v852.623c0,54.799-44.423,99.223-99.223,99.223
		H293.501c-17.597,0-34.095-4.627-48.424-12.661c17.344,28.891,48.886,48.288,85.036,48.288h593.656
		c54.799,0,99.223-44.423,99.223-99.223V198.155C1022.992,160.953,1002.488,128.579,972.194,111.594z"/>
	<path fill="#D1C8BF" d="M887.157,1114.374c54.799,0,99.223-44.423,99.223-99.223V162.528c0-18.648-5.239-36.031-14.187-50.935
		c-12.19-20.306-31.371-35.903-54.286-43.372C901.175,56.745,880.954,50,859.177,50H281.139
		c-57.414,0-104.131,46.716-104.131,104.138v830.146c0,25.17,8.982,48.279,23.902,66.303c8.338,21.766,24.053,39.848,44.167,51.124
		c14.329,8.034,30.828,12.661,48.424,12.661H887.157z M192.171,984.285V154.138c0-49.063,39.913-88.976,88.969-88.976h578.038
		c49.056,0,88.969,39.912,88.969,88.976v830.146c0,49.06-39.913,88.972-88.969,88.972H281.139
		C232.083,1073.257,192.171,1033.345,192.171,984.285z"/>
	<path fill="#FFF6EB" d="M281.139,1073.257h578.038c49.056,0,88.969-39.912,88.969-88.972V154.138
		c0-49.063-39.913-88.976-88.969-88.976H281.139c-49.056,0-88.969,39.912-88.969,88.976v830.146
		C192.171,1033.345,232.083,1073.257,281.139,1073.257z M510.204,367.125c-0.795-5.803-1.74-11.898-2.809-18.128
		c-0.741-1.668-1.115-3.389-1.115-5.127l0.076-0.763c-0.048-0.238-0.076-0.554-0.076-0.871c0-1.647,0.354-3.31,1.054-4.95
		c5.273-31.293,7.93-62.586,7.896-93.027c-0.028-24.184-1.718-48.644-5.026-72.698c-1.055-7.696-2.347-15.768-3.843-23.994
		c-0.052-0.253-0.081-0.575-0.081-0.897c0-9.411,10.809-17.069,24.098-17.069h74.287c13.289,0,24.098,7.657,24.098,17.069
		l-0.061,0.674c-11.42,62.431-11.752,126.324-0.985,189.906c0.694,1.619,1.046,3.293,1.046,4.987l-0.02,1.4
		c0.004,1.733-0.345,3.445-1.039,5.095c-10.745,62.589-10.416,126.454,0.981,189.818l0.059,0.652
		c0.012,4.129-1.996,8.113-5.656,11.216c-4.558,3.867-11.274,6.086-18.422,6.086h-74.287c-13.289,0-24.098-7.656-24.098-17.067
		l0.059-0.661c5.935-33.127,8.926-66.418,8.891-98.95C515.202,415.642,513.512,391.182,510.204,367.125z M628.926,799.214
		c0.694,1.619,1.046,3.293,1.046,4.986l-0.019,1.401c0.003,1.733-0.346,3.445-1.04,5.094
		c-10.745,62.589-10.416,126.454,0.981,189.818l0.06,0.652c0.011,4.129-1.997,8.113-5.657,11.216
		c-4.557,3.867-11.274,6.086-18.422,6.086h-74.286c-13.29,0-24.099-7.656-24.099-17.067l0.059-0.66
		c5.935-33.127,8.926-66.418,8.891-98.951c-0.028-24.183-1.718-48.643-5.026-72.701c-0.795-5.803-1.74-11.898-2.809-18.128
		c-0.74-1.668-1.115-3.389-1.115-5.127l0.076-0.763c-0.048-0.238-0.076-0.555-0.076-0.872c0-1.647,0.354-3.31,1.054-4.95
		c5.273-31.293,7.93-62.586,7.896-93.027c-0.028-24.184-1.718-48.644-5.026-72.699c-1.055-7.695-2.347-15.767-3.843-23.994
		c-0.052-0.254-0.081-0.575-0.081-0.897c0-9.411,10.809-17.069,24.099-17.069h74.286c13.289,0,24.098,7.657,24.098,17.069
		l-0.061,0.674C618.491,671.738,618.16,735.631,628.926,799.214z"/>
	<path fill="#FFF6EB" d="M605.872,809.538c1.938,0,3.81-0.818,4.773-2.041l0.136-0.793c0.098-0.584,0.197-1.169,0.298-1.753
		c-0.103-0.598-0.202-1.197-0.301-1.795l-0.11-0.659c-0.862-1.033-2.582-2-4.796-2h-74.284c-1.061,0-2.096,0.225-2.99,0.651
		c-0.767,0.363-1.375,0.828-1.792,1.361l-0.131,0.779c-0.093,0.559-0.184,1.116-0.281,1.674c0.16,0.887,0.318,1.772,0.472,2.657
		c0.883,0.997,2.579,1.919,4.721,1.919H605.872z"/>
	<path fill="#FFF6EB" d="M608.161,822.827c-0.756,0.051-1.52,0.077-2.287,0.077h-74.286c-0.763,0-1.522-0.025-2.274-0.075
		c0.244,1.642,0.478,3.275,0.699,4.898c3.367,24.481,5.086,49.396,5.113,74.052c0.034,33.055-2.98,66.723-8.955,100.071
		c0.235,1.53,2.566,3.253,5.415,3.253h74.286c2.71,0,5.188-1.613,5.399-3.449C600.563,942.005,599.52,881.88,608.161,822.827z"/>
	<path fill="#FFF6EB" d="M605.872,604.931h-74.284c-2.662,0-5.122,1.578-5.386,3.38c1.455,8.022,2.738,16.044,3.811,23.852
		c3.367,24.48,5.086,49.394,5.113,74.049c0.027,26.696-1.948,53.912-5.872,80.996c0.77-0.051,1.548-0.077,2.334-0.077h74.286
		c0.786,0,1.564,0.027,2.339,0.079c-8.704-59.948-7.673-120.143,3.074-179.033C611.047,606.65,608.719,604.931,605.872,604.931z"/>
	<path fill="#FFF6EB" d="M530.377,543.138h74.286c2.71,0,5.188-1.613,5.399-3.449c-10.709-59.648-11.751-119.774-3.11-178.826
		c-0.756,0.051-1.52,0.077-2.287,0.077h-74.287c-0.762,0-1.521-0.025-2.273-0.075c0.244,1.642,0.478,3.275,0.699,4.898
		c3.367,24.481,5.086,49.396,5.113,74.052c0.034,33.055-2.98,66.723-8.955,100.071C525.196,541.415,527.527,543.138,530.377,543.138
		z"/>
	<path fill="#FFF6EB" d="M604.662,338.532h-74.285c-1.06,0-2.095,0.225-2.989,0.651c-0.767,0.363-1.375,0.828-1.793,1.361
		l-0.13,0.779c-0.093,0.558-0.185,1.116-0.282,1.673c0.16,0.887,0.318,1.772,0.472,2.657c0.883,0.997,2.579,1.919,4.721,1.919
		h74.286c1.937,0,3.81-0.818,4.773-2.041l0.136-0.794c0.098-0.584,0.197-1.169,0.298-1.752c-0.103-0.599-0.202-1.197-0.301-1.796
		l-0.109-0.659C608.597,339.498,606.876,338.532,604.662,338.532z"/>
	<path fill="#FFF6EB" d="M533.916,244.247c0.027,26.696-1.948,53.912-5.872,80.997c0.77-0.051,1.548-0.077,2.333-0.077h74.287
		c0.786,0,1.564,0.027,2.339,0.08c-8.704-59.948-7.673-120.144,3.074-179.034c-0.24-1.527-2.568-3.247-5.414-3.247h-74.285
		c-2.661,0-5.122,1.578-5.385,3.38c1.455,8.022,2.738,16.044,3.811,23.852C532.17,194.677,533.89,219.591,533.916,244.247z"/>
	<path fill="#4D915F" d="M506.28,539.437c0,9.41,10.809,17.067,24.098,17.067h74.287c7.148,0,13.864-2.218,18.422-6.086
		c3.66-3.104,5.668-7.087,5.656-11.216l-0.059-0.652c-11.396-63.365-11.725-127.229-0.981-189.818
		c0.694-1.65,1.043-3.362,1.039-5.095l0.02-1.4c0-1.693-0.352-3.368-1.046-4.987c-10.767-63.583-10.435-127.476,0.985-189.906
		l0.061-0.674c0-9.411-10.809-17.069-24.098-17.069h-74.287c-13.289,0-24.098,7.657-24.098,17.069c0,0.322,0.029,0.644,0.081,0.897
		c1.496,8.227,2.788,16.299,3.843,23.994c3.309,24.055,4.999,48.514,5.026,72.698c0.033,30.44-2.624,61.734-7.896,93.027
		c-0.7,1.64-1.054,3.303-1.054,4.95c0,0.317,0.029,0.633,0.076,0.871l-0.076,0.763c0,1.738,0.374,3.46,1.115,5.127
		c1.069,6.23,2.014,12.325,2.809,18.128c3.309,24.057,4.999,48.517,5.026,72.701c0.035,32.532-2.956,65.823-8.891,98.95
		L506.28,539.437z M530.378,142.966h74.285c2.846,0,5.175,1.719,5.414,3.247c-10.747,58.89-11.778,119.085-3.074,179.034
		c-0.774-0.053-1.552-0.08-2.339-0.08h-74.287c-0.785,0-1.563,0.026-2.333,0.077c3.924-27.084,5.898-54.3,5.872-80.997
		c-0.027-24.655-1.746-49.569-5.113-74.049c-1.073-7.807-2.356-15.83-3.811-23.852C525.255,144.544,527.717,142.966,530.378,142.966
		z M609.869,342.986c-0.101,0.583-0.2,1.168-0.298,1.752l-0.136,0.794c-0.963,1.223-2.836,2.041-4.773,2.041h-74.286
		c-2.142,0-3.838-0.923-4.721-1.919c-0.154-0.885-0.312-1.77-0.472-2.657c0.097-0.557,0.188-1.115,0.282-1.673l0.13-0.779
		c0.418-0.533,1.026-0.998,1.793-1.361c0.894-0.426,1.929-0.651,2.989-0.651h74.285c2.214,0,3.934,0.966,4.796,2l0.109,0.659
		C609.668,341.789,609.767,342.388,609.869,342.986z M533.916,439.814c-0.027-24.656-1.746-49.57-5.113-74.052
		c-0.221-1.623-0.455-3.256-0.699-4.898c0.752,0.05,1.511,0.075,2.273,0.075h74.287c0.767,0,1.531-0.026,2.287-0.077
		c-8.641,59.053-7.599,119.178,3.11,178.826c-0.211,1.835-2.689,3.449-5.399,3.449h-74.286c-2.849,0-5.18-1.723-5.415-3.253
		C530.937,506.537,533.951,472.869,533.916,439.814z"/>
	<path fill="#4D915F" d="M629.972,608.634c0-9.411-10.809-17.069-24.098-17.069h-74.286c-13.29,0-24.099,7.657-24.099,17.069
		c0,0.322,0.029,0.643,0.081,0.897c1.496,8.227,2.788,16.299,3.843,23.994c3.309,24.055,4.999,48.515,5.026,72.699
		c0.033,30.44-2.624,61.734-7.896,93.027c-0.7,1.64-1.054,3.303-1.054,4.95c0,0.317,0.029,0.634,0.076,0.872l-0.076,0.763
		c0,1.738,0.375,3.46,1.115,5.127c1.069,6.23,2.014,12.325,2.809,18.128c3.309,24.058,4.999,48.518,5.026,72.701
		c0.035,32.532-2.956,65.824-8.891,98.951l-0.059,0.66c0,9.411,10.809,17.067,24.099,17.067h74.286
		c7.148,0,13.865-2.218,18.422-6.086c3.66-3.104,5.668-7.087,5.657-11.216l-0.06-0.652c-11.396-63.365-11.725-127.229-0.981-189.818
		c0.694-1.65,1.043-3.361,1.04-5.094l0.019-1.401c0-1.693-0.352-3.368-1.046-4.986c-10.766-63.583-10.435-127.476,0.985-189.906
		L629.972,608.634z M605.872,1005.102h-74.286c-2.849,0-5.18-1.723-5.415-3.253c5.975-33.348,8.989-67.016,8.955-100.071
		c-0.027-24.656-1.746-49.57-5.113-74.052c-0.221-1.623-0.455-3.256-0.699-4.898c0.752,0.05,1.511,0.075,2.274,0.075h74.286
		c0.767,0,1.531-0.026,2.287-0.077c-8.641,59.053-7.599,119.178,3.11,178.826C611.06,1003.489,608.583,1005.102,605.872,1005.102z
		 M526.394,804.962c0.097-0.558,0.188-1.115,0.281-1.674l0.131-0.779c0.417-0.533,1.025-0.998,1.792-1.361
		c0.894-0.426,1.929-0.651,2.99-0.651h74.284c2.214,0,3.934,0.966,4.796,2l0.11,0.659c0.099,0.598,0.198,1.197,0.301,1.795
		c-0.101,0.583-0.2,1.168-0.298,1.753l-0.136,0.793c-0.963,1.223-2.835,2.041-4.773,2.041h-74.286c-2.142,0-3.838-0.923-4.721-1.919
		C526.711,806.733,526.554,805.848,526.394,804.962z M608.213,787.211c-0.774-0.053-1.552-0.079-2.339-0.079h-74.286
		c-0.786,0-1.563,0.026-2.334,0.077c3.924-27.084,5.898-54.3,5.872-80.996c-0.027-24.656-1.746-49.569-5.113-74.049
		c-1.073-7.807-2.356-15.83-3.811-23.852c0.263-1.802,2.724-3.38,5.386-3.38h74.284c2.846,0,5.174,1.719,5.414,3.247
		C600.54,667.067,599.509,727.262,608.213,787.211z"/>
</g>
</svg>
