<?xml version="1.0" encoding="utf-8"?>
<!-- Generator: Adobe Illustrator 23.1.0, SVG Export Plug-In . SVG Version: 6.00 Build 0)  -->
<svg version="1.1" id="Layer_1" xmlns="http://www.w3.org/2000/svg" xmlns:xlink="http://www.w3.org/1999/xlink" x="0px" y="0px"
	 viewBox="0 0 1200 1200" enable-background="new 0 0 1200 1200" xml:space="preserve">
<g>
	<path fill="#C1B6AC" d="M972.273,111.46c8.948,14.905,14.187,32.291,14.187,50.941v852.732c0,54.806-44.428,99.235-99.235,99.235
		H293.493c-17.599,0-34.1-4.628-48.431-12.663c17.346,28.895,48.892,48.294,85.047,48.294h593.732
		c54.807,0,99.235-44.429,99.235-99.235V198.032C1023.078,160.826,1002.571,128.448,972.273,111.46z"/>
	<path fill="#D1C8BF" d="M887.225,1114.369c54.807,0,99.235-44.429,99.235-99.235V162.401c0-18.651-5.239-36.036-14.187-50.941
		c-12.209-20.336-31.426-35.953-54.385-43.411C900.967,56.69,880.495,50,858.428,50H281.944
		c-57.905,0-105.021,45.848-105.021,102.202v833.869c0,24.763,9.108,47.489,24.221,65.196c8.406,21.462,24.016,39.28,43.919,50.439
		c14.331,8.035,30.832,12.663,48.431,12.663H887.225z M192.214,986.071V152.202c0-48.151,40.255-87.321,89.73-87.321h576.484
		c49.475,0,89.73,39.17,89.73,87.321v833.869c0,48.151-40.255,87.321-89.73,87.321H281.944
		C232.469,1073.392,192.214,1034.222,192.214,986.071z"/>
	<path fill="#FFF6EB" d="M281.944,1073.392h576.484c49.475,0,89.73-39.17,89.73-87.321V152.202c0-48.151-40.255-87.321-89.73-87.321
		H281.944c-49.475,0-89.73,39.17-89.73,87.321v833.869C192.214,1034.222,232.469,1073.392,281.944,1073.392z M656.749,285.16
		c-5.211,2.899-8.691,0.966-2.733-3.386c33.049-24.893,50.923-52.205,57.136-68.401c-9.69,2.42-25.58,6.765-35.526,9.911
		c-5.705,1.933-9.438,1.206-18.369-5.319c-4.974-3.626-3.973-5.318,1.239-5.318c12.664,0.247,30.793-2.659,58.376-9.911
		c0-20.78-0.508-26.099-3.987-31.417c-8.931,3.625-16.636,6.285-21.608,7.731c-7.453,2.18-8.692,0.487-2.48-3.139
		c28.313-16.675,39.738-26.586,40.484-30.698c1.24-6.765,3.226-7.252,15.397-0.966c10.44,5.558,11.44,9.671,5.467,11.604
		c-3.226,0.966-11.425,3.865-14.397,5.318c-6.213,2.899-12.171,5.319-17.638,7.731c14.159,5.805,15.144,8.218,11.918,15.469
		c-1.493,3.146-2.734,8.704-3.224,15.956c2.732-0.966,5.465-1.933,8.437-2.659c6.959-1.933,11.186-2.659,14.41,0.727
		c2.987,2.659,0.495,6.525-12.917,9.184c-3.226,0.72-6.453,1.446-10.678,2.413c-1.001,20.061-2.239,69.614-2.239,87.743
		c0,10.39-1.733,21.507-3.974,27.792c-2.734,7.491-7.451,7.491-9.93-0.727c-3.479-11.843-3.226-14.742-0.493-23.687
		c3.464-11.117,6.451-40.362,7.198-76.132C705.94,249.87,689.051,266.305,656.749,285.16z M730.521,237.3
		c12.426-0.24,20.863,2.18,21.61,10.877c0.746,8.218-2.481,10.397-7.691,7.252c-4.72-2.899-10.678-7.731-16.145-12.81
		C724.323,238.993,724.563,237.3,730.521,237.3z M736.494,304.495c32.288-20.061,50.417-50.76,53.643-81.937
		c5.958-58.977,3.972-73.72-0.748-80.971c-3.972-5.798-0.985-8.697,12.426-3.386c12.664,5.079,13.902,8.944,8.945,16.922
		c-0.746,1.206-3.479,18.608-4.72,32.391c-1.001,10.877-3.732,30.211-6.959,46.16c31.793,45.928,43.218,58.011,77.252,70.821
		c5.705,2.18,5.958,5.559-0.255,5.805c-38.244,1.446-41.232-0.487-48.429-13.297c-11.678-20.301-19.877-35.29-30.062-55.591
		c-8.199,32.631-33.286,59.943-59.614,67.194C731.269,310.54,730.028,308.607,736.494,304.495z M761.331,206.609
		c14.903,7.005,16.889,11.844,15.395,18.368c-2.239,8.458-5.72,9.424-9.692,4.832c-4.718-5.558-7.944-12.083-10.423-19.334
		C754.863,205.396,756.611,204.429,761.331,206.609z M814.479,212.647c12.664-10.63,21.369-23.447,21.116-26.826
		c-0.253-6.046,3.479-7.491,12.919,1.693c7.944,7.491,7.198,10.877,1.238,13.289c-3.479,1.453-12.424,5.805-18.382,8.704
		c-6.706,3.139-10.68,4.832-14.159,6.038C812.253,217.239,811.253,215.306,814.479,212.647z M366.156,119.446h35.827
		c0,1.338-0.413,2.402-1.238,3.204c-0.55,0.542-0.894,1.071-1.023,1.606c-0.145,0.535-0.481,1.07-1.032,1.599
		c-0.275,0-0.412,0.14-0.412,0.401l-0.826,0.803l-0.413,0.401c-1.1,1.338-2.055,2.676-2.88,4.007
		c-0.826,1.338-1.788,2.676-2.881,4.008c-4.675,6.148-9.13,12.163-13.386,18.03c-4.263,5.88-8.718,11.895-13.387,18.037
		c-2.468,3.204-4.943,6.483-7.411,9.821c-2.468,3.339-4.944,6.61-7.411,9.814c9.061,2.676,17.429,7.352,25.122,14.029
		c7.136,6.148,12.898,13.36,17.298,21.636c4.387,8.289,7.267,16.973,8.642,26.052c1.375,10.417,0.894,20.639-1.436,30.654
		c-2.338,10.022-6.25,19.442-11.736,28.253c-1.382,2.141-2.956,4.081-4.738,5.813c-1.786,1.74-3.498,3.546-5.15,5.413
		c-2.199,2.141-4.469,4.342-6.792,6.61c-2.337,2.274-4.606,4.476-6.8,6.61c-1.1,0.542-2.055,1.204-2.88,2.007
		c-0.826,0.803-1.788,1.471-2.881,2c-1.1,1.07-1.925,1.746-2.475,2.007c-0.825,0.535-1.719,1.204-2.675,2
		c-0.963,0.803-1.856,1.472-2.675,2.007c-4.943,2.944-10.093,5.546-15.449,7.814c-5.348,2.275-10.911,3.947-16.678,5.011
		c-15.38,2.402-30.341,0.268-44.889-6.416c-2.468-1.331-4.875-2.663-7.206-4.007c-2.337-1.332-4.599-2.803-6.799-4.409
		c-1.375-1.064-2.675-2.201-3.912-3.405c-1.231-1.197-2.124-2.469-2.675-3.807c-0.268-1.063,0.138-2.268,1.237-3.606
		c1.094-1.331,1.918-2.268,2.468-2.803c1.65-2.134,3.431-4.141,5.356-6.015c1.918-1.867,3.974-3.867,6.174-6.008
		c3.3-3.472,7.418-7.219,12.354-11.226c-0.275,0.274-0.137,0.201,0.413-0.194c0.55-0.401,1.237-0.87,2.062-1.405
		c0.826-0.535,1.644-1.003,2.469-1.405c0.824-0.401,1.237-0.462,1.237-0.201c1.369,2.141,3.019,4.007,4.944,5.613
		c6.854,6.148,14.96,10.691,24.296,13.628c9.33,2.937,18.804,4.141,28.416,3.606c5.211-0.267,10.705-1.338,16.473-3.211
		c0.268-0.261,0.681-0.395,1.237-0.395c1.918-5.874,3.149-12.156,3.706-18.839c0.543-8.543,0-16.291-1.65-23.242
		c-3.025-12.825-8.924-24.379-17.703-34.668c-8.794-10.276-19.773-17.428-32.954-21.435c0-0.803,0.413-1.867,1.238-3.204
		l6.181-8.416c4.661-6.148,9.192-12.156,13.584-18.037c4.394-5.874,8.787-11.882,13.181-18.03c3.017-3.74,5.905-7.48,8.648-11.226
		c2.743-3.733,5.624-7.473,8.65-11.219c0.268-0.528,0.55-0.93,0.825-1.204c0.268-0.261,0.543-0.662,0.825-1.197
		c-1.925-0.268-3.781-0.401-5.561-0.401c-1.787,0-3.775,0-5.974,0c-9.612,0-19.086-0.067-28.416-0.201
		c-9.336-0.134-18.811-0.201-28.416-0.201c-6.044,0-12.011,0-17.916,0c-5.907,0-11.874-0.134-17.91-0.401
		c0-0.803,0.413-1.867,1.231-3.205c0.825-0.803,1.505-1.739,2.062-2.81c3.561-4.268,7.411-8.41,11.53-12.417
		c2.193-1.867,4.255-3.74,6.181-5.613c1.918-1.867,3.974-3.606,6.174-5.212c0.825-0.528,1.781-1.264,2.888-2.201
		c1.093-0.936,2.324-1.405,3.706-1.405h13.172c9.612,0.268,19.086,0.401,28.422,0.401
		C347.07,119.044,356.537,119.185,366.156,119.446z M367.733,982.117h-20.655v-6.446h0.039v-19.092l59.727-46.398
		c1.598-1.242,1.86-3.508,0.584-5.064c-1.275-1.554-3.605-1.808-5.203-0.567l-55.109,42.809v-98.378
		c0-1.991-1.658-3.602-3.702-3.602c-2.045,0-3.703,1.612-3.703,3.602v98.378l-55.106-42.809c-1.596-1.242-3.927-0.984-5.203,0.567
		c-1.276,1.556-1.014,3.822,0.584,5.064l59.725,46.398v18.514h-0.202v7.024h-20.606c-42.722-6.443-66.712-40.846-72.972-104.527
		c-0.177-1.788,1.027-3.428,2.819-3.847c24.81-5.792,44.596-3.206,58.988,7.678c-1.515-57.248,31.948-82.504,33.444-83.603
		c1.322-0.969,3.139-0.969,4.461,0c1.495,1.1,34.959,26.356,33.448,83.605c14.391-10.884,34.177-13.472,58.983-7.68
		c1.794,0.419,2.996,2.059,2.821,3.846C434.63,941.361,410.57,975.738,367.733,982.117z M586.28,825.193v81.148
		c0,4.843-4.036,8.768-9.011,8.768c-4.974,0-9.011-3.925-9.011-8.768v-81.177c-135.922,5.779-210.68-78.34-228.24-256.939
		c-0.428-4.35,2.5-8.343,6.864-9.362c60.379-14.095,108.532-7.804,143.561,18.688c-3.685-139.33,77.756-200.798,81.399-203.473
		c3.215-2.357,7.638-2.357,10.853,0c3.643,2.675,85.084,64.146,81.405,203.476c35.029-26.489,83.184-32.788,143.555-18.691
		c4.366,1.019,7.293,5.012,6.863,9.36c-16.988,172.868-87.506,257.276-215.285,257.28
		C594.988,825.503,590.654,825.38,586.28,825.193z M835.44,982.117h-20.655v-6.446h0.038v-19.092l59.728-46.398
		c1.598-1.242,1.86-3.508,0.584-5.064c-1.276-1.554-3.605-1.808-5.203-0.567l-55.11,42.809v-98.378c0-1.991-1.657-3.602-3.702-3.602
		c-2.043,0-3.702,1.612-3.702,3.602v98.378l-55.106-42.809c-1.596-1.242-3.926-0.984-5.203,0.567
		c-1.276,1.556-1.014,3.822,0.584,5.064l59.725,46.398v18.514h-0.202v7.024h-20.606c-42.722-6.443-66.712-40.846-72.972-104.527
		c-0.177-1.788,1.027-3.428,2.819-3.847c24.81-5.792,44.596-3.206,58.988,7.678c-1.516-57.248,31.949-82.504,33.444-83.603
		c1.322-0.969,3.139-0.969,4.461,0c1.495,1.1,34.959,26.356,33.448,83.605c14.391-10.884,34.177-13.472,58.983-7.68
		c1.794,0.419,2.996,2.059,2.821,3.846C902.337,941.361,878.276,975.738,835.44,982.117z"/>
	<path fill="#FFF6EB" d="M733.063,635.221c-3.105-3.782-8.771-4.401-12.662-1.382L586.28,738.029V498.597
		c0-4.844-4.036-8.769-9.011-8.769c-4.974,0-9.011,3.925-9.011,8.769v239.432L434.142,633.839
		c-3.884-3.023-9.556-2.395-12.661,1.382c-3.108,3.785-2.469,9.302,1.421,12.325l145.356,112.921v46.468h18.022v-46.468
		l145.363-112.921C735.532,644.523,736.171,639.006,733.063,635.221z"/>
	<path fill="#399E67" d="M814.519,568.224c0.43-4.348-2.498-8.341-6.863-9.36c-60.371-14.097-108.526-7.798-143.555,18.691
		c3.679-139.33-77.762-200.801-81.405-203.476c-3.215-2.357-7.638-2.357-10.853,0c-3.643,2.675-85.084,64.143-81.399,203.473
		c-35.029-26.491-83.182-32.782-143.561-18.688c-4.365,1.019-7.292,5.012-6.864,9.362c17.56,178.599,92.318,262.718,228.24,256.939
		v81.177c0,4.843,4.037,8.768,9.011,8.768c4.975,0,9.011-3.925,9.011-8.768v-81.148c4.374,0.186,8.708,0.31,12.954,0.31
		C727.013,825.5,797.531,741.091,814.519,568.224z M586.28,760.467v46.468h-18.022v-46.468L422.902,647.546
		c-3.89-3.023-4.529-8.54-1.421-12.325c3.105-3.776,8.777-4.404,12.661-1.382l134.116,104.189V498.597
		c0-4.844,4.037-8.769,9.011-8.769c4.975,0,9.011,3.925,9.011,8.769v239.432l134.121-104.19c3.89-3.02,9.557-2.401,12.662,1.382
		c3.108,3.785,2.469,9.302-1.419,12.325L586.28,760.467z"/>
	<path fill="#DF943B" d="M905.784,873.743c-24.806-5.792-44.592-3.204-58.983,7.68c1.51-57.248-31.953-82.505-33.448-83.605
		c-1.322-0.969-3.139-0.969-4.461,0c-1.495,1.1-34.96,26.355-33.444,83.603c-14.393-10.884-34.179-13.47-58.988-7.678
		c-1.792,0.419-2.996,2.059-2.819,3.847c6.26,63.68,30.25,98.083,72.972,104.527h20.606v-7.024h0.202v-18.514l-59.725-46.398
		c-1.598-1.242-1.86-3.508-0.584-5.064c1.276-1.551,3.607-1.81,5.203-0.567l55.106,42.809v-98.378c0-1.991,1.659-3.602,3.702-3.602
		c2.045,0,3.702,1.612,3.702,3.602v98.378l55.11-42.809c1.598-1.241,3.926-0.987,5.203,0.567c1.276,1.556,1.014,3.822-0.584,5.064
		l-59.728,46.398v19.092h-0.038v6.446h20.655c42.836-6.379,66.896-40.757,73.164-104.528
		C908.78,875.803,907.578,874.162,905.784,873.743z"/>
	<path fill="#DF943B" d="M438.077,873.743c-24.806-5.792-44.592-3.204-58.983,7.68c1.51-57.248-31.953-82.505-33.448-83.605
		c-1.322-0.969-3.139-0.969-4.461,0c-1.496,1.1-34.96,26.355-33.444,83.603c-14.393-10.884-34.179-13.47-58.988-7.678
		c-1.792,0.419-2.996,2.059-2.819,3.847c6.26,63.68,30.25,98.083,72.972,104.527h20.606v-7.024h0.202v-18.514l-59.725-46.398
		c-1.598-1.242-1.86-3.508-0.584-5.064c1.275-1.551,3.607-1.81,5.203-0.567l55.106,42.809v-98.378c0-1.991,1.658-3.602,3.703-3.602
		c2.044,0,3.702,1.612,3.702,3.602v98.378l55.109-42.809c1.598-1.241,3.927-0.987,5.203,0.567c1.276,1.556,1.014,3.822-0.584,5.064
		l-59.727,46.398v19.092h-0.039v6.446h20.655c42.837-6.379,66.896-40.757,73.164-104.528
		C441.073,875.803,439.871,874.162,438.077,873.743z"/>
	<path fill="#1B669E" d="M296.145,118.643c-1.382,0-2.613,0.468-3.706,1.405c-1.107,0.937-2.063,1.673-2.888,2.201
		c-2.2,1.606-4.255,3.345-6.174,5.212c-1.925,1.873-3.987,3.747-6.181,5.613c-4.118,4.007-7.969,8.148-11.53,12.417
		c-0.557,1.071-1.237,2.007-2.062,2.81c-0.818,1.338-1.231,2.402-1.231,3.205c6.036,0.267,12.004,0.401,17.91,0.401
		c5.905,0,11.872,0,17.916,0c9.605,0,19.079,0.067,28.416,0.201c9.33,0.134,18.803,0.201,28.416,0.201c2.199,0,4.187,0,5.974,0
		c1.781,0,3.636,0.134,5.561,0.401c-0.282,0.535-0.556,0.936-0.825,1.197c-0.275,0.274-0.556,0.676-0.825,1.204
		c-3.026,3.747-5.907,7.487-8.65,11.219c-2.743,3.747-5.631,7.486-8.648,11.226c-4.394,6.148-8.787,12.156-13.181,18.03
		c-4.392,5.88-8.924,11.888-13.584,18.037l-6.181,8.416c-0.826,1.338-1.238,2.402-1.238,3.204
		c13.18,4.007,24.159,11.159,32.954,21.435c8.779,10.29,14.678,21.844,17.703,34.668c1.65,6.951,2.193,14.699,1.65,23.242
		c-0.556,6.683-1.787,12.966-3.706,18.839c-0.556,0-0.969,0.134-1.237,0.395c-5.768,1.873-11.262,2.944-16.473,3.211
		c-9.611,0.535-19.086-0.669-28.416-3.606c-9.336-2.937-17.442-7.48-24.296-13.628c-1.925-1.606-3.575-3.472-4.944-5.613
		c0-0.261-0.413-0.201-1.237,0.201c-0.826,0.401-1.644,0.869-2.469,1.405c-0.825,0.535-1.512,1.003-2.062,1.405
		c-0.55,0.395-0.688,0.468-0.413,0.194c-4.936,4.007-9.055,7.754-12.354,11.226c-2.2,2.141-4.256,4.141-6.174,6.008
		c-1.925,1.873-3.706,3.88-5.356,6.015c-0.55,0.535-1.374,1.472-2.468,2.803c-1.1,1.338-1.506,2.542-1.237,3.606
		c0.551,1.338,1.444,2.609,2.675,3.807c1.237,1.204,2.537,2.341,3.912,3.405c2.2,1.606,4.462,3.077,6.799,4.409
		c2.331,1.344,4.738,2.676,7.206,4.007c14.548,6.684,29.508,8.818,44.889,6.416c5.768-1.064,11.33-2.736,16.678-5.011
		c5.356-2.268,10.505-4.87,15.449-7.814c0.819-0.535,1.712-1.204,2.675-2.007c0.956-0.796,1.85-1.465,2.675-2
		c0.55-0.261,1.374-0.937,2.475-2.007c1.093-0.529,2.055-1.198,2.881-2c0.825-0.803,1.781-1.465,2.88-2.007
		c2.193-2.134,4.463-4.335,6.8-6.61c2.324-2.268,4.593-4.469,6.792-6.61c1.651-1.867,3.363-3.673,5.15-5.413
		c1.781-1.733,3.356-3.673,4.738-5.813c5.486-8.811,9.398-18.231,11.736-28.253c2.33-10.015,2.812-20.238,1.436-30.654
		c-1.375-9.079-4.255-17.762-8.642-26.052c-4.4-8.275-10.161-15.488-17.298-21.636c-7.693-6.677-16.061-11.353-25.122-14.029
		c2.467-3.204,4.943-6.476,7.411-9.814c2.468-3.339,4.943-6.617,7.411-9.821c4.668-6.142,9.123-12.156,13.387-18.037
		c4.255-5.867,8.711-11.882,13.386-18.03c1.093-1.332,2.055-2.669,2.881-4.008c0.825-1.331,1.781-2.669,2.88-4.007l0.413-0.401
		l0.826-0.803c0-0.261,0.137-0.401,0.412-0.401c0.551-0.529,0.887-1.064,1.032-1.599c0.129-0.535,0.474-1.064,1.023-1.606
		c0.826-0.803,1.238-1.866,1.238-3.204h-35.827c-9.619-0.261-19.086-0.401-28.416-0.401c-9.336,0-18.81-0.134-28.422-0.401H296.145z
		"/>
	<path fill="#1B669E" d="M817.211,215.546c3.479-1.207,7.453-2.899,14.159-6.038c5.958-2.899,14.903-7.251,18.382-8.704
		c5.96-2.412,6.706-5.798-1.238-13.289c-9.439-9.184-13.172-7.739-12.919-1.693c0.253,3.378-8.452,16.196-21.116,26.826
		C811.253,215.306,812.253,217.239,817.211,215.546z"/>
	<path fill="#1B669E" d="M709.913,324.796c2.479,8.218,7.196,8.218,9.93,0.727c2.241-6.285,3.974-17.402,3.974-27.792
		c0-18.128,1.238-67.681,2.239-87.743c4.225-0.966,7.451-1.693,10.678-2.413c13.411-2.659,15.903-6.524,12.917-9.184
		c-3.224-3.386-7.451-2.659-14.41-0.727c-2.971,0.727-5.705,1.693-8.437,2.659c0.491-7.252,1.731-12.81,3.224-15.956
		c3.226-7.251,2.241-9.664-11.918-15.469c5.467-2.412,11.425-4.832,17.638-7.731c2.971-1.453,11.17-4.352,14.397-5.318
		c5.973-1.933,4.973-6.046-5.467-11.604c-12.171-6.285-14.157-5.798-15.397,0.966c-0.746,4.112-12.171,14.023-40.484,30.698
		c-6.212,3.626-4.974,5.319,2.48,3.139c4.973-1.446,12.677-4.106,21.608-7.731c3.479,5.318,3.987,10.637,3.987,31.417
		c-27.582,7.252-45.712,10.158-58.376,9.911c-5.212,0-6.213,1.693-1.239,5.318c8.93,6.525,12.664,7.252,18.369,5.319
		c9.946-3.146,25.836-7.491,35.526-9.911c-6.213,16.196-24.087,43.508-57.136,68.401c-5.958,4.352-2.479,6.285,2.733,3.386
		c32.302-18.855,49.191-35.291,59.87-60.184c-0.748,35.77-3.734,65.015-7.198,76.132
		C706.687,310.053,706.434,312.952,709.913,324.796z"/>
	<path fill="#1B669E" d="M776.726,224.977c1.493-6.524-0.493-11.363-15.395-18.368c-4.72-2.18-6.468-1.213-4.72,3.865
		c2.479,7.252,5.705,13.776,10.423,19.334C771.006,234.401,774.487,233.434,776.726,224.977z"/>
	<path fill="#1B669E" d="M737.974,308.607c26.328-7.251,51.415-34.563,59.614-67.194c10.185,20.301,18.384,35.29,30.062,55.591
		c7.196,12.81,10.185,14.743,48.429,13.297c6.213-0.247,5.96-3.626,0.255-5.805c-34.034-12.81-45.459-24.893-77.252-70.821
		c3.226-15.948,5.958-35.283,6.959-46.16c1.24-13.784,3.974-31.185,4.72-32.391c4.957-7.978,3.719-11.843-8.945-16.922
		c-13.411-5.311-16.398-2.412-12.426,3.386c4.72,7.251,6.706,21.994,0.748,80.971c-3.226,31.178-21.355,61.876-53.643,81.937
		C730.028,308.607,731.269,310.54,737.974,308.607z"/>
	<path fill="#1B669E" d="M728.295,242.619c5.467,5.079,11.425,9.911,16.145,12.81c5.21,3.146,8.437,0.966,7.691-7.252
		c-0.748-8.697-9.184-11.117-21.61-10.877C724.563,237.3,724.323,238.993,728.295,242.619z"/>
</g>
</svg>
