<?xml version="1.0" encoding="utf-8"?>
<!-- Generator: Adobe Illustrator 23.1.0, SVG Export Plug-In . SVG Version: 6.00 Build 0)  -->
<svg version="1.1" id="Layer_1" xmlns="http://www.w3.org/2000/svg" xmlns:xlink="http://www.w3.org/1999/xlink" x="0px" y="0px"
	 viewBox="0 0 1200 1200" enable-background="new 0 0 1200 1200" xml:space="preserve">
<g>
	<path fill="#C1B6AC" d="M972.196,111.594c8.947,14.904,14.186,32.286,14.186,50.935v852.623c0,54.799-44.422,99.223-99.223,99.223
		H293.503c-17.596,0-34.094-4.627-48.424-12.661c17.345,28.891,48.887,48.288,85.037,48.288h593.656
		c54.798,0,99.223-44.423,99.223-99.223V198.155C1022.994,160.953,1002.49,128.579,972.196,111.594z"/>
	<path fill="#D1C8BF" d="M887.159,1114.374c54.8,0,99.223-44.423,99.223-99.223V162.528c0-18.648-5.238-36.031-14.186-50.935
		c-12.19-20.305-31.369-35.902-54.285-43.371C901.177,56.746,880.956,50,859.176,50H281.145
		c-57.423,0-104.139,46.716-104.139,104.138v830.146c0,25.173,8.985,48.285,23.909,66.309c8.339,21.763,24.053,39.842,44.164,51.118
		c14.33,8.034,30.828,12.661,48.424,12.661H887.159z M192.169,984.285V154.138c0-49.063,39.913-88.976,88.976-88.976h578.031
		c49.062,0,88.974,39.912,88.974,88.976v830.146c0,49.06-39.913,88.972-88.974,88.972H281.145
		C232.082,1073.257,192.169,1033.345,192.169,984.285z"/>
	<path fill="#FFF6EB" d="M281.145,1073.257h578.031c49.062,0,88.974-39.912,88.974-88.972V154.138
		c0-49.063-39.913-88.976-88.974-88.976H281.145c-49.063,0-88.976,39.912-88.976,88.976v830.146
		C192.169,1033.345,232.082,1073.257,281.145,1073.257z M535.522,795.032c0.696,1.627,1.052,3.311,1.052,5.013l-0.021,1.408
		c0.004,1.743-0.346,3.463-1.046,5.122c-10.802,62.927-10.471,127.137,0.987,190.843l0.059,0.656
		c0.011,4.151-2.009,8.156-5.687,11.277c-4.582,3.888-11.334,6.118-18.522,6.118h-74.686c-13.36,0-24.228-7.697-24.228-17.159
		l0.059-0.664c5.967-33.305,8.976-66.777,8.94-99.485c-0.029-24.314-1.727-48.906-5.054-73.093
		c-0.799-5.834-1.75-11.962-2.825-18.225c-0.744-1.677-1.12-3.408-1.12-5.156l0.076-0.767c-0.048-0.239-0.076-0.558-0.076-0.876
		c0-1.656,0.356-3.328,1.059-4.976c5.301-31.462,7.973-62.924,7.939-93.529c-0.029-24.314-1.727-48.906-5.054-73.091
		c-1.061-7.738-2.36-15.853-3.863-24.124c-0.053-0.255-0.082-0.579-0.082-0.903c0-9.462,10.868-17.16,24.228-17.16h74.686
		c13.362,0,24.23,7.698,24.23,17.16l-0.063,0.678C525.031,666.868,524.698,731.106,535.522,795.032z M535.522,330.573
		c0.696,1.627,1.052,3.311,1.052,5.013l-0.021,1.408c0.004,1.742-0.346,3.463-1.046,5.122
		c-10.802,62.927-10.471,127.136,0.987,190.843l0.059,0.656c0.011,4.151-2.009,8.156-5.687,11.277
		c-4.582,3.888-11.334,6.118-18.522,6.118h-74.686c-13.36,0-24.228-7.698-24.228-17.159l0.059-0.664
		c5.967-33.305,8.976-66.777,8.94-99.485c-0.029-24.314-1.727-48.906-5.054-73.093c-0.799-5.834-1.75-11.962-2.825-18.226
		c-0.744-1.677-1.12-3.408-1.12-5.155l0.076-0.767c-0.048-0.239-0.076-0.558-0.076-0.876c0-1.656,0.356-3.328,1.059-4.977
		c5.301-31.461,7.973-62.924,7.939-93.529c-0.029-24.314-1.727-48.906-5.054-73.091c-1.061-7.737-2.36-15.852-3.863-24.123
		c-0.053-0.255-0.082-0.579-0.082-0.903c0-9.462,10.868-17.16,24.228-17.16h74.686c13.362,0,24.23,7.698,24.23,17.16l-0.063,0.678
		C525.031,202.409,524.698,266.647,535.522,330.573z M713.201,795.032c0.698,1.627,1.052,3.311,1.052,5.013l-0.021,1.408
		c0.004,1.743-0.346,3.463-1.046,5.122c-10.802,62.927-10.471,127.137,0.987,190.843l0.059,0.656
		c0.011,4.151-2.007,8.156-5.685,11.277c-4.584,3.888-11.336,6.118-18.522,6.118h-74.688c-13.36,0-24.228-7.697-24.228-17.159
		l0.059-0.664c5.967-33.305,8.976-66.777,8.94-99.485c-0.027-24.314-1.727-48.906-5.054-73.093
		c-0.799-5.834-1.75-11.962-2.825-18.225c-0.744-1.677-1.12-3.408-1.12-5.156l0.076-0.767c-0.048-0.239-0.076-0.558-0.076-0.876
		c0-1.656,0.356-3.328,1.059-4.976c5.301-31.462,7.973-62.924,7.939-93.529c-0.027-24.314-1.727-48.906-5.054-73.091
		c-1.059-7.738-2.359-15.853-3.863-24.124c-0.053-0.255-0.082-0.579-0.082-0.903c0-9.462,10.868-17.16,24.228-17.16h74.688
		c13.36,0,24.228,7.698,24.228,17.16l-0.061,0.678C702.709,666.868,702.376,731.106,713.201,795.032z M713.201,330.573
		c0.698,1.627,1.052,3.311,1.052,5.013l-0.021,1.408c0.004,1.742-0.346,3.463-1.046,5.122
		c-10.802,62.927-10.471,127.136,0.987,190.843l0.059,0.656c0.011,4.151-2.007,8.156-5.685,11.277
		c-4.584,3.888-11.336,6.118-18.522,6.118h-74.688c-13.36,0-24.228-7.698-24.228-17.159l0.059-0.664
		c5.967-33.305,8.976-66.777,8.94-99.485c-0.027-24.314-1.727-48.906-5.054-73.093c-0.799-5.834-1.75-11.962-2.825-18.226
		c-0.744-1.677-1.12-3.408-1.12-5.155l0.076-0.767c-0.048-0.239-0.076-0.558-0.076-0.876c0-1.656,0.356-3.328,1.059-4.977
		c5.301-31.461,7.973-62.924,7.939-93.529c-0.027-24.314-1.727-48.906-5.054-73.091c-1.059-7.737-2.359-15.852-3.863-24.123
		c-0.053-0.255-0.082-0.579-0.082-0.903c0-9.462,10.868-17.16,24.228-17.16h74.688c13.36,0,24.228,7.698,24.228,17.16l-0.061,0.678
		C702.709,202.409,702.376,266.647,713.201,330.573z"/>
	<path fill="#FFF6EB" d="M512.344,340.953c1.948,0,3.831-0.823,4.799-2.052l0.135-0.797c0.099-0.587,0.198-1.175,0.3-1.762
		c-0.103-0.602-0.202-1.204-0.302-1.806l-0.112-0.662c-0.864-1.039-2.594-2.01-4.82-2.01h-74.686c-1.065,0-2.107,0.226-3.005,0.654
		c-0.77,0.365-1.385,0.832-1.803,1.369l-0.129,0.783c-0.095,0.561-0.186,1.122-0.283,1.682c0.16,0.892,0.318,1.781,0.474,2.671
		c0.886,1.002,2.592,1.93,4.746,1.93H512.344z"/>
	<path fill="#FFF6EB" d="M512.344,599.699h-74.686c-2.676,0-5.151,1.587-5.413,3.398c1.463,8.065,2.75,16.131,3.831,23.98
		c3.384,24.613,5.113,49.661,5.139,74.45c0.029,26.84-1.957,54.203-5.902,81.433c0.774-0.051,1.558-0.077,2.345-0.077h74.686
		c0.791,0,1.575,0.027,2.353,0.08c-8.751-60.272-7.715-120.792,3.089-180C517.546,601.428,515.205,599.699,512.344,599.699z"/>
	<path fill="#FFF6EB" d="M514.643,818.772c-0.759,0.051-1.527,0.077-2.3,0.077h-74.686c-0.767,0-1.529-0.025-2.286-0.076
		c0.245,1.651,0.481,3.293,0.704,4.924c3.384,24.614,5.113,49.663,5.139,74.452c0.034,33.234-2.994,67.084-9.004,100.612
		c0.238,1.538,2.581,3.27,5.446,3.27h74.688c2.724,0,5.215-1.622,5.427-3.468C507.005,938.594,505.957,878.144,514.643,818.772z"/>
	<path fill="#FFF6EB" d="M512.344,805.411c1.948,0,3.831-0.823,4.799-2.052l0.135-0.798c0.099-0.587,0.198-1.175,0.3-1.762
		c-0.103-0.602-0.202-1.204-0.302-1.805l-0.112-0.662c-0.864-1.039-2.594-2.01-4.82-2.01h-74.686c-1.065,0-2.107,0.226-3.005,0.654
		c-0.77,0.365-1.385,0.832-1.803,1.369l-0.129,0.783c-0.095,0.561-0.186,1.122-0.283,1.682c0.16,0.892,0.318,1.782,0.474,2.671
		c0.886,1.002,2.592,1.93,4.746,1.93H512.344z"/>
	<path fill="#FFF6EB" d="M514.643,354.314c-0.759,0.051-1.527,0.077-2.3,0.077h-74.686c-0.767,0-1.529-0.025-2.286-0.076
		c0.245,1.651,0.481,3.293,0.704,4.924c3.384,24.614,5.113,49.663,5.139,74.452c0.034,33.234-2.994,67.084-9.004,100.612
		c0.238,1.538,2.581,3.27,5.446,3.27h74.688c2.724,0,5.215-1.622,5.427-3.467C507.005,474.135,505.957,413.685,514.643,354.314z"/>
	<path fill="#FFF6EB" d="M692.324,354.314c-0.761,0.051-1.529,0.077-2.3,0.077h-74.688c-0.766,0-1.529-0.025-2.286-0.076
		c0.247,1.651,0.481,3.293,0.704,4.924c3.386,24.614,5.113,49.663,5.139,74.452c0.034,33.234-2.994,67.084-9.002,100.612
		c0.236,1.538,2.579,3.27,5.444,3.27h74.688c2.724,0,5.215-1.622,5.428-3.467C684.683,474.135,683.635,413.685,692.324,354.314z"/>
	<path fill="#FFF6EB" d="M690.022,340.953c1.948,0,3.831-0.823,4.799-2.052l0.137-0.797c0.097-0.587,0.196-1.175,0.299-1.762
		c-0.103-0.602-0.202-1.204-0.302-1.806l-0.11-0.662c-0.865-1.039-2.596-2.01-4.822-2.01h-74.686c-1.065,0-2.107,0.226-3.005,0.654
		c-0.77,0.365-1.383,0.832-1.803,1.369l-0.129,0.783c-0.095,0.561-0.186,1.122-0.283,1.682c0.16,0.892,0.318,1.781,0.474,2.671
		c0.886,1.002,2.594,1.93,4.746,1.93H690.022z"/>
	<path fill="#FFF6EB" d="M690.022,599.699h-74.686c-2.674,0-5.151,1.587-5.413,3.398c1.463,8.065,2.752,16.131,3.831,23.98
		c3.386,24.613,5.113,49.661,5.139,74.45c0.029,26.84-1.957,54.203-5.902,81.433c0.774-0.051,1.558-0.077,2.345-0.077h74.688
		c0.789,0,1.573,0.027,2.351,0.08c-8.751-60.272-7.713-120.792,3.091-180C695.224,601.428,692.883,599.699,690.022,599.699z"/>
	<path fill="#FFF6EB" d="M512.344,135.241h-74.686c-2.676,0-5.151,1.587-5.413,3.398c1.463,8.065,2.75,16.131,3.831,23.98
		c3.384,24.612,5.113,49.661,5.139,74.449c0.029,26.84-1.957,54.203-5.902,81.434c0.774-0.051,1.558-0.077,2.345-0.077h74.686
		c0.791,0,1.575,0.027,2.353,0.08c-8.751-60.272-7.715-120.792,3.089-180C517.546,136.97,515.205,135.241,512.344,135.241z"/>
	<path fill="#FFF6EB" d="M690.022,135.241h-74.686c-2.674,0-5.151,1.587-5.413,3.398c1.463,8.065,2.752,16.131,3.831,23.98
		c3.386,24.612,5.113,49.661,5.139,74.449c0.029,26.84-1.957,54.203-5.902,81.434c0.774-0.051,1.558-0.077,2.345-0.077h74.688
		c0.789,0,1.573,0.027,2.351,0.08c-8.751-60.272-7.713-120.792,3.091-180C695.224,136.97,692.883,135.241,690.022,135.241z"/>
	<path fill="#FFF6EB" d="M690.022,805.411c1.948,0,3.831-0.823,4.799-2.052l0.137-0.798c0.097-0.587,0.196-1.175,0.299-1.762
		c-0.103-0.602-0.202-1.204-0.302-1.805l-0.11-0.662c-0.865-1.039-2.596-2.01-4.822-2.01h-74.686c-1.065,0-2.107,0.226-3.005,0.654
		c-0.77,0.365-1.383,0.832-1.803,1.369l-0.129,0.783c-0.095,0.561-0.186,1.122-0.283,1.682c0.16,0.892,0.318,1.782,0.474,2.671
		c0.886,1.002,2.594,1.93,4.746,1.93H690.022z"/>
	<path fill="#FFF6EB" d="M692.324,818.772c-0.761,0.051-1.529,0.077-2.3,0.077h-74.688c-0.766,0-1.529-0.025-2.286-0.076
		c0.247,1.651,0.481,3.293,0.704,4.924c3.386,24.614,5.113,49.663,5.139,74.452c0.034,33.234-2.994,67.084-9.002,100.612
		c0.236,1.538,2.579,3.27,5.444,3.27h74.688c2.724,0,5.215-1.622,5.428-3.468C684.683,938.594,683.635,878.144,692.324,818.772z"/>
	<path fill="#4D915F" d="M536.574,603.423c0-9.462-10.868-17.16-24.23-17.16h-74.686c-13.36,0-24.228,7.698-24.228,17.16
		c0,0.324,0.029,0.647,0.082,0.903c1.503,8.271,2.802,16.386,3.863,24.124c3.327,24.185,5.025,48.776,5.054,73.091
		c0.034,30.605-2.638,62.067-7.939,93.529c-0.704,1.649-1.059,3.32-1.059,4.976c0,0.319,0.029,0.637,0.076,0.876l-0.076,0.767
		c0,1.747,0.377,3.478,1.12,5.156c1.075,6.263,2.026,12.391,2.825,18.225c3.327,24.187,5.025,48.779,5.054,73.093
		c0.036,32.708-2.973,66.179-8.94,99.485l-0.059,0.664c0,9.462,10.868,17.159,24.228,17.159h74.686c7.188,0,13.94-2.23,18.522-6.118
		c3.679-3.12,5.699-7.126,5.687-11.277l-0.059-0.656c-11.458-63.706-11.789-127.916-0.987-190.843c0.7-1.659,1.05-3.38,1.046-5.122
		l0.021-1.408c0-1.702-0.356-3.386-1.052-5.013c-10.825-63.926-10.492-128.164,0.989-190.932L536.574,603.423z M512.344,1002.032
		h-74.688c-2.865,0-5.208-1.732-5.446-3.27c6.01-33.529,9.039-67.378,9.004-100.612c-0.027-24.789-1.756-49.838-5.139-74.452
		c-0.223-1.631-0.458-3.273-0.704-4.924c0.757,0.05,1.52,0.076,2.286,0.076h74.686c0.772,0,1.541-0.026,2.3-0.077
		c-8.687,59.371-7.639,119.822,3.127,179.792C517.559,1000.41,515.068,1002.032,512.344,1002.032z M432.437,800.81
		c0.097-0.561,0.188-1.121,0.283-1.682l0.129-0.783c0.418-0.536,1.033-1.003,1.803-1.369c0.898-0.428,1.94-0.654,3.005-0.654h74.686
		c2.225,0,3.956,0.971,4.82,2.01l0.112,0.662c0.101,0.602,0.2,1.203,0.302,1.805c-0.103,0.586-0.202,1.174-0.3,1.762l-0.135,0.798
		c-0.968,1.229-2.851,2.052-4.799,2.052h-74.688c-2.153,0-3.859-0.927-4.746-1.93C432.754,802.592,432.596,801.702,432.437,800.81z
		 M514.697,782.964c-0.778-0.053-1.562-0.08-2.353-0.08h-74.686c-0.787,0-1.571,0.026-2.345,0.077
		c3.945-27.23,5.931-54.593,5.902-81.433c-0.027-24.789-1.756-49.837-5.139-74.45c-1.08-7.849-2.368-15.915-3.831-23.98
		c0.262-1.812,2.737-3.398,5.413-3.398h74.686c2.861,0,5.202,1.729,5.442,3.264C506.982,662.172,505.945,722.692,514.697,782.964z"
		/>
	<path fill="#4D915F" d="M714.253,603.423c0-9.462-10.868-17.16-24.228-17.16h-74.688c-13.36,0-24.228,7.698-24.228,17.16
		c0,0.324,0.029,0.647,0.082,0.903c1.505,8.271,2.804,16.386,3.863,24.124c3.327,24.185,5.027,48.776,5.054,73.091
		c0.034,30.605-2.638,62.067-7.939,93.529c-0.704,1.649-1.059,3.32-1.059,4.976c0,0.319,0.029,0.637,0.076,0.876l-0.076,0.767
		c0,1.747,0.377,3.478,1.12,5.156c1.075,6.263,2.026,12.391,2.825,18.225c3.327,24.187,5.027,48.779,5.054,73.093
		c0.036,32.708-2.973,66.179-8.94,99.485l-0.059,0.664c0,9.462,10.868,17.159,24.228,17.159h74.688
		c7.186,0,13.938-2.23,18.522-6.118c3.679-3.12,5.697-7.126,5.685-11.277l-0.059-0.656c-11.458-63.706-11.789-127.916-0.987-190.843
		c0.7-1.659,1.05-3.38,1.046-5.122l0.021-1.408c0-1.702-0.354-3.386-1.052-5.013c-10.825-63.926-10.492-128.164,0.991-190.932
		L714.253,603.423z M690.022,1002.032h-74.688c-2.865,0-5.208-1.732-5.444-3.27c6.009-33.529,9.037-67.378,9.002-100.612
		c-0.027-24.789-1.754-49.838-5.139-74.452c-0.223-1.631-0.457-3.273-0.704-4.924c0.757,0.05,1.52,0.076,2.286,0.076h74.688
		c0.77,0,1.539-0.026,2.3-0.077c-8.689,59.371-7.641,119.822,3.127,179.792C695.238,1000.41,692.746,1002.032,690.022,1002.032z
		 M610.115,800.81c0.097-0.561,0.188-1.121,0.283-1.682l0.129-0.783c0.42-0.536,1.033-1.003,1.803-1.369
		c0.898-0.428,1.94-0.654,3.005-0.654h74.686c2.225,0,3.956,0.971,4.822,2.01l0.11,0.662c0.101,0.602,0.2,1.203,0.302,1.805
		c-0.103,0.586-0.202,1.174-0.299,1.762l-0.137,0.798c-0.968,1.229-2.851,2.052-4.799,2.052h-74.688
		c-2.151,0-3.859-0.927-4.746-1.93C610.433,802.592,610.275,801.702,610.115,800.81z M692.375,782.964
		c-0.778-0.053-1.562-0.08-2.351-0.08h-74.688c-0.787,0-1.571,0.026-2.345,0.077c3.945-27.23,5.931-54.593,5.902-81.433
		c-0.027-24.789-1.754-49.837-5.139-74.45c-1.078-7.849-2.368-15.915-3.831-23.98c0.262-1.812,2.739-3.398,5.413-3.398h74.686
		c2.861,0,5.202,1.729,5.444,3.264C684.662,662.172,683.624,722.692,692.375,782.964z"/>
	<path fill="#4D915F" d="M536.574,138.964c0-9.462-10.868-17.16-24.23-17.16h-74.686c-13.36,0-24.228,7.698-24.228,17.16
		c0,0.324,0.029,0.647,0.082,0.903c1.503,8.271,2.802,16.386,3.863,24.123c3.327,24.185,5.025,48.777,5.054,73.091
		c0.034,30.605-2.638,62.067-7.939,93.529c-0.704,1.649-1.059,3.321-1.059,4.977c0,0.319,0.029,0.637,0.076,0.876l-0.076,0.767
		c0,1.747,0.377,3.478,1.12,5.155c1.075,6.264,2.026,12.392,2.825,18.226c3.327,24.187,5.025,48.779,5.054,73.093
		c0.036,32.708-2.973,66.179-8.94,99.485l-0.059,0.664c0,9.461,10.868,17.159,24.228,17.159h74.686c7.188,0,13.94-2.23,18.522-6.118
		c3.679-3.12,5.699-7.126,5.687-11.277l-0.059-0.656c-11.458-63.707-11.789-127.917-0.987-190.843c0.7-1.659,1.05-3.38,1.046-5.122
		l0.021-1.408c0-1.702-0.356-3.386-1.052-5.013c-10.825-63.926-10.492-128.164,0.989-190.932L536.574,138.964z M512.344,537.573
		h-74.688c-2.865,0-5.208-1.732-5.446-3.27c6.01-33.528,9.039-67.378,9.004-100.612c-0.027-24.789-1.756-49.838-5.139-74.452
		c-0.223-1.632-0.458-3.273-0.704-4.924c0.757,0.05,1.52,0.076,2.286,0.076h74.686c0.772,0,1.541-0.026,2.3-0.077
		c-8.687,59.371-7.639,119.821,3.127,179.792C517.559,535.951,515.068,537.573,512.344,537.573z M432.437,336.352
		c0.097-0.561,0.188-1.121,0.283-1.682l0.129-0.783c0.418-0.536,1.033-1.003,1.803-1.369c0.898-0.428,1.94-0.654,3.005-0.654h74.686
		c2.225,0,3.956,0.971,4.82,2.01l0.112,0.662c0.101,0.602,0.2,1.204,0.302,1.806c-0.103,0.586-0.202,1.175-0.3,1.762l-0.135,0.797
		c-0.968,1.23-2.851,2.052-4.799,2.052h-74.688c-2.153,0-3.859-0.927-4.746-1.93C432.754,338.133,432.596,337.244,432.437,336.352z
		 M514.697,318.505c-0.778-0.053-1.562-0.08-2.353-0.08h-74.686c-0.787,0-1.571,0.026-2.345,0.077
		c3.945-27.23,5.931-54.593,5.902-81.434c-0.027-24.789-1.756-49.837-5.139-74.449c-1.08-7.849-2.368-15.915-3.831-23.98
		c0.262-1.812,2.737-3.398,5.413-3.398h74.686c2.861,0,5.202,1.729,5.442,3.264C506.982,197.713,505.945,258.233,514.697,318.505z"
		/>
	<path fill="#4D915F" d="M714.253,138.964c0-9.462-10.868-17.16-24.228-17.16h-74.688c-13.36,0-24.228,7.698-24.228,17.16
		c0,0.324,0.029,0.647,0.082,0.903c1.505,8.271,2.804,16.386,3.863,24.123c3.327,24.185,5.027,48.777,5.054,73.091
		c0.034,30.605-2.638,62.067-7.939,93.529c-0.704,1.649-1.059,3.321-1.059,4.977c0,0.319,0.029,0.637,0.076,0.876l-0.076,0.767
		c0,1.747,0.377,3.478,1.12,5.155c1.075,6.264,2.026,12.392,2.825,18.226c3.327,24.187,5.027,48.779,5.054,73.093
		c0.036,32.708-2.973,66.179-8.94,99.485l-0.059,0.664c0,9.461,10.868,17.159,24.228,17.159h74.688
		c7.186,0,13.938-2.23,18.522-6.118c3.679-3.12,5.697-7.126,5.685-11.277l-0.059-0.656c-11.458-63.707-11.789-127.917-0.987-190.843
		c0.7-1.659,1.05-3.38,1.046-5.122l0.021-1.408c0-1.702-0.354-3.386-1.052-5.013c-10.825-63.926-10.492-128.164,0.991-190.932
		L714.253,138.964z M690.022,537.573h-74.688c-2.865,0-5.208-1.732-5.444-3.27c6.009-33.528,9.037-67.378,9.002-100.612
		c-0.027-24.789-1.754-49.838-5.139-74.452c-0.223-1.632-0.457-3.273-0.704-4.924c0.757,0.05,1.52,0.076,2.286,0.076h74.688
		c0.77,0,1.539-0.026,2.3-0.077c-8.689,59.371-7.641,119.821,3.127,179.792C695.238,535.951,692.746,537.573,690.022,537.573z
		 M610.115,336.352c0.097-0.561,0.188-1.121,0.283-1.682l0.129-0.783c0.42-0.536,1.033-1.003,1.803-1.369
		c0.898-0.428,1.94-0.654,3.005-0.654h74.686c2.225,0,3.956,0.971,4.822,2.01l0.11,0.662c0.101,0.602,0.2,1.204,0.302,1.806
		c-0.103,0.586-0.202,1.175-0.299,1.762l-0.137,0.797c-0.968,1.23-2.851,2.052-4.799,2.052h-74.688c-2.151,0-3.859-0.927-4.746-1.93
		C610.433,338.133,610.275,337.244,610.115,336.352z M692.375,318.505c-0.778-0.053-1.562-0.08-2.351-0.08h-74.688
		c-0.787,0-1.571,0.026-2.345,0.077c3.945-27.23,5.931-54.593,5.902-81.434c-0.027-24.789-1.754-49.837-5.139-74.449
		c-1.078-7.849-2.368-15.915-3.831-23.98c0.262-1.812,2.739-3.398,5.413-3.398h74.686c2.861,0,5.202,1.729,5.444,3.264
		C684.662,197.713,683.624,258.233,692.375,318.505z"/>
</g>
</svg>
