<?xml version="1.0" encoding="utf-8"?>
<!-- Generator: Adobe Illustrator 23.1.0, SVG Export Plug-In . SVG Version: 6.00 Build 0)  -->
<svg version="1.1" id="Layer_1" xmlns="http://www.w3.org/2000/svg" xmlns:xlink="http://www.w3.org/1999/xlink" x="0px" y="0px"
	 viewBox="0 0 1200 1200" enable-background="new 0 0 1200 1200" xml:space="preserve">
<g>
	<path fill="#C1B6AC" d="M972.197,111.59c8.947,14.904,14.188,32.287,14.188,50.935v852.626c0,54.799-44.425,99.223-99.223,99.223
		H293.504c-17.598,0-34.096-4.627-48.425-12.661c17.345,28.891,48.885,48.288,85.035,48.288h593.658
		c54.8,0,99.223-44.424,99.223-99.223V198.152C1022.996,160.95,1002.493,128.576,972.197,111.59z"/>
	<path fill="#D1C8BF" d="M887.162,1114.373c54.798,0,99.223-44.424,99.223-99.223V162.525c0-18.648-5.24-36.031-14.188-50.935
		c-12.192-20.309-31.376-35.908-54.296-43.376C901.169,56.742,880.952,50,859.175,50H281.142
		c-57.421,0-104.138,46.717-104.138,104.131v830.153c0,25.172,8.983,48.283,23.909,66.307c8.339,21.764,24.053,39.844,44.166,51.121
		c14.328,8.034,30.827,12.661,48.425,12.661H887.162z M192.166,984.284V154.131c0-49.056,39.913-88.968,88.977-88.968h578.033
		c49.064,0,88.977,39.912,88.977,88.968v830.153c0,49.056-39.913,88.969-88.977,88.969H281.142
		C232.079,1073.253,192.166,1033.34,192.166,984.284z"/>
	<path fill="#FFF6EB" d="M281.142,1073.253h578.033c49.064,0,88.977-39.913,88.977-88.969V154.131
		c0-49.056-39.913-88.968-88.977-88.968H281.142c-49.064,0-88.977,39.912-88.977,88.968v830.153
		C192.166,1033.34,232.079,1073.253,281.142,1073.253z M875.675,913.487c0,51.644-39.55,93.66-88.161,93.66H342.588
		c-48.611,0-88.161-42.016-88.161-93.66V229.141c0-51.644,39.55-93.66,88.161-93.66h444.926c48.611,0,88.161,42.016,88.161,93.66
		V913.487z"/>
	<path fill="#FFF6EB" d="M674.757,254.642l16.232,1.288c0,0.003-0.002,0.052-0.002,0.058l0.002,0l-0.002,0
		c-0.055,0.941-2.258,39.832,18.589,59.03c11.49,10.587,29.018,13.651,52.021,9.302v-44.406c0-14.59-11.169-26.455-24.898-26.455
		H660.51L674.757,254.642z"/>
	<path fill="#FFF6EB" d="M417.396,316.053c12.217-11.587,17.282-31.556,15.032-59.346l32.451-2.956
		c3.171,39.356-5.573,69.059-25.988,88.285c-19.334,18.196-44.582,22.093-62.66,22.093c-2.777,0-5.343-0.103-7.734-0.25v419.916
		c27.751-2.903,50.407,3.386,67.348,19.091c30.851,28.607,30.037,77.397,29.617,86.282h193.525
		c-2.948-38.863,5.786-68.26,26.032-87.326c25.124-23.655,60.196-23.148,76.577-21.326V359.378
		c-6.539,0.982-12.843,1.533-18.832,1.533c-22.068,0-40.392-6.655-54.701-19.923c-32.974-30.574-29.779-84.215-29.55-87.528H393.404
		c-13.737,0-24.906,11.866-24.906,26.455v49.309C380.626,330.235,402.853,329.832,417.396,316.053z"/>
	<polygon fill="#FFF6EB" points="448.387,889.168 448.389,889.168 432.925,887.885 432.925,887.885 	"/>
	<path fill="#FFF6EB" d="M432.921,887.944c0-0.003,0.002-0.052,0.004-0.059l-0.004,0l0.004,0c0.055-0.941,2.256-39.831-18.591-59.03
		c-10.446-9.616-25.86-13.037-45.836-10.332v44.189c0,14.59,11.169,26.455,24.906,26.455h54.947L432.921,887.944z"/>
	<path fill="#FFF6EB" d="M787.515,170.074H342.588c-30.661,0-55.599,26.497-55.599,59.067v684.345
		c0,32.57,24.938,59.067,55.599,59.067h444.926c30.661,0,55.599-26.497,55.599-59.067V229.141
		C843.114,196.571,818.176,170.074,787.515,170.074z M794.161,862.713c0,33.664-25.773,61.048-57.461,61.048H393.404
		c-31.688,0-57.469-27.384-57.469-61.048V279.915c0-33.664,25.781-61.048,57.469-61.048h343.295
		c31.688,0,57.461,27.384,57.461,61.048V862.713z"/>
	<path fill="#FFF6EB" d="M706.515,827.825c-12.219,11.587-17.282,31.552-15.032,59.341l-21.975,2.001h67.19
		c13.729,0,24.898-11.866,24.898-26.455v-47.347C753.137,814.063,724.168,811.083,706.515,827.825z"/>
	<path fill="#1B669E" d="M787.515,135.481H342.588c-48.611,0-88.161,42.016-88.161,93.66v684.345c0,51.644,39.55,93.66,88.161,93.66
		h444.926c48.611,0,88.161-42.016,88.161-93.66V229.141C875.675,177.498,836.126,135.481,787.515,135.481z M843.114,913.487
		c0,32.57-24.938,59.067-55.599,59.067H342.588c-30.661,0-55.599-26.497-55.599-59.067V229.141c0-32.57,24.938-59.067,55.599-59.067
		h444.926c30.661,0,55.599,26.497,55.599,59.067V913.487z"/>
	<path fill="#1B669E" d="M736.699,218.867H393.404c-31.688,0-57.469,27.384-57.469,61.048v582.797
		c0,33.664,25.781,61.048,57.469,61.048h343.295c31.688,0,57.461-27.384,57.461-61.048V279.915
		C794.161,246.252,768.388,218.867,736.699,218.867z M761.597,279.915v44.406c-23.004,4.349-40.531,1.285-52.021-9.302
		c-20.847-19.198-18.644-58.089-18.589-59.03c0-0.007,0.002-0.056,0.002-0.058l-16.232-1.288l-14.246-1.182h76.189
		C750.428,253.46,761.597,265.326,761.597,279.915z M393.404,253.46h265.109c-0.228,3.313-3.424,56.954,29.55,87.528
		c14.309,13.268,32.634,19.923,54.701,19.923c5.99,0,12.293-0.551,18.832-1.533v421.138c-16.381-1.822-51.453-2.329-76.577,21.326
		c-20.245,19.066-28.98,48.462-26.032,87.326H465.463c0.42-8.885,1.234-57.676-29.617-86.282
		c-16.942-15.705-39.597-21.994-67.348-19.091V363.879c2.391,0.146,4.957,0.25,7.734,0.25c18.077,0,43.325-3.897,62.66-22.093
		c20.415-19.226,29.159-48.929,25.988-88.285l-32.451,2.956c2.25,27.79-2.815,47.759-15.032,59.346
		c-14.543,13.779-36.771,14.182-48.898,13.171v-49.309C368.498,265.326,379.667,253.46,393.404,253.46z M368.498,862.713v-44.189
		c19.975-2.705,35.39,0.716,45.836,10.332c20.847,19.198,18.646,58.089,18.591,59.03l15.464,1.283h-0.002l-15.462-1.283
		c-0.002,0.007-0.004,0.056-0.004,0.059l15.43,1.224h-54.947C379.667,889.168,368.498,877.302,368.498,862.713z M736.699,889.168
		h-67.19l21.975-2.001c-2.25-27.79,2.813-47.755,15.032-59.341c17.653-16.742,46.621-13.762,55.082-12.459v47.347
		C761.597,877.302,750.428,889.168,736.699,889.168z"/>
	
		<line fill="none" stroke="#1B669E" stroke-width="0" stroke-linecap="round" stroke-linejoin="round" x1="690.989" y1="255.989" x2="690.987" y2="255.989"/>
	<polygon fill="#1B669E" points="432.925,887.885 432.925,887.885 432.921,887.885 	"/>
</g>
</svg>
