<?xml version="1.0" encoding="utf-8"?>
<!-- Generator: Adobe Illustrator 23.1.0, SVG Export Plug-In . SVG Version: 6.00 Build 0)  -->
<svg version="1.1" id="Layer_1" xmlns="http://www.w3.org/2000/svg" xmlns:xlink="http://www.w3.org/1999/xlink" x="0px" y="0px"
	 viewBox="0 0 1200 1200" enable-background="new 0 0 1200 1200" xml:space="preserve">
<g>
	<path fill="#C1B6AC" d="M972.274,111.457c8.948,14.906,14.187,32.291,14.187,50.941v852.735c0,54.806-44.428,99.236-99.236,99.236
		H293.492c-17.6,0-34.099-4.628-48.431-12.663c17.347,28.895,48.891,48.294,85.048,48.294h593.734
		c54.805,0,99.236-44.429,99.236-99.236V198.029C1023.079,160.823,1002.573,128.444,972.274,111.457z"/>
	<path fill="#D1C8BF" d="M887.226,1114.369c54.807,0,99.236-44.429,99.236-99.236V162.398c0-18.651-5.239-36.036-14.187-50.941
		c-12.211-20.338-31.43-35.957-54.393-43.414C900.961,56.687,880.49,50,858.429,50H281.943
		c-57.906,0-105.022,45.847-105.022,102.195v833.879c0,24.759,9.108,47.482,24.22,65.188c8.406,21.465,24.017,39.283,43.92,50.444
		c14.332,8.035,30.831,12.663,48.431,12.663H887.226z M192.213,986.074V152.195c0-48.144,40.253-87.314,89.73-87.314h576.486
		c49.475,0,89.73,39.17,89.73,87.314v833.879c0,48.144-40.255,87.314-89.73,87.314H281.943
		C232.466,1073.388,192.213,1034.217,192.213,986.074z"/>
	<path fill="#FFF6EB" d="M281.943,1073.388h576.486c49.475,0,89.73-39.171,89.73-87.314V152.195
		c0-48.144-40.255-87.314-89.73-87.314H281.943c-49.477,0-89.73,39.17-89.73,87.314v833.879
		C192.213,1034.217,232.466,1073.388,281.943,1073.388z M823.581,537.883c-6.943,7.433-11.109,36.475-13.194,93.883
		c-1.381,28.366-3.464,67.537-6.936,101.308c-5.555,52.002-18.047,81.72-40.949,105.363c-22.213,22.285-34.706,17.555-43.03-6.082
		c-4.862-14.183-27.076-41.874-34.013-48.631c-20.825-18.906-18.047-24.988,2.779-18.906c50.662,16.211,57.606,11.48,70.792-45.252
		c8.326-37.826,11.798-118.195,9.021-160.743c-3.464-55.381-11.104-59.435-63.849-54.029c-19.436,2.027-52.06,5.398-90.23,10.128
		c34.698,20.265,34.004,22.96,22.902,33.096c-6.243,4.723-20.125,17.562-57.608,55.381c7.638-1.352,14.576-3.378,20.13-4.73
		c34.698-9.453,48.579-9.453,61.079-3.379c10.408,5.406,6.936,19.589-23.602,22.968c-14.576,1.351-41.643,4.73-67.323,8.777
		c-0.694,16.21-0.694,29.042-2.083,41.873c61.079-12.832,90.924-11.48,108.277-3.371c14.575,6.75,13.187,27.69-16.659,24.988
		c-18.742-1.352-60.385,0-93.008,4.054c-2.777,60.779-4.166,82.395-11.104,100.632c-5.555,14.859-20.13,14.183-21.519-0.675
		c-2.083-23.643-2.777-43.225-2.777-93.207c-68.711,16.211-79.119,14.859-93.694,8.109c-19.436-8.784-13.187-16.886,2.777-18.237
		c20.817-1.351,63.155-8.109,90.917-13.507c0-16.21,0-28.366-0.694-43.225c-51.357,10.805-57.607,8.777-72.183,3.371
		c-15.964-6.75-12.492-13.507,2.083-14.851c18.047-1.352,61.079-8.109,97.868-14.859c32.617-54.036,39.56-74.97,34.7-91.18
		c-20.124,2.703-40.949,5.406-62.468,8.101c-54.83,7.433-112.436,16.886-153.385,22.968c3.472,41.198,5.547,92.524,6.936,154.662
		c0.696,29.042,0,48.631-4.853,73.618c-6.249,31.069-20.825,31.069-34.706,0c-8.326-19.589-10.409-30.394,0.694-66.193
		c8.324-25.663,2.777-141.83-12.492-167.494c-18.047-29.042-12.492-41.198,37.477-16.21c42.336-4.047,90.923-10.805,143.677-18.23
		c8.325-28.373,15.268-56.74,20.817-81.051c-54.134,7.433-72.877,5.406-86.758-2.027c-17.353-8.777-13.185-14.858,6.945-16.886
		c26.372-2.696,61.072-8.777,87.451-14.183c9.715-54.029,11.104-104.68,4.855-112.789c-19.43-24.311-2.083-33.089,31.928-18.906
		c38.177,16.203,40.253,26.339,28.455,42.549c-3.472,5.399-17.353,45.921-27.066,79.017c77.043-22.96,85.368-23.636,108.277-14.858
		c15.27,6.081,17.353,17.562,0,23.643c-34.708,12.832-65.247,20.257-119.381,29.042c-7.638,22.96-19.436,55.381-31.928,83.747
		c65.245-8.785,123.547-16.21,146.447-19.589c22.215-3.378,52.755-8.777,58.996-10.805c20.825-7.433,34.011-6.757,59.691,9.453
		C840.232,506.822,843.011,516.95,823.581,537.883z M488.341,543.289c22.215,8.101,34.011,16.886,35.4,33.772
		c0.694,7.426-4.86,18.906-11.104,21.609c-6.943,2.703-14.574-1.352-22.213-12.832c-9.715-14.183-15.964-24.312-17.353-29.718
		C468.219,541.262,473.766,537.208,488.341,543.289z"/>
	<path fill="#1B669E" d="M802.062,484.53c-25.679-16.21-38.866-16.886-59.691-9.453c-6.241,2.027-36.781,7.426-58.996,10.805
		c-22.9,3.379-81.202,10.804-146.447,19.589c12.492-28.366,24.291-60.787,31.928-83.747c54.134-8.784,84.674-16.21,119.381-29.042
		c17.353-6.082,15.27-17.562,0-23.643c-22.909-8.777-31.234-8.101-108.277,14.858c9.713-33.096,23.594-73.618,27.066-79.017
		c11.798-16.21,9.723-26.346-28.455-42.549c-34.011-14.183-51.358-5.406-31.928,18.906c6.249,8.109,4.86,58.759-4.855,112.789
		c-26.379,5.406-61.079,11.488-87.451,14.183c-20.13,2.027-24.298,8.109-6.945,16.886c13.881,7.433,32.625,9.46,86.758,2.027
		c-5.549,24.311-12.492,52.678-20.817,81.051c-52.755,7.426-101.341,14.183-143.677,18.23c-49.97-24.988-55.524-12.832-37.477,16.21
		c15.27,25.664,20.817,141.831,12.492,167.494c-11.104,35.799-9.021,46.604-0.694,66.193c13.881,31.069,28.457,31.069,34.706,0
		c4.853-24.988,5.549-44.577,4.853-73.618c-1.389-62.138-3.464-113.464-6.936-154.662c40.949-6.082,98.555-15.534,153.385-22.968
		c21.519-2.696,42.343-5.399,62.468-8.101c4.86,16.21-2.083,37.143-34.7,91.18c-36.789,6.75-79.821,13.507-97.868,14.859
		c-14.575,1.344-18.047,8.101-2.083,14.851c14.575,5.406,20.826,7.433,72.183-3.371c0.694,14.859,0.694,27.015,0.694,43.225
		c-27.762,5.399-70.1,12.156-90.917,13.507c-15.964,1.352-22.213,9.453-2.777,18.237c14.575,6.75,24.983,8.102,93.694-8.109
		c0,49.982,0.694,69.564,2.777,93.207c1.389,14.858,15.964,15.534,21.519,0.675c6.938-18.237,8.326-39.853,11.104-100.632
		c32.623-4.054,74.266-5.406,93.008-4.054c29.845,2.703,31.234-18.237,16.659-24.988c-17.353-8.109-47.198-9.46-108.277,3.371
		c1.389-12.832,1.389-25.663,2.083-41.873c25.679-4.047,52.747-7.426,67.323-8.777c30.538-3.379,34.009-17.562,23.602-22.968
		c-12.5-6.074-26.381-6.074-61.079,3.379c-5.555,1.352-12.492,3.378-20.13,4.73c37.483-37.819,51.364-50.658,57.608-55.381
		c11.102-10.136,11.796-12.832-22.902-33.096c38.17-4.73,70.794-8.101,90.23-10.128c52.745-5.406,60.385-1.352,63.849,54.029
		c2.777,42.549-0.694,122.917-9.021,160.743c-13.187,56.732-20.13,61.463-70.792,45.252c-20.826-6.082-23.604,0-2.779,18.906
		c6.938,6.757,29.151,34.447,34.013,48.631c8.324,23.636,20.817,28.366,43.03,6.082c22.902-23.643,35.394-53.361,40.949-105.363
		c3.472-33.772,5.555-72.942,6.936-101.308c2.085-57.408,6.251-86.45,13.194-93.883C843.011,516.95,840.232,506.822,802.062,484.53z
		"/>
	<path fill="#1B669E" d="M512.638,598.67c6.243-2.703,11.798-14.183,11.104-21.609c-1.389-16.886-13.185-25.671-35.4-33.772
		c-14.575-6.082-20.123-2.027-15.27,12.832c1.389,5.406,7.638,15.535,17.353,29.718C498.064,597.318,505.694,601.373,512.638,598.67
		z"/>
</g>
</svg>
