<?xml version="1.0" encoding="utf-8"?>
<!-- Generator: Adobe Illustrator 23.1.0, SVG Export Plug-In . SVG Version: 6.00 Build 0)  -->
<svg version="1.1" id="Layer_1" xmlns="http://www.w3.org/2000/svg" xmlns:xlink="http://www.w3.org/1999/xlink" x="0px" y="0px"
	 viewBox="0 0 1200 1200" enable-background="new 0 0 1200 1200" xml:space="preserve">
<g>
	<path fill="#C1B6AC" d="M972.194,111.594c8.947,14.904,14.187,32.286,14.187,50.935v852.623c0,54.799-44.424,99.223-99.223,99.223
		H293.503c-17.598,0-34.095-4.627-48.424-12.661c17.344,28.891,48.885,48.288,85.035,48.288H923.77
		c54.8,0,99.223-44.423,99.223-99.223V198.155C1022.992,160.953,1002.489,128.579,972.194,111.594z"/>
	<path fill="#D1C8BF" d="M887.159,1114.374c54.798,0,99.223-44.423,99.223-99.223V162.528c0-18.648-5.24-36.031-14.187-50.935
		c-12.19-20.307-31.372-35.904-54.288-43.373C901.172,56.745,880.953,50,859.177,50H281.139
		c-57.414,0-104.131,46.716-104.131,104.135v830.15c0,25.171,8.983,48.281,23.905,66.305c8.337,21.765,24.053,39.846,44.166,51.122
		c14.329,8.034,30.827,12.661,48.424,12.661H887.159z M192.171,984.285v-830.15c0-49.06,39.912-88.972,88.968-88.972h578.038
		c49.056,0,88.968,39.912,88.968,88.972v830.15c0,49.06-39.912,88.972-88.968,88.972H281.139
		C232.083,1073.257,192.171,1033.345,192.171,984.285z"/>
	<path fill="#FFF6EB" d="M281.139,1073.257h578.038c49.056,0,88.968-39.912,88.968-88.972v-830.15
		c0-49.06-39.912-88.972-88.968-88.972H281.139c-49.056,0-88.968,39.912-88.968,88.972v830.15
		C192.171,1033.345,232.083,1073.257,281.139,1073.257z M570.159,845.064c-156.564,0-283.483-123.504-283.483-275.854
		s126.919-275.854,283.483-275.854s283.483,123.504,283.483,275.854S726.722,845.064,570.159,845.064z"/>
	<path fill="#399E67" d="M570.159,293.357c-156.564,0-283.483,123.504-283.483,275.854s126.919,275.854,283.483,275.854
		S853.642,721.56,853.642,569.211S726.722,293.357,570.159,293.357z M570.159,792.894c-126.954,0-229.87-100.146-229.87-223.683
		s102.916-223.683,229.87-223.683s229.87,100.146,229.87,223.683S697.112,792.894,570.159,792.894z"/>
	<path fill="#FFFFFF" d="M570.159,345.527c-126.954,0-229.87,100.146-229.87,223.683s102.916,223.683,229.87,223.683
		s229.87-100.146,229.87-223.683S697.112,345.527,570.159,345.527z M570.159,777.68c-118.319,0-214.236-93.335-214.236-208.47
		c0-115.135,95.917-208.47,214.236-208.47s214.236,93.335,214.236,208.47C784.395,684.346,688.478,777.68,570.159,777.68z"/>
	<path fill="#CC403A" d="M570.159,360.741c-118.319,0-214.236,93.335-214.236,208.47c0,115.135,95.917,208.47,214.236,208.47
		s214.236-93.335,214.236-208.47C784.395,454.076,688.478,360.741,570.159,360.741z M443.961,438.684
		c30.506,3.093,60.16,16.001,83.537,38.75c23.378,22.75,36.644,51.605,39.822,81.29c0.476,4.437-3.379,8.188-7.939,7.726
		c-30.507-3.093-60.16-16.002-83.538-38.751c-23.378-22.749-36.643-51.604-39.821-81.289
		C435.546,441.973,439.401,438.222,443.961,438.684z M527.499,668.142c-25.441,24.756-58.311,37.85-91.628,39.327
		c-4.402,0.195-7.996-3.302-7.796-7.586c1.519-32.419,14.975-64.405,40.416-89.161c25.44-24.756,58.311-37.85,91.626-39.328
		c4.403-0.195,7.997,3.302,7.797,7.586C566.396,611.4,552.939,643.386,527.499,668.142z M696.356,699.738
		c-30.507-3.093-60.16-16.002-83.538-38.751c-23.378-22.749-36.644-51.604-39.821-81.29c-0.476-4.437,3.379-8.188,7.939-7.726
		c30.506,3.093,60.159,16.002,83.537,38.751c23.378,22.749,36.644,51.604,39.822,81.29
		C704.771,696.449,700.916,700.2,696.356,699.738z M671.825,527.699c-25.44,24.756-58.311,37.85-91.626,39.328
		c-4.403,0.195-7.997-3.302-7.797-7.586c1.518-32.419,14.975-64.405,40.415-89.161c25.441-24.756,58.311-37.85,91.627-39.328
		c4.402-0.195,7.997,3.302,7.797,7.586C710.722,470.957,697.265,502.943,671.825,527.699z"/>
	<path fill="#FFFFFF" d="M560.118,571.395c-33.315,1.478-66.186,14.572-91.626,39.328c-25.441,24.756-38.897,56.742-40.416,89.161
		c-0.201,4.284,3.393,7.781,7.796,7.586c33.316-1.477,66.187-14.572,91.628-39.327c25.44-24.756,38.897-56.742,40.415-89.161
		C568.115,574.696,564.521,571.199,560.118,571.395z"/>
	<path fill="#FFFFFF" d="M559.382,566.45c4.56,0.462,8.415-3.289,7.939-7.726c-3.178-29.685-16.444-58.54-39.822-81.29
		c-23.377-22.749-53.031-35.657-83.537-38.75c-4.56-0.462-8.415,3.289-7.939,7.726c3.178,29.685,16.443,58.54,39.821,81.289
		C499.222,550.448,528.875,563.357,559.382,566.45z"/>
	<path fill="#FFFFFF" d="M580.936,571.972c-4.56-0.462-8.415,3.289-7.939,7.726c3.177,29.685,16.443,58.541,39.821,81.29
		c23.378,22.749,53.031,35.658,83.538,38.751c4.56,0.462,8.415-3.289,7.939-7.726c-3.178-29.685-16.444-58.54-39.822-81.29
		C641.095,587.973,611.442,575.065,580.936,571.972z"/>
	<path fill="#FFFFFF" d="M704.445,430.952c-33.315,1.478-66.186,14.572-91.627,39.328c-25.44,24.756-38.897,56.742-40.415,89.161
		c-0.201,4.284,3.393,7.781,7.797,7.586c33.315-1.478,66.186-14.572,91.626-39.328c25.44-24.756,38.897-56.742,40.416-89.161
		C712.442,434.254,708.847,430.757,704.445,430.952z"/>
</g>
</svg>
