<?xml version="1.0" encoding="utf-8"?>
<!-- Generator: Adobe Illustrator 23.1.0, SVG Export Plug-In . SVG Version: 6.00 Build 0)  -->
<svg version="1.1" id="Layer_1" xmlns="http://www.w3.org/2000/svg" xmlns:xlink="http://www.w3.org/1999/xlink" x="0px" y="0px"
	 viewBox="0 0 1200 1200" enable-background="new 0 0 1200 1200" xml:space="preserve">
<g>
	<path fill="#C1B6AC" d="M972.195,111.594c8.947,14.904,14.186,32.286,14.186,50.935v852.623c0,54.799-44.423,99.223-99.223,99.223
		H293.502c-17.598,0-34.094-4.627-48.424-12.661c17.345,28.891,48.885,48.288,85.036,48.288H923.77
		c54.799,0,99.223-44.423,99.223-99.223V198.155C1022.993,160.953,1002.49,128.579,972.195,111.594z"/>
	<path fill="#D1C8BF" d="M887.158,1114.374c54.799,0,99.223-44.423,99.223-99.223V162.528c0-18.648-5.239-36.031-14.186-50.935
		c-12.191-20.307-31.372-35.904-54.289-43.373C901.173,56.745,880.954,50,859.177,50H281.139
		c-57.415,0-104.132,46.716-104.132,104.138v830.146c0,25.171,8.983,48.281,23.905,66.305c8.338,21.765,24.053,39.846,44.166,51.122
		c14.33,8.034,30.827,12.661,48.424,12.661H887.158z M192.171,984.285V154.138c0-49.063,39.913-88.976,88.969-88.976h578.038
		c49.056,0,88.968,39.912,88.968,88.976v830.146c0,49.06-39.912,88.972-88.968,88.972H281.139
		C232.083,1073.257,192.171,1033.345,192.171,984.285z"/>
	<path fill="#FFF6EB" d="M281.139,1073.257h578.038c49.056,0,88.968-39.912,88.968-88.972V154.138
		c0-49.063-39.912-88.976-88.968-88.976H281.139c-49.056,0-88.969,39.912-88.969,88.976v830.146
		C192.171,1033.345,232.083,1073.257,281.139,1073.257z M857.728,708.898c-8.194,0-15.306-4.273-19.285-10.614H612.142
		c-5.268,2.052-10.594,3.923-16,5.507c-1.856,0.537-3.735,0.927-5.6,1.415c0.62,21.196,2.358,42.169,5.312,62.911
		c3.825,25.939,9.546,51.502,17.571,76.288c3.445,12.6,8.715,24.539,13.266,36.767c5.589,11.756,10.468,23.94,17.105,35.23
		c11.864,23.473,27.695,44.528,43.444,66.315c-20.202-17.542-39.248-37.373-53.421-60.524l-5.637-8.489
		c-1.85-2.851-3.235-5.95-4.877-8.916l-9.466-18.032c-5.151-12.532-10.725-24.952-14.55-37.967
		c-8.062-25.861-13.351-52.584-14.902-79.513c-1.267-21.107-0.595-42.371,2.648-63.184c-6.887,1.683-13.803,3.16-20.764,4.214
		c-1.706,21.889-2.179,43.658-1.351,65.315c1.133,26.19,4.188,52.197,9.619,77.663c2.125,12.882,6.138,25.29,9.404,37.914
		c4.35,12.259,7.948,24.872,13.385,36.771c9.385,24.548,22.962,47.09,36.384,70.352c-18.289-19.488-35.194-41.138-46.907-65.598
		l-4.731-9.014c-1.545-3.022-2.606-6.245-3.932-9.361l-7.558-18.894c-3.833-12.987-8.096-25.904-10.56-39.237
		c-5.352-26.539-7.86-53.657-6.626-80.601c0.949-21.931,3.939-43.837,9.727-64.931c-6.838,0.946-13.698,1.579-20.567,1.981
		c-3.725,21.576-6.21,43.145-7.409,64.723c-1.325,26.181-0.716,52.356,2.305,78.211c0.912,13.021,3.746,25.744,5.816,38.613
		c3.185,12.604,5.584,25.492,9.883,37.839c7.047,25.303,18.454,48.99,29.644,73.383c-16.386-21.08-31.192-44.185-40.565-69.614
		l-3.865-9.408c-1.255-3.151-2.012-6.457-3.039-9.682l-5.758-19.505c-2.599-13.282-5.636-26.534-6.84-40.036
		c-2.845-26.916-2.806-54.146,0.943-80.862c2.986-21.643,7.971-43.077,15.645-63.46c-6.968,0.326-13.933,0.41-20.889,0.239
		c-5.958,23.305-10.372,46.703-13.285,70.211c-3.092,26.034-4.256,52.191-2.991,78.188c0.027,13.052,1.994,25.935,3.19,38.911
		c2.324,12.787,3.848,25.806,7.302,38.41c5.318,25.712,15.097,50.102,24.609,75.182c-14.924-22.118-28.13-46.152-35.761-72.144
		l-3.223-9.643c-1.039-3.227-1.568-6.575-2.378-9.861l-4.424-19.842c-1.696-13.424-3.828-26.848-4.117-40.399
		c-1.017-27.044,0.867-54.211,6.417-80.618c4.913-23.66,12.35-46.85,22.997-68.462c-5.189-0.156-10.364-0.439-15.526-0.842
		c-7.736,22.813-13.941,45.834-18.652,69.078c-5.077,25.728-8.24,51.723-8.971,77.739c-0.973,13.017,0.004,26.01,0.203,39.039
		c1.335,12.924,1.856,26.019,4.336,38.847c3.333,26.037,11.215,51.091,18.779,76.811c-13.184-23.173-24.511-48.128-30.131-74.618
		l-2.473-9.857c-0.791-3.296-1.059-6.674-1.617-10.011l-2.892-20.117c-0.662-13.513-1.758-27.058-1.009-40.592
		c1.056-27.042,5.016-53.99,12.572-79.905c6.715-23.232,15.916-45.801,28.197-66.556c-6.558-0.545-13.088-1.257-19.569-2.156
		c-34.367,27.482-69.62,53.923-107.25,77.418c-5.924,3.641-11.922,7.179-17.97,10.642c-2.582,37.319-4.352,74.833-6.673,112.232
		c-2.172-35.127-4.122-70.435-4.853-105.821c-34.93,19.039-71.771,34.746-110.214,44.622
		c39.048-15.469,75.664-35.348,110.002-58.341c-0.342-30.762,0.371-61.572,2.79-92.367H293.03
		c-3.977,6.341-11.09,10.614-19.284,10.614c-12.512,0-22.654-9.87-22.654-22.045c0-12.175,10.143-22.045,22.654-22.045
		c8.194,0,15.307,4.273,19.284,10.614h54.944c2.29-21.284,5.428-42.554,9.753-63.784c3.013-12.295,5.218-24.781,9.109-36.927
		l5.481-18.294l6.669-17.983c4.074-12.129,10.098-23.585,15.273-35.357c2.76-5.817,6.163-11.353,9.227-17.046
		c3.222-5.612,6.052-11.447,9.895-16.727c7.378-10.785,14.056-21.653,23.367-31.959c9.094-10.234,20.308-20.117,34.513-26.521
		c13.461-5.662,28.01-9.846,44.208-8.61c5.425,0.2,10.835,1.397,16.089,3.059c0.402-16.662,0.031-33.302-0.97-49.837
		c-0.344-5.684-0.826-11.353-1.387-17.009c-14.362-0.127-28.533-1.644-42.603-4.073c-7.554-1.226-14.999-2.974-22.527-5.039
		c-3.781-1.026-7.516-2.285-11.379-3.877c-1.947-0.822-3.902-1.712-6.031-3.061c-1.102-0.744-2.191-1.44-3.508-2.781
		c-1.128-1.272-3.331-3.508-3.135-7.969c0.551-4.495,3.323-6.44,4.607-7.397c1.557-1.053,2.844-1.61,4.042-2.084
		c2.278-0.924,4.728-1.421,6.3-1.897c3.27-0.919,6.581-1.734,9.736-3.075c6.439-2.331,12.579-5.594,18.473-9.444
		c10.632-7.162,20.459-16.083,29.532-26.284c-0.31-2.425-0.445-4.912-0.195-7.48c0.347-4.13,1.748-8.29,3.872-12.028
		c-10.599-6.817-20.835-14.771-27.662-26.436c-3.647-6.608-5.535-14.639-4.339-22.605c1.105-8.039,5.521-15.294,10.996-20.952
		c11.133-11.356,26.689-17.091,42.188-18.53c7.844-0.746,16.535,0.407,24.072,3.41c7.535,2.928,13.942,7.039,19.917,10.921
		c23.488,15.764,45.99,32.111,71.853,40.441c12.737,3.993,26.501,5.716,40.048,4.195c3.239-0.33,6.467-0.891,9.657-1.64
		c0.382-0.384,0.74-0.713,1.128-1.103l0.644,0.603c9.492-2.481,18.576-6.82,26.265-13.479c-5.43,7.561-13.211,13.39-21.961,17.507
		l0.394,0.37c-23.46,23.703-41.844,35.73-54.395,41.869c12.095,9.756,22.89,21.04,32.088,33.266
		c12.438,16.599,21.72,35.284,28.742,54.149c7.066,18.918,12.308,38.286,16.091,57.893c1.212,6.607,2.22,13.249,3.129,19.905
		c10.056-3.297,20.888-4.909,32.285-3.128c9.606,1.389,19.218,5.427,26.886,11.728c7.777,6.179,13.913,13.996,18.612,22.305
		c9.183,16.831,13.036,35.354,13.794,53.682c0.628,18.382-1.773,36.885-8.479,54.883c-13.836,35.775-41.201,62.962-71.595,82.441
		c-15.313,9.751-31.664,17.658-48.645,23.526c-9.771,3.442-19.754,6.192-29.858,8.264h170.209
		c3.979-6.341,11.091-10.614,19.285-10.614c12.512,0,22.654,9.87,22.654,22.045C880.382,699.029,870.24,708.898,857.728,708.898z"/>
	<path fill="#FFF6EB" d="M592.332,484.554c1.742,3.114,3.387,6.29,4.795,9.594l3.235,6.664c1.011,2.25,1.548,4.659,2.346,6.987
		c1.415,4.707,3.069,9.386,4.273,14.165l2.395,14.583c0.918,4.861,0.695,9.802,1.064,14.708c0.302,19.651-2.742,39.254-9.137,57.638
		c-6.376,18.331-15.346,35.865-27.867,50.675c7.171-17.751,12.708-35.623,16.753-53.638c3.407-15.99,5.364-32.112,5.408-48.164
		c-0.842,5.676-1.942,11.355-3.544,17.033c-0.83,3.331-2.064,6.674-3.203,10.001c-1.346,3.273-2.75,6.845-4.272,9.662
		c-2.891,6.012-6.18,11.789-9.565,17.496c-6.918,11.323-14.846,21.895-23.311,31.868c-9.571,11.323-19.958,21.72-30.709,31.595
		c-8.242,7.571-16.677,14.862-25.231,21.871c-0.409,0.333-0.827,0.657-1.238,0.99c-4.619,3.758-9.303,7.441-13.953,11.163
		c33.531,0.727,67.273-1.787,98.683-11.163c4.517-1.349,8.992-2.824,13.406-4.465c13.158-4.702,25.571-10.937,37.06-18.396
		c20.469-13.288,37.927-30.571,50.879-50.774c20.246-31.588,31.062-68.503,34.911-105.941c3.528-33.205,2.372-67.043-2.981-100.173
		c-11.466,5.023-22.633,9.061-33.36,12.062c11.157,14.632,19.052,31.985,22.81,50.248c4.471,20.158,3.979,41.122,0.606,61.305
		c-3.772,20.151-10.272,39.687-19.471,57.843c-9.107,18.151-20.276,35.365-34.409,50.036c9.024-17.984,16.958-36.057,23.791-54.393
		c6.719-18.354,12.229-36.993,15.489-55.92c3.391-18.886,4.466-38.086,2.564-57.148c-1.67-17.433-6.377-34.542-13.039-51.525
		c-10.528,2.865-20.613,4.79-30.271,6.072c2.345,3.046,4.693,6.095,6.96,9.263l4.436,6.284l3.475,6.797
		c2.18,4.604,4.569,9.192,6.543,13.936c1.584,4.86,2.981,9.802,4.477,14.74c4.909,19.938,6.036,40.92,3.056,61.23
		c-3.142,20.271-9.107,39.995-17.857,58.377c-8.734,18.336-19.591,35.772-33.603,50.549c8.875-18.05,16.455-36.259,22.894-54.688
		c6.245-18.48,11.221-37.208,13.888-56.189l1.681-14.256c0.343-4.76,0.166-9.529,0.409-14.302c0.438-4.794-0.087-9.527-0.429-14.29
		c-0.507-4.735-0.296-9.605-1.391-14.269c-0.809-4.718-1.723-9.432-2.445-14.23c-1.104-4.686-2.681-9.265-3.979-13.972l-1.941-7.108
		l-2.866-6.78c-1.485-3.571-2.888-7.26-4.293-10.96c-9.854,1.263-19.272,1.889-28.053,1.889c-6.082,0-11.887-0.259-17.392-0.708
		c2.231,2.385,4.476,4.743,6.655,7.22l4.976,5.734c1.586,1.966,2.792,4.165,4.214,6.253l7.988,12.945
		c2.191,4.55,3.992,9.287,6.012,13.963c7.243,18.927,10.895,39.445,9.965,59.7c-0.86,20.24-4.813,40.239-11.863,59.041
		c-7.04,18.751-16.448,36.718-29.309,52.098c7.513-18.322,13.554-36.754,18.279-55.339c4.521-18.619,7.561-37.419,8.084-56.23
		c1.124-18.847-1.634-37.566-6.179-55.857l-3.941-13.701l-5.46-13.291c-0.919-2.228-1.63-4.586-2.733-6.737l-3.479-6.399
		c-1.668-3.112-3.266-6.343-4.871-9.566c-11.14-1-20.985-2.766-29.356-4.777c5.434,7.272,9.853,14.987,13.311,22.832
		C587.117,465.576,590.097,475.026,592.332,484.554z"/>
	<path fill="#FFF6EB" d="M731.416,623.433c25.246-20.739,47.985-44.655,60.319-72.296c5.819-13.712,8.906-29.313,9.62-44.82
		c0.635-15.504-1.042-31.323-6.571-45.362c-5.276-14.091-15.293-26.03-30.115-31.077c-4.825-1.652-10.055-2.538-15.451-2.923
		c8.517,8.69,15.9,18.138,22.878,27.857c7.996,11.535,15.554,23.362,21.245,36.439c-10.508-9.855-19.146-20.959-27.349-32.356
		c-7.112-10.231-13.784-20.754-19.184-32.13c-2.035-0.083-4.093-0.096-6.163-0.038c-1.551,0.087-3.123,0.374-4.682,0.53
		c1.597,12.93,2.59,25.926,2.936,38.951c5.453,6.693,10.326,13.73,14.935,20.925c6.746,10.961,13.039,22.19,17.4,34.572
		c-9.348-9.412-16.759-19.976-23.719-30.81c-2.95-4.779-5.773-9.634-8.421-14.593c0,11.581-0.604,23.166-1.72,34.728
		c3.254,3.56,6.165,7.329,8.904,11.224c4.788,7.209,9.124,14.699,11.734,23.619c-7.228-5.431-12.721-12.293-17.766-19.437
		c-1.329-1.991-2.609-4.018-3.843-6.076c-0.028,0.227-0.042,0.454-0.07,0.681c-5.275,39.539-17.387,79.379-41.356,112.876
		c-9.67,13.638-21.313,25.984-34.431,36.536c10.288-5.836,20.42-11.693,30.157-17.857
		C704.972,643.42,718.657,633.822,731.416,623.433z"/>
	<path fill="#FFF6EB" d="M650.258,219.019c-14.593-3.316-28.112-9.651-40.837-16.555c-12.664-7.092-24.462-15.145-36.211-22.806
		c-5.765-3.901-11.322-7.486-17.006-9.783c-5.62-2.356-11.407-3.086-17.746-2.868c-12.774,0.46-25.543,4.967-35.011,12.944
		c-9.49,7.854-13.245,20.61-8.158,32.586c4.206,10.627,12.774,19.749,21.592,28.459c0.903-1.463,1.906-2.859,3.045-4.127
		c8.597-9.581,20.471-13.089,31.296-14.73c11.035-1.49,21.954-0.88,32.508,0.933c23.897,4.26,45.883,14.448,64.963,28.434
		c9.935-4.408,25.309-13.512,45.338-32.032C679.743,222.681,664.651,222.469,650.258,219.019z"/>
	<path fill="#FFF6EB" d="M558.626,420.777c1.035,0.966,1.894,2.027,2.87,3.025c27.819,8.438,82.951,17.314,149.75-12.55
		c-0.332-1.829-0.615-3.668-0.972-5.492c-7.229-37.031-18.542-74.068-40.227-104.048c-21.193-30.173-53.435-53.626-89.74-61.9
		c-9.015-1.956-18.264-2.8-27.082-1.983c-8.726,0.82-17.209,3.605-22.201,8.656c-5.123,4.841-6.051,12.483-3.556,20.608
		c2.766,9.726,5.092,19.488,6.469,29.322c2.776,19.668,3.628,39.353,2.999,58.921c-0.53,16.846-1.967,33.618-4.402,50.229
		c2.149,0.708,4.278,1.476,6.355,2.317C546.255,411.203,552.897,415.65,558.626,420.777z M595.106,288.552
		c16.386,0,29.712,12.97,29.712,28.916c0,15.945-13.326,28.915-29.712,28.915c-16.386,0-29.72-12.97-29.72-28.915
		C565.386,301.522,578.719,288.552,595.106,288.552z"/>
	<path fill="#FFF6EB" d="M485.987,675.423c16.405-15.072,31.975-30.66,45.531-47.4c7.492-9.334,14.344-19.036,20.166-29.188
		c2.83-5.11,5.579-10.248,7.936-15.535c1.367-2.712,2.099-4.994,3.083-7.481c0.773-2.583,1.663-5.09,2.243-7.808
		c5.149-21.483,5.143-45.507,1.077-68.001c-4.131-22.327-12.867-44.689-27.606-58.149c-3.672-3.241-7.583-5.91-11.758-7.867
		c-4.278-1.645-8.618-3.203-13.421-3.335c-7.911-0.852-16.83,1.086-25.344,4.123c10.586,15.095,20.18,30.732,29.424,46.561
		c11.518,20.162,22.557,40.587,31.639,62.083c-14.163-18.715-26.367-38.501-38.094-58.549
		c-9.176-16.037-17.992-32.272-25.798-49.058c-0.584,0.228-1.188,0.409-1.765,0.645c-9.042,3.945-17.43,10.805-25,19.206
		c-2.892,3.075-5.575,6.528-8.21,10.083c11.566,14.884,21.803,30.531,31.574,46.446c10.805,18.022,21.138,36.315,29.535,55.721
		c-13.416-16.52-24.901-34.15-35.911-52.054c-9.491-15.801-18.522-31.863-26.277-48.661c-4.008,5.509-7.885,11.283-11.962,16.785
		c-5.343,7.757-10.174,15.821-14.76,24.029c8.295,11.673,15.746,23.807,22.918,36.093c9.545,16.795,18.61,33.851,25.718,51.977
		c-12.19-15.351-22.425-31.77-32.178-48.45c-6.643-11.668-13.003-23.492-18.672-35.69c-7.629,14.106-14.231,28.789-20.078,43.838
		c7.304,8.208,13.482,17.018,19.279,26.083c6.793,11.052,13.124,22.367,17.666,35.039c-9.303-9.373-16.816-20.103-23.867-31.096
		c-5.306-8.601-10.315-17.405-14.361-26.728c-7.127,18.767-13.16,38.044-18.419,57.498c-4.869,19.418-8.798,39.054-12.081,58.84
		c-1.261,7.597-2.416,15.22-3.486,22.861c-3.869,27.609-6.619,55.479-8.757,83.494c2.869-2.021,5.761-4.014,8.598-6.078
		c33.251-23.946,64.678-50.449,95.598-77.416c6.787-5.919,13.573-11.838,20.322-17.781
		C482.35,678.826,484.147,677.113,485.987,675.423z"/>
	<path fill="#FFF6EB" d="M515.072,271.113c-0.742-2.056-1.342-4.227-1.82-6.455c-4.735,12.056-12.675,23.028-22.742,32.071
		c-5.844,5.382-12.831,9.616-20.186,13.154c-3.087,1.442-6.322,2.556-9.603,3.556c2.477,1.067,5.076,2.079,7.725,3.108
		c6.788,2.554,13.9,4.695,20.953,7.113c13.17,4.278,26.463,8.614,39.681,13.702c-1.341-13.171-3.281-26.235-6.165-39.01
		C520.996,289.008,518.19,279.955,515.072,271.113z"/>
	<path fill="#CC403A" d="M573.437,659.57c12.521-14.81,21.491-32.344,27.867-50.675c6.395-18.384,9.439-37.987,9.137-57.638
		c-0.369-4.906-0.146-9.847-1.064-14.708l-2.395-14.583c-1.204-4.778-2.858-9.458-4.273-14.165
		c-0.798-2.329-1.335-4.737-2.346-6.987l-3.235-6.664c-1.409-3.305-3.053-6.48-4.795-9.594c0.828,3.533,1.571,7.076,2.202,10.626
		c2.338,13.129,3.225,26.371,2.978,39.651c-0.171,7.626-0.778,15.278-1.914,22.937c-0.044,16.052-2.001,32.174-5.408,48.164
		C586.145,623.946,580.608,641.818,573.437,659.57z"/>
	<path fill="#4D915F" d="M495.288,212.537c-5.087-11.976-1.332-24.732,8.158-32.586c9.468-7.977,22.237-12.484,35.011-12.944
		c6.34-0.218,12.127,0.512,17.746,2.868c5.684,2.297,11.241,5.882,17.006,9.783c11.749,7.661,23.547,15.714,36.211,22.806
		c12.725,6.904,26.245,13.239,40.837,16.555c14.394,3.45,29.486,3.662,43.773,0.456c-20.03,18.519-35.403,27.623-45.338,32.032
		c2.203,1.617,4.367,3.29,6.494,5.004c12.551-6.139,30.935-18.166,54.395-41.869l-0.394-0.37c8.75-4.117,16.531-9.946,21.961-17.507
		c-7.688,6.659-16.772,10.998-26.265,13.479l-0.644-0.603c-0.388,0.39-0.746,0.719-1.128,1.103c-3.19,0.748-6.418,1.31-9.657,1.64
		c-13.546,1.521-27.311-0.202-40.048-4.195c-25.863-8.329-48.365-24.677-71.853-40.441c-5.975-3.883-12.382-7.993-19.917-10.921
		c-7.538-3.003-16.228-4.156-24.072-3.41c-15.499,1.438-31.055,7.174-42.188,18.53c-5.475,5.657-9.891,12.913-10.996,20.952
		c-1.196,7.966,0.691,15.997,4.339,22.605c6.826,11.664,17.062,19.619,27.662,26.436c0.177-0.309,0.312-0.64,0.498-0.942
		C508.062,232.286,499.494,223.164,495.288,212.537z"/>
	<path fill="#4D915F" d="M471.384,778.611c-7.556,25.915-11.516,52.862-12.572,79.905c-0.749,13.534,0.347,27.08,1.009,40.592
		l2.892,20.117c0.557,3.337,0.825,6.715,1.617,10.011l2.473,9.857c5.621,26.49,16.947,51.445,30.131,74.618
		c-7.564-25.72-15.446-50.774-18.779-76.811c-2.479-12.827-3-25.922-4.336-38.847c-0.199-13.029-1.175-26.022-0.203-39.039
		c0.731-26.016,3.894-52.011,8.971-77.739c4.71-23.244,10.916-46.265,18.652-69.078c-0.553-0.043-1.105-0.097-1.659-0.144
		C487.3,732.81,478.099,755.379,471.384,778.611z"/>
	<path fill="#4D915F" d="M493.769,781.502c-5.549,26.407-7.433,53.574-6.417,80.618c0.289,13.551,2.421,26.975,4.117,40.399
		l4.424,19.842c0.809,3.286,1.339,6.634,2.378,9.861l3.223,9.643c7.63,25.992,20.837,50.026,35.761,72.144
		c-9.512-25.079-19.291-49.47-24.609-75.182c-3.454-12.604-4.978-25.623-7.302-38.41c-1.195-12.976-3.163-25.859-3.19-38.911
		c-1.265-25.997-0.101-52.154,2.991-78.188c2.913-23.508,7.327-46.906,13.285-70.211c-0.555-0.014-1.109-0.051-1.664-0.068
		C506.119,734.652,498.682,757.842,493.769,781.502z"/>
	<path fill="#4D915F" d="M523.674,776.329c-3.749,26.715-3.789,53.946-0.943,80.862c1.204,13.502,4.241,26.754,6.84,40.036
		l5.758,19.505c1.027,3.225,1.784,6.531,3.039,9.682l3.865,9.408c9.373,25.429,24.179,48.534,40.565,69.614
		c-11.19-24.393-22.596-48.081-29.644-73.383c-4.299-12.347-6.698-25.236-9.883-37.839c-2.069-12.869-4.904-25.592-5.816-38.613
		c-3.021-25.854-3.63-52.03-2.305-78.211c1.199-21.578,3.684-43.147,7.409-64.723c-1.08,0.064-2.16,0.153-3.24,0.203
		C531.645,733.252,526.66,754.686,523.674,776.329z"/>
	<path fill="#4D915F" d="M553.399,775.616c-1.234,26.944,1.273,54.062,6.626,80.601c2.464,13.333,6.728,26.25,10.56,39.237
		l7.558,18.894c1.327,3.117,2.387,6.34,3.932,9.361l4.731,9.014c11.713,24.46,28.617,46.11,46.907,65.598
		c-13.423-23.263-27-45.804-36.384-70.352c-5.437-11.9-9.035-24.513-13.385-36.771c-3.266-12.623-7.279-25.032-9.404-37.914
		c-5.43-25.467-8.486-51.473-9.619-77.663c-0.827-21.657-0.355-43.426,1.351-65.315c-1.045,0.159-2.099,0.235-3.147,0.38
		C557.338,731.78,554.348,753.685,553.399,775.616z"/>
	<path fill="#4D915F" d="M584.389,769.276c1.551,26.928,6.84,53.651,14.902,79.513c3.825,13.015,9.399,25.435,14.55,37.967
		l9.466,18.032c1.641,2.967,3.027,6.066,4.877,8.916l5.637,8.489c14.173,23.15,33.219,42.982,53.421,60.524
		c-15.749-21.787-31.58-42.841-43.444-66.315c-6.637-11.29-11.516-23.474-17.105-35.23c-4.551-12.228-9.821-24.167-13.266-36.767
		c-8.025-24.786-13.746-50.349-17.571-76.288c-2.955-20.743-4.692-41.716-5.312-62.911c-1.168,0.305-2.335,0.6-3.505,0.885
		C583.794,726.905,583.123,748.169,584.389,769.276z"/>
	<path fill="#4D915F" d="M293.03,675.423c-3.977-6.341-11.09-10.614-19.284-10.614c-12.512,0-22.654,9.87-22.654,22.045
		c0,12.175,10.143,22.045,22.654,22.045c8.194,0,15.307-4.273,19.284-10.614h52.813c0.599-7.622,1.309-15.243,2.13-22.861H293.03z"
		/>
	<path fill="#4D915F" d="M857.728,664.809c-8.194,0-15.306,4.273-19.285,10.614H668.234c-5.965,1.223-11.975,2.164-18.028,2.813
		c-11.882,8.145-24.705,14.844-38.064,20.049h226.301c3.979,6.341,11.091,10.614,19.285,10.614c12.512,0,22.654-9.87,22.654-22.045
		C880.382,674.679,870.24,664.809,857.728,664.809z"/>
	<path fill="#1B669E" d="M740.645,426.729c2.069-0.058,4.128-0.046,6.163,0.038c5.4,11.376,12.072,21.898,19.184,32.13
		c8.203,11.397,16.841,22.501,27.349,32.356c-5.691-13.077-13.249-24.905-21.245-36.439c-6.978-9.719-14.361-19.167-22.878-27.857
		c5.396,0.386,10.627,1.271,15.451,2.923c14.822,5.047,24.839,16.986,30.115,31.077c5.528,14.039,7.206,29.858,6.571,45.362
		c-0.713,15.507-3.8,31.108-9.62,44.82c-12.334,27.641-35.073,51.557-60.319,72.296c-12.759,10.389-26.444,19.987-40.715,29.167
		c-9.737,6.164-19.869,12.021-30.157,17.857c-2.113,1.701-4.256,3.369-6.449,4.967c-0.861,0.627-1.656,1.336-2.528,1.946
		c-0.441,0.308-0.918,0.563-1.361,0.866c6.052-0.649,12.063-1.59,18.028-2.813c10.105-2.072,20.088-4.822,29.858-8.264
		c16.981-5.867,33.332-13.774,48.645-23.526c30.394-19.479,57.76-46.666,71.595-82.441c6.707-17.998,9.107-36.501,8.479-54.883
		c-0.758-18.328-4.611-36.851-13.794-53.682c-4.699-8.309-10.835-16.126-18.612-22.305c-7.667-6.301-17.279-10.339-26.886-11.728
		c-11.397-1.781-22.229-0.168-32.285,3.128c0.253,1.844,0.5,3.689,0.728,5.536C737.522,427.103,739.094,426.816,740.645,426.729z"/>
	<path fill="#1B669E" d="M758.011,545.876c-2.61-8.921-6.945-16.41-11.734-23.619c-2.739-3.895-5.649-7.664-8.904-11.224
		c-0.301,3.111-0.585,6.224-0.972,9.331c1.234,2.058,2.515,4.084,3.843,6.076C745.29,533.582,750.783,540.444,758.011,545.876z"/>
	<path fill="#1B669E" d="M771.234,521.707c-4.361-12.381-10.654-23.611-17.4-34.572c-4.609-7.195-9.482-14.233-14.935-20.925
		c0.087,3.364,0.195,6.728,0.195,10.095c2.649,4.959,5.471,9.814,8.421,14.593C754.475,501.73,761.886,512.294,771.234,521.707z"/>
	<path fill="#CC403A" d="M651.567,677.369c0.872-0.611,1.667-1.32,2.528-1.946c2.193-1.599,4.336-3.266,6.449-4.967
		c13.118-10.552,24.761-22.898,34.431-36.536c23.97-33.497,36.081-73.337,41.356-112.876c0.029-0.227,0.043-0.454,0.07-0.681
		c0.387-3.107,0.671-6.22,0.972-9.331c1.116-11.563,1.72-23.148,1.72-34.728c0-3.367-0.107-6.73-0.195-10.095
		c-0.346-13.024-1.339-26.021-2.936-38.951c-0.227-1.847-0.475-3.692-0.728-5.536c-0.909-6.656-1.917-13.298-3.129-19.905
		c-3.783-19.606-9.025-38.975-16.091-57.893c-7.022-18.866-16.304-37.55-28.742-54.149c-9.197-12.226-19.992-23.51-32.088-33.266
		c-2.126-1.715-4.29-3.388-6.494-5.004c-19.08-13.986-41.065-24.174-64.963-28.434c-10.555-1.813-21.473-2.423-32.508-0.933
		c-10.826,1.64-22.699,5.149-31.296,14.73c-1.139,1.268-2.142,2.664-3.045,4.127c-0.186,0.303-0.321,0.633-0.498,0.942
		c-2.124,3.738-3.525,7.898-3.872,12.028c-0.25,2.569-0.115,5.055,0.195,7.48c-9.073,10.202-18.901,19.122-29.532,26.284
		c-5.894,3.85-12.033,7.114-18.473,9.444c-3.155,1.341-6.466,2.156-9.736,3.075c-1.572,0.476-4.022,0.973-6.3,1.897
		c-1.198,0.474-2.485,1.031-4.042,2.084c-1.284,0.957-4.056,2.903-4.607,7.397c-0.197,4.46,2.007,6.697,3.135,7.969
		c1.317,1.341,2.406,2.037,3.508,2.781c2.129,1.349,4.085,2.239,6.031,3.061c3.863,1.592,7.598,2.851,11.379,3.877
		c7.528,2.065,14.973,3.813,22.527,5.039c14.07,2.429,28.241,3.945,42.603,4.073c0.56,5.656,1.042,11.325,1.387,17.009
		c1.001,16.536,1.372,33.176,0.97,49.837c0.324,0.102,0.654,0.185,0.978,0.292c2.436-16.612,3.873-33.383,4.402-50.229
		c0.63-19.568-0.223-39.253-2.999-58.921c-1.377-9.834-3.703-19.596-6.469-29.322c-2.496-8.125-1.567-15.767,3.556-20.608
		c4.992-5.051,13.475-7.836,22.201-8.656c8.819-0.816,18.068,0.028,27.082,1.983c36.305,8.273,68.547,31.727,89.74,61.9
		c21.684,29.98,32.998,67.017,40.227,104.048c0.357,1.824,0.64,3.662,0.972,5.492c-66.799,29.865-121.93,20.988-149.75,12.55
		c3.029,3.097,5.788,6.327,8.295,9.68c8.371,2.012,18.216,3.777,29.356,4.777c1.605,3.224,3.203,6.455,4.871,9.566l3.479,6.399
		c1.103,2.151,1.815,4.509,2.733,6.737l5.46,13.291l3.941,13.701c4.545,18.291,7.303,37.01,6.179,55.857
		c-0.523,18.812-3.563,37.612-8.084,56.23c-4.725,18.585-10.766,37.017-18.279,55.339c12.861-15.38,22.269-33.346,29.309-52.098
		c7.05-18.801,11.003-38.8,11.863-59.041c0.93-20.255-2.722-40.773-9.965-59.7c-2.02-4.676-3.821-9.413-6.012-13.963l-7.988-12.945
		c-1.422-2.088-2.628-4.287-4.214-6.253l-4.976-5.734c-2.18-2.476-4.424-4.835-6.655-7.22c5.505,0.449,11.311,0.708,17.392,0.708
		c8.782,0,18.2-0.626,28.053-1.889c1.405,3.7,2.807,7.389,4.293,10.96l2.866,6.78l1.941,7.108c1.298,4.707,2.875,9.286,3.979,13.972
		c0.722,4.797,1.636,9.512,2.445,14.23c1.096,4.664,0.884,9.535,1.391,14.269c0.341,4.763,0.866,9.496,0.429,14.29
		c-0.242,4.773-0.066,9.542-0.409,14.302l-1.681,14.256c-2.667,18.981-7.642,37.709-13.888,56.189
		c-6.439,18.429-14.019,36.637-22.894,54.688c14.011-14.777,24.868-32.213,33.603-50.549c8.75-18.382,14.715-38.106,17.857-58.377
		c2.981-20.31,1.854-41.292-3.056-61.23c-1.496-4.938-2.892-9.881-4.477-14.74c-1.974-4.744-4.363-9.331-6.543-13.936l-3.475-6.797
		l-4.436-6.284c-2.266-3.167-4.614-6.216-6.96-9.263c9.659-1.282,19.743-3.207,30.271-6.072
		c6.662,16.983,11.369,34.092,13.039,51.525c1.902,19.062,0.827,38.262-2.564,57.148c-3.26,18.928-8.77,37.566-15.489,55.92
		c-6.833,18.335-14.767,36.409-23.791,54.393c14.133-14.671,25.302-31.885,34.409-50.036c9.199-18.156,15.7-37.692,19.471-57.843
		c3.373-20.183,3.865-41.148-0.606-61.305c-3.758-18.263-11.653-35.616-22.81-50.248c10.727-3.001,21.895-7.039,33.36-12.062
		c5.352,33.13,6.509,66.969,2.981,100.173c-3.85,37.437-14.665,74.352-34.911,105.941c-12.952,20.203-30.41,37.486-50.879,50.774
		c-11.488,7.459-23.901,13.694-37.06,18.396c-4.414,1.641-8.888,3.117-13.406,4.465c-31.411,9.376-65.152,11.89-98.683,11.163
		c-0.188,0.15-0.377,0.301-0.563,0.451c6.481,0.899,13.011,1.611,19.569,2.156c0.553,0.046,1.106,0.1,1.659,0.144
		c5.162,0.403,10.338,0.686,15.526,0.842c0.555,0.017,1.109,0.054,1.664,0.068c6.956,0.171,13.921,0.087,20.889-0.239
		c1.08-0.05,2.16-0.139,3.24-0.203c6.869-0.402,13.729-1.034,20.567-1.981c1.048-0.145,2.102-0.221,3.147-0.38
		c6.961-1.054,13.876-2.53,20.764-4.214c1.171-0.285,2.338-0.581,3.505-0.885c1.865-0.487,3.743-0.878,5.6-1.415
		c5.406-1.584,10.732-3.456,16-5.507c13.359-5.204,26.182-11.904,38.064-20.049C650.649,677.932,651.126,677.678,651.567,677.369z
		 M529.08,337.364c-13.217-5.088-26.511-9.425-39.681-13.702c-7.053-2.418-14.165-4.558-20.953-7.113
		c-2.65-1.029-5.248-2.042-7.725-3.108c3.28-1,6.515-2.115,9.603-3.556c7.355-3.538,14.342-7.771,20.186-13.154
		c10.067-9.043,18.007-20.015,22.742-32.071c0.478,2.227,1.078,4.398,1.82,6.455c3.118,8.841,5.924,17.895,7.843,27.24
		C525.798,311.129,527.739,324.193,529.08,337.364z"/>
	<path fill="#1B669E" d="M494.527,698.284c0.411-0.333,0.829-0.657,1.238-0.99c8.554-7.01,16.989-14.301,25.231-21.871
		c10.75-9.875,21.138-20.272,30.709-31.595c8.464-9.973,16.393-20.545,23.311-31.868c3.385-5.707,6.673-11.484,9.565-17.496
		c1.522-2.816,2.926-6.388,4.272-9.662c1.139-3.327,2.373-6.671,3.203-10.001c1.602-5.678,2.702-11.358,3.544-17.033
		c1.136-7.659,1.742-15.311,1.914-22.937c0.247-13.279-0.64-26.521-2.978-39.651c-0.631-3.551-1.373-7.093-2.202-10.626
		c-2.235-9.528-5.215-18.978-9.231-28.24c-3.458-7.845-7.876-15.559-13.311-22.832c-2.507-3.353-5.266-6.583-8.295-9.68
		c-0.976-0.999-1.835-2.059-2.87-3.025c-5.729-5.127-12.371-9.574-19.738-12.895c-2.077-0.841-4.205-1.609-6.355-2.317
		c-0.323-0.107-0.653-0.189-0.978-0.292c-5.254-1.662-10.665-2.859-16.089-3.059c-16.198-1.236-30.747,2.948-44.208,8.61
		c-14.205,6.404-25.419,16.286-34.513,26.521c-9.311,10.306-15.989,21.175-23.367,31.959c-3.842,5.281-6.672,11.115-9.895,16.727
		c-3.064,5.693-6.467,11.229-9.227,17.046c-5.175,11.771-11.199,23.227-15.273,35.357l-6.669,17.983l-5.481,18.294
		c-3.891,12.146-6.096,24.631-9.109,36.927c-4.324,21.23-7.463,42.5-9.753,63.784c-0.822,7.619-1.531,15.239-2.13,22.861
		c-2.419,30.794-3.133,61.604-2.79,92.367c-34.338,22.992-70.953,42.872-110.002,58.341c38.442-9.876,75.283-25.583,110.214-44.622
		c0.731,35.386,2.681,70.694,4.853,105.821c2.321-37.398,4.091-74.912,6.673-112.232c6.048-3.463,12.046-7.001,17.97-10.642
		c37.63-23.495,72.883-49.936,107.25-77.418c0.186-0.15,0.375-0.3,0.563-0.451C485.224,705.726,489.908,702.042,494.527,698.284z
		 M364.57,775.7c-2.837,2.065-5.729,4.057-8.598,6.078c2.138-28.015,4.888-55.885,8.757-83.494
		c1.071-7.641,2.225-15.264,3.486-22.861c3.283-19.786,7.212-39.422,12.081-58.84c5.258-19.453,11.292-38.731,18.419-57.498
		c4.046,9.323,9.055,18.127,14.361,26.728c7.051,10.993,14.564,21.723,23.867,31.096c-4.542-12.672-10.873-23.986-17.666-35.039
		c-5.797-9.066-11.975-17.876-19.279-26.083c5.847-15.049,12.449-29.732,20.078-43.838c5.668,12.198,12.029,24.022,18.672,35.69
		c9.753,16.681,19.988,33.1,32.178,48.45c-7.108-18.126-16.173-35.182-25.718-51.977c-7.172-12.286-14.623-24.42-22.918-36.093
		c4.586-8.208,9.417-16.273,14.76-24.029c4.077-5.502,7.954-11.276,11.962-16.785c7.755,16.798,16.786,32.86,26.277,48.661
		c11.01,17.904,22.495,35.534,35.911,52.054c-8.398-19.405-18.73-37.699-29.535-55.721c-9.771-15.915-20.008-31.563-31.574-46.446
		c2.635-3.555,5.318-7.008,8.21-10.083c7.569-8.401,15.957-15.261,25-19.206c0.577-0.236,1.181-0.418,1.765-0.645
		c7.806,16.787,16.622,33.021,25.798,49.058c11.727,20.048,23.932,39.834,38.094,58.549c-9.081-21.496-20.121-41.92-31.639-62.083
		c-9.244-15.828-18.838-31.466-29.424-46.561c8.514-3.037,17.433-4.975,25.344-4.123c4.803,0.132,9.143,1.69,13.421,3.335
		c4.175,1.957,8.087,4.626,11.758,7.867c14.739,13.459,23.475,35.822,27.606,58.149c4.067,22.495,4.072,46.519-1.077,68.001
		c-0.58,2.719-1.47,5.225-2.243,7.808c-0.984,2.487-1.717,4.769-3.083,7.481c-2.358,5.287-5.106,10.425-7.936,15.535
		c-5.821,10.152-12.673,19.854-20.166,29.188c-13.556,16.74-29.126,32.328-45.531,47.4c-1.839,1.69-3.637,3.403-5.497,5.08
		c-6.748,5.943-13.535,11.863-20.322,17.781C429.248,725.251,397.821,751.754,364.57,775.7z"/>
	<path fill="#CC403A" d="M595.106,346.383c16.386,0,29.712-12.97,29.712-28.915c0-15.946-13.326-28.916-29.712-28.916
		c-16.386,0-29.72,12.97-29.72,28.916C565.386,333.413,578.719,346.383,595.106,346.383z"/>
</g>
</svg>
