<?xml version="1.0" encoding="utf-8"?>
<!-- Generator: Adobe Illustrator 23.1.0, SVG Export Plug-In . SVG Version: 6.00 Build 0)  -->
<svg version="1.1" id="Layer_1" xmlns="http://www.w3.org/2000/svg" xmlns:xlink="http://www.w3.org/1999/xlink" x="0px" y="0px"
	 viewBox="0 0 1200 1200" enable-background="new 0 0 1200 1200" xml:space="preserve">
<g>
	<path fill="#C1B6AC" d="M972.194,111.594c8.947,14.904,14.187,32.286,14.187,50.935v852.623c0,54.799-44.424,99.223-99.223,99.223
		H293.503c-17.598,0-34.094-4.627-48.424-12.661c17.343,28.891,48.885,48.288,85.035,48.288H923.77
		c54.8,0,99.223-44.423,99.223-99.223V198.155C1022.992,160.953,1002.488,128.579,972.194,111.594z"/>
	<path fill="#D1C8BF" d="M887.159,1114.374c54.798,0,99.223-44.423,99.223-99.223V162.528c0-18.648-5.24-36.031-14.187-50.935
		c-12.188-20.304-31.367-35.9-54.281-43.37C901.179,56.746,880.956,50,859.176,50H281.145c-57.423,0-104.137,46.716-104.137,104.138
		v830.146c0,25.172,8.981,48.282,23.905,66.306c8.339,21.764,24.053,39.845,44.166,51.121c14.33,8.034,30.827,12.661,48.424,12.661
		H887.159z M192.169,984.285V154.138c0-49.063,39.913-88.976,88.976-88.976h578.031c49.064,0,88.974,39.912,88.974,88.976v830.146
		c0,49.06-39.911,88.972-88.974,88.972H281.145C232.082,1073.257,192.169,1033.345,192.169,984.285z"/>
	<path fill="#FFF6EB" d="M281.145,1073.257h578.031c49.064,0,88.974-39.912,88.974-88.972V154.138
		c0-49.063-39.911-88.976-88.974-88.976H281.145c-49.063,0-88.976,39.912-88.976,88.976v830.146
		C192.169,1033.345,232.082,1073.257,281.145,1073.257z M474.274,804.81c0.706,1.643,1.063,3.344,1.063,5.063l-0.021,1.422
		c0.004,1.759-0.35,3.497-1.056,5.173c-10.91,63.55-10.575,128.395,0.997,192.732l0.059,0.662c0.013,4.193-2.028,8.237-5.742,11.389
		c-4.628,3.927-11.447,6.179-18.705,6.179h-75.428c-13.491,0-24.468-7.774-24.468-17.329l0.061-0.67
		c6.026-33.635,9.063-67.438,9.027-100.469c-0.027-24.555-1.744-49.39-5.103-73.816c-0.808-5.892-1.767-12.08-2.853-18.406
		c-0.751-1.693-1.132-3.441-1.132-5.206l0.078-0.775c-0.048-0.242-0.078-0.563-0.078-0.885c0-1.672,0.359-3.36,1.071-5.026
		c5.354-31.773,8.051-63.547,8.017-94.454c-0.027-24.556-1.744-49.39-5.103-73.815c-1.071-7.814-2.383-16.01-3.901-24.362
		c-0.053-0.258-0.084-0.584-0.084-0.911c0-9.556,10.977-17.331,24.468-17.331h75.428c13.491,0,24.468,7.775,24.468,17.331
		l-0.061,0.684C463.68,675.378,463.343,740.251,474.274,804.81z M474.274,335.756c0.706,1.643,1.063,3.344,1.063,5.063l-0.021,1.422
		c0.004,1.759-0.35,3.497-1.056,5.173c-10.91,63.55-10.575,128.395,0.997,192.732l0.059,0.662c0.013,4.193-2.028,8.237-5.742,11.389
		c-4.628,3.927-11.447,6.179-18.705,6.179h-75.428c-13.491,0-24.468-7.774-24.468-17.329l0.061-0.67
		c6.026-33.635,9.063-67.438,9.027-100.469c-0.027-24.555-1.744-49.39-5.103-73.816c-0.808-5.892-1.767-12.08-2.853-18.406
		c-0.751-1.693-1.132-3.441-1.132-5.206l0.078-0.775c-0.048-0.242-0.078-0.563-0.078-0.885c0-1.672,0.359-3.36,1.071-5.026
		c5.354-31.773,8.051-63.547,8.017-94.454c-0.027-24.556-1.744-49.39-5.103-73.814c-1.071-7.814-2.383-16.01-3.901-24.362
		c-0.053-0.258-0.084-0.584-0.084-0.911c0-9.556,10.977-17.331,24.468-17.331h75.428c13.491,0,24.468,7.775,24.468,17.331
		l-0.061,0.684C463.68,206.323,463.343,271.197,474.274,335.756z M641.748,577.879c0.706,1.643,1.065,3.344,1.065,5.063
		l-0.023,1.422c0.004,1.76-0.35,3.497-1.054,5.173c-10.91,63.55-10.577,128.395,0.995,192.732l0.059,0.662
		c0.013,4.192-2.028,8.237-5.74,11.388c-4.63,3.927-11.448,6.179-18.707,6.179h-75.426c-13.493,0-24.468-7.774-24.468-17.329
		l0.059-0.671c6.028-33.635,9.063-67.438,9.029-100.469c-0.029-24.555-1.746-49.39-5.103-73.817
		c-0.808-5.892-1.769-12.08-2.855-18.406c-0.749-1.694-1.13-3.442-1.13-5.206l0.076-0.774c-0.048-0.242-0.076-0.563-0.076-0.885
		c0-1.672,0.358-3.361,1.069-5.026c5.354-31.773,8.053-63.547,8.019-94.455c-0.029-24.556-1.746-49.39-5.103-73.814
		c-1.073-7.814-2.383-16.01-3.903-24.362c-0.053-0.258-0.082-0.584-0.082-0.911c0-9.556,10.975-17.33,24.468-17.33h75.426
		c13.493,0,24.47,7.774,24.47,17.33l-0.063,0.684C631.156,448.447,630.819,513.32,641.748,577.879z M794.869,804.81
		c0.706,1.643,1.063,3.344,1.063,5.063l-0.021,1.422c0.004,1.759-0.352,3.497-1.056,5.173
		c-10.91,63.55-10.575,128.395,0.995,192.732l0.061,0.662c0.011,4.193-2.028,8.237-5.742,11.389
		c-4.63,3.927-11.448,6.179-18.705,6.179h-75.428c-13.491,0-24.468-7.774-24.468-17.329l0.061-0.67
		c6.026-33.635,9.063-67.438,9.027-100.469c-0.029-24.555-1.744-49.39-5.103-73.816c-0.808-5.892-1.767-12.08-2.853-18.406
		c-0.751-1.693-1.132-3.441-1.132-5.206l0.076-0.775c-0.048-0.242-0.076-0.563-0.076-0.885c0-1.672,0.359-3.36,1.069-5.026
		c5.354-31.773,8.053-63.547,8.019-94.454c-0.029-24.556-1.744-49.39-5.103-73.815c-1.071-7.814-2.383-16.01-3.903-24.362
		c-0.053-0.258-0.082-0.584-0.082-0.911c0-9.556,10.977-17.331,24.468-17.331h75.428c13.491,0,24.468,7.775,24.468,17.331
		l-0.063,0.684C784.275,675.378,783.938,740.251,794.869,804.81z M794.869,335.756c0.706,1.643,1.063,3.344,1.063,5.063
		l-0.021,1.422c0.004,1.759-0.352,3.497-1.056,5.173c-10.91,63.55-10.575,128.395,0.995,192.732l0.061,0.662
		c0.011,4.193-2.028,8.237-5.742,11.389c-4.63,3.927-11.448,6.179-18.705,6.179h-75.428c-13.491,0-24.468-7.774-24.468-17.329
		l0.061-0.67c6.026-33.635,9.063-67.438,9.027-100.469c-0.029-24.555-1.744-49.39-5.103-73.816
		c-0.808-5.892-1.767-12.08-2.853-18.406c-0.751-1.693-1.132-3.441-1.132-5.206l0.076-0.775c-0.048-0.242-0.076-0.563-0.076-0.885
		c0-1.672,0.359-3.36,1.069-5.026c5.354-31.773,8.053-63.547,8.019-94.454c-0.029-24.556-1.744-49.39-5.103-73.814
		c-1.071-7.814-2.383-16.01-3.903-24.362c-0.053-0.258-0.082-0.584-0.082-0.911c0-9.556,10.977-17.331,24.468-17.331h75.428
		c13.491,0,24.468,7.775,24.468,17.331l-0.063,0.684C784.275,206.323,783.938,271.197,794.869,335.756z"/>
	<path fill="#FFF6EB" d="M453.19,359.731c-0.767,0.052-1.543,0.078-2.32,0.078h-75.428c-0.772,0-1.544-0.026-2.307-0.077
		c0.247,1.667,0.485,3.326,0.709,4.973c3.418,24.857,5.164,50.154,5.193,75.188c0.034,33.563-3.026,67.747-9.094,101.607
		c0.238,1.553,2.606,3.303,5.499,3.303h75.426c2.752,0,5.267-1.638,5.48-3.502C445.475,480.738,444.418,419.69,453.19,359.731z"/>
	<path fill="#FFF6EB" d="M450.868,607.545h-75.426c-2.701,0-5.2,1.602-5.466,3.432c1.478,8.145,2.779,16.29,3.869,24.217
		c3.418,24.856,5.164,50.152,5.193,75.186c0.027,27.106-1.978,54.74-5.961,82.239c0.78-0.051,1.571-0.078,2.366-0.078h75.428
		c0.797,0,1.588,0.027,2.374,0.081c-8.837-60.869-7.791-121.987,3.121-181.781C456.121,609.291,453.757,607.545,450.868,607.545z"/>
	<path fill="#FFF6EB" d="M450.868,346.238c1.967,0,3.867-0.831,4.846-2.072l0.137-0.806c0.101-0.593,0.2-1.187,0.302-1.779
		c-0.105-0.608-0.204-1.215-0.304-1.823l-0.112-0.669c-0.875-1.049-2.621-2.03-4.869-2.03h-75.426c-1.077,0-2.126,0.228-3.036,0.66
		c-0.776,0.369-1.396,0.841-1.818,1.382l-0.133,0.791c-0.095,0.567-0.186,1.133-0.285,1.699c0.162,0.9,0.321,1.799,0.479,2.698
		c0.896,1.012,2.619,1.949,4.793,1.949H450.868z"/>
	<path fill="#FFF6EB" d="M450.868,815.293c1.967,0,3.867-0.831,4.846-2.073l0.137-0.806c0.101-0.593,0.2-1.187,0.302-1.779
		c-0.105-0.608-0.204-1.215-0.304-1.823l-0.112-0.669c-0.875-1.049-2.621-2.03-4.869-2.03h-75.426c-1.077,0-2.126,0.228-3.036,0.661
		c-0.776,0.369-1.396,0.841-1.818,1.382l-0.133,0.791c-0.095,0.567-0.186,1.133-0.285,1.699c0.162,0.9,0.321,1.799,0.479,2.698
		c0.896,1.012,2.619,1.949,4.793,1.949H450.868z"/>
	<path fill="#FFF6EB" d="M450.868,138.49h-75.426c-2.701,0-5.2,1.602-5.466,3.432c1.478,8.145,2.779,16.29,3.869,24.217
		c3.418,24.856,5.164,50.152,5.193,75.186c0.027,27.106-1.978,54.74-5.961,82.239c0.78-0.052,1.571-0.078,2.366-0.078h75.428
		c0.797,0,1.588,0.027,2.374,0.081c-8.837-60.869-7.791-121.987,3.121-181.781C456.121,140.236,453.757,138.49,450.868,138.49z"/>
	<path fill="#FFF6EB" d="M771.461,138.49h-75.424c-2.701,0-5.2,1.602-5.466,3.432c1.476,8.145,2.779,16.29,3.869,24.217
		c3.418,24.856,5.164,50.152,5.191,75.186c0.029,27.106-1.978,54.74-5.961,82.239c0.782-0.052,1.573-0.078,2.368-0.078h75.428
		c0.797,0,1.588,0.027,2.374,0.081c-8.837-60.869-7.791-121.987,3.119-181.781C776.716,140.236,774.352,138.49,771.461,138.49z"/>
	<path fill="#FFF6EB" d="M771.461,607.545h-75.424c-2.701,0-5.2,1.602-5.466,3.432c1.476,8.145,2.779,16.29,3.869,24.217
		c3.418,24.856,5.164,50.152,5.191,75.186c0.029,27.106-1.978,54.74-5.961,82.239c0.782-0.051,1.573-0.078,2.368-0.078h75.428
		c0.797,0,1.588,0.027,2.374,0.081c-8.837-60.869-7.791-121.987,3.119-181.781C776.716,609.291,774.352,607.545,771.461,607.545z"/>
	<path fill="#FFF6EB" d="M453.19,828.786c-0.767,0.052-1.543,0.078-2.32,0.078h-75.428c-0.772,0-1.544-0.026-2.307-0.077
		c0.247,1.667,0.485,3.326,0.709,4.973c3.418,24.857,5.164,50.154,5.193,75.188c0.034,33.563-3.026,67.747-9.094,101.608
		c0.238,1.553,2.606,3.302,5.499,3.302h75.426c2.752,0,5.267-1.638,5.48-3.502C445.475,949.793,444.418,888.745,453.19,828.786z"/>
	<path fill="#FFF6EB" d="M618.341,380.613h-75.424c-2.703,0-5.2,1.602-5.466,3.432c1.476,8.145,2.777,16.29,3.869,24.217
		c3.416,24.856,5.162,50.152,5.191,75.186c0.027,27.106-1.978,54.74-5.961,82.239c0.78-0.051,1.571-0.078,2.368-0.078h75.426
		c0.799,0,1.59,0.027,2.376,0.081c-8.839-60.869-7.791-121.988,3.119-181.782C623.597,382.359,621.231,380.613,618.341,380.613z"/>
	<path fill="#FFF6EB" d="M773.785,359.731c-0.767,0.052-1.543,0.078-2.32,0.078h-75.428c-0.774,0-1.544-0.026-2.307-0.077
		c0.247,1.667,0.485,3.326,0.709,4.973c3.418,24.857,5.164,50.154,5.191,75.188c0.034,33.563-3.026,67.747-9.094,101.607
		c0.24,1.553,2.606,3.303,5.499,3.303h75.426c2.752,0,5.269-1.638,5.482-3.502C766.07,480.738,765.013,419.69,773.785,359.731z"/>
	<path fill="#FFF6EB" d="M773.785,828.786c-0.767,0.052-1.543,0.078-2.32,0.078h-75.428c-0.774,0-1.544-0.026-2.307-0.077
		c0.247,1.667,0.485,3.326,0.709,4.973c3.418,24.857,5.164,50.154,5.191,75.188c0.034,33.563-3.026,67.747-9.094,101.608
		c0.24,1.553,2.606,3.302,5.499,3.302h75.426c2.752,0,5.269-1.638,5.482-3.502C766.07,949.793,765.013,888.745,773.785,828.786z"/>
	<path fill="#FFF6EB" d="M771.461,346.238c1.969,0,3.869-0.831,4.848-2.072l0.137-0.806c0.101-0.593,0.2-1.187,0.302-1.779
		c-0.105-0.608-0.205-1.215-0.306-1.823l-0.112-0.669c-0.873-1.049-2.621-2.03-4.869-2.03h-75.424c-1.077,0-2.126,0.228-3.036,0.66
		c-0.776,0.369-1.396,0.841-1.818,1.382l-0.133,0.791c-0.095,0.567-0.186,1.133-0.285,1.699c0.162,0.9,0.321,1.799,0.477,2.698
		c0.896,1.012,2.619,1.949,4.793,1.949H771.461z"/>
	<path fill="#FFF6EB" d="M771.461,815.293c1.969,0,3.869-0.831,4.848-2.073l0.137-0.806c0.101-0.593,0.2-1.187,0.302-1.779
		c-0.105-0.608-0.205-1.215-0.306-1.823l-0.112-0.669c-0.873-1.049-2.621-2.03-4.869-2.03h-75.424c-1.077,0-2.126,0.228-3.036,0.661
		c-0.776,0.369-1.396,0.841-1.818,1.382l-0.133,0.791c-0.095,0.567-0.186,1.133-0.285,1.699c0.162,0.9,0.321,1.799,0.477,2.698
		c0.896,1.012,2.619,1.949,4.793,1.949H771.461z"/>
	<path fill="#FFF6EB" d="M618.341,588.361c1.969,0,3.869-0.831,4.846-2.073l0.139-0.806c0.099-0.593,0.2-1.187,0.302-1.779
		c-0.105-0.608-0.205-1.215-0.306-1.823l-0.112-0.669c-0.873-1.049-2.621-2.03-4.869-2.03h-75.424c-1.077,0-2.126,0.229-3.036,0.661
		c-0.778,0.369-1.396,0.84-1.82,1.382l-0.131,0.791c-0.095,0.567-0.188,1.133-0.285,1.699c0.16,0.9,0.321,1.799,0.477,2.698
		c0.896,1.012,2.619,1.949,4.793,1.949H618.341z"/>
	<path fill="#FFF6EB" d="M620.666,601.854c-0.768,0.052-1.543,0.078-2.322,0.078h-75.426c-0.774,0-1.544-0.025-2.309-0.077
		c0.249,1.668,0.487,3.326,0.711,4.973c3.416,24.857,5.162,50.154,5.191,75.189c0.034,33.562-3.026,67.747-9.094,101.607
		c0.24,1.553,2.606,3.302,5.499,3.302h75.426c2.752,0,5.269-1.638,5.482-3.502C612.951,722.862,611.894,661.813,620.666,601.854z"/>
	<path fill="#4D915F" d="M475.337,611.305c0-9.556-10.977-17.331-24.468-17.331h-75.428c-13.491,0-24.468,7.775-24.468,17.331
		c0,0.327,0.03,0.653,0.084,0.911c1.518,8.353,2.83,16.549,3.901,24.362c3.359,24.424,5.077,49.259,5.103,73.815
		c0.034,30.907-2.663,62.681-8.017,94.454c-0.711,1.665-1.071,3.354-1.071,5.026c0,0.322,0.03,0.643,0.078,0.885l-0.078,0.775
		c0,1.765,0.38,3.513,1.132,5.206c1.086,6.326,2.045,12.515,2.853,18.406c3.359,24.427,5.077,49.262,5.103,73.816
		c0.036,33.032-3.001,66.834-9.027,100.469l-0.061,0.67c0,9.555,10.977,17.329,24.468,17.329h75.428
		c7.258,0,14.077-2.252,18.705-6.179c3.715-3.151,5.756-7.196,5.742-11.389l-0.059-0.662
		c-11.572-64.337-11.907-129.182-0.997-192.732c0.706-1.675,1.059-3.413,1.056-5.173l0.021-1.422c0-1.719-0.358-3.419-1.063-5.063
		c-10.931-64.559-10.594-129.432,1.002-192.821L475.337,611.305z M450.868,1013.859h-75.426c-2.893,0-5.261-1.75-5.499-3.302
		c6.068-33.86,9.128-68.045,9.094-101.608c-0.029-25.034-1.775-50.331-5.193-75.188c-0.224-1.648-0.462-3.306-0.709-4.973
		c0.763,0.051,1.535,0.077,2.307,0.077h75.428c0.778,0,1.554-0.026,2.32-0.078c-8.772,59.959-7.715,121.007,3.157,181.571
		C456.134,1012.221,453.62,1013.859,450.868,1013.859z M370.169,810.646c0.099-0.566,0.19-1.133,0.285-1.699l0.133-0.791
		c0.422-0.542,1.042-1.013,1.818-1.382c0.909-0.432,1.959-0.661,3.036-0.661h75.426c2.248,0,3.994,0.981,4.869,2.03l0.112,0.669
		c0.101,0.608,0.2,1.215,0.304,1.823c-0.103,0.592-0.202,1.186-0.302,1.779l-0.137,0.806c-0.98,1.242-2.88,2.073-4.846,2.073
		h-75.426c-2.174,0-3.897-0.937-4.793-1.949C370.49,812.445,370.331,811.547,370.169,810.646z M453.243,792.623
		c-0.786-0.054-1.577-0.081-2.374-0.081h-75.428c-0.795,0-1.586,0.027-2.366,0.078c3.983-27.499,5.988-55.133,5.961-82.239
		c-0.029-25.034-1.775-50.33-5.193-75.186c-1.09-7.927-2.391-16.073-3.869-24.217c0.266-1.83,2.766-3.432,5.466-3.432h75.426
		c2.889,0,5.253,1.746,5.497,3.297C445.452,670.636,444.406,731.754,453.243,792.623z"/>
	<path fill="#4D915F" d="M795.933,611.305c0-9.556-10.977-17.331-24.468-17.331h-75.428c-13.491,0-24.468,7.775-24.468,17.331
		c0,0.327,0.029,0.653,0.082,0.911c1.52,8.353,2.832,16.549,3.903,24.362c3.359,24.424,5.075,49.259,5.103,73.815
		c0.034,30.907-2.665,62.681-8.019,94.454c-0.709,1.665-1.069,3.354-1.069,5.026c0,0.322,0.029,0.643,0.076,0.885l-0.076,0.775
		c0,1.765,0.38,3.513,1.132,5.206c1.086,6.326,2.045,12.515,2.853,18.406c3.359,24.427,5.075,49.262,5.103,73.816
		c0.036,33.032-3.001,66.834-9.027,100.469l-0.061,0.67c0,9.555,10.977,17.329,24.468,17.329h75.428
		c7.256,0,14.075-2.252,18.705-6.179c3.715-3.151,5.754-7.196,5.742-11.389l-0.061-0.662
		c-11.57-64.337-11.905-129.182-0.995-192.732c0.704-1.675,1.059-3.413,1.056-5.173l0.021-1.422c0-1.719-0.358-3.419-1.063-5.063
		c-10.931-64.559-10.594-129.432,1-192.821L795.933,611.305z M771.461,1013.859h-75.426c-2.893,0-5.259-1.75-5.499-3.302
		c6.068-33.86,9.128-68.045,9.094-101.608c-0.027-25.034-1.773-50.331-5.191-75.188c-0.224-1.648-0.462-3.306-0.709-4.973
		c0.763,0.051,1.533,0.077,2.307,0.077h75.428c0.778,0,1.554-0.026,2.32-0.078c-8.772,59.959-7.715,121.007,3.157,181.571
		C776.729,1012.221,774.213,1013.859,771.461,1013.859z M690.764,810.646c0.099-0.566,0.19-1.133,0.285-1.699l0.133-0.791
		c0.422-0.542,1.042-1.013,1.818-1.382c0.909-0.432,1.959-0.661,3.036-0.661h75.424c2.248,0,3.996,0.981,4.869,2.03l0.112,0.669
		c0.101,0.608,0.202,1.215,0.306,1.823c-0.103,0.592-0.202,1.186-0.302,1.779l-0.137,0.806c-0.98,1.242-2.88,2.073-4.848,2.073
		h-75.426c-2.174,0-3.897-0.937-4.793-1.949C691.086,812.445,690.926,811.547,690.764,810.646z M773.838,792.623
		c-0.786-0.054-1.577-0.081-2.374-0.081h-75.428c-0.795,0-1.586,0.027-2.368,0.078c3.983-27.499,5.99-55.133,5.961-82.239
		c-0.027-25.034-1.773-50.33-5.191-75.186c-1.09-7.927-2.393-16.073-3.869-24.217c0.266-1.83,2.766-3.432,5.466-3.432h75.424
		c2.891,0,5.255,1.746,5.497,3.297C766.047,670.636,765.001,731.754,773.838,792.623z"/>
	<path fill="#4D915F" d="M475.337,142.251c0-9.556-10.977-17.331-24.468-17.331h-75.428c-13.491,0-24.468,7.775-24.468,17.331
		c0,0.327,0.03,0.653,0.084,0.911c1.518,8.353,2.83,16.549,3.901,24.362c3.359,24.424,5.077,49.259,5.103,73.814
		c0.034,30.907-2.663,62.681-8.017,94.454c-0.711,1.665-1.071,3.353-1.071,5.026c0,0.322,0.03,0.643,0.078,0.885l-0.078,0.775
		c0,1.765,0.38,3.513,1.132,5.206c1.086,6.326,2.045,12.515,2.853,18.406c3.359,24.427,5.077,49.262,5.103,73.816
		c0.036,33.032-3.001,66.834-9.027,100.469l-0.061,0.67c0,9.555,10.977,17.329,24.468,17.329h75.428
		c7.258,0,14.077-2.253,18.705-6.179c3.715-3.151,5.756-7.196,5.742-11.389l-0.059-0.662
		c-11.572-64.337-11.907-129.182-0.997-192.732c0.706-1.675,1.059-3.413,1.056-5.173l0.021-1.422c0-1.719-0.358-3.419-1.063-5.063
		c-10.931-64.559-10.594-129.432,1.002-192.821L475.337,142.251z M450.868,544.804h-75.426c-2.893,0-5.261-1.75-5.499-3.303
		c6.068-33.86,9.128-68.045,9.094-101.607c-0.029-25.034-1.775-50.331-5.193-75.188c-0.224-1.648-0.462-3.306-0.709-4.973
		c0.763,0.051,1.535,0.077,2.307,0.077h75.428c0.778,0,1.554-0.026,2.32-0.078c-8.772,59.959-7.715,121.007,3.157,181.571
		C456.134,543.166,453.62,544.804,450.868,544.804z M370.169,341.592c0.099-0.566,0.19-1.133,0.285-1.699l0.133-0.791
		c0.422-0.542,1.042-1.013,1.818-1.382c0.909-0.432,1.959-0.66,3.036-0.66h75.426c2.248,0,3.994,0.981,4.869,2.03l0.112,0.669
		c0.101,0.608,0.2,1.215,0.304,1.823c-0.103,0.592-0.202,1.186-0.302,1.779l-0.137,0.806c-0.98,1.242-2.88,2.072-4.846,2.072
		h-75.426c-2.174,0-3.897-0.936-4.793-1.949C370.49,343.391,370.331,342.492,370.169,341.592z M453.243,323.568
		c-0.786-0.054-1.577-0.081-2.374-0.081h-75.428c-0.795,0-1.586,0.026-2.366,0.078c3.983-27.499,5.988-55.133,5.961-82.239
		c-0.029-25.034-1.775-50.33-5.193-75.186c-1.09-7.927-2.391-16.073-3.869-24.217c0.266-1.83,2.766-3.432,5.466-3.432h75.426
		c2.889,0,5.253,1.746,5.497,3.297C445.452,201.581,444.406,262.7,453.243,323.568z"/>
	<path fill="#4D915F" d="M795.933,142.251c0-9.556-10.977-17.331-24.468-17.331h-75.428c-13.491,0-24.468,7.775-24.468,17.331
		c0,0.327,0.029,0.653,0.082,0.911c1.52,8.353,2.832,16.549,3.903,24.362c3.359,24.424,5.075,49.259,5.103,73.814
		c0.034,30.907-2.665,62.681-8.019,94.454c-0.709,1.665-1.069,3.353-1.069,5.026c0,0.322,0.029,0.643,0.076,0.885l-0.076,0.775
		c0,1.765,0.38,3.513,1.132,5.206c1.086,6.326,2.045,12.515,2.853,18.406c3.359,24.427,5.075,49.262,5.103,73.816
		c0.036,33.032-3.001,66.834-9.027,100.469l-0.061,0.67c0,9.555,10.977,17.329,24.468,17.329h75.428
		c7.256,0,14.075-2.253,18.705-6.179c3.715-3.151,5.754-7.196,5.742-11.389l-0.061-0.662
		c-11.57-64.337-11.905-129.182-0.995-192.732c0.704-1.675,1.059-3.413,1.056-5.173l0.021-1.422c0-1.719-0.358-3.419-1.063-5.063
		c-10.931-64.559-10.594-129.432,1-192.821L795.933,142.251z M771.461,544.804h-75.426c-2.893,0-5.259-1.75-5.499-3.303
		c6.068-33.86,9.128-68.045,9.094-101.607c-0.027-25.034-1.773-50.331-5.191-75.188c-0.224-1.648-0.462-3.306-0.709-4.973
		c0.763,0.051,1.533,0.077,2.307,0.077h75.428c0.778,0,1.554-0.026,2.32-0.078c-8.772,59.959-7.715,121.007,3.157,181.571
		C776.729,543.166,774.213,544.804,771.461,544.804z M690.764,341.592c0.099-0.566,0.19-1.133,0.285-1.699l0.133-0.791
		c0.422-0.542,1.042-1.013,1.818-1.382c0.909-0.432,1.959-0.66,3.036-0.66h75.424c2.248,0,3.996,0.981,4.869,2.03l0.112,0.669
		c0.101,0.608,0.202,1.215,0.306,1.823c-0.103,0.592-0.202,1.186-0.302,1.779l-0.137,0.806c-0.98,1.242-2.88,2.072-4.848,2.072
		h-75.426c-2.174,0-3.897-0.936-4.793-1.949C691.086,343.391,690.926,342.492,690.764,341.592z M773.838,323.568
		c-0.786-0.054-1.577-0.081-2.374-0.081h-75.428c-0.795,0-1.586,0.026-2.368,0.078c3.983-27.499,5.99-55.133,5.961-82.239
		c-0.027-25.034-1.773-50.33-5.191-75.186c-1.09-7.927-2.393-16.073-3.869-24.217c0.266-1.83,2.766-3.432,5.466-3.432h75.424
		c2.891,0,5.255,1.746,5.497,3.297C766.047,201.581,765.001,262.7,773.838,323.568z"/>
	<path fill="#CC403A" d="M642.813,384.374c0-9.556-10.977-17.33-24.47-17.33h-75.426c-13.493,0-24.468,7.774-24.468,17.33
		c0,0.327,0.029,0.653,0.082,0.911c1.52,8.353,2.83,16.549,3.903,24.362c3.357,24.424,5.075,49.259,5.103,73.814
		c0.034,30.908-2.665,62.681-8.019,94.455c-0.711,1.665-1.069,3.353-1.069,5.026c0,0.321,0.029,0.643,0.076,0.885l-0.076,0.774
		c0,1.765,0.38,3.513,1.13,5.206c1.086,6.325,2.047,12.514,2.855,18.406c3.357,24.427,5.075,49.262,5.103,73.817
		c0.034,33.031-3.001,66.834-9.029,100.469l-0.059,0.671c0,9.555,10.975,17.329,24.468,17.329h75.426
		c7.258,0,14.077-2.253,18.707-6.179c3.713-3.151,5.754-7.196,5.74-11.388l-0.059-0.662
		c-11.572-64.337-11.905-129.182-0.995-192.732c0.704-1.675,1.058-3.413,1.054-5.173l0.023-1.422c0-1.719-0.359-3.42-1.065-5.063
		c-10.929-64.559-10.593-129.432,1.002-192.821L642.813,384.374z M618.341,786.927h-75.426c-2.893,0-5.259-1.749-5.499-3.302
		c6.068-33.86,9.128-68.045,9.094-101.607c-0.029-25.034-1.775-50.331-5.191-75.189c-0.224-1.648-0.462-3.306-0.711-4.973
		c0.765,0.051,1.535,0.077,2.309,0.077h75.426c0.78,0,1.554-0.026,2.322-0.078c-8.772,59.959-7.715,121.008,3.157,181.571
		C623.61,785.289,621.094,786.927,618.341,786.927z M537.645,583.715c0.097-0.566,0.19-1.132,0.285-1.699l0.131-0.791
		c0.424-0.542,1.042-1.013,1.82-1.382c0.909-0.432,1.959-0.661,3.036-0.661h75.424c2.248,0,3.996,0.981,4.869,2.03l0.112,0.669
		c0.101,0.608,0.202,1.215,0.306,1.823c-0.103,0.592-0.203,1.186-0.302,1.779l-0.139,0.806c-0.978,1.242-2.878,2.073-4.846,2.073
		h-75.426c-2.174,0-3.897-0.937-4.793-1.949C537.966,585.513,537.805,584.615,537.645,583.715z M620.719,565.692
		c-0.786-0.054-1.577-0.081-2.376-0.081h-75.426c-0.797,0-1.588,0.026-2.368,0.078c3.983-27.499,5.988-55.133,5.961-82.239
		c-0.029-25.034-1.775-50.33-5.191-75.186c-1.092-7.927-2.393-16.073-3.869-24.217c0.266-1.83,2.764-3.432,5.466-3.432h75.424
		c2.889,0,5.255,1.746,5.497,3.297C612.928,443.704,611.88,504.823,620.719,565.692z"/>
</g>
</svg>
